<svg width="500" height="500" viewBox="0 0 500 500" fill="none" xmlns="http://www.w3.org/2000/svg">
<path d="M18 8.99997C18 13.9706 13.9706 18 9 18C4.0294 18 0 13.9706 0 8.99997C0 4.02939 4.0294 0 9 0C13.9706 0 18 4.02939 18 8.99997ZM10.9527 13.6354C10.9393 13.7691 11.0196 13.836 11.1533 13.836H12.8787C13.0124 13.836 13.0793 13.7691 13.0793 13.6354V10.2516C13.0793 10.1179 12.9991 10.0511 12.8787 10.0511H10.8858C10.7654 10.0511 10.6852 10.1179 10.6852 10.2516V10.479C10.6852 10.479 10.4177 11.7228 8.87966 11.7228C8.30452 11.7228 7.91662 11.4152 7.91662 11.014C7.91662 9.83699 12.892 10.3452 12.892 7.0818C12.892 5.36985 11.6482 4.15277 9.62857 4.15277C8.51854 4.15277 7.78292 4.48718 7.31482 4.95523L7.36831 4.43364C7.38166 4.29988 7.3014 4.23298 7.16765 4.23298H5.44233C5.30858 4.23298 5.24173 4.29988 5.24173 4.43364V7.81741C5.24173 7.95116 5.32194 8.01806 5.44233 8.01806H7.43515C7.55555 8.01806 7.63575 7.95116 7.63575 7.81741V7.60345C7.63575 7.06844 8.13063 6.41309 9.26751 6.41309C9.86936 6.41309 10.2171 6.66718 10.2171 7.0818C10.2171 8.53966 4.92074 7.80405 4.92074 11.0942C4.92074 12.4985 5.87031 13.9296 8.2109 13.9296C9.9897 13.9296 10.9527 12.98 10.9795 12.98L10.9527 13.6354Z" fill="#101010"/>
</svg>
