<?xml version="1.0" standalone="no"?>
<!DOCTYPE svg PUBLIC "-//W3C//DTD SVG 20010904//EN"
 "http://www.w3.org/TR/2001/REC-SVG-20010904/DTD/svg10.dtd">
<svg version="1.0" xmlns="http://www.w3.org/2000/svg"
 width="512.000000pt" height="512.000000pt" viewBox="0 0 512.000000 512.000000"
 preserveAspectRatio="xMidYMid meet">
<metadata>
Created by potrace 1.11, written by Peter Selinger 2001-2013
</metadata>
<g transform="translate(0.000000,512.000000) scale(0.100000,-0.100000)"
fill="#000000" stroke="none">
<path d="M2135 4455 c-169 -27 -235 -44 -365 -92 -602 -224 -1062 -767 -1195
-1410 -33 -158 -35 -181 -41 -378 -4 -184 7 -334 37 -462 6 -27 13 -58 15 -69
22 -116 102 -326 175 -463 277 -517 760 -877 1312 -977 98 -18 390 -25 502
-12 239 27 481 113 718 255 l57 34 0 885 0 884 -339 0 -340 0 -3 -97 c-2 -54
-2 -110 0 -125 l3 -28 212 -2 212 -3 0 -683 c0 -376 -2 -688 -5 -692 -9 -15
-169 -87 -255 -115 -162 -53 -256 -68 -445 -69 -96 -1 -202 3 -235 7 -65 9
-274 61 -302 76 -10 5 -47 21 -83 37 -85 38 -217 112 -227 127 -4 7 -8 657 -9
1446 l0 1433 45 30 c68 43 235 122 322 152 166 56 265 71 474 71 198 -1 282
-13 445 -66 366 -119 682 -384 905 -759 5 -8 10 -39 11 -70 1 -30 3 -63 3 -72
1 -15 16 -17 131 -16 86 1 130 5 131 12 2 19 -8 1120 -10 1163 -1 9 -35 12
-126 12 -109 -1 -125 -3 -126 -17 0 -10 -1 -142 -1 -294 -1 -153 -2 -278 -4
-278 -2 0 -41 39 -86 86 -200 209 -463 376 -725 464 -103 34 -161 48 -313 76
-69 12 -394 12 -475 -1z m-857 -1937 l0 -1223 -50 54 c-191 208 -345 511 -404
796 -40 196 -49 485 -20 640 2 11 7 41 10 66 9 70 63 252 101 344 59 144 145
291 240 415 40 51 112 130 119 130 2 0 4 -550 4 -1222z"/>
<path d="M3739 2643 c-1 -11 -1 -1973 0 -1995 1 -17 24 -18 341 -18 l340 0 0
125 0 125 -107 1 c-60 0 -156 0 -214 -1 l-107 -1 0 760 0 761 214 0 214 0 0
125 0 125 -340 0 c-187 0 -340 -3 -341 -7z"/>
</g>
</svg>
