<svg xmlns="http://www.w3.org/2000/svg" width="920" height="216" fill="none" focusable="false" viewBox="0 0 920 216"><g clip-path="url(#clip0)"><path fill="#fff" d="M0 0h920v216H0z"/><path stroke="#E60C75" stroke-opacity=".2" stroke-width="4" d="M873.001 51h-873"/><path stroke="#E60C75" stroke-width="4" d="M553.001 118.909s13.009 2.122 25.517-14.148c4.954-6.443 12.382-29.848 22.515-43.15C608.037 52.415 620.545 51 630.552 51H1001"/><circle cx="663.001" cy="51" r="19" fill="#E60C75" stroke="#fff" stroke-width="4"/><path fill="#E60C75" d="M667.525 12.354h-5.44v3.261h5.282v1.925h-5.282v4.535h5.44V24h-7.488V10.43h7.488v1.925zM23.297 30.285V37h-1.986v-6.715h-.703V28.44h.703v-3.304c0-1.078.187-1.84.562-2.285.516-.622 1.266-.932 2.25-.932.352 0 .794.102 1.327.308v2.021l-.202-.105c-.428-.217-.78-.326-1.055-.326-.351 0-.588.126-.711.378-.123.246-.185.721-.185 1.424v2.822h2.153v1.845h-2.153zm11.373 2.9h-6.135c.053.704.282 1.263.686 1.68.404.41.923.614 1.556.614.492 0 .899-.117 1.221-.351.317-.234.677-.668 1.081-1.3l1.67.93a6.81 6.81 0 01-.817 1.135 4.53 4.53 0 01-.923.773 3.76 3.76 0 01-1.064.44 5.18 5.18 0 01-1.239.14c-1.277 0-2.302-.41-3.076-1.23-.773-.826-1.16-1.922-1.16-3.288 0-1.353.375-2.449 1.125-3.287.756-.826 1.758-1.239 3.006-1.239 1.26 0 2.256.401 2.988 1.204.727.797 1.09 1.902 1.09 3.314l-.009.465zm-2.03-1.617c-.276-1.054-.94-1.582-1.995-1.582-.24 0-.466.038-.677.115-.211.07-.404.175-.58.316-.17.135-.317.299-.44.492a2.307 2.307 0 00-.28.66h3.972zm10.512-3.129h1.986V37h-1.986v-.897c-.815.762-1.69 1.143-2.628 1.143-1.184 0-2.163-.428-2.936-1.283-.767-.873-1.151-1.963-1.151-3.27 0-1.283.384-2.352 1.151-3.208.768-.855 1.729-1.283 2.883-1.283.996 0 1.89.41 2.68 1.23v-.992zm-4.694 4.254c0 .82.22 1.489.66 2.004.45.522 1.019.782 1.704.782.733 0 1.325-.252 1.776-.755.451-.522.677-1.184.677-1.987 0-.802-.226-1.465-.677-1.986-.451-.51-1.037-.765-1.758-.765-.68 0-1.248.258-1.705.774-.451.521-.677 1.166-.677 1.933zm11.215-2.408V37h-1.977v-6.715h-.844V28.44h.844v-3.137h1.977v3.137h1.538v1.846h-1.538zm9.264-8.28l1.635.722-7.77 17.982-1.617-.73 7.752-17.973zm2.953.15h1.977v6.996c.703-.632 1.48-.949 2.33-.949.966 0 1.74.314 2.32.94.492.546.738 1.416.738 2.61V37h-1.977v-5.063c0-.685-.124-1.18-.37-1.485-.24-.31-.63-.466-1.169-.466-.691 0-1.177.214-1.459.642-.275.433-.413 1.178-.413 2.232V37H61.89V22.155zm17.675 11.03H73.43c.053.704.281 1.263.685 1.68.405.41.923.614 1.556.614.492 0 .9-.117 1.222-.351.316-.234.677-.668 1.08-1.3l1.67.93a6.81 6.81 0 01-.817 1.135c-.287.31-.594.568-.922.773-.329.2-.683.346-1.064.44-.38.093-.794.14-1.24.14-1.277 0-2.302-.41-3.075-1.23-.774-.826-1.16-1.922-1.16-3.288 0-1.353.374-2.449 1.124-3.287.756-.826 1.758-1.239 3.006-1.239 1.26 0 2.256.401 2.989 1.204.726.797 1.09 1.902 1.09 3.314l-.01.465zm-2.03-1.617c-.276-1.054-.941-1.582-1.996-1.582-.24 0-.466.038-.677.115-.21.07-.404.175-.58.316a1.98 1.98 0 00-.439.492 2.307 2.307 0 00-.281.66h3.972zm10.511-3.129h1.986V37h-1.986v-.897c-.814.762-1.69 1.143-2.628 1.143-1.183 0-2.162-.428-2.935-1.283-.768-.873-1.152-1.963-1.152-3.27 0-1.283.384-2.352 1.152-3.208.767-.855 1.728-1.283 2.882-1.283.997 0 1.89.41 2.681 1.23v-.992zm-4.693 4.254c0 .82.22 1.489.659 2.004.451.522 1.02.782 1.705.782.732 0 1.324-.252 1.775-.755.451-.522.677-1.184.677-1.987 0-.802-.225-1.465-.677-1.986-.45-.51-1.037-.765-1.757-.765-.68 0-1.248.258-1.706.774-.45.521-.676 1.166-.676 1.933zm15.486-10.538h1.986V37h-1.986v-.897c-.78.762-1.661 1.143-2.645 1.143-1.172 0-2.145-.428-2.918-1.283-.768-.873-1.152-1.963-1.152-3.27 0-1.277.384-2.343 1.152-3.199.761-.861 1.72-1.292 2.874-1.292 1.002 0 1.898.41 2.69 1.23v-7.277zm-4.693 10.538c0 .82.22 1.489.659 2.004.451.522 1.02.782 1.705.782.732 0 1.324-.252 1.775-.755.452-.522.677-1.184.677-1.987 0-.802-.225-1.465-.677-1.986-.45-.51-1.037-.765-1.757-.765-.68 0-1.249.258-1.706.774-.45.521-.676 1.166-.676 1.933zm11.153-10.538V37h-1.978V22.155h1.978zm10.301 11.03h-6.135c.053.704.281 1.263.686 1.68.404.41.922.614 1.555.614.492 0 .9-.117 1.222-.351.316-.234.677-.668 1.081-1.3l1.67.93c-.258.44-.53.818-.817 1.135-.288.31-.595.568-.923.773a3.76 3.76 0 01-1.064.44 5.18 5.18 0 01-1.239.14c-1.277 0-2.303-.41-3.076-1.23-.774-.826-1.16-1.922-1.16-3.288 0-1.353.375-2.449 1.125-3.287.755-.826 1.757-1.239 3.005-1.239 1.26 0 2.256.401 2.989 1.204.726.797 1.09 1.902 1.09 3.314l-.009.465zm-2.03-1.617c-.276-1.054-.941-1.582-1.996-1.582-.24 0-.465.038-.676.115-.211.07-.405.175-.58.316-.17.135-.317.299-.44.492a2.295 2.295 0 00-.281.66h3.973zm9.175-1.67l-1.634.87c-.258-.527-.578-.79-.958-.79a.65.65 0 00-.466.184.59.59 0 00-.194.457c0 .328.381.654 1.143.976 1.049.45 1.755.867 2.118 1.248.363.38.545.893.545 1.538 0 .826-.305 1.517-.914 2.074-.592.527-1.307.791-2.145.791-1.435 0-2.452-.7-3.049-2.1l1.687-.783c.234.41.413.671.536.782.24.223.528.334.862.334.668 0 1.002-.304 1.002-.914 0-.351-.258-.68-.774-.984-.199-.1-.398-.196-.598-.29-.199-.094-.401-.19-.606-.29-.574-.281-.979-.563-1.213-.844-.299-.357-.448-.817-.448-1.38 0-.744.255-1.359.765-1.845.521-.487 1.154-.73 1.898-.73 1.096 0 1.91.566 2.443 1.696zm7.313 0l-1.635.87c-.258-.527-.577-.79-.958-.79a.65.65 0 00-.466.184.588.588 0 00-.193.457c0 .328.381.654 1.142.976 1.049.45 1.755.867 2.119 1.248.363.38.545.893.545 1.538 0 .826-.305 1.517-.915 2.074-.591.527-1.306.791-2.144.791-1.436 0-2.452-.7-3.05-2.1l1.688-.783c.234.41.413.671.536.782.24.223.527.334.861.334.668 0 1.002-.304 1.002-.914 0-.351-.258-.68-.773-.984-.2-.1-.399-.196-.598-.29a65.41 65.41 0 01-.607-.29c-.574-.281-.978-.563-1.212-.844-.299-.357-.449-.817-.449-1.38 0-.744.255-1.359.765-1.845.521-.487 1.154-.73 1.898-.73 1.096 0 1.911.566 2.444 1.696zm1.09 1.89h3.92v1.723h-3.92v-1.723zm11.83-2.98v2.628c-.451-.55-.856-.928-1.213-1.133-.352-.211-.765-.317-1.239-.317-.745 0-1.363.261-1.855.783-.492.521-.738 1.174-.738 1.96 0 .802.237 1.461.712 1.977.48.516 1.092.773 1.837.773a2.51 2.51 0 001.256-.307c.352-.2.765-.586 1.24-1.16v2.61c-.803.416-1.606.624-2.408.624-1.325 0-2.432-.428-3.323-1.283-.89-.861-1.336-1.93-1.336-3.208 0-1.278.451-2.356 1.354-3.235.902-.878 2.01-1.318 3.322-1.318.844 0 1.641.202 2.391.607zm1.916-.369h1.977v.791c.381-.398.706-.668.976-.808.287-.147.647-.22 1.081-.22.967 0 1.731.422 2.294 1.266.621-.844 1.462-1.266 2.522-1.266 1.928 0 2.892 1.17 2.892 3.507V37h-1.986v-4.755c0-.82-.1-1.4-.299-1.74-.205-.346-.542-.519-1.011-.519-.545 0-.943.205-1.195.616-.246.41-.369 1.069-.369 1.977V37h-1.987v-4.728c0-1.524-.439-2.286-1.318-2.286-.557 0-.964.208-1.222.624-.252.416-.378 1.073-.378 1.97V37h-1.977v-8.56zm19.213 1.46l-1.635.87c-.258-.528-.577-.791-.958-.791a.65.65 0 00-.466.184.588.588 0 00-.193.457c0 .328.381.654 1.142.976 1.049.45 1.755.867 2.118 1.248.364.38.545.893.545 1.538 0 .826-.304 1.517-.914 2.074-.592.527-1.306.791-2.144.791-1.436 0-2.452-.7-3.05-2.1l1.687-.783c.235.41.414.671.537.782.24.223.527.334.861.334.668 0 1.002-.304 1.002-.914 0-.351-.258-.68-.774-.984-.199-.1-.398-.196-.597-.29a53.35 53.35 0 01-.607-.29c-.574-.281-.978-.563-1.213-.844-.298-.357-.448-.817-.448-1.38 0-.744.255-1.359.765-1.845.521-.487 1.154-.73 1.898-.73 1.096 0 1.91.566 2.444 1.696zm1.089 1.89h3.92v1.722h-3.92v-1.723zm7.146 9.87h-1.978v-13.22h1.978v.932c.779-.78 1.664-1.169 2.654-1.169 1.178 0 2.148.434 2.909 1.3.774.862 1.161 1.95 1.161 3.262 0 1.283-.384 2.352-1.152 3.208-.761.85-1.722 1.274-2.883 1.274-1.002 0-1.898-.401-2.689-1.204v5.616zm4.702-8.886c0-.82-.223-1.489-.668-2.004a2.158 2.158 0 00-1.705-.783c-.726 0-1.315.252-1.767.756-.451.504-.676 1.166-.676 1.986 0 .803.225 1.465.676 1.987.446.51 1.032.764 1.758.764.686 0 1.251-.257 1.697-.773.457-.516.685-1.16.685-1.934zm6.311-2.488V37h-1.978v-6.715h-.844V28.44h.844v-3.137h1.978v3.137h1.538v1.846h-1.538zm6.143 4.79h5.054V37h-9.114l4.711-5.704c.463-.569.849-1.06 1.16-1.477.316-.416.556-.764.72-1.046.334-.55.501-1.046.501-1.485 0-.633-.222-1.163-.668-1.59-.445-.428-.996-.642-1.652-.642-1.371 0-2.156.811-2.355 2.434h-2.039c.328-2.86 1.772-4.289 4.333-4.289 1.236 0 2.273.393 3.111 1.178.844.785 1.266 1.758 1.266 2.918 0 .738-.197 1.462-.589 2.17-.2.37-.492.81-.879 1.32a42.38 42.38 0 01-1.45 1.792l-2.11 2.496z"/><path stroke="#FB8400" stroke-opacity=".2" stroke-width="4" d="M873.001 119h-873"/><path stroke="#FB8400" stroke-width="4" d="M159.001 186.909s13.009 2.122 25.517-14.148c4.954-6.443 12.382-29.848 22.515-43.15 7.004-9.196 19.512-10.611 29.519-10.611h683.449"/><path fill="#B35F00" d="M23.297 98.285V105h-1.986v-6.715h-.703V96.44h.703v-3.304c0-1.078.187-1.84.562-2.285.516-.621 1.266-.932 2.25-.932.352 0 .794.102 1.327.308v2.021l-.202-.105c-.428-.217-.78-.326-1.055-.326-.351 0-.588.126-.711.378-.123.246-.185.721-.185 1.424v2.822h2.153v1.845h-2.153zm11.373 2.901h-6.135c.053.703.282 1.262.686 1.678.404.41.923.615 1.556.615.492 0 .899-.117 1.221-.351.317-.234.677-.668 1.081-1.301l1.67.932a6.87 6.87 0 01-.817 1.134 4.54 4.54 0 01-.923.773 3.759 3.759 0 01-1.064.439c-.38.094-.793.141-1.239.141-1.277 0-2.302-.41-3.076-1.23-.773-.827-1.16-1.922-1.16-3.287 0-1.354.375-2.45 1.125-3.288.756-.826 1.758-1.239 3.006-1.239 1.26 0 2.256.401 2.988 1.204.727.797 1.09 1.902 1.09 3.314l-.009.466zm-2.03-1.618c-.276-1.054-.94-1.582-1.995-1.582-.24 0-.466.038-.677.115-.211.07-.404.175-.58.316-.17.135-.317.299-.44.492a2.307 2.307 0 00-.28.66h3.972zm10.512-3.129h1.986V105h-1.986v-.896c-.815.761-1.69 1.142-2.628 1.142-1.184 0-2.163-.428-2.936-1.283-.767-.873-1.151-1.963-1.151-3.27 0-1.283.384-2.352 1.151-3.208.768-.855 1.729-1.283 2.883-1.283.996 0 1.89.41 2.68 1.23v-.993zm-4.694 4.254c0 .821.22 1.489.66 2.004.45.522 1.019.782 1.704.782.733 0 1.325-.251 1.776-.755.451-.522.677-1.184.677-1.987 0-.802-.226-1.465-.677-1.986-.451-.51-1.037-.765-1.758-.765-.68 0-1.248.258-1.705.774-.451.521-.677 1.166-.677 1.933zm11.215-2.408V105h-1.977v-6.715h-.844V96.44h.844v-3.137h1.977v3.137h1.538v1.846h-1.538zm9.264-8.28l1.635.722-7.77 17.982-1.617-.73 7.752-17.973zm2.953.15h1.977v6.996c.703-.632 1.48-.949 2.33-.949.966 0 1.74.314 2.32.94.492.546.738 1.416.738 2.61V105h-1.977v-5.063c0-.685-.124-1.18-.37-1.485-.24-.31-.63-.466-1.169-.466-.691 0-1.177.214-1.459.642-.275.433-.413 1.178-.413 2.232V105H61.89V90.155zm17.675 11.031H73.43c.053.703.281 1.262.685 1.678.405.41.923.615 1.556.615.492 0 .9-.117 1.222-.351.316-.234.677-.668 1.08-1.301l1.67.932c-.257.439-.53.817-.817 1.134-.287.31-.594.568-.922.773a3.757 3.757 0 01-1.064.439 5.16 5.16 0 01-1.24.141c-1.277 0-2.302-.41-3.075-1.23-.774-.827-1.16-1.922-1.16-3.287 0-1.354.374-2.45 1.124-3.288.756-.826 1.758-1.239 3.006-1.239 1.26 0 2.256.401 2.989 1.204.726.797 1.09 1.902 1.09 3.314l-.01.466zm-2.03-1.618c-.276-1.054-.941-1.582-1.996-1.582-.24 0-.466.038-.677.115-.21.07-.404.175-.58.316a1.98 1.98 0 00-.439.492 2.307 2.307 0 00-.281.66h3.972zm10.511-3.129h1.986V105h-1.986v-.896c-.814.761-1.69 1.142-2.628 1.142-1.183 0-2.162-.428-2.935-1.283-.768-.873-1.152-1.963-1.152-3.27 0-1.283.384-2.352 1.152-3.208.767-.855 1.728-1.283 2.882-1.283.997 0 1.89.41 2.681 1.23v-.993zm-4.693 4.254c0 .821.22 1.489.659 2.004.451.522 1.02.782 1.705.782.732 0 1.324-.251 1.775-.755.451-.522.677-1.184.677-1.987 0-.802-.225-1.465-.677-1.986-.45-.51-1.037-.765-1.757-.765-.68 0-1.248.258-1.706.774-.45.521-.676 1.166-.676 1.933zm15.486-10.538h1.986V105h-1.986v-.896c-.78.761-1.661 1.142-2.645 1.142-1.172 0-2.145-.428-2.918-1.283-.768-.873-1.152-1.963-1.152-3.27 0-1.277.384-2.343 1.152-3.199.761-.861 1.72-1.292 2.874-1.292 1.002 0 1.898.41 2.69 1.23v-7.277zm-4.693 10.538c0 .821.22 1.489.659 2.004.451.522 1.02.782 1.705.782.732 0 1.324-.251 1.775-.755.452-.522.677-1.184.677-1.987 0-.802-.225-1.465-.677-1.986-.45-.51-1.037-.765-1.757-.765-.68 0-1.249.258-1.706.774-.45.521-.676 1.166-.676 1.933zm11.153-10.538V105h-1.978V90.155h1.978zm10.301 11.031h-6.135c.053.703.281 1.262.686 1.678.404.41.922.615 1.555.615.492 0 .9-.117 1.222-.351.316-.234.677-.668 1.081-1.301l1.67.932a6.87 6.87 0 01-.817 1.134c-.288.31-.595.568-.923.773a3.758 3.758 0 01-1.064.439 5.164 5.164 0 01-1.239.141c-1.277 0-2.303-.41-3.076-1.23-.774-.827-1.16-1.922-1.16-3.287 0-1.354.375-2.45 1.125-3.288.755-.826 1.757-1.239 3.005-1.239 1.26 0 2.256.401 2.989 1.204.726.797 1.09 1.902 1.09 3.314l-.009.466zm-2.03-1.618c-.276-1.054-.941-1.582-1.996-1.582-.24 0-.465.038-.676.115-.211.07-.405.175-.58.316-.17.135-.317.299-.44.492a2.295 2.295 0 00-.281.66h3.973zm9.175-1.67l-1.634.87c-.258-.527-.578-.79-.958-.79a.65.65 0 00-.466.184.59.59 0 00-.194.457c0 .328.381.653 1.143.976 1.049.451 1.755.867 2.118 1.248s.545.893.545 1.538c0 .826-.305 1.517-.914 2.074-.592.527-1.307.791-2.145.791-1.435 0-2.452-.7-3.049-2.1l1.687-.783c.234.41.413.671.536.783.24.222.528.333.862.333.668 0 1.002-.304 1.002-.914 0-.351-.258-.679-.774-.984-.199-.1-.398-.196-.598-.29-.199-.094-.401-.19-.606-.29-.574-.281-.979-.563-1.213-.844-.299-.357-.448-.817-.448-1.38 0-.744.255-1.359.765-1.845.521-.487 1.154-.73 1.898-.73 1.096 0 1.91.566 2.443 1.696zm7.313 0l-1.635.87c-.258-.527-.577-.79-.958-.79a.65.65 0 00-.466.184.588.588 0 00-.193.457c0 .328.381.653 1.142.976 1.049.451 1.755.867 2.119 1.248.363.381.545.893.545 1.538 0 .826-.305 1.517-.915 2.074-.591.527-1.306.791-2.144.791-1.436 0-2.452-.7-3.05-2.1l1.688-.783c.234.41.413.671.536.783.24.222.527.333.861.333.668 0 1.002-.304 1.002-.914 0-.351-.258-.679-.773-.984-.2-.1-.399-.196-.598-.29-.199-.094-.401-.19-.607-.29-.574-.281-.978-.563-1.212-.844-.299-.357-.449-.817-.449-1.38 0-.744.255-1.359.765-1.845.521-.487 1.154-.73 1.898-.73 1.096 0 1.911.566 2.444 1.696zm1.09 1.89h3.92v1.723h-3.92v-1.723zm11.83-2.98v2.628c-.451-.55-.856-.928-1.213-1.133-.352-.211-.765-.317-1.239-.317-.745 0-1.363.261-1.855.783-.492.521-.738 1.174-.738 1.96 0 .802.237 1.461.712 1.977.48.516 1.092.773 1.837.773a2.51 2.51 0 001.256-.307c.352-.199.765-.586 1.24-1.16v2.61c-.803.416-1.606.624-2.408.624-1.325 0-2.432-.428-3.323-1.283-.89-.861-1.336-1.931-1.336-3.208 0-1.277.451-2.356 1.354-3.234.902-.88 2.01-1.319 3.322-1.319.844 0 1.641.202 2.391.607zm1.916-.369h1.977v.792c.381-.399.706-.668.976-.81.287-.146.647-.219 1.081-.219.967 0 1.731.422 2.294 1.266.621-.844 1.462-1.266 2.522-1.266 1.928 0 2.892 1.17 2.892 3.507V105h-1.986v-4.755c0-.82-.1-1.4-.299-1.74-.205-.346-.542-.519-1.011-.519-.545 0-.943.205-1.195.616-.246.41-.369 1.069-.369 1.977V105h-1.987v-4.729c0-1.523-.439-2.285-1.318-2.285-.557 0-.964.208-1.222.624-.252.416-.378 1.073-.378 1.969V105h-1.977v-8.56zm19.213 1.46l-1.635.87c-.258-.528-.577-.791-.958-.791a.65.65 0 00-.466.184.588.588 0 00-.193.457c0 .328.381.653 1.142.976 1.049.451 1.755.867 2.118 1.248.364.381.545.893.545 1.538 0 .826-.304 1.517-.914 2.074-.592.527-1.306.791-2.144.791-1.436 0-2.452-.7-3.05-2.1l1.687-.783c.235.41.414.671.537.783.24.222.527.333.861.333.668 0 1.002-.304 1.002-.914 0-.351-.258-.679-.774-.984-.199-.1-.398-.196-.597-.29a53.35 53.35 0 01-.607-.29c-.574-.281-.978-.563-1.213-.844-.298-.357-.448-.817-.448-1.38 0-.744.255-1.359.765-1.845.521-.487 1.154-.73 1.898-.73 1.096 0 1.91.566 2.444 1.696z"/><circle cx="286" cy="119" r="19" fill="#FB8400" stroke="#fff" stroke-width="4"/><circle cx="362" cy="119" r="19" fill="#FB8400" stroke="#fff" stroke-width="4"/><path fill="#B35F00" d="M288.596 88.704h-5.809L281.275 92h-2.206l6.715-14.423L292.262 92h-2.242l-1.424-3.296zm-.834-1.925l-2.013-4.614-2.11 4.614h4.123zM358.625 92V78.43h2.039c.908 0 1.632.07 2.171.21a3.267 3.267 0 011.38.713c.381.345.682.776.905 1.291.228.522.343 1.05.343 1.583 0 .972-.372 1.795-1.117 2.47a3.28 3.28 0 011.706 1.291c.421.61.632 1.319.632 2.127 0 1.06-.375 1.957-1.125 2.69a3.693 3.693 0 01-1.52.94c-.615.17-1.386.255-2.312.255h-3.102zm2.048-7.743h.641c.762 0 1.319-.167 1.67-.501.358-.34.536-.838.536-1.494 0-.639-.181-1.122-.545-1.45-.363-.334-.89-.501-1.582-.501h-.72v3.946zm0 5.818h1.265c.926 0 1.606-.181 2.039-.545.457-.392.686-.89.686-1.494 0-.586-.22-1.078-.659-1.476-.428-.393-1.193-.59-2.294-.59h-1.037v4.105z"/><circle cx="438" cy="118" r="19" fill="#FB8400" stroke="#fff" stroke-width="4"/><path fill="#B35F00" d="M432.626 91V77.43h2.848c1.365 0 2.443.134 3.234.404a6.06 6.06 0 012.312 1.345c1.4 1.277 2.1 2.956 2.1 5.036 0 2.086-.729 3.773-2.188 5.062-.733.645-1.5 1.093-2.303 1.345-.75.252-1.814.378-3.191.378h-2.812zm2.048-1.925h.923c.92 0 1.684-.097 2.294-.29a4.657 4.657 0 001.652-.975c1.008-.92 1.512-2.119 1.512-3.595 0-1.488-.498-2.696-1.494-3.621-.897-.826-2.218-1.24-3.964-1.24h-.923v9.721z"/><circle cx="514" cy="118" r="19" fill="#FB8400" stroke="#fff" stroke-width="4"/><path fill="#B35F00" d="M506.494 91l2.857-14.59 4.658 10.547 4.825-10.547L521.4 91h-2.1l-1.31-8.191-4.016 8.815-3.903-8.824-1.459 8.2h-2.118z"/><path stroke="#B7B5BD" stroke-width="4" d="M0 187h920"/><circle cx="123.001" cy="187" r="19" fill="#B7B5BD" stroke="#fff" stroke-width="4"/><path fill="#78757A" d="M26.224 169.898l-1.635.871c-.258-.528-.577-.791-.958-.791a.65.65 0 00-.466.184.59.59 0 00-.193.457c0 .328.38.653 1.142.976 1.05.451 1.755.867 2.119 1.248.363.381.544.893.544 1.538 0 .826-.304 1.517-.914 2.074-.591.527-1.306.791-2.144.791-1.436 0-2.452-.7-3.05-2.1l1.688-.783c.234.41.413.671.536.783.24.222.527.333.861.333.668 0 1.002-.304 1.002-.914 0-.351-.258-.679-.773-.984-.2-.1-.399-.196-.598-.29-.2-.094-.401-.19-.607-.29-.574-.281-.978-.563-1.212-.844-.3-.357-.449-.817-.449-1.38 0-.744.255-1.359.765-1.845.521-.487 1.154-.73 1.898-.73 1.096 0 1.91.566 2.444 1.696zm4.377.387V177h-1.978v-6.715h-.844v-1.846h.844v-3.137h1.978v3.137h1.538v1.846H30.6zm9.351-1.846h1.987V177h-1.987v-.896c-.814.761-1.69 1.142-2.628 1.142-1.183 0-2.162-.428-2.935-1.283-.768-.873-1.152-1.963-1.152-3.27 0-1.283.384-2.352 1.152-3.208.767-.855 1.728-1.283 2.883-1.283.996 0 1.89.41 2.68 1.231v-.994zm-4.693 4.254c0 .821.22 1.489.66 2.004.45.522 1.019.782 1.704.782.733 0 1.324-.251 1.776-.755.45-.522.676-1.184.676-1.987 0-.802-.225-1.465-.676-1.986-.452-.51-1.038-.765-1.758-.765-.68 0-1.248.258-1.705.774-.451.521-.677 1.166-.677 1.933zm17.455 4.105c0 .404-.015.759-.044 1.063a6.842 6.842 0 01-.105.818 3.623 3.623 0 01-.826 1.661c-.774.89-1.837 1.336-3.191 1.336-1.142 0-2.083-.308-2.821-.923-.762-.633-1.201-1.509-1.319-2.628h1.987c.076.422.202.747.378.976.41.533 1.008.799 1.793.799 1.447 0 2.17-.887 2.17-2.663v-1.195c-.785.803-1.69 1.204-2.715 1.204-1.166 0-2.121-.422-2.865-1.266-.75-.855-1.125-1.924-1.125-3.208 0-1.248.348-2.308 1.045-3.181.75-.926 1.74-1.389 2.971-1.389 1.078 0 1.975.402 2.69 1.204v-.967h1.977v8.359zm-1.898-4.061c0-.832-.223-1.497-.668-1.995-.452-.51-1.029-.764-1.732-.764-.75 0-1.342.278-1.775.834-.393.499-.59 1.143-.59 1.934 0 .779.197 1.418.59 1.916.428.545 1.02.817 1.775.817.756 0 1.354-.275 1.793-.826.404-.498.607-1.136.607-1.916zm6.372-4.298V177H55.21v-8.561h1.978zm-2.277-3.559c0-.346.126-.645.378-.897s.554-.378.905-.378c.358 0 .663.126.915.378.252.246.377.548.377.906 0 .357-.125.662-.377.914a1.216 1.216 0 01-.906.378c-.357 0-.662-.126-.914-.378a1.257 1.257 0 01-.378-.923zm4.782 3.559h1.986v.791c.691-.685 1.47-1.028 2.338-1.028.996 0 1.772.314 2.329.941.48.533.72 1.403.72 2.61V177H65.08v-4.781c0-.844-.117-1.427-.351-1.749-.229-.328-.645-.492-1.248-.492-.657 0-1.122.216-1.398.65-.27.428-.404 1.175-.404 2.241V177h-1.986v-8.561zm18.158 8.359c0 .404-.015.759-.044 1.063a6.864 6.864 0 01-.106.818 3.624 3.624 0 01-.826 1.661c-.773.89-1.837 1.336-3.19 1.336-1.143 0-2.083-.308-2.822-.923-.761-.633-1.2-1.509-1.318-2.628h1.986c.077.422.203.747.378.976.41.533 1.008.799 1.793.799 1.448 0 2.171-.887 2.171-2.663v-1.195c-.785.803-1.69 1.204-2.716 1.204-1.166 0-2.12-.422-2.865-1.266-.75-.855-1.125-1.924-1.125-3.208 0-1.248.349-2.308 1.046-3.181.75-.926 1.74-1.389 2.97-1.389 1.079 0 1.975.402 2.69 1.204v-.967h1.978v8.359zm-1.899-4.061c0-.832-.222-1.497-.668-1.995-.45-.51-1.028-.764-1.731-.764-.75 0-1.342.278-1.775.834-.393.499-.59 1.143-.59 1.934 0 .779.197 1.418.59 1.916.427.545 1.02.817 1.775.817.756 0 1.353-.275 1.793-.826.404-.498.606-1.136.606-1.916z"/></g><defs><clipPath id="clip0"><path fill="#fff" d="M0 0h920v216H0z"/></clipPath></defs></svg>