<svg xmlns="http://www.w3.org/2000/svg" width="920" height="349" fill="none" focusable="false" viewBox="0 0 920 349"><g clip-path="url(#clip0)"><path fill="#fff" d="M0 0h920v349H0z"/><path stroke="#00C6A2" stroke-opacity=".2" stroke-width="4" d="M873 56H0"/><path stroke="#009E81" stroke-width="4" d="M630 123.909s13.009 2.122 25.517-14.148c4.954-6.443 12.382-29.848 22.515-43.15C685.036 57.415 697.544 56 707.551 56H1078"/><circle cx="740" cy="56" r="19" fill="#009E81" stroke="#fff" stroke-width="4"/><path fill="#009E81" d="M741.018 21.934h5.608v.448c0 1.02-.12 1.922-.361 2.707-.234.726-.629 1.406-1.186 2.039-1.26 1.418-2.862 2.127-4.808 2.127-1.898 0-3.524-.686-4.878-2.057-1.353-1.377-2.03-3.03-2.03-4.957 0-1.968.689-3.639 2.066-5.01 1.376-1.377 3.052-2.065 5.027-2.065 1.06 0 2.051.217 2.971.65.878.434 1.743 1.137 2.592 2.11l-1.459 1.397c-1.113-1.482-2.469-2.223-4.069-2.223-1.436 0-2.64.495-3.612 1.485-.973.973-1.459 2.191-1.459 3.656 0 1.512.542 2.757 1.626 3.736 1.013.908 2.112 1.362 3.296 1.362 1.007 0 1.913-.34 2.715-1.02.803-.685 1.251-1.505 1.345-2.46h-3.384v-1.925zM23.296 35.285V42H21.31v-6.715h-.704V33.44h.704v-3.305c0-1.078.187-1.84.562-2.285.516-.622 1.266-.932 2.25-.932.352 0 .794.102 1.327.308v2.021l-.202-.105c-.428-.217-.78-.326-1.055-.326-.351 0-.588.126-.712.378-.123.246-.184.721-.184 1.424v2.822h2.153v1.845h-2.153zm11.373 2.9h-6.135c.053.704.281 1.263.686 1.68.404.41.923.614 1.555.614.493 0 .9-.117 1.222-.351.316-.234.677-.668 1.081-1.3l1.67.93a6.81 6.81 0 01-.817 1.135 4.53 4.53 0 01-.923.773 3.76 3.76 0 01-1.064.44 5.21 5.21 0 01-1.239.14c-1.277 0-2.303-.41-3.076-1.23-.774-.826-1.16-1.922-1.16-3.288 0-1.353.375-2.449 1.125-3.287.756-.826 1.758-1.239 3.006-1.239 1.26 0 2.255.401 2.988 1.204.727.797 1.09 1.902 1.09 3.314l-.01.465zm-2.03-1.617c-.276-1.054-.94-1.582-1.995-1.582-.24 0-.466.038-.677.115-.211.07-.404.175-.58.316-.17.135-.317.299-.44.492a2.307 2.307 0 00-.281.66h3.973zM43.15 33.44h1.987V42H43.15v-.897c-.814.762-1.69 1.143-2.627 1.143-1.184 0-2.163-.428-2.936-1.283-.768-.873-1.152-1.963-1.152-3.27 0-1.283.384-2.352 1.152-3.208.767-.855 1.728-1.283 2.883-1.283.996 0 1.89.41 2.68 1.23v-.992zm-4.693 4.253c0 .82.22 1.489.66 2.004.45.522 1.019.782 1.704.782.733 0 1.325-.252 1.776-.755.45-.522.676-1.184.676-1.987 0-.802-.225-1.465-.676-1.986-.452-.51-1.037-.765-1.758-.765-.68 0-1.248.258-1.705.774-.451.521-.677 1.166-.677 1.933zm11.215-2.408V42h-1.978v-6.715h-.843V33.44h.843v-3.138h1.978v3.138h1.538v1.845h-1.538zm9.264-8.28l1.634.722-7.77 17.982-1.616-.73 7.752-17.973zm2.953.15h1.977v6.996c.703-.632 1.48-.949 2.33-.949.966 0 1.74.314 2.32.94.492.545.738 1.416.738 2.61V42h-1.978v-5.063c0-.685-.123-1.18-.369-1.485-.24-.31-.63-.466-1.169-.466-.691 0-1.177.214-1.459.642-.275.434-.413 1.178-.413 2.232V42H61.89V27.155zm17.675 11.03h-6.135c.052.704.281 1.263.685 1.68.405.41.923.614 1.556.614.492 0 .9-.117 1.222-.351.316-.234.676-.668 1.08-1.3l1.67.93a6.81 6.81 0 01-.817 1.135c-.287.31-.594.568-.923.773-.328.2-.682.346-1.063.44a5.18 5.18 0 01-1.24.14c-1.277 0-2.302-.41-3.076-1.23-.773-.826-1.16-1.922-1.16-3.288 0-1.353.375-2.449 1.125-3.287.756-.826 1.758-1.239 3.006-1.239 1.26 0 2.256.401 2.988 1.204.727.797 1.09 1.902 1.09 3.314l-.008.465zm-2.03-1.617c-.276-1.054-.941-1.582-1.996-1.582-.24 0-.466.038-.677.115-.21.07-.404.175-.58.316-.17.135-.316.299-.44.492a2.31 2.31 0 00-.28.66h3.972zm10.51-3.128h1.987V42h-1.986v-.897c-.814.762-1.69 1.143-2.628 1.143-1.184 0-2.162-.428-2.936-1.283-.767-.873-1.15-1.963-1.15-3.27 0-1.283.383-2.352 1.15-3.208.768-.855 1.729-1.283 2.883-1.283.996 0 1.89.41 2.68 1.23v-.992zm-4.692 4.253c0 .82.22 1.489.659 2.004a2.16 2.16 0 001.705.782c.732 0 1.324-.252 1.775-.755.451-.522.677-1.184.677-1.987 0-.802-.226-1.465-.677-1.986-.451-.51-1.037-.765-1.758-.765-.68 0-1.248.258-1.705.774-.45.521-.676 1.166-.676 1.933zm15.486-10.538h1.986V42h-1.986v-.897c-.78.762-1.661 1.143-2.646 1.143-1.171 0-2.144-.428-2.918-1.283-.767-.873-1.151-1.963-1.151-3.27 0-1.277.384-2.343 1.151-3.199.762-.861 1.72-1.292 2.874-1.292 1.002 0 1.899.41 2.69 1.23v-7.277zm-4.694 10.538c0 .82.22 1.489.66 2.004.45.522 1.02.782 1.705.782.732 0 1.324-.252 1.775-.755.451-.522.677-1.184.677-1.987 0-.802-.226-1.465-.677-1.986-.451-.51-1.037-.765-1.758-.765-.68 0-1.248.258-1.705.774-.45.521-.677 1.166-.677 1.933zm11.154-10.538V42h-1.978V27.155h1.978zm10.301 11.03h-6.135c.053.704.281 1.263.685 1.68.405.41.923.614 1.556.614.492 0 .899-.117 1.222-.351.316-.234.677-.668 1.081-1.3l1.67.93a6.84 6.84 0 01-.818 1.135c-.287.31-.594.568-.922.773-.329.2-.683.346-1.064.44a5.18 5.18 0 01-1.239.14c-1.278 0-2.303-.41-3.076-1.23-.774-.826-1.161-1.922-1.161-3.288 0-1.353.375-2.449 1.125-3.287.756-.826 1.758-1.239 3.006-1.239 1.26 0 2.256.401 2.989 1.204.726.797 1.089 1.902 1.089 3.314l-.008.465zm-2.031-1.617c-.275-1.054-.94-1.582-1.995-1.582-.24 0-.466.038-.677.115a1.88 1.88 0 00-.58.316 1.97 1.97 0 00-.439.492 2.295 2.295 0 00-.281.66h3.972zm9.176-1.67l-1.635.87c-.257-.527-.577-.79-.958-.79a.648.648 0 00-.465.184.59.59 0 00-.194.457c0 .328.381.654 1.143.976 1.049.45 1.755.867 2.118 1.248.363.38.545.893.545 1.538 0 .826-.305 1.517-.914 2.074-.592.527-1.307.791-2.145.791-1.435 0-2.452-.7-3.05-2.1l1.688-.783c.234.41.413.671.536.782.24.223.527.334.861.334.668 0 1.002-.304 1.002-.914 0-.351-.257-.68-.773-.984a27.74 27.74 0 00-.598-.29c-.199-.094-.401-.19-.606-.29-.574-.281-.979-.563-1.213-.844-.299-.357-.448-.817-.448-1.38 0-.744.255-1.359.764-1.845.522-.487 1.155-.73 1.899-.73 1.095 0 1.91.566 2.443 1.696zm7.313 0l-1.635.87c-.258-.527-.577-.79-.958-.79a.65.65 0 00-.466.184.588.588 0 00-.193.457c0 .328.381.654 1.142.976 1.049.45 1.755.867 2.118 1.248.364.38.545.893.545 1.538 0 .826-.304 1.517-.914 2.074-.592.527-1.306.791-2.144.791-1.436 0-2.452-.7-3.05-2.1l1.687-.783c.235.41.414.671.537.782.24.223.527.334.861.334.668 0 1.002-.304 1.002-.914 0-.351-.258-.68-.774-.984-.199-.1-.398-.196-.597-.29a53.35 53.35 0 01-.607-.29c-.574-.281-.978-.563-1.213-.844-.298-.357-.448-.817-.448-1.38 0-.744.255-1.359.765-1.845.521-.487 1.154-.73 1.898-.73 1.096 0 1.91.566 2.444 1.696zm1.089 1.89h3.92v1.723h-3.92v-1.723zm11.831-2.98v2.629c-.452-.551-.856-.93-1.213-1.134-.352-.211-.765-.317-1.24-.317-.744 0-1.362.261-1.854.783-.492.521-.738 1.174-.738 1.96 0 .802.237 1.461.712 1.977.48.516 1.092.773 1.836.773.475 0 .894-.102 1.257-.307.352-.2.765-.586 1.24-1.16v2.61c-.803.416-1.606.624-2.409.624-1.324 0-2.431-.428-3.322-1.283-.891-.861-1.336-1.93-1.336-3.208 0-1.278.451-2.356 1.354-3.235.902-.878 2.009-1.318 3.322-1.318.844 0 1.641.202 2.391.607zm1.916-.368h1.977v.79c.381-.398.706-.667.976-.808.287-.147.647-.22 1.081-.22.967 0 1.731.422 2.294 1.266.621-.844 1.462-1.266 2.522-1.266 1.928 0 2.892 1.17 2.892 3.507V42h-1.987v-4.755c0-.82-.099-1.4-.298-1.74-.205-.346-.542-.519-1.011-.519-.545 0-.943.205-1.195.616-.247.41-.37 1.069-.37 1.977V42h-1.986v-4.728c0-1.524-.439-2.286-1.318-2.286-.557 0-.964.208-1.222.624-.252.416-.378 1.073-.378 1.97V42h-1.977v-8.56zm19.212 1.458l-1.634.87c-.258-.527-.577-.79-.958-.79a.65.65 0 00-.466.184.588.588 0 00-.193.457c0 .328.38.654 1.142.976 1.049.45 1.755.867 2.118 1.248.364.38.545.893.545 1.538 0 .826-.305 1.517-.914 2.074-.592.527-1.307.791-2.144.791-1.436 0-2.453-.7-3.05-2.1l1.687-.783c.235.41.413.671.536.782.241.223.528.334.862.334.668 0 1.002-.304 1.002-.914 0-.351-.258-.68-.774-.984-.199-.1-.398-.196-.597-.29-.2-.094-.402-.19-.607-.29-.574-.281-.978-.563-1.213-.844-.299-.357-.448-.817-.448-1.38 0-.744.255-1.359.765-1.845.521-.487 1.154-.73 1.898-.73 1.096 0 1.91.566 2.443 1.696zm1.09 1.89h3.92v1.723h-3.92v-1.723zm7.146 9.87h-1.978V33.44h1.978v.931c.779-.78 1.664-1.169 2.654-1.169 1.178 0 2.148.434 2.909 1.3.774.862 1.16 1.95 1.16 3.262 0 1.283-.383 2.352-1.151 3.208-.762.85-1.723 1.274-2.883 1.274-1.002 0-1.898-.401-2.689-1.204v5.616zm4.702-8.886c0-.82-.223-1.488-.668-2.003a2.16 2.16 0 00-1.705-.783c-.727 0-1.316.252-1.767.756-.451.504-.676 1.166-.676 1.986 0 .803.225 1.465.676 1.987.446.51 1.032.764 1.758.764a2.14 2.14 0 001.696-.773c.457-.516.686-1.16.686-1.934zm6.311-2.487V42h-1.978v-6.715h-.844V33.44h.844v-3.138h1.978v3.138h1.538v1.845h-1.538zm10.511 2.927h1.442v1.863h-1.442V42h-2.048v-1.925h-6.662l8.71-12.656v10.793zm-2.048 0v-4.544l-3.129 4.544h3.129z"/><path stroke="#5F0CE6" stroke-opacity=".2" stroke-width="4" d="M873 124H0"/><path stroke="#5F0CE6" stroke-width="4" d="M475 191.909s13.009 2.122 25.517-14.148c4.954-6.443 12.382-29.848 22.515-43.15 7.004-9.196 19.512-10.611 29.519-10.611H923"/><circle cx="585" cy="124" r="19" fill="#5F0CE6" stroke="#fff" stroke-width="4"/><path fill="#5F0CE6" d="M588.822 85.355h-4.728v3.26h4.561v1.925h-4.561V97h-2.048V83.43h6.776v1.924zm-565.526 17.93V110H21.31v-6.715h-.704v-1.846h.704v-3.304c0-1.078.187-1.84.562-2.285.516-.621 1.266-.932 2.25-.932.352 0 .794.102 1.327.308v2.021l-.202-.105c-.428-.217-.78-.326-1.055-.326-.351 0-.588.126-.712.378-.123.246-.184.721-.184 1.424v2.821h2.153v1.846h-2.153zm11.373 2.901h-6.135c.053.703.281 1.262.686 1.678.404.41.923.615 1.555.615.493 0 .9-.117 1.222-.351.316-.234.677-.668 1.081-1.301l1.67.932a6.87 6.87 0 01-.817 1.134 4.54 4.54 0 01-.923.773 3.757 3.757 0 01-1.064.439c-.38.094-.794.141-1.239.141-1.277 0-2.303-.41-3.076-1.23-.774-.827-1.16-1.922-1.16-3.287 0-1.354.375-2.45 1.125-3.288.756-.826 1.758-1.239 3.006-1.239 1.26 0 2.255.402 2.988 1.204.727.797 1.09 1.902 1.09 3.314l-.01.466zm-2.03-1.618c-.276-1.054-.94-1.582-1.995-1.582-.24 0-.466.038-.677.115-.211.07-.404.175-.58.316-.17.135-.317.299-.44.492a2.315 2.315 0 00-.281.659h3.973zm10.511-3.129h1.987V110H43.15v-.896c-.814.761-1.69 1.142-2.627 1.142-1.184 0-2.163-.428-2.936-1.283-.768-.873-1.152-1.963-1.152-3.27 0-1.283.384-2.352 1.152-3.208.767-.855 1.728-1.283 2.883-1.283.996 0 1.89.41 2.68 1.231v-.994zm-4.693 4.254c0 .821.22 1.489.66 2.004.45.522 1.019.782 1.704.782.733 0 1.325-.251 1.776-.755.45-.522.676-1.184.676-1.987 0-.802-.225-1.465-.676-1.986-.452-.51-1.037-.765-1.758-.765-.68 0-1.248.258-1.705.774-.451.521-.677 1.166-.677 1.933zm11.215-2.408V110h-1.978v-6.715h-.843v-1.846h.843v-3.137h1.978v3.137h1.538v1.846h-1.538zm9.264-8.28l1.634.722-7.77 17.982-1.616-.73 7.752-17.973zm2.953.15h1.977v6.996c.703-.632 1.48-.949 2.33-.949.966 0 1.74.314 2.32.941.492.545.738 1.415.738 2.61V110h-1.978v-5.062c0-.686-.123-1.181-.369-1.486-.24-.31-.63-.466-1.169-.466-.691 0-1.177.214-1.459.642-.275.434-.413 1.178-.413 2.232V110H61.89V95.155zm17.675 11.031h-6.135c.052.703.281 1.262.685 1.678.405.41.923.615 1.556.615.492 0 .9-.117 1.222-.351.316-.234.676-.668 1.08-1.301l1.67.932c-.257.439-.53.817-.817 1.134-.287.31-.594.568-.923.773a3.758 3.758 0 01-1.063.439 5.167 5.167 0 01-1.24.141c-1.277 0-2.302-.41-3.076-1.23-.773-.827-1.16-1.922-1.16-3.287 0-1.354.375-2.45 1.125-3.288.756-.826 1.758-1.239 3.006-1.239 1.26 0 2.256.402 2.988 1.204.727.797 1.09 1.902 1.09 3.314l-.008.466zm-2.03-1.618c-.276-1.054-.941-1.582-1.996-1.582-.24 0-.466.038-.677.115-.21.07-.404.175-.58.316-.17.135-.316.299-.44.492a2.318 2.318 0 00-.28.659h3.972zm10.51-3.129h1.987V110h-1.986v-.896c-.814.761-1.69 1.142-2.628 1.142-1.184 0-2.162-.428-2.936-1.283-.767-.873-1.15-1.963-1.15-3.27 0-1.283.383-2.352 1.15-3.208.768-.855 1.729-1.283 2.883-1.283.996 0 1.89.41 2.68 1.231v-.994zm-4.692 4.254c0 .821.22 1.489.659 2.004.45.522 1.02.782 1.705.782.732 0 1.324-.251 1.775-.755.451-.522.677-1.184.677-1.987 0-.802-.226-1.465-.677-1.986-.451-.51-1.037-.765-1.758-.765-.68 0-1.248.258-1.705.774-.45.521-.676 1.166-.676 1.933zm15.486-10.538h1.986V110h-1.986v-.896c-.78.761-1.661 1.142-2.646 1.142-1.171 0-2.144-.428-2.918-1.283-.767-.873-1.151-1.963-1.151-3.27 0-1.277.384-2.343 1.151-3.199.762-.861 1.72-1.292 2.874-1.292 1.002 0 1.899.41 2.69 1.231v-7.278zm-4.694 10.538c0 .821.22 1.489.66 2.004.45.522 1.02.782 1.705.782.732 0 1.324-.251 1.775-.755.451-.522.677-1.184.677-1.987 0-.802-.226-1.465-.677-1.986-.451-.51-1.037-.765-1.758-.765-.68 0-1.248.258-1.705.774-.45.521-.677 1.166-.677 1.933zm11.154-10.538V110h-1.978V95.155h1.978zm10.301 11.031h-6.135c.053.703.281 1.262.685 1.678.405.41.923.615 1.556.615.492 0 .899-.117 1.222-.351.316-.234.677-.668 1.081-1.301l1.67.932a6.872 6.872 0 01-.818 1.134c-.287.31-.594.568-.922.773a3.77 3.77 0 01-1.064.439 5.164 5.164 0 01-1.239.141c-1.278 0-2.303-.41-3.076-1.23-.774-.827-1.161-1.922-1.161-3.287 0-1.354.375-2.45 1.125-3.288.756-.826 1.758-1.239 3.006-1.239 1.26 0 2.256.402 2.989 1.204.726.797 1.089 1.902 1.089 3.314l-.008.466zm-2.031-1.618c-.275-1.054-.94-1.582-1.995-1.582-.24 0-.466.038-.677.115-.21.07-.404.175-.58.316a1.98 1.98 0 00-.439.492 2.304 2.304 0 00-.281.659h3.972zm9.176-1.67l-1.635.871c-.257-.528-.577-.791-.958-.791a.648.648 0 00-.465.184.59.59 0 00-.194.457c0 .328.381.653 1.143.976 1.049.451 1.755.867 2.118 1.248s.545.893.545 1.538c0 .826-.305 1.517-.914 2.074-.592.527-1.307.791-2.145.791-1.435 0-2.452-.7-3.05-2.1l1.688-.783c.234.41.413.671.536.783.24.222.527.333.861.333.668 0 1.002-.304 1.002-.914 0-.351-.257-.679-.773-.984-.199-.1-.399-.196-.598-.29-.199-.094-.401-.19-.606-.29-.574-.281-.979-.563-1.213-.844-.299-.357-.448-.817-.448-1.38 0-.744.255-1.359.764-1.845.522-.487 1.155-.73 1.899-.73 1.095 0 1.91.566 2.443 1.696zm7.313 0l-1.635.871c-.258-.528-.577-.791-.958-.791a.65.65 0 00-.466.184.589.589 0 00-.193.457c0 .328.381.653 1.142.976 1.049.451 1.755.867 2.118 1.248.364.381.545.893.545 1.538 0 .826-.304 1.517-.914 2.074-.592.527-1.306.791-2.144.791-1.436 0-2.452-.7-3.05-2.1l1.687-.783c.235.41.414.671.537.783.24.222.527.333.861.333.668 0 1.002-.304 1.002-.914 0-.351-.258-.679-.774-.984-.199-.1-.398-.196-.597-.29a53.35 53.35 0 01-.607-.29c-.574-.281-.978-.563-1.213-.844-.298-.357-.448-.817-.448-1.38 0-.744.255-1.359.765-1.845.521-.487 1.154-.73 1.898-.73 1.096 0 1.91.566 2.444 1.696zm1.089 1.89h3.92v1.723h-3.92v-1.723zm11.831-2.979v2.628c-.452-.551-.856-.929-1.213-1.134-.352-.211-.765-.317-1.24-.317-.744 0-1.362.261-1.854.783-.492.521-.738 1.174-.738 1.96 0 .802.237 1.461.712 1.977.48.516 1.092.773 1.836.773.475 0 .894-.102 1.257-.307.352-.199.765-.586 1.24-1.16v2.61c-.803.416-1.606.624-2.409.624-1.324 0-2.431-.428-3.322-1.283-.891-.861-1.336-1.931-1.336-3.208 0-1.277.451-2.356 1.354-3.234.902-.879 2.009-1.319 3.322-1.319.844 0 1.641.202 2.391.607zm1.916-.37h1.977v.791c.381-.398.706-.668.976-.808.287-.147.647-.22 1.081-.22.967 0 1.731.422 2.294 1.266.621-.844 1.462-1.266 2.522-1.266 1.928 0 2.892 1.169 2.892 3.507V110h-1.987v-4.755c0-.82-.099-1.4-.298-1.74-.205-.346-.542-.519-1.011-.519-.545 0-.943.205-1.195.616-.247.41-.37 1.069-.37 1.977V110h-1.986v-4.729c0-1.523-.439-2.285-1.318-2.285-.557 0-.964.208-1.222.624-.252.416-.378 1.073-.378 1.969V110h-1.977v-8.561zm19.212 1.459l-1.634.871c-.258-.528-.577-.791-.958-.791a.65.65 0 00-.466.184.589.589 0 00-.193.457c0 .328.38.653 1.142.976 1.049.451 1.755.867 2.118 1.248.364.381.545.893.545 1.538 0 .826-.305 1.517-.914 2.074-.592.527-1.307.791-2.144.791-1.436 0-2.453-.7-3.05-2.1l1.687-.783c.235.41.413.671.536.783.241.222.528.333.862.333.668 0 1.002-.304 1.002-.914 0-.351-.258-.679-.774-.984-.199-.1-.398-.196-.597-.29-.2-.094-.402-.19-.607-.29-.574-.281-.978-.563-1.213-.844-.299-.357-.448-.817-.448-1.38 0-.744.255-1.359.765-1.845.521-.487 1.154-.73 1.898-.73 1.096 0 1.91.566 2.443 1.696zm1.09 1.89h3.92v1.723h-3.92v-1.723zm7.146 9.87h-1.978v-13.219h1.978v.932c.779-.779 1.664-1.169 2.654-1.169 1.178 0 2.148.434 2.909 1.301.774.861 1.16 1.948 1.16 3.261 0 1.283-.383 2.352-1.151 3.208-.762.849-1.723 1.274-2.883 1.274-1.002 0-1.898-.401-2.689-1.204v5.616zm4.702-8.886c0-.82-.223-1.488-.668-2.003a2.159 2.159 0 00-1.705-.783c-.727 0-1.316.252-1.767.756-.451.504-.676 1.166-.676 1.987 0 .802.225 1.464.676 1.986.446.51 1.032.764 1.758.764a2.14 2.14 0 001.696-.773c.457-.516.686-1.16.686-1.934zm6.311-2.487V110h-1.978v-6.715h-.844v-1.846h.844v-3.137h1.978v3.137h1.538v1.846h-1.538zm6.292.413v-1.749c.868 0 1.451-.096 1.75-.29.533-.34.799-.885.799-1.635 0-.58-.193-1.051-.58-1.415-.381-.369-.876-.553-1.485-.553-.568 0-1.008.137-1.318.413-.299.281-.522.756-.668 1.424h-2.04c.211-1.278.645-2.212 1.301-2.804.657-.598 1.574-.897 2.751-.897 1.19 0 2.159.352 2.909 1.055.75.697 1.125 1.597 1.125 2.698 0 1.243-.492 2.209-1.476 2.901 1.125.662 1.687 1.737 1.687 3.225 0 1.219-.41 2.215-1.23 2.989-.82.773-1.872 1.16-3.155 1.16-1.635 0-2.848-.601-3.639-1.802-.328-.504-.536-1.201-.624-2.092h1.977c.106.656.361 1.16.765 1.512.41.346.943.518 1.6.518.662 0 1.21-.219 1.643-.659.434-.451.651-1.022.651-1.714 0-.914-.326-1.564-.976-1.951-.381-.222-.97-.334-1.767-.334z"/><path stroke="#E60C75" stroke-opacity=".2" stroke-width="4" d="M642.001 192h-873"/><path stroke="#E60C75" stroke-width="4" d="M322.001 259.909s13.009 2.122 25.517-14.148c4.954-6.443 12.382-29.848 22.515-43.15 7.004-9.196 19.512-10.611 29.519-10.611H923"/><circle cx="432.001" cy="192" r="19" fill="#E60C75" stroke="#fff" stroke-width="4"/><path fill="#E60C75" d="M436.525 153.354h-5.44v3.261h5.282v1.925h-5.282v4.535h5.44V165h-7.488v-13.57h7.488v1.924zM23.296 171.285V178H21.31v-6.715h-.704v-1.846h.704v-3.304c0-1.078.187-1.84.562-2.285.516-.621 1.266-.932 2.25-.932.352 0 .794.103 1.327.308v2.021l-.202-.105c-.428-.217-.78-.326-1.055-.326-.351 0-.588.126-.712.378-.123.246-.184.721-.184 1.424v2.821h2.153v1.846h-2.153zm11.373 2.901h-6.135c.053.703.281 1.262.686 1.678.404.41.923.615 1.555.615.493 0 .9-.117 1.222-.351.316-.234.677-.668 1.081-1.301l1.67.932a6.87 6.87 0 01-.817 1.134 4.54 4.54 0 01-.923.773 3.757 3.757 0 01-1.064.439c-.38.094-.794.141-1.239.141-1.277 0-2.303-.41-3.076-1.23-.774-.827-1.16-1.922-1.16-3.287 0-1.354.375-2.45 1.125-3.288.756-.826 1.758-1.239 3.006-1.239 1.26 0 2.255.402 2.988 1.204.727.797 1.09 1.902 1.09 3.314l-.01.466zm-2.03-1.618c-.276-1.054-.94-1.582-1.995-1.582-.24 0-.466.038-.677.115-.211.07-.404.175-.58.316-.17.135-.317.299-.44.492a2.315 2.315 0 00-.281.659h3.973zm10.511-3.129h1.987V178H43.15v-.896c-.814.761-1.69 1.142-2.627 1.142-1.184 0-2.163-.428-2.936-1.283-.768-.873-1.152-1.963-1.152-3.27 0-1.283.384-2.352 1.152-3.208.767-.855 1.728-1.283 2.883-1.283.996 0 1.89.41 2.68 1.231v-.994zm-4.693 4.254c0 .821.22 1.489.66 2.004.45.522 1.019.782 1.704.782.733 0 1.325-.251 1.776-.755.45-.522.676-1.184.676-1.987 0-.802-.225-1.465-.676-1.986-.452-.51-1.037-.765-1.758-.765-.68 0-1.248.258-1.705.774-.451.521-.677 1.166-.677 1.933zm11.215-2.408V178h-1.978v-6.715h-.843v-1.846h.843v-3.137h1.978v3.137h1.538v1.846h-1.538zm9.264-8.279l1.634.721-7.77 17.982-1.616-.73 7.752-17.973zm2.953.149h1.977v6.996c.703-.632 1.48-.949 2.33-.949.966 0 1.74.314 2.32.941.492.545.738 1.415.738 2.61V178h-1.978v-5.062c0-.686-.123-1.181-.369-1.486-.24-.31-.63-.466-1.169-.466-.691 0-1.177.214-1.459.642-.275.434-.413 1.178-.413 2.232V178H61.89v-14.845zm17.675 11.031h-6.135c.052.703.281 1.262.685 1.678.405.41.923.615 1.556.615.492 0 .9-.117 1.222-.351.316-.234.676-.668 1.08-1.301l1.67.932c-.257.439-.53.817-.817 1.134-.287.31-.594.568-.923.773a3.758 3.758 0 01-1.063.439 5.167 5.167 0 01-1.24.141c-1.277 0-2.302-.41-3.076-1.23-.773-.827-1.16-1.922-1.16-3.287 0-1.354.375-2.45 1.125-3.288.756-.826 1.758-1.239 3.006-1.239 1.26 0 2.256.402 2.988 1.204.727.797 1.09 1.902 1.09 3.314l-.008.466zm-2.03-1.618c-.276-1.054-.941-1.582-1.996-1.582-.24 0-.466.038-.677.115-.21.07-.404.175-.58.316-.17.135-.316.299-.44.492a2.318 2.318 0 00-.28.659h3.972zm10.51-3.129h1.987V178h-1.986v-.896c-.814.761-1.69 1.142-2.628 1.142-1.184 0-2.162-.428-2.936-1.283-.767-.873-1.15-1.963-1.15-3.27 0-1.283.383-2.352 1.15-3.208.768-.855 1.729-1.283 2.883-1.283.996 0 1.89.41 2.68 1.231v-.994zm-4.692 4.254c0 .821.22 1.489.659 2.004.45.522 1.02.782 1.705.782.732 0 1.324-.251 1.775-.755.451-.522.677-1.184.677-1.987 0-.802-.226-1.465-.677-1.986-.451-.51-1.037-.765-1.758-.765-.68 0-1.248.258-1.705.774-.45.521-.676 1.166-.676 1.933zm15.486-10.538h1.986V178h-1.986v-.896c-.78.761-1.661 1.142-2.646 1.142-1.171 0-2.144-.428-2.918-1.283-.767-.873-1.151-1.963-1.151-3.27 0-1.277.384-2.343 1.151-3.199.762-.861 1.72-1.292 2.874-1.292 1.002 0 1.899.41 2.69 1.231v-7.278zm-4.694 10.538c0 .821.22 1.489.66 2.004.45.522 1.02.782 1.705.782.732 0 1.324-.251 1.775-.755.451-.522.677-1.184.677-1.987 0-.802-.226-1.465-.677-1.986-.451-.51-1.037-.765-1.758-.765-.68 0-1.248.258-1.705.774-.45.521-.677 1.166-.677 1.933zm11.154-10.538V178h-1.978v-14.845h1.978zm10.301 11.031h-6.135c.053.703.281 1.262.685 1.678.405.41.923.615 1.556.615.492 0 .899-.117 1.222-.351.316-.234.677-.668 1.081-1.301l1.67.932a6.872 6.872 0 01-.818 1.134c-.287.31-.594.568-.922.773a3.77 3.77 0 01-1.064.439 5.164 5.164 0 01-1.239.141c-1.278 0-2.303-.41-3.076-1.23-.774-.827-1.161-1.922-1.161-3.287 0-1.354.375-2.45 1.125-3.288.756-.826 1.758-1.239 3.006-1.239 1.26 0 2.256.402 2.989 1.204.726.797 1.089 1.902 1.089 3.314l-.008.466zm-2.031-1.618c-.275-1.054-.94-1.582-1.995-1.582-.24 0-.466.038-.677.115-.21.07-.404.175-.58.316a1.98 1.98 0 00-.439.492 2.304 2.304 0 00-.281.659h3.972zm9.176-1.67l-1.635.871c-.257-.528-.577-.791-.958-.791a.648.648 0 00-.465.184.59.59 0 00-.194.457c0 .328.381.653 1.143.976 1.049.451 1.755.867 2.118 1.248s.545.893.545 1.538c0 .826-.305 1.517-.914 2.074-.592.527-1.307.791-2.145.791-1.435 0-2.452-.7-3.05-2.1l1.688-.783c.234.41.413.671.536.783.24.222.527.333.861.333.668 0 1.002-.304 1.002-.914 0-.351-.257-.679-.773-.984-.199-.1-.399-.196-.598-.29-.199-.094-.401-.19-.606-.29-.574-.281-.979-.563-1.213-.844-.299-.357-.448-.817-.448-1.38 0-.744.255-1.359.764-1.845.522-.487 1.155-.73 1.899-.73 1.095 0 1.91.566 2.443 1.696zm7.313 0l-1.635.871c-.258-.528-.577-.791-.958-.791a.65.65 0 00-.466.184.589.589 0 00-.193.457c0 .328.381.653 1.142.976 1.049.451 1.755.867 2.118 1.248.364.381.545.893.545 1.538 0 .826-.304 1.517-.914 2.074-.592.527-1.306.791-2.144.791-1.436 0-2.452-.7-3.05-2.1l1.687-.783c.235.41.414.671.537.783.24.222.527.333.861.333.668 0 1.002-.304 1.002-.914 0-.351-.258-.679-.774-.984-.199-.1-.398-.196-.597-.29a53.35 53.35 0 01-.607-.29c-.574-.281-.978-.563-1.213-.844-.298-.357-.448-.817-.448-1.38 0-.744.255-1.359.765-1.845.521-.487 1.154-.73 1.898-.73 1.096 0 1.91.566 2.444 1.696zm1.089 1.89h3.92v1.723h-3.92v-1.723zm11.831-2.979v2.628c-.452-.551-.856-.929-1.213-1.134-.352-.211-.765-.317-1.24-.317-.744 0-1.362.261-1.854.783-.492.521-.738 1.174-.738 1.96 0 .802.237 1.461.712 1.977.48.516 1.092.773 1.836.773.475 0 .894-.102 1.257-.307.352-.199.765-.586 1.24-1.16v2.61c-.803.416-1.606.624-2.409.624-1.324 0-2.431-.428-3.322-1.283-.891-.861-1.336-1.931-1.336-3.208 0-1.277.451-2.356 1.354-3.234.902-.879 2.009-1.319 3.322-1.319.844 0 1.641.202 2.391.607zm1.916-.37h1.977v.791c.381-.398.706-.668.976-.808.287-.147.647-.22 1.081-.22.967 0 1.731.422 2.294 1.266.621-.844 1.462-1.266 2.522-1.266 1.928 0 2.892 1.169 2.892 3.507V178h-1.987v-4.755c0-.82-.099-1.4-.298-1.74-.205-.346-.542-.519-1.011-.519-.545 0-.943.205-1.195.616-.247.41-.37 1.069-.37 1.977V178h-1.986v-4.729c0-1.523-.439-2.285-1.318-2.285-.557 0-.964.208-1.222.624-.252.416-.378 1.073-.378 1.969V178h-1.977v-8.561zm19.212 1.459l-1.634.871c-.258-.528-.577-.791-.958-.791a.65.65 0 00-.466.184.589.589 0 00-.193.457c0 .328.38.653 1.142.976 1.049.451 1.755.867 2.118 1.248.364.381.545.893.545 1.538 0 .826-.305 1.517-.914 2.074-.592.527-1.307.791-2.144.791-1.436 0-2.453-.7-3.05-2.1l1.687-.783c.235.41.413.671.536.783.241.222.528.333.862.333.668 0 1.002-.304 1.002-.914 0-.351-.258-.679-.774-.984-.199-.1-.398-.196-.597-.29-.2-.094-.402-.19-.607-.29-.574-.281-.978-.563-1.213-.844-.299-.357-.448-.817-.448-1.38 0-.744.255-1.359.765-1.845.521-.487 1.154-.73 1.898-.73 1.096 0 1.91.566 2.443 1.696zm1.09 1.89h3.92v1.723h-3.92v-1.723zm7.146 9.87h-1.978v-13.219h1.978v.932c.779-.779 1.664-1.169 2.654-1.169 1.178 0 2.148.434 2.909 1.301.774.861 1.16 1.948 1.16 3.261 0 1.283-.383 2.352-1.151 3.208-.762.849-1.723 1.274-2.883 1.274-1.002 0-1.898-.401-2.689-1.204v5.616zm4.702-8.886c0-.82-.223-1.488-.668-2.003a2.159 2.159 0 00-1.705-.783c-.727 0-1.316.252-1.767.756-.451.504-.676 1.166-.676 1.987 0 .802.225 1.464.676 1.986.446.51 1.032.764 1.758.764a2.14 2.14 0 001.696-.773c.457-.516.686-1.16.686-1.934zm6.311-2.487V178h-1.978v-6.715h-.844v-1.846h.844v-3.137h1.978v3.137h1.538v1.846h-1.538zm6.143 4.79h5.054V178h-9.114l4.71-5.704c.463-.568.85-1.061 1.161-1.477.316-.416.556-.764.72-1.046.334-.55.501-1.045.501-1.485 0-.633-.222-1.163-.668-1.591-.445-.427-.996-.641-1.652-.641-1.371 0-2.156.811-2.355 2.434h-2.04c.329-2.859 1.773-4.289 4.333-4.289 1.237 0 2.274.393 3.112 1.178.844.785 1.265 1.758 1.265 2.918 0 .738-.196 1.462-.588 2.171-.2.369-.493.808-.879 1.318a42.178 42.178 0 01-1.451 1.793l-2.109 2.496z"/><path stroke="#FB8400" stroke-opacity=".2" stroke-width="4" d="M642.001 260h-873"/><path stroke="#FB8400" stroke-width="4" d="M-182 327.909s18.838 2.122 36.951-14.148c7.173-6.443 17.93-29.848 32.603-43.15C-102.302 261.415-84.189 260-69.699 260H920"/><circle cx="55" cy="260" r="19" fill="#FB8400" stroke="#fff" stroke-width="4"/><circle cx="131" cy="260" r="19" fill="#FB8400" stroke="#fff" stroke-width="4"/><path fill="#B35F00" d="M57.596 229.704h-5.81L50.277 233H48.07l6.715-14.423L61.261 233h-2.24l-1.425-3.296zm-.834-1.925l-2.013-4.614-2.11 4.614h4.122zM127.625 233v-13.57h2.039c.908 0 1.632.07 2.171.211.545.14 1.005.378 1.38.712.381.345.682.776.905 1.292.228.521.343 1.048.343 1.582 0 .972-.372 1.795-1.117 2.469.721.246 1.29.677 1.706 1.292.421.61.632 1.319.632 2.127 0 1.061-.375 1.957-1.125 2.69a3.696 3.696 0 01-1.52.94c-.615.17-1.386.255-2.312.255h-3.102zm2.048-7.743h.641c.762 0 1.319-.167 1.67-.501.358-.34.536-.838.536-1.494 0-.639-.181-1.122-.545-1.45-.363-.334-.89-.501-1.582-.501h-.72v3.946zm0 5.818h1.265c.926 0 1.606-.181 2.039-.545.457-.392.686-.89.686-1.494 0-.586-.22-1.078-.659-1.476-.428-.393-1.193-.589-2.294-.589h-1.037v4.104z"/><circle cx="207" cy="259" r="19" fill="#FB8400" stroke="#fff" stroke-width="4"/><path fill="#B35F00" d="M201.626 232v-13.57h2.848c1.365 0 2.443.134 3.234.404a6.06 6.06 0 012.312 1.345c1.4 1.277 2.1 2.956 2.1 5.036 0 2.086-.729 3.773-2.188 5.062-.733.645-1.5 1.093-2.303 1.345-.75.252-1.814.378-3.191.378h-2.812zm2.048-1.925h.923c.92 0 1.684-.096 2.294-.29a4.658 4.658 0 001.652-.975c1.008-.92 1.512-2.119 1.512-3.595 0-1.488-.498-2.695-1.494-3.621-.897-.826-2.218-1.24-3.964-1.24h-.923v9.721z"/><circle cx="283" cy="259" r="19" fill="#FB8400" stroke="#fff" stroke-width="4"/><path fill="#B35F00" d="M275.494 232l2.857-14.59 4.658 10.547 4.825-10.547L290.4 232h-2.1l-1.31-8.191-4.016 8.815-3.903-8.824-1.459 8.2h-2.118z"/><path stroke="#B7B5BD" stroke-width="4" d="M-231 328H920"/></g><defs><clipPath id="clip0"><path fill="#fff" d="M0 0h920v349H0z"/></clipPath></defs></svg>