<svg xmlns="http://www.w3.org/2000/svg" width="593" height="227" fill="none" focusable="false" viewBox="0 0 593 227"><g clip-path="url(#clip0)"><path fill="#fff" d="M0 0h593v227H0z"/><circle cx="365" cy="172" r="23" fill="#B7B5BD" stroke="#FB8400" stroke-width="4"/><circle cx="451" cy="172" r="23" fill="#B7B5BD" stroke="#E60C75" stroke-width="4"/><circle cx="21" cy="174" r="19" fill="#B7B5BD" stroke="#fff" stroke-width="4"/><circle cx="106.999" cy="173" r="19" fill="#B7B5BD" stroke="#fff" stroke-width="4"/><circle cx="192.999" cy="173" r="19" fill="#B7B5BD" stroke="#fff" stroke-width="4"/><path fill="#B7B5BD" d="M109.595 211.704h-5.809L102.274 215h-2.206l6.715-14.423L113.26 215h-2.241l-1.424-3.296zm-.835-1.925l-2.012-4.614-2.11 4.614h4.122zM189.624 215v-13.57h2.039c.908 0 1.632.07 2.171.211.545.14 1.005.378 1.38.712a3.7 3.7 0 01.905 1.292c.228.521.343 1.048.343 1.582 0 .972-.373 1.795-1.117 2.469a3.279 3.279 0 011.705 1.292c.422.61.633 1.319.633 2.127 0 1.061-.375 1.957-1.125 2.69a3.696 3.696 0 01-1.52.94c-.616.17-1.386.255-2.312.255h-3.102zm2.048-7.743h.641c.762 0 1.318-.167 1.67-.501.357-.34.536-.838.536-1.494 0-.639-.181-1.122-.545-1.45-.363-.334-.89-.501-1.582-.501h-.72v3.946zm0 5.818h1.265c.926 0 1.606-.181 2.039-.545.457-.392.686-.89.686-1.494 0-.586-.22-1.078-.659-1.476-.428-.393-1.193-.589-2.294-.589h-1.037v4.104z"/><circle cx="278.999" cy="172" r="19" fill="#B7B5BD" stroke="#fff" stroke-width="4"/><path fill="#B7B5BD" d="M273.625 214v-13.57h2.847c1.366 0 2.444.134 3.235.404.849.264 1.62.712 2.311 1.345 1.401 1.277 2.101 2.956 2.101 5.036 0 2.086-.73 3.773-2.189 5.062-.732.645-1.5 1.093-2.302 1.345-.75.252-1.814.378-3.191.378h-2.812zm2.048-1.925h.923c.919 0 1.684-.096 2.293-.29a4.653 4.653 0 001.653-.975c1.008-.92 1.512-2.119 1.512-3.595 0-1.488-.499-2.695-1.495-3.621-.896-.826-2.217-1.24-3.963-1.24h-.923v9.721z"/><circle cx="364.999" cy="172" r="19" fill="#B7B5BD" stroke="#fff" stroke-width="4"/><path fill="#B7B5BD" d="M357.493 214l2.856-14.59 4.659 10.547 4.825-10.547 2.566 14.59h-2.1l-1.31-8.191-4.017 8.815-3.902-8.824-1.459 8.2h-2.118z"/><circle cx="450.999" cy="172" r="19" fill="#B7B5BD" stroke="#fff" stroke-width="4"/><path fill="#B7B5BD" d="M455.524 202.354h-5.44v3.261h5.282v1.925h-5.282v4.535h5.44V214h-7.488v-13.57h7.488v1.924z"/><path fill="#E60C75" d="M462.016 131.514l4.748 4.748-1.404 1.405-4.748-4.748-.497.497-1.306-1.305.498-.497-2.337-2.337c-.762-.762-1.168-1.434-1.218-2.014-.075-.803.236-1.553.932-2.249.249-.249.634-.489 1.156-.721l1.429 1.429-.217.068c-.456.15-.781.322-.976.516-.248.249-.327.506-.236.771.087.261.379.64.876 1.137l1.995 1.995 1.523-1.522 1.305 1.305-1.523 1.522zm10.093-5.991l-4.338 4.338c.535.46 1.092.694 1.672.702.576.005 1.088-.217 1.535-.665.348-.348.553-.718.615-1.112.058-.389.007-.951-.155-1.684l1.84-.522c.128.493.203.953.223 1.379.017.423-.018.823-.105 1.2a3.807 3.807 0 01-.442 1.063c-.203.335-.462.66-.776.975-.904.904-1.919 1.339-3.046 1.305-1.131-.037-2.179-.538-3.144-1.504-.958-.957-1.467-1.997-1.529-3.119-.05-1.119.366-2.12 1.249-3.002.891-.891 1.879-1.311 2.964-1.262 1.078.05 2.115.574 3.114 1.573l.323.335zm-2.579.292c-.94-.551-1.784-.453-2.529.292-.17.17-.303.357-.398.56-.1.199-.162.41-.187.634-.024.215-.012.435.038.658.049.224.138.446.267.665l2.809-2.809zm5.22-9.645l1.405-1.405 6.053 6.054-1.404 1.404-.634-.634c-.038 1.115-.388 2.003-1.051 2.666-.836.837-1.831 1.227-2.983 1.169-1.16-.075-2.202-.574-3.126-1.498-.907-.907-1.392-1.935-1.454-3.083-.062-1.147.315-2.129 1.131-2.945.704-.705 1.626-1.047 2.766-1.026l-.703-.702zm-.31 6.327c.58.58 1.207.897 1.883.95a2.157 2.157 0 001.759-.652c.517-.518.758-1.115.72-1.79-.049-.688-.358-1.315-.926-1.883-.567-.568-1.195-.876-1.883-.926-.679-.041-1.274.193-1.783.702-.481.481-.7 1.065-.659 1.753.05.688.346 1.303.889 1.846zm6.227-9.633l4.748 4.748-1.398 1.398-4.748-4.748-.597.597-1.305-1.306.597-.596-2.219-2.219 1.398-1.398 2.219 2.219 1.087-1.088 1.306 1.305-1.088 1.088zm.696-12.405l1.666-.647 7.221 18.21-1.659.628-7.228-18.191zm2.194-1.983l1.398-1.398 4.947 4.947c.05-.945.375-1.717.976-2.318.683-.684 1.452-1.009 2.306-.976.733.038 1.522.479 2.367 1.324l3.711 3.71-1.399 1.398-3.579-3.579c-.485-.485-.922-.748-1.312-.79-.389-.049-.775.116-1.156.498-.489.489-.681.984-.578 1.485.112.501.541 1.125 1.287 1.871l2.927 2.927-1.398 1.398-10.497-10.497zm20.297-4.698l-4.338 4.338c.535.46 1.092.694 1.672.702.576.004 1.088-.217 1.535-.665.348-.348.553-.719.616-1.112.058-.39.006-.951-.156-1.684l1.84-.522c.128.493.203.952.223 1.38a4.51 4.51 0 01-.105 1.199 3.77 3.77 0 01-.441 1.062 5.165 5.165 0 01-.777.976c-.903.903-1.919 1.338-3.046 1.305-1.131-.037-2.179-.538-3.144-1.504-.957-.957-1.467-1.997-1.529-3.12-.05-1.118.367-2.119 1.249-3.001.891-.891 1.879-1.312 2.965-1.262 1.077.05 2.115.574 3.113 1.572l.323.336zm-2.579.292c-.94-.551-1.783-.454-2.529.292a1.97 1.97 0 00-.398.56c-.099.198-.162.41-.186.633-.025.216-.013.435.037.66.05.223.139.445.267.664l2.809-2.809zm5.221-9.645l1.404-1.405 6.053 6.053-1.404 1.405-.634-.634c-.037 1.115-.387 2.003-1.05 2.666-.837.837-1.832 1.227-2.983 1.168-1.161-.074-2.203-.573-3.126-1.497-.908-.908-1.393-1.935-1.455-3.083-.062-1.147.315-2.13 1.131-2.946.705-.704 1.627-1.046 2.766-1.025l-.702-.702zm-.311 6.326c.58.58 1.208.897 1.883.951a2.16 2.16 0 001.759-.652c.518-.518.758-1.115.721-1.79-.05-.688-.359-1.316-.926-1.883-.568-.568-1.196-.877-1.883-.926-.68-.042-1.274.192-1.784.702-.481.48-.7 1.065-.659 1.753.05.687.346 1.303.889 1.845zm3.499-18.402l1.404-1.404 10.497 10.497-1.404 1.404-.634-.634c-.013 1.09-.367 1.983-1.063 2.679-.829.828-1.819 1.214-2.971 1.156-1.16-.075-2.202-.574-3.126-1.498-.903-.903-1.386-1.929-1.448-3.076-.07-1.148.303-2.13 1.119-2.946.708-.709 1.632-1.052 2.772-1.032l-5.146-5.146zm4.133 10.77c.58.58 1.207.898 1.883.951a2.16 2.16 0 001.759-.652c.517-.518.758-1.115.721-1.79-.05-.688-.359-1.315-.926-1.883-.568-.568-1.196-.876-1.884-.926-.679-.041-1.274.193-1.783.702-.481.48-.7 1.065-.659 1.753.05.688.346 1.303.889 1.846zm.435-15.338l10.497 10.497-1.399 1.399-10.497-10.497 1.399-1.399zm15.083.516l-4.338 4.338c.535.46 1.092.694 1.672.703.576.004 1.088-.218 1.535-.665.348-.349.553-.72.615-1.113.058-.39.006-.95-.155-1.684l1.839-.522c.129.493.203.953.224 1.38a4.51 4.51 0 01-.105 1.199 3.802 3.802 0 01-.442 1.063c-.203.335-.462.66-.777.975-.903.904-1.918 1.339-3.045 1.305-1.131-.037-2.179-.538-3.144-1.504-.958-.957-1.467-1.997-1.529-3.12-.05-1.118.366-2.119 1.249-3.001.891-.89 1.879-1.311 2.964-1.262 1.078.05 2.115.574 3.114 1.573l.323.335zm-2.579.292c-.941-.55-1.784-.453-2.529.293a1.97 1.97 0 00-.398.559c-.1.199-.162.41-.187.634-.025.215-.012.435.038.659.049.223.138.445.267.664l2.809-2.809zm5.307-7.669l-.54 1.771c-.555-.19-.968-.15-1.237.119a.652.652 0 00-.199.46.59.59 0 00.187.46c.232.231.731.192 1.497-.119 1.061-.422 1.854-.627 2.381-.615.526.012 1.017.247 1.472.702.585.584.858 1.289.821 2.113-.046.792-.365 1.484-.957 2.076-1.015 1.015-2.229 1.239-3.642.671l.64-1.746c.456.124.766.182.932.174a1.22 1.22 0 00.845-.373c.473-.472.493-.924.063-1.355-.249-.248-.663-.298-1.243-.149-.212.07-.421.143-.628.218-.207.074-.419.149-.634.223-.605.207-1.09.294-1.454.261-.464-.041-.895-.26-1.293-.658-.526-.527-.781-1.142-.764-1.846.024-.713.3-1.332.826-1.858.775-.775 1.751-.951 2.927-.529zm5.171-5.17l-.541 1.77c-.555-.19-.967-.15-1.236.119a.648.648 0 00-.199.46.592.592 0 00.186.46c.232.232.732.192 1.498-.118 1.061-.423 1.854-.628 2.38-.616.526.013 1.017.247 1.473.703.584.584.858 1.288.821 2.113-.046.791-.365 1.483-.958 2.075-1.015 1.015-2.229 1.24-3.641.672l.64-1.747c.455.125.766.183.932.174.327-.012.609-.136.845-.373.472-.472.493-.924.062-1.355-.248-.248-.663-.298-1.243-.149-.211.07-.42.143-.627.218l-.634.224c-.605.207-1.09.294-1.455.26-.464-.04-.894-.26-1.292-.658-.526-.526-.781-1.142-.765-1.846.025-.713.301-1.332.827-1.858.775-.775 1.75-.951 2.927-.528zm2.107.565l2.772-2.772 1.218 1.218-2.772 2.772-1.218-1.218zm6.258-10.472l1.858 1.858c-.708-.07-1.261-.051-1.659.056-.398.1-.764.317-1.1.653-.526.526-.779 1.148-.758 1.864.021.717.309 1.353.864 1.908.567.568 1.201.866 1.901.895.705.025 1.32-.226 1.846-.752.336-.335.56-.704.671-1.106.108-.39.127-.955.056-1.697l1.846 1.846c-.273.862-.694 1.577-1.261 2.144-.937.937-2.022 1.417-3.257 1.442-1.239.02-2.31-.42-3.213-1.324-.903-.903-1.347-1.984-1.33-3.244.017-1.26.489-2.353 1.417-3.281a4.967 4.967 0 012.119-1.262zm1.094-1.616l1.398-1.398.56.56c-.013-.552.027-.972.118-1.262.099-.307.302-.614.609-.92.683-.684 1.522-.926 2.517-.727-.158-1.036.139-1.929.889-2.679 1.363-1.363 2.871-1.218 4.524.435l3.741 3.742-1.404 1.404-3.363-3.362c-.58-.58-1.06-.92-1.441-1.02-.39-.099-.75.017-1.082.349-.385.385-.522.812-.41 1.28.116.464.495 1.017 1.137 1.66l3.126 3.125-1.404 1.405-3.344-3.344c-1.077-1.077-1.926-1.305-2.548-.683-.393.393-.534.828-.422 1.305.116.472.491 1.025 1.125 1.66l3.126 3.125-1.399 1.399-6.053-6.054zm14.617-12.554l-.54 1.772c-.556-.191-.968-.152-1.237.118a.648.648 0 00-.199.46.592.592 0 00.186.46c.232.232.732.192 1.498-.119 1.061-.422 1.854-.627 2.38-.615.527.013 1.018.247 1.473.702.585.585.858 1.289.821 2.114-.046.79-.365 1.483-.957 2.075-1.015 1.015-2.229 1.239-3.642.671l.64-1.746c.456.124.766.182.932.174.327-.012.609-.137.845-.373.473-.472.493-.924.062-1.355-.248-.248-.662-.298-1.243-.149-.211.07-.42.143-.627.218-.207.074-.419.149-.634.223-.605.208-1.09.295-1.454.262-.464-.042-.895-.262-1.293-.66-.526-.526-.781-1.14-.764-1.845.024-.713.3-1.332.826-1.858.775-.775 1.751-.951 2.927-.529zm2.107.566l2.772-2.772 1.218 1.218-2.772 2.772-1.218-1.218zm12.032 1.927l-1.398 1.398-9.347-9.347 1.398-1.398.659.658c0-1.102.35-2.003 1.05-2.703.833-.833 1.825-1.212 2.977-1.137 1.156.062 2.198.557 3.126 1.485.907.907 1.392 1.935 1.454 3.082.062 1.14-.317 2.12-1.137 2.94-.709.709-1.626 1.059-2.753 1.05l3.971 3.972zm-2.958-9.608c-.58-.58-1.21-.895-1.89-.945a2.157 2.157 0 00-1.758.652c-.514.514-.752 1.109-.715 1.784.037.675.346 1.303.926 1.883.568.568 1.195.876 1.883.926.675.046 1.27-.188 1.784-.702a2.144 2.144 0 00.652-1.746c-.041-.688-.335-1.306-.882-1.852zm2.703-6.222l4.748 4.748-1.398 1.399-4.748-4.748-.597.596-1.305-1.305.597-.596-2.219-2.219 1.398-1.398 2.219 2.218 1.088-1.087 1.305 1.305-1.088 1.087zm7.731-.957l3.574-3.573 1.361 1.36-6.445 6.446-.702-7.365c-.075-.73-.149-1.35-.224-1.864-.07-.518-.147-.935-.23-1.25-.153-.625-.385-1.093-.696-1.404a2.116 2.116 0 00-1.597-.653c-.617.013-1.158.251-1.622.715-.97.97-.951 2.099.056 3.387l-1.442 1.442c-1.79-2.254-1.78-4.286.031-6.097.874-.874 1.885-1.33 3.033-1.367 1.152-.041 2.138.348 2.958 1.168.522.522.895 1.173 1.119 1.952.12.402.224.92.311 1.553.087.626.167 1.39.242 2.294l.273 3.256z"/><path fill="#B35F00" d="M368.016 131.594l4.748 4.748-1.404 1.405-4.748-4.748-.497.497-1.306-1.305.498-.498-2.337-2.336c-.762-.763-1.168-1.434-1.218-2.014-.075-.804.236-1.554.932-2.25.249-.248.634-.489 1.156-.721l1.429 1.43-.217.068c-.456.149-.781.321-.976.516-.248.249-.327.505-.236.771.087.261.379.64.876 1.137l1.995 1.995 1.523-1.523 1.305 1.305-1.523 1.523zm10.093-5.991l-4.338 4.338c.535.46 1.092.694 1.672.702.576.004 1.088-.217 1.535-.665.348-.348.553-.719.615-1.112.058-.39.007-.951-.155-1.685l1.84-.522c.128.493.203.953.223 1.38.017.423-.018.823-.105 1.2a3.801 3.801 0 01-.442 1.062 5.198 5.198 0 01-.776.976c-.904.903-1.919 1.338-3.046 1.305-1.131-.037-2.179-.538-3.144-1.504-.958-.957-1.467-1.997-1.529-3.12-.05-1.118.366-2.119 1.249-3.001.891-.891 1.879-1.312 2.964-1.262 1.078.05 2.115.574 3.114 1.572l.323.336zm-2.579.292c-.94-.551-1.784-.454-2.529.292a1.97 1.97 0 00-.398.559c-.1.199-.162.411-.187.634-.024.216-.012.435.038.659.049.224.138.446.267.665l2.809-2.809zm5.22-9.645l1.405-1.405 6.053 6.053-1.404 1.405-.634-.634c-.038 1.114-.388 2.003-1.051 2.666-.836.837-1.831 1.226-2.983 1.168-1.16-.074-2.202-.573-3.126-1.497-.907-.908-1.392-1.935-1.454-3.083-.062-1.148.315-2.129 1.131-2.946.704-.704 1.626-1.046 2.766-1.025l-.703-.702zm-.31 6.326c.58.58 1.207.897 1.883.951a2.16 2.16 0 001.759-.652c.517-.518.758-1.115.72-1.79-.049-.688-.358-1.316-.926-1.883-.567-.568-1.195-.877-1.883-.926-.679-.042-1.274.192-1.783.702-.481.481-.7 1.065-.659 1.752.05.688.346 1.304.889 1.846zm6.227-9.633l4.748 4.748-1.398 1.399-4.748-4.748-.597.596-1.305-1.305.597-.596-2.219-2.219 1.398-1.398 2.219 2.218 1.087-1.087 1.306 1.305-1.088 1.087zm.696-12.404l1.666-.647 7.221 18.21-1.659.627-7.228-18.19zm2.194-1.983l1.398-1.398 4.947 4.947c.05-.945.375-1.718.976-2.318.683-.684 1.452-1.01 2.306-.976.733.037 1.522.478 2.367 1.324l3.711 3.71-1.399 1.398-3.579-3.58c-.485-.484-.922-.747-1.312-.789-.389-.05-.775.116-1.156.497-.489.489-.681.984-.578 1.486.112.501.541 1.125 1.287 1.87l2.927 2.928-1.398 1.398-10.497-10.497zm20.297-4.698l-4.338 4.338c.535.46 1.092.694 1.672.702.576.004 1.088-.218 1.535-.665.348-.348.553-.719.616-1.113.058-.389.006-.95-.156-1.684l1.84-.522c.128.493.203.953.223 1.38a4.51 4.51 0 01-.105 1.2 3.77 3.77 0 01-.441 1.062c-.203.336-.462.66-.777.976-.903.903-1.919 1.338-3.046 1.305-1.131-.037-2.179-.539-3.144-1.504-.957-.957-1.467-1.997-1.529-3.12-.05-1.119.367-2.12 1.249-3.002.891-.89 1.879-1.311 2.965-1.261 1.077.05 2.115.574 3.113 1.572l.323.336zm-2.579.292c-.94-.551-1.783-.454-2.529.292a1.97 1.97 0 00-.398.56c-.099.198-.162.41-.186.633-.025.216-.013.435.037.659.05.224.139.445.267.665l2.809-2.81zm5.221-9.646L413.9 83.1l6.053 6.053-1.404 1.405-.634-.634c-.037 1.114-.387 2.003-1.05 2.666-.837.837-1.832 1.226-2.983 1.168-1.161-.074-2.203-.574-3.126-1.498-.908-.907-1.393-1.934-1.455-3.082-.062-1.148.315-2.13 1.131-2.946.705-.704 1.627-1.046 2.766-1.025l-.702-.703zm-.311 6.327c.58.58 1.208.897 1.883.95a2.16 2.16 0 001.759-.652c.518-.517.758-1.114.721-1.79-.05-.687-.359-1.315-.926-1.883-.568-.567-1.196-.876-1.883-.926-.68-.041-1.274.193-1.784.703-.481.48-.7 1.064-.659 1.752.05.688.346 1.303.889 1.846zm3.499-18.402l1.404-1.404 10.497 10.496-1.404 1.405-.634-.634c-.013 1.09-.367 1.982-1.063 2.678-.829.83-1.819 1.215-2.971 1.156-1.16-.074-2.202-.573-3.126-1.497-.903-.904-1.386-1.929-1.448-3.077-.07-1.147.303-2.13 1.119-2.946.708-.708 1.632-1.052 2.772-1.031l-5.146-5.146zm4.133 10.77c.58.58 1.207.897 1.883.951a2.16 2.16 0 001.759-.652c.517-.518.758-1.115.721-1.79-.05-.688-.359-1.316-.926-1.883-.568-.568-1.196-.877-1.884-.926-.679-.042-1.274.192-1.783.702-.481.48-.7 1.065-.659 1.752.05.688.346 1.303.889 1.846zm.435-15.338l10.497 10.497-1.399 1.398-10.497-10.496 1.399-1.399zm15.083.516l-4.338 4.338c.535.46 1.092.694 1.672.702.576.004 1.088-.217 1.535-.665.348-.348.553-.719.615-1.112.058-.39.006-.951-.155-1.684l1.839-.523c.129.493.203.953.224 1.38a4.51 4.51 0 01-.105 1.2 3.802 3.802 0 01-.442 1.062 5.165 5.165 0 01-.777.976c-.903.903-1.918 1.338-3.045 1.305-1.131-.037-2.179-.538-3.144-1.504-.958-.957-1.467-1.997-1.529-3.12-.05-1.118.366-2.119 1.249-3.001.891-.891 1.879-1.312 2.964-1.262 1.078.05 2.115.574 3.114 1.572l.323.336zm-2.579.292c-.941-.551-1.784-.454-2.529.292a1.97 1.97 0 00-.398.56c-.1.198-.162.41-.187.633-.025.216-.012.435.038.66.049.223.138.445.267.664l2.809-2.809zM438.063 61l-.54 1.771c-.555-.19-.968-.151-1.237.118a.652.652 0 00-.199.46.59.59 0 00.187.46c.232.232.731.193 1.497-.118 1.061-.423 1.854-.628 2.381-.615.526.012 1.017.246 1.472.702.585.584.858 1.289.821 2.113-.046.791-.365 1.483-.957 2.076-1.015 1.015-2.229 1.239-3.642.671l.64-1.746c.456.124.766.182.932.174.328-.013.609-.137.845-.373.473-.473.493-.924.063-1.355-.249-.249-.663-.298-1.243-.15-.212.071-.421.144-.628.218-.207.075-.419.15-.634.224-.605.207-1.09.294-1.454.261-.464-.041-.895-.261-1.293-.659-.526-.526-.781-1.141-.764-1.846.024-.712.3-1.332.826-1.858.775-.774 1.751-.95 2.927-.528zm5.171-5.17l-.541 1.77c-.555-.19-.967-.15-1.236.119a.648.648 0 00-.199.46.592.592 0 00.186.46c.232.231.732.192 1.498-.119 1.061-.422 1.854-.627 2.38-.615.526.012 1.017.246 1.473.702.584.584.858 1.289.821 2.113-.046.792-.365 1.484-.958 2.076-1.015 1.015-2.229 1.239-3.641.671l.64-1.746c.455.124.766.182.932.174.327-.013.609-.137.845-.373.472-.472.493-.924.062-1.355-.248-.248-.663-.298-1.243-.149-.211.07-.42.143-.627.218a64.82 64.82 0 01-.634.223c-.605.207-1.09.294-1.455.261-.464-.041-.894-.26-1.292-.658-.526-.527-.781-1.142-.765-1.846.025-.713.301-1.332.827-1.858.775-.775 1.75-.951 2.927-.529zm2.107.565l2.772-2.772 1.218 1.218-2.772 2.772-1.218-1.218zm6.258-10.472l1.858 1.858c-.708-.07-1.261-.052-1.659.056-.398.1-.764.317-1.1.653-.526.526-.779 1.147-.758 1.864.021.717.309 1.353.864 1.908.567.568 1.201.866 1.901.895.705.025 1.32-.226 1.846-.752.336-.336.56-.704.671-1.106.108-.39.127-.955.056-1.697l1.846 1.846c-.273.862-.694 1.576-1.261 2.144-.937.936-2.022 1.417-3.257 1.442-1.239.02-2.31-.42-3.213-1.324-.903-.903-1.347-1.985-1.33-3.244.017-1.26.489-2.353 1.417-3.282a4.967 4.967 0 012.119-1.261zm1.094-1.616l1.398-1.398.56.559c-.013-.551.027-.972.118-1.262.099-.306.302-.613.609-.92.683-.683 1.522-.925 2.517-.727-.158-1.035.139-1.928.889-2.678 1.363-1.363 2.871-1.218 4.524.435l3.741 3.741-1.404 1.405-3.363-3.362c-.58-.58-1.06-.92-1.441-1.02-.39-.1-.75.017-1.082.348-.385.386-.522.813-.41 1.28.116.465.495 1.018 1.137 1.66l3.126 3.126-1.404 1.405-3.344-3.344c-1.077-1.077-1.926-1.305-2.548-.684-.393.394-.534.83-.422 1.305.116.473.491 1.026 1.125 1.66l3.126 3.126-1.399 1.398-6.053-6.053zm14.617-12.554l-.54 1.771c-.556-.19-.968-.15-1.237.118a.648.648 0 00-.199.46.592.592 0 00.186.46c.232.232.732.193 1.498-.118 1.061-.422 1.854-.628 2.38-.615.527.012 1.018.246 1.473.702.585.584.858 1.289.821 2.113-.046.791-.365 1.483-.957 2.076-1.015 1.015-2.229 1.239-3.642.671l.64-1.746c.456.124.766.182.932.174.327-.013.609-.137.845-.373.473-.472.493-.924.062-1.355-.248-.248-.662-.298-1.243-.15-.211.071-.42.144-.627.218-.207.075-.419.15-.634.224-.605.207-1.09.294-1.454.261-.464-.041-.895-.26-1.293-.659-.526-.526-.781-1.141-.764-1.845.024-.713.3-1.332.826-1.859.775-.774 1.751-.95 2.927-.528z"/><path fill="#555" d="M24.812 138.44l-.54 1.771c-.555-.191-.968-.151-1.237.118a.652.652 0 00-.199.46.59.59 0 00.187.46c.232.232.73.193 1.497-.118 1.061-.423 1.854-.628 2.38-.615.527.012 1.018.246 1.474.702.584.584.857 1.288.82 2.113-.046.791-.365 1.483-.957 2.076-1.015 1.015-2.23 1.238-3.642.671l.64-1.747c.456.125.767.183.932.174a1.22 1.22 0 00.845-.372c.473-.473.494-.924.063-1.355-.249-.249-.663-.299-1.243-.149-.212.07-.42.142-.628.217-.207.075-.419.149-.634.224-.605.207-1.09.294-1.454.261-.464-.042-.895-.261-1.293-.659-.526-.526-.78-1.141-.764-1.846.024-.712.3-1.332.826-1.858.775-.775 1.75-.951 2.927-.528zm3.369-2.822l4.748 4.748-1.398 1.399-4.748-4.748-.597.596-1.305-1.305.596-.597-2.218-2.218 1.398-1.399 2.219 2.219 1.087-1.087 1.305 1.305-1.087 1.087zm5.307-7.917l1.405-1.405 6.053 6.053-1.404 1.405-.634-.634c-.038 1.114-.388 2.003-1.05 2.666-.838.837-1.832 1.226-2.984 1.168-1.16-.074-2.202-.573-3.126-1.497-.907-.908-1.392-1.935-1.454-3.083-.062-1.148.315-2.129 1.13-2.946.705-.704 1.627-1.046 2.767-1.025l-.703-.702zm-.31 6.326c.58.58 1.207.897 1.883.951a2.16 2.16 0 001.758-.652c.518-.518.759-1.115.721-1.79-.05-.688-.358-1.316-.926-1.883-.567-.568-1.195-.877-1.883-.926-.68-.042-1.274.192-1.783.702-.481.481-.7 1.065-.66 1.752.05.688.347 1.304.89 1.846zm15.244-9.44c.286.286.527.547.721.783.203.236.371.454.504.653.356.555.553 1.141.59 1.758.083 1.177-.354 2.244-1.311 3.201-.808.808-1.69 1.255-2.648 1.342-.986.092-1.916-.217-2.79-.926l1.404-1.404c.353.244.672.385.957.422.668.087 1.279-.147 1.834-.702 1.023-1.023.907-2.163-.348-3.418l-.845-.845c.012 1.123-.344 2.047-1.07 2.772-.824.824-1.797 1.201-2.92 1.131-1.136-.075-2.157-.566-3.064-1.473-.883-.883-1.386-1.879-1.51-2.99-.125-1.184.248-2.212 1.118-3.082.763-.762 1.68-1.112 2.754-1.05l-.684-.684 1.398-1.398 5.91 5.91zm-4.213-1.529c-.589-.588-1.216-.901-1.883-.938-.68-.042-1.268.186-1.765.683-.53.531-.752 1.146-.665 1.846.074.63.391 1.224.95 1.784.552.551 1.142.864 1.772.938.688.083 1.299-.143 1.833-.677.535-.535.763-1.152.684-1.852-.066-.638-.375-1.233-.926-1.784zm1.466-7.545l6.054 6.054-1.399 1.398-6.053-6.053 1.398-1.399zm-4.126-.907a1.224 1.224 0 01-.367-.901c0-.356.124-.659.373-.908.253-.252.557-.379.914-.379a1.22 1.22 0 01.907.373c.253.253.38.558.38.914a1.22 1.22 0 01-.374.907 1.244 1.244 0 01-.913.379c-.357 0-.663-.128-.92-.385zm5.898-.864l1.404-1.404.56.559c.004-.974.312-1.767.926-2.38.704-.705 1.475-1.032 2.311-.982.717.037 1.502.482 2.356 1.336l3.71 3.71-1.404 1.405-3.381-3.381c-.597-.597-1.092-.926-1.486-.988-.393-.071-.803.107-1.23.534-.464.464-.64.947-.528 1.448.111.493.544 1.117 1.298 1.871l2.922 2.921-1.405 1.404-6.053-6.053zm18.75-6.929c.286.286.526.547.72.783.204.236.371.453.504.652.356.555.553 1.142.59 1.759.083 1.177-.354 2.244-1.31 3.201-.809.808-1.691 1.255-2.648 1.342-.986.091-1.917-.217-2.79-.926l1.404-1.404c.352.244.671.385.957.422.667.087 1.278-.147 1.833-.702 1.024-1.024.908-2.163-.348-3.418l-.845-.846c.012 1.123-.344 2.047-1.069 2.772-.825.825-1.798 1.202-2.92 1.131-1.136-.074-2.157-.565-3.065-1.473-.882-.882-1.386-1.878-1.51-2.989-.124-1.185.249-2.212 1.119-3.082.762-.763 1.68-1.113 2.753-1.051l-.684-.683 1.398-1.399 5.91 5.911zm-4.214-1.529c-.588-.589-1.216-.901-1.883-.939-.68-.041-1.268.187-1.765.684-.53.53-.752 1.146-.665 1.846.075.63.392 1.224.95 1.783.552.551 1.142.864 1.772.939.688.083 1.299-.143 1.833-.678.535-.534.763-1.151.684-1.852-.066-.638-.375-1.232-.926-1.783z"/><path fill="#B7B5BD" d="M396.292 171.293a.999.999 0 000 1.414l6.364 6.364a.999.999 0 101.414-1.414L398.413 172l5.657-5.657a1 1 0 00-1.414-1.414l-6.364 6.364zm24.707-.293h-24v2h24v-2zm-111.707 2.293a.999.999 0 000 1.414l6.364 6.364a.999.999 0 101.414-1.414L311.413 174l5.657-5.657a1 1 0 00-1.414-1.414l-6.364 6.364zm24.707-.293h-24v2h24v-2zm-110.707.293a.999.999 0 000 1.414l6.364 6.364a.999.999 0 101.414-1.414L225.413 174l5.657-5.657a1 1 0 00-1.414-1.414l-6.364 6.364zm24.707-.293h-24v2h24v-2zm-110.707.293a.999.999 0 000 1.414l6.364 6.364a.999.999 0 101.414-1.414L139.413 174l5.657-5.657a1 1 0 00-1.414-1.414l-6.364 6.364zm24.707-.293h-24v2h24v-2zm-110.707.293a1 1 0 000 1.414l6.364 6.364a1 1 0 101.414-1.414L53.413 174l5.657-5.657a1 1 0 10-1.414-1.414l-6.364 6.364zM75.999 173h-24v2h24v-2z"/></g><defs><clipPath id="clip0"><path fill="#fff" d="M0 0h593v227H0z"/></clipPath></defs></svg>