<svg xmlns="http://www.w3.org/2000/svg" width="827" height="299" fill="none" focusable="false" viewBox="0 0 827 299"><path fill="#fff" d="M0 0h827v299H0z"/><path fill="#0F1144" d="M0 149h827v150H0z"/><circle cx="335" cy="241" r="19" fill="#B7B5BD" stroke="#0F1144" stroke-width="4"/><circle cx="422.999" cy="240" r="19" fill="#B7B5BD" stroke="#0F1144" stroke-width="4"/><path fill="#B7B5BD" d="M429.552 269.451l-1.661.985c-.311-.54-.607-.891-.888-1.055-.293-.188-.671-.281-1.134-.281-.568 0-1.04.161-1.415.483a1.497 1.497 0 00-.562 1.195c0 .662.492 1.196 1.476 1.6l1.354.554c1.101.445 1.907.99 2.417 1.634.509.639.764 1.424.764 2.356 0 1.248-.416 2.279-1.248 3.094-.838.82-1.878 1.23-3.12 1.23-1.178 0-2.15-.349-2.918-1.046-.756-.697-1.227-1.679-1.415-2.944l2.074-.457c.094.797.258 1.347.493 1.652.421.586 1.037.879 1.845.879.639 0 1.169-.214 1.591-.642.422-.427.633-.969.633-1.626 0-.263-.038-.503-.114-.72a1.707 1.707 0 00-.343-.607 2.51 2.51 0 00-.598-.518 5.499 5.499 0 00-.879-.466l-1.309-.545c-1.858-.785-2.786-1.934-2.786-3.445 0-1.02.389-1.872 1.169-2.558.779-.691 1.749-1.037 2.909-1.037 1.564 0 2.786.762 3.665 2.285z"/><circle cx="508" cy="242" r="23" fill="#B7B5BD" stroke="#F42589" stroke-width="4"/><circle cx="508" cy="241.934" r="19" fill="#B7B5BD" stroke="#0F1144" stroke-width="4"/><path fill="#B7B5BD" d="M512.525 272.288h-5.44v3.261h5.282v1.925h-5.282v4.535h5.44v1.925h-7.488v-13.57h7.488v1.924z"/><path fill="#F42589" d="M522.01 209.54l-1.399 1.398-9.347-9.347 1.399-1.398.658.659c0-1.102.351-2.004 1.051-2.704.832-.833 1.825-1.212 2.977-1.137 1.156.062 2.198.557 3.126 1.485.907.908 1.392 1.935 1.454 3.083.062 1.139-.317 2.119-1.137 2.939-.709.709-1.627 1.059-2.754 1.051l3.972 3.971zm-2.959-9.608c-.58-.58-1.209-.895-1.889-.945a2.161 2.161 0 00-1.759.653c-.513.514-.752 1.108-.714 1.783.037.676.346 1.303.926 1.884.567.567 1.195.876 1.883.926.675.045 1.27-.189 1.783-.703a2.142 2.142 0 00.653-1.746c-.041-.688-.336-1.305-.883-1.852zm2.704-6.221l4.748 4.748-1.398 1.398-4.748-4.748-.597.597-1.305-1.305.596-.597-2.218-2.219 1.398-1.398 2.219 2.219 1.087-1.088 1.305 1.305-1.087 1.088zm7.731-.957l3.574-3.574 1.361 1.361-6.445 6.445-.702-7.364c-.075-.73-.15-1.351-.224-1.865a10.93 10.93 0 00-.23-1.249c-.153-.626-.385-1.094-.696-1.405-.448-.447-.98-.665-1.597-.652-.618.012-1.158.25-1.622.714-.97.97-.951 2.099.056 3.388l-1.442 1.441c-1.79-2.254-1.78-4.286.031-6.096.874-.875 1.885-1.33 3.033-1.368 1.151-.041 2.138.348 2.958 1.169.522.522.895 1.172 1.119 1.951.12.402.223.92.31 1.554.087.626.168 1.39.243 2.293l.273 3.257z"/><path fill="#B7B5BD" d="M338.812 205.44l-.54 1.771c-.555-.191-.968-.151-1.237.118a.653.653 0 00-.199.46.59.59 0 00.187.46c.232.232.731.193 1.497-.118 1.061-.423 1.854-.628 2.381-.615.526.012 1.017.246 1.472.702.585.584.858 1.288.821 2.113-.046.791-.365 1.483-.957 2.076-1.015 1.015-2.229 1.238-3.642.671l.64-1.747c.456.125.766.183.932.174a1.22 1.22 0 00.845-.372c.473-.473.493-.924.063-1.355-.249-.249-.663-.299-1.243-.149-.212.07-.421.142-.628.217-.207.075-.419.149-.634.224-.605.207-1.09.294-1.454.261-.464-.042-.895-.261-1.293-.659-.526-.526-.781-1.141-.764-1.846.025-.712.3-1.332.826-1.858.775-.775 1.751-.951 2.927-.528zm3.369-2.822l4.748 4.748-1.398 1.399-4.749-4.748-.596.596-1.305-1.305.596-.597-2.218-2.218 1.398-1.399 2.219 2.219 1.087-1.087 1.305 1.305-1.087 1.087zm5.307-7.917l1.405-1.405 6.053 6.053-1.405 1.405-.633-.634c-.038 1.114-.388 2.003-1.051 2.666-.837.837-1.831 1.226-2.983 1.168-1.16-.074-2.202-.573-3.126-1.497-.907-.908-1.392-1.935-1.454-3.083-.062-1.148.315-2.129 1.131-2.946.704-.704 1.626-1.046 2.766-1.025l-.703-.702zm-.31 6.326c.58.58 1.207.897 1.883.951a2.159 2.159 0 001.758-.652c.518-.518.759-1.115.721-1.79-.049-.688-.358-1.316-.926-1.883-.567-.568-1.195-.877-1.883-.926-.679-.042-1.274.192-1.783.702a2.183 2.183 0 00-.659 1.752c.05.688.346 1.304.889 1.846zm15.244-9.44c.286.286.527.547.721.783.203.236.371.454.504.653.356.555.553 1.141.59 1.758.083 1.177-.354 2.244-1.311 3.201-.808.808-1.691 1.255-2.648 1.342-.986.092-1.916-.217-2.79-.926l1.404-1.404c.353.244.672.385.958.422.667.087 1.278-.147 1.833-.702 1.023-1.023.907-2.163-.348-3.418l-.845-.845c.012 1.123-.344 2.047-1.069 2.772-.825.824-1.798 1.201-2.921 1.131-1.136-.075-2.157-.566-3.064-1.473-.883-.883-1.386-1.879-1.51-2.99-.125-1.184.248-2.212 1.118-3.082.763-.762 1.68-1.112 2.753-1.05l-.683-.684 1.398-1.398 5.91 5.91zm-4.213-1.529c-.589-.588-1.216-.901-1.883-.938-.68-.042-1.268.186-1.765.683-.531.531-.752 1.146-.665 1.846.074.63.391 1.224.951 1.784.551.551 1.141.864 1.771.938.688.083 1.299-.143 1.833-.677.535-.535.763-1.152.684-1.852-.066-.638-.375-1.233-.926-1.784zm1.466-7.545l6.054 6.054-1.399 1.398-6.053-6.053 1.398-1.399zm-4.126-.907a1.223 1.223 0 01-.367-.901c0-.356.124-.659.373-.908.253-.252.557-.379.914-.379a1.22 1.22 0 01.907.373c.253.253.379.558.379.914.004.352-.12.654-.373.907a1.244 1.244 0 01-.913.379c-.357 0-.663-.128-.92-.385zm5.898-.864l1.404-1.404.56.559c.004-.974.312-1.767.926-2.38.704-.705 1.475-1.032 2.312-.982.716.037 1.501.482 2.355 1.336l3.71 3.71-1.404 1.405-3.381-3.381c-.597-.597-1.092-.926-1.486-.988-.393-.071-.803.107-1.23.534-.464.464-.64.947-.528 1.448.111.493.544 1.117 1.299 1.871l2.92 2.921-1.404 1.404-6.053-6.053zm18.75-6.929c.286.286.526.547.721.783.203.236.371.453.503.652.356.555.553 1.142.591 1.759.082 1.177-.355 2.244-1.312 3.201-.808.808-1.69 1.255-2.647 1.342-.986.091-1.917-.217-2.791-.926l1.405-1.404c.352.244.671.385.957.422.667.087 1.278-.147 1.833-.702 1.024-1.024.908-2.163-.348-3.418l-.845-.846c.012 1.123-.344 2.047-1.069 2.772-.824.825-1.798 1.202-2.921 1.131-1.135-.074-2.156-.565-3.064-1.473-.882-.882-1.386-1.878-1.51-2.989-.124-1.185.249-2.212 1.119-3.082.762-.763 1.68-1.113 2.753-1.051l-.684-.683 1.398-1.399 5.911 5.911zm-4.214-1.529c-.588-.589-1.216-.901-1.883-.939-.679-.041-1.268.187-1.765.684-.53.53-.752 1.146-.665 1.846.075.63.392 1.224.951 1.783.551.551 1.141.864 1.771.939.688.083 1.299-.143 1.834-.678.534-.534.762-1.151.683-1.852-.066-.638-.375-1.232-.926-1.783zm75.31 68.943a.999.999 0 000 1.414l6.364 6.364a.999.999 0 101.414-1.414l-5.657-5.657 5.657-5.657a.999.999 0 10-1.414-1.414l-6.364 6.364zm24.707-.293h-24v2h24v-2zm-108.708-.641a.999.999 0 000 1.414l6.364 6.364a.999.999 0 101.414-1.414L369.413 241l5.657-5.657a1 1 0 00-1.414-1.414l-6.364 6.364zm24.707-.293h-24v2h24v-2z"/><circle cx="679" cy="85" r="23" fill="#B7B5BD" stroke="#FB8400" stroke-width="4"/><circle cx="765" cy="85" r="23" fill="#B7B5BD" stroke="#E60C75" stroke-width="4"/><circle cx="335" cy="87" r="19" fill="#B7B5BD" stroke="#fff" stroke-width="4"/><circle cx="420.999" cy="86" r="19" fill="#B7B5BD" stroke="#fff" stroke-width="4"/><circle cx="506.999" cy="86" r="19" fill="#B7B5BD" stroke="#fff" stroke-width="4"/><path fill="#555" d="M423.595 124.704h-5.809L416.274 128h-2.206l6.715-14.423L427.26 128h-2.241l-1.424-3.296zm-.835-1.925l-2.012-4.614-2.11 4.614h4.122zM503.624 128v-13.57h2.039c.908 0 1.632.07 2.171.211.545.14 1.005.378 1.38.712a3.7 3.7 0 01.905 1.292c.228.521.343 1.048.343 1.582 0 .972-.373 1.795-1.117 2.469a3.279 3.279 0 011.705 1.292c.422.61.633 1.319.633 2.127 0 1.061-.375 1.957-1.125 2.69a3.696 3.696 0 01-1.52.94c-.616.17-1.386.255-2.312.255h-3.102zm2.048-7.743h.641c.762 0 1.318-.167 1.67-.501.357-.34.536-.838.536-1.494 0-.639-.181-1.122-.545-1.45-.363-.334-.89-.501-1.582-.501h-.72v3.946zm0 5.818h1.265c.926 0 1.606-.181 2.039-.545.457-.392.686-.89.686-1.494 0-.586-.22-1.078-.659-1.476-.428-.393-1.193-.589-2.294-.589h-1.037v4.104z"/><circle cx="592.999" cy="85" r="19" fill="#B7B5BD" stroke="#fff" stroke-width="4"/><path fill="#555" d="M587.625 127v-13.57h2.847c1.366 0 2.444.134 3.235.404.849.264 1.62.712 2.311 1.345 1.401 1.277 2.101 2.956 2.101 5.036 0 2.086-.73 3.773-2.189 5.062-.732.645-1.5 1.093-2.302 1.345-.75.252-1.814.378-3.191.378h-2.812zm2.048-1.925h.923c.919 0 1.684-.096 2.293-.29a4.653 4.653 0 001.653-.975c1.008-.92 1.512-2.119 1.512-3.595 0-1.488-.499-2.695-1.495-3.621-.896-.826-2.217-1.24-3.963-1.24h-.923v9.721z"/><circle cx="678.999" cy="85" r="19" fill="#B7B5BD" stroke="#fff" stroke-width="4"/><path fill="#555" d="M671.493 127l2.856-14.59 4.659 10.547 4.825-10.547 2.566 14.59h-2.1l-1.31-8.191-4.017 8.815-3.902-8.824-1.459 8.2h-2.118z"/><circle cx="764.999" cy="85" r="19" fill="#B7B5BD" stroke="#fff" stroke-width="4"/><path fill="#555" d="M769.524 115.354h-5.44v3.261h5.282v1.925h-5.282v4.535h5.44V127h-7.488v-13.57h7.488v1.924z"/><path fill="#E60C75" d="M784.008 52.606l-1.398 1.398-9.347-9.347 1.398-1.398.659.659c0-1.102.35-2.004 1.05-2.704.833-.833 1.826-1.212 2.977-1.137 1.156.062 2.198.557 3.126 1.485.908.908 1.393 1.935 1.455 3.083.062 1.14-.317 2.119-1.138 2.94-.708.708-1.626 1.058-2.753 1.05l3.971 3.97zm-2.958-9.608c-.58-.58-1.21-.895-1.889-.945a2.16 2.16 0 00-1.759.653c-.514.513-.752 1.108-.715 1.783.038.676.346 1.303.926 1.884.568.567 1.196.876 1.884.925.675.046 1.269-.188 1.783-.702a2.145 2.145 0 00.653-1.746c-.042-.688-.336-1.305-.883-1.852zm2.704-6.221l4.748 4.748-1.399 1.398-4.748-4.748-.596.597-1.305-1.305.596-.597-2.218-2.219 1.398-1.398 2.219 2.219 1.087-1.088 1.305 1.305-1.087 1.088zm7.731-.957l3.573-3.574 1.361 1.361-6.444 6.445-.703-7.364a45.525 45.525 0 00-.223-1.865 10.931 10.931 0 00-.23-1.25c-.154-.625-.386-1.093-.696-1.404-.448-.447-.98-.665-1.598-.652-.617.012-1.158.25-1.622.715-.969.969-.95 2.098.056 3.387l-1.441 1.441c-1.79-2.254-1.78-4.286.031-6.096.874-.875 1.885-1.33 3.032-1.368 1.152-.041 2.138.348 2.959 1.169.522.522.895 1.172 1.118 1.951.12.402.224.92.311 1.554.087.626.168 1.39.242 2.293l.274 3.257z"/><path fill="#B35F00" d="M690.009 52.686l-1.399 1.398-9.347-9.347 1.398-1.398.659.658c0-1.102.35-2.003 1.051-2.703.832-.833 1.825-1.212 2.976-1.137 1.156.062 2.198.557 3.126 1.485.908.907 1.393 1.935 1.455 3.082.062 1.14-.317 2.12-1.138 2.94-.708.709-1.626 1.059-2.753 1.05l3.972 3.972zm-2.959-9.608c-.58-.58-1.21-.895-1.889-.945a2.16 2.16 0 00-1.759.652c-.514.514-.752 1.109-.714 1.784.037.675.345 1.303.926 1.883.567.568 1.195.877 1.883.926.675.046 1.269-.188 1.783-.702a2.142 2.142 0 00.653-1.746c-.042-.688-.336-1.306-.883-1.852zm2.704-6.222l4.748 4.749-1.398 1.398-4.749-4.748-.596.596-1.305-1.305.596-.596-2.218-2.219 1.398-1.398 2.219 2.218 1.087-1.087 1.305 1.305-1.087 1.087zm1.112-8.097l-1.659 1.659-.559-2.15 2.311-2.312 9.596 9.595L699.107 37l-8.241-8.24z"/><path fill="#555" d="M338.812 51.44l-.54 1.771c-.555-.19-.968-.151-1.237.118a.652.652 0 00-.199.46.59.59 0 00.187.46c.232.232.731.192 1.497-.118 1.061-.423 1.854-.628 2.381-.615.526.012 1.017.246 1.472.702.585.584.858 1.288.821 2.113-.046.791-.365 1.483-.957 2.076-1.015 1.015-2.229 1.238-3.642.67l.64-1.746c.456.125.766.183.932.174a1.22 1.22 0 00.845-.373c.473-.472.493-.923.063-1.354-.249-.249-.663-.299-1.243-.15-.212.071-.421.144-.628.218-.207.075-.419.15-.634.224-.605.207-1.09.294-1.454.26-.464-.04-.895-.26-1.293-.658-.526-.526-.781-1.141-.764-1.846.025-.712.3-1.332.826-1.858.775-.775 1.751-.95 2.927-.528zm3.369-2.822l4.748 4.748-1.398 1.399-4.749-4.748-.596.596-1.305-1.305.596-.596-2.218-2.22 1.398-1.398 2.219 2.22 1.087-1.088 1.305 1.305-1.087 1.087zm5.307-7.917l1.405-1.405 6.053 6.053-1.405 1.405-.633-.634c-.038 1.114-.388 2.003-1.051 2.666-.837.837-1.831 1.226-2.983 1.168-1.16-.074-2.202-.573-3.126-1.497-.907-.908-1.392-1.935-1.454-3.083-.062-1.148.315-2.13 1.131-2.946.704-.704 1.626-1.046 2.766-1.025l-.703-.702zm-.31 6.326c.58.58 1.207.897 1.883.951a2.158 2.158 0 001.758-.652c.518-.518.759-1.115.721-1.79-.049-.688-.358-1.316-.926-1.883-.567-.568-1.195-.877-1.883-.926-.679-.042-1.274.192-1.783.702a2.183 2.183 0 00-.659 1.752c.05.688.346 1.303.889 1.846zm15.244-9.44c.286.286.527.547.721.783.203.236.371.454.504.653a3.62 3.62 0 01.59 1.758c.083 1.177-.354 2.244-1.311 3.201-.808.808-1.691 1.255-2.648 1.342-.986.092-1.916-.217-2.79-.926l1.404-1.404c.353.244.672.385.958.422.667.088 1.278-.147 1.833-.702 1.023-1.023.907-2.163-.348-3.418l-.845-.845c.012 1.123-.344 2.047-1.069 2.772-.825.824-1.798 1.201-2.921 1.13-1.136-.074-2.157-.565-3.064-1.472-.883-.883-1.386-1.88-1.51-2.99-.125-1.184.248-2.212 1.118-3.082.763-.762 1.68-1.112 2.753-1.05l-.683-.684 1.398-1.398 5.91 5.91zm-4.213-1.529c-.589-.588-1.216-.901-1.883-.938-.68-.042-1.268.186-1.765.683-.531.53-.752 1.146-.665 1.846.074.63.391 1.224.951 1.784.551.55 1.141.864 1.771.938.688.083 1.299-.143 1.833-.677.535-.535.763-1.152.684-1.852-.066-.638-.375-1.233-.926-1.784zm1.466-7.545l6.054 6.054-1.399 1.398-6.053-6.053 1.398-1.399zm-4.126-.907a1.223 1.223 0 01-.367-.901c0-.356.124-.659.373-.907.253-.253.557-.38.914-.38.352-.004.654.12.907.373s.379.558.379.914c.004.352-.12.655-.373.907-.253.253-.557.38-.913.38a1.26 1.26 0 01-.92-.386zm5.898-.864l1.404-1.404.56.559c.004-.974.312-1.767.926-2.38.704-.705 1.475-1.032 2.312-.982.716.037 1.501.482 2.355 1.336l3.71 3.71-1.404 1.405-3.381-3.381c-.597-.597-1.092-.926-1.486-.988-.393-.07-.803.107-1.23.534-.464.464-.64.947-.528 1.448.111.493.544 1.117 1.299 1.87l2.92 2.922-1.404 1.404-6.053-6.053zm18.75-6.93c.286.287.526.547.721.784.203.236.371.453.503.652.356.555.553 1.142.591 1.759.082 1.177-.355 2.244-1.312 3.2-.808.809-1.69 1.256-2.647 1.343-.986.091-1.917-.218-2.791-.926l1.405-1.404c.352.244.671.385.957.422.667.087 1.278-.147 1.833-.702 1.024-1.024.908-2.163-.348-3.418l-.845-.845c.012 1.122-.344 2.046-1.069 2.771-.824.825-1.798 1.202-2.921 1.131-1.135-.074-2.156-.565-3.064-1.473-.882-.882-1.386-1.879-1.51-2.989-.124-1.185.249-2.212 1.119-3.082.762-.763 1.68-1.113 2.753-1.05l-.684-.684 1.398-1.399 5.911 5.91zm-4.214-1.528c-.588-.588-1.216-.901-1.883-.939-.679-.041-1.268.187-1.765.684-.53.53-.752 1.146-.665 1.846.075.63.392 1.224.951 1.783.551.551 1.141.864 1.771.939.688.083 1.299-.143 1.834-.678.534-.534.762-1.151.683-1.852-.066-.638-.375-1.232-.926-1.783z"/><path fill="#B7B5BD" d="M710.292 84.293a1 1 0 000 1.414l6.364 6.364a1 1 0 101.414-1.414L712.413 85l5.657-5.657a1 1 0 00-1.414-1.414l-6.364 6.364zM734.999 84h-24v2h24v-2zm-111.707 2.293a1 1 0 000 1.414l6.364 6.364a1 1 0 101.414-1.414L625.413 87l5.657-5.657a1 1 0 00-1.414-1.414l-6.364 6.364zM647.999 86h-24v2h24v-2zm-110.707.293a1 1 0 000 1.414l6.364 6.364a1 1 0 101.414-1.414L539.413 87l5.657-5.657a1 1 0 00-1.414-1.414l-6.364 6.364zM561.999 86h-24v2h24v-2zm-110.707.293a1 1 0 000 1.414l6.364 6.364a1 1 0 101.414-1.414L453.413 87l5.657-5.657a1 1 0 00-1.414-1.414l-6.364 6.364zM475.999 86h-24v2h24v-2zm-110.707.293a1 1 0 000 1.414l6.364 6.364a1 1 0 101.414-1.414L367.413 87l5.657-5.657a1 1 0 00-1.414-1.414l-6.364 6.364zM389.999 86h-24v2h24v-2z"/><path fill="#5C5C5C" d="M23.674 48.43v8.173c0 1.166.19 2.02.571 2.558.569.78 1.368 1.17 2.4 1.17 1.037 0 1.84-.39 2.408-1.17.38-.521.571-1.374.571-2.558V48.43h2.048v8.736c0 1.43-.445 2.607-1.336 3.533-1.002 1.032-2.232 1.547-3.691 1.547-1.46 0-2.687-.516-3.683-1.547-.89-.926-1.336-2.103-1.336-3.533V48.43h2.048zm11.004 5.01h1.986v.79c.691-.685 1.47-1.028 2.338-1.028.996 0 1.772.314 2.33.94.48.534.72 1.404.72 2.61V62h-1.987v-4.781c0-.844-.117-1.427-.351-1.75-.229-.327-.645-.492-1.248-.492-.656 0-1.122.217-1.398.65-.27.429-.404 1.176-.404 2.242V62h-1.986v-8.56zm11.856 0V62h-1.977v-8.56h1.977zm-2.276-3.56c0-.346.126-.645.378-.897s.553-.377.905-.377c.357 0 .662.125.914.377.252.247.378.548.378.906 0 .357-.126.662-.378.914a1.216 1.216 0 01-.905.378c-.358 0-.662-.126-.914-.378a1.255 1.255 0 01-.378-.923zm5.844 3.56l2.215 4.807 2.206-4.807h2.224L52.3 62.589l-4.412-9.15h2.215zm15.47 4.745h-6.136c.053.704.282 1.263.686 1.68.404.41.923.614 1.556.614.492 0 .9-.117 1.221-.351.317-.234.677-.668 1.081-1.3l1.67.93a6.81 6.81 0 01-.817 1.135 4.53 4.53 0 01-.923.773c-.328.2-.682.346-1.063.44a5.18 5.18 0 01-1.24.14c-1.277 0-2.302-.41-3.076-1.23-.773-.826-1.16-1.922-1.16-3.288 0-1.353.375-2.449 1.125-3.287.756-.826 1.758-1.239 3.006-1.239 1.26 0 2.256.401 2.988 1.204.727.797 1.09 1.902 1.09 3.314l-.009.465zm-2.031-1.617c-.275-1.054-.94-1.582-1.995-1.582-.24 0-.466.038-.677.115-.21.07-.404.175-.58.316-.17.135-.316.299-.44.492a2.307 2.307 0 00-.28.66h3.972zm4.201-3.128h1.978v.764c.363-.38.685-.642.966-.782.288-.147.627-.22 1.02-.22.522 0 1.066.17 1.635.51l-.905 1.81c-.376-.27-.742-.404-1.1-.404-1.077 0-1.616.815-1.616 2.444V62h-1.978v-8.56zm11.707 1.458l-1.635.87c-.257-.527-.577-.79-.958-.79a.65.65 0 00-.465.184.589.589 0 00-.194.457c0 .328.381.654 1.143.976 1.049.45 1.755.867 2.118 1.248.363.38.545.893.545 1.538 0 .826-.305 1.517-.914 2.074-.592.527-1.307.791-2.145.791-1.435 0-2.452-.7-3.05-2.1l1.688-.783c.234.41.413.671.536.782.24.223.528.334.862.334.667 0 1.001-.304 1.001-.914 0-.351-.257-.68-.773-.984-.2-.1-.398-.196-.598-.29-.199-.094-.401-.19-.606-.29-.574-.281-.979-.563-1.213-.844-.299-.357-.448-.817-.448-1.38 0-.744.255-1.359.764-1.845.522-.487 1.155-.73 1.899-.73 1.096 0 1.91.566 2.443 1.696zm10.134 3.287h-6.135c.053.704.282 1.263.686 1.68.404.41.923.614 1.555.614.493 0 .9-.117 1.222-.351.317-.234.677-.668 1.081-1.3l1.67.93a6.81 6.81 0 01-.817 1.135 4.53 4.53 0 01-.923.773 3.76 3.76 0 01-1.064.44 5.18 5.18 0 01-1.239.14c-1.277 0-2.303-.41-3.076-1.23-.774-.826-1.16-1.922-1.16-3.288 0-1.353.375-2.449 1.125-3.287.756-.826 1.758-1.239 3.006-1.239 1.26 0 2.255.401 2.988 1.204.727.797 1.09 1.902 1.09 3.314l-.009.465zm-2.03-1.617c-.276-1.054-.94-1.582-1.995-1.582-.24 0-.466.038-.677.115-.211.07-.404.175-.58.316-.17.135-.317.299-.44.492a2.307 2.307 0 00-.28.66h3.972zm13.385-6.222h-2.346l1.125-1.916h3.269V62h-2.048V50.346z"/><path fill="#000" d="M24.028 90.793V99h-2.427v-8.207h-.86v-2.256h.86v-4.039c0-1.318.229-2.249.687-2.793.63-.759 1.547-1.139 2.75-1.139.43 0 .97.126 1.622.376v2.471l-.247-.129c-.523-.265-.952-.397-1.289-.397-.43 0-.72.154-.87.462-.15.3-.226.88-.226 1.74v3.448h2.632v2.256h-2.632zm13.9 3.545h-7.497c.064.86.343 1.543.838 2.052.494.501 1.128.752 1.9.752.603 0 1.1-.144 1.494-.43.387-.287.827-.817 1.321-1.59l2.041 1.139a8.328 8.328 0 01-.999 1.386c-.35.379-.727.694-1.128.945a4.613 4.613 0 01-1.3.537 6.35 6.35 0 01-1.514.172c-1.561 0-2.815-.502-3.76-1.504-.945-1.01-1.418-2.35-1.418-4.018 0-1.654.459-2.993 1.375-4.017.924-1.01 2.149-1.515 3.674-1.515 1.54 0 2.757.49 3.652 1.472.888.974 1.333 2.324 1.333 4.05l-.011.569zm-2.48-1.977c-.337-1.289-1.15-1.933-2.44-1.933-.293 0-.569.046-.826.14a2.28 2.28 0 00-.71.386 2.413 2.413 0 00-.537.602c-.15.236-.264.505-.343.805h4.855zm12.847-3.824h2.428V99h-2.428v-1.096c-.995.931-2.066 1.397-3.212 1.397-1.447 0-2.643-.523-3.588-1.569-.938-1.067-1.407-2.399-1.407-3.996 0-1.568.469-2.875 1.407-3.92.938-1.046 2.113-1.569 3.524-1.569 1.217 0 2.31.501 3.276 1.504v-1.214zm-5.736 5.2c0 1.002.268 1.818.805 2.449.552.637 1.246.956 2.084.956.895 0 1.619-.308 2.17-.924.552-.638.827-1.447.827-2.428 0-.981-.275-1.79-.827-2.428-.551-.623-1.267-.934-2.148-.934-.831 0-1.526.315-2.084.945-.552.637-.827 1.425-.827 2.363zm13.707-2.944V99h-2.417v-8.207h-1.032v-2.256h1.032v-3.835h2.417v3.835h1.88v2.256h-1.88zm11.322-10.12l1.998.882-9.496 21.978-1.977-.891 9.475-21.968zm3.61.183h2.416v8.551c.86-.773 1.808-1.16 2.847-1.16 1.182 0 2.127.383 2.836 1.15.601.665.902 1.729.902 3.19V99h-2.417v-6.188c0-.837-.15-1.442-.45-1.815-.295-.38-.77-.57-1.43-.57-.845 0-1.44.262-1.783.785-.336.53-.505 1.44-.505 2.728V99h-2.417V80.856zM92.8 94.338h-7.498c.064.86.343 1.543.838 2.052.494.501 1.128.752 1.901.752.602 0 1.1-.144 1.493-.43.387-.287.827-.817 1.322-1.59l2.04 1.139a8.328 8.328 0 01-.999 1.386 5.51 5.51 0 01-1.128.945 4.613 4.613 0 01-1.3.537 6.35 6.35 0 01-1.514.172c-1.561 0-2.814-.502-3.76-1.504-.945-1.01-1.418-2.35-1.418-4.018 0-1.654.459-2.993 1.375-4.017.924-1.01 2.149-1.515 3.674-1.515 1.54 0 2.757.49 3.653 1.472.888.974 1.332 2.324 1.332 4.05l-.011.569zm-2.482-1.977c-.336-1.289-1.15-1.933-2.438-1.933-.294 0-.57.046-.827.14a2.28 2.28 0 00-.71.386 2.413 2.413 0 00-.536.602 2.82 2.82 0 00-.344.805h4.855zm12.848-3.824h2.428V99h-2.428v-1.096c-.995.931-2.066 1.397-3.212 1.397-1.447 0-2.642-.523-3.588-1.569-.938-1.067-1.407-2.399-1.407-3.996 0-1.568.47-2.875 1.407-3.92.938-1.046 2.113-1.569 3.524-1.569 1.217 0 2.309.501 3.276 1.504v-1.214zm-5.736 5.2c0 1.002.268 1.818.805 2.449.552.637 1.246.956 2.084.956.896 0 1.619-.308 2.17-.924.552-.638.827-1.447.827-2.428 0-.981-.275-1.79-.827-2.428-.551-.623-1.267-.934-2.148-.934-.83 0-1.526.315-2.084.945-.552.637-.827 1.425-.827 2.363zm18.927-12.88h2.428V99h-2.428v-1.096c-.952.931-2.03 1.397-3.233 1.397-1.432 0-2.621-.523-3.566-1.569-.939-1.067-1.408-2.399-1.408-3.996 0-1.56.469-2.864 1.408-3.91.931-1.053 2.102-1.579 3.512-1.579 1.225 0 2.321.501 3.287 1.504v-8.895zm-5.736 12.88c0 1.002.269 1.818.806 2.449.551.637 1.246.956 2.084.956.895 0 1.618-.308 2.17-.924.551-.638.827-1.447.827-2.428 0-.981-.276-1.79-.827-2.428-.552-.623-1.268-.934-2.149-.934-.831 0-1.525.315-2.084.945-.551.637-.827 1.425-.827 2.363zm13.632-12.88V99h-2.417V80.856h2.417zm12.59 13.48h-7.498c.064.86.343 1.544.838 2.053.494.501 1.128.752 1.901.752.602 0 1.099-.144 1.493-.43.387-.287.827-.817 1.321-1.59l2.041 1.139a8.328 8.328 0 01-.999 1.386 5.51 5.51 0 01-1.128.945 4.614 4.614 0 01-1.299.537 6.334 6.334 0 01-1.515.172c-1.561 0-2.814-.502-3.76-1.504-.945-1.01-1.418-2.35-1.418-4.018 0-1.654.459-2.993 1.375-4.017.924-1.01 2.149-1.515 3.674-1.515 1.54 0 2.757.49 3.652 1.472.889.974 1.333 2.324 1.333 4.05l-.011.569zm-2.482-1.976c-.336-1.289-1.149-1.933-2.438-1.933-.294 0-.569.046-.827.14a2.28 2.28 0 00-.709.386 2.398 2.398 0 00-.537.602 2.81 2.81 0 00-.344.805h4.855zm11.215-2.04l-1.998 1.063c-.315-.645-.705-.967-1.171-.967a.793.793 0 00-.569.226.718.718 0 00-.236.558c0 .401.465.799 1.396 1.193 1.282.551 2.145 1.06 2.589 1.525.444.465.666 1.092.666 1.88 0 1.01-.372 1.855-1.117 2.535-.724.644-1.597.967-2.621.967-1.755 0-2.997-.856-3.728-2.568l2.063-.956c.286.502.504.82.655.956.294.272.644.409 1.053.409.816 0 1.224-.373 1.224-1.118 0-.43-.315-.83-.945-1.203-.244-.121-.487-.24-.731-.354-.243-.115-.49-.233-.741-.355-.702-.343-1.196-.687-1.482-1.03-.365-.438-.548-1-.548-1.688 0-.909.311-1.66.935-2.255.637-.595 1.41-.892 2.32-.892 1.339 0 2.334.691 2.986 2.073zm8.938 0l-1.998 1.063c-.315-.645-.706-.967-1.171-.967a.797.797 0 00-.57.226.721.721 0 00-.236.558c0 .401.466.799 1.397 1.193 1.281.551 2.144 1.06 2.588 1.525.444.465.666 1.092.666 1.88 0 1.01-.372 1.855-1.117 2.535-.723.644-1.597.967-2.621.967-1.754 0-2.997-.856-3.727-2.568l2.062-.956c.287.502.505.82.655.956.294.272.645.409 1.053.409.817 0 1.225-.373 1.225-1.118 0-.43-.315-.83-.946-1.203-.243-.121-.487-.24-.73-.354a58.947 58.947 0 01-.741-.355c-.702-.343-1.196-.687-1.483-1.03-.365-.438-.548-1-.548-1.688 0-.909.312-1.66.935-2.255.637-.595 1.411-.892 2.32-.892 1.34 0 2.335.691 2.987 2.073zm1.332 2.309h4.791v2.105h-4.791V92.63zm14.459-3.642V92.2c-.552-.673-1.046-1.135-1.483-1.386-.429-.257-.934-.386-1.514-.386-.91 0-1.665.318-2.267.956-.602.637-.902 1.436-.902 2.395 0 .981.29 1.787.87 2.417.587.63 1.335.946 2.245.946.58 0 1.092-.126 1.536-.376.43-.244.935-.717 1.515-1.418v3.19c-.981.508-1.963.763-2.944.763-1.618 0-2.972-.523-4.06-1.569-1.089-1.052-1.633-2.36-1.633-3.92 0-1.562.551-2.88 1.654-3.954 1.103-1.074 2.457-1.61 4.061-1.61a6.07 6.07 0 012.922.74zm2.341-.45h2.417v.966c.466-.487.863-.817 1.193-.988.351-.18.791-.269 1.321-.269 1.182 0 2.116.516 2.804 1.547.759-1.031 1.787-1.547 3.083-1.547 2.356 0 3.534 1.429 3.534 4.286V99h-2.428v-5.811c0-1.003-.121-1.712-.365-2.127-.251-.423-.662-.634-1.235-.634-.666 0-1.153.25-1.461.752-.301.501-.451 1.307-.451 2.417V99h-2.428v-5.78c0-1.861-.537-2.792-1.611-2.792-.681 0-1.179.254-1.494.762-.308.509-.462 1.311-.462 2.407V99h-2.417V88.537zm23.483 1.782l-1.998 1.064c-.315-.645-.706-.967-1.171-.967a.793.793 0 00-.569.226.719.719 0 00-.237.558c0 .401.466.799 1.397 1.193 1.282.551 2.145 1.06 2.589 1.525.444.465.666 1.092.666 1.88 0 1.01-.373 1.855-1.118 2.535-.723.644-1.597.967-2.621.967-1.754 0-2.997-.856-3.727-2.568l2.062-.956c.287.502.505.82.656.956.293.272.644.409 1.052.409.817 0 1.225-.373 1.225-1.118 0-.43-.315-.83-.945-1.203-.244-.121-.487-.24-.731-.354-.243-.115-.49-.233-.741-.355-.702-.343-1.196-.687-1.482-1.03-.366-.438-.548-1-.548-1.688 0-.909.311-1.66.934-2.255.638-.595 1.411-.892 2.321-.892 1.339 0 2.334.691 2.986 2.073zm1.332 2.31h4.791v2.105h-4.791V92.63zm8.733 12.063h-2.417V88.537h2.417v1.139c.953-.953 2.034-1.429 3.244-1.429 1.44 0 2.625.53 3.556 1.59.945 1.053 1.418 2.381 1.418 3.985 0 1.569-.469 2.876-1.407 3.921-.931 1.039-2.106 1.558-3.524 1.558-1.224 0-2.32-.49-3.287-1.472v6.864zm5.747-10.86c0-1.003-.272-1.819-.816-2.45-.551-.637-1.246-.955-2.084-.955-.888 0-1.608.308-2.159.924-.552.615-.827 1.425-.827 2.427 0 .981.275 1.79.827 2.428.544.623 1.26.935 2.148.935.838 0 1.529-.316 2.074-.946.558-.63.837-1.418.837-2.363zm7.713-3.04V99h-2.417v-8.207h-1.031v-2.256h1.031v-3.835h2.417v3.835h1.88v2.256h-1.88zm7.509 5.854h6.177V99H222.2l5.758-6.972a55.737 55.737 0 001.418-1.804c.387-.509.68-.935.881-1.279.408-.673.612-1.278.612-1.815 0-.774-.272-1.422-.816-1.944-.545-.523-1.218-.785-2.02-.785-1.676 0-2.635.992-2.879 2.976h-2.492c.401-3.495 2.166-5.242 5.296-5.242 1.511 0 2.779.48 3.803 1.44 1.031.959 1.547 2.148 1.547 3.566 0 .902-.24 1.786-.72 2.653-.244.451-.602.988-1.074 1.611a52.36 52.36 0 01-1.773 2.192l-2.578 3.05z"/><path fill="#D1D1D1" d="M23.674 199.43v8.174c0 1.166.19 2.018.571 2.557.569.779 1.368 1.169 2.4 1.169 1.037 0 1.84-.39 2.408-1.169.38-.521.571-1.374.571-2.557v-8.174h2.048v8.736c0 1.43-.445 2.607-1.336 3.533-1.002 1.031-2.232 1.547-3.691 1.547-1.46 0-2.687-.516-3.683-1.547-.89-.926-1.336-2.103-1.336-3.533v-8.736h2.048zm11.004 5.009h1.986v.791c.691-.685 1.47-1.028 2.338-1.028.996 0 1.772.314 2.33.941.48.533.72 1.403.72 2.61V213h-1.987v-4.781c0-.844-.117-1.427-.351-1.749-.229-.328-.645-.492-1.248-.492-.656 0-1.122.216-1.398.65-.27.428-.404 1.175-.404 2.241V213h-1.986v-8.561zm11.856 0V213h-1.977v-8.561h1.977zm-2.276-3.559c0-.346.126-.645.378-.897s.553-.378.905-.378c.357 0 .662.126.914.378.252.246.378.548.378.906 0 .357-.126.662-.378.914a1.216 1.216 0 01-.905.378c-.358 0-.662-.126-.914-.378a1.257 1.257 0 01-.378-.923zm5.844 3.559l2.215 4.808 2.206-4.808h2.224l-4.447 9.15-4.412-9.15h2.215zm15.47 4.747h-6.136c.053.703.282 1.262.686 1.678.404.41.923.615 1.556.615.492 0 .9-.117 1.221-.351.317-.234.677-.668 1.081-1.301l1.67.932c-.257.439-.53.817-.817 1.134a4.54 4.54 0 01-.923.773 3.76 3.76 0 01-1.063.439 5.167 5.167 0 01-1.24.141c-1.277 0-2.302-.41-3.076-1.23-.773-.827-1.16-1.922-1.16-3.287 0-1.354.375-2.45 1.125-3.288.756-.826 1.758-1.239 3.006-1.239 1.26 0 2.256.402 2.988 1.204.727.797 1.09 1.902 1.09 3.314l-.009.466zm-2.031-1.618c-.275-1.054-.94-1.582-1.995-1.582-.24 0-.466.038-.677.115-.21.07-.404.175-.58.316-.17.135-.316.299-.44.492a2.315 2.315 0 00-.28.659h3.972zm4.201-3.129h1.978v.765c.363-.381.685-.642.966-.782.288-.147.627-.22 1.02-.22.522 0 1.066.17 1.635.51l-.905 1.81c-.376-.269-.742-.404-1.1-.404-1.077 0-1.616.815-1.616 2.444V213h-1.978v-8.561zm11.707 1.459l-1.635.871c-.257-.528-.577-.791-.958-.791a.65.65 0 00-.465.184.59.59 0 00-.194.457c0 .328.381.653 1.143.976 1.049.451 1.755.867 2.118 1.248s.545.893.545 1.538c0 .826-.305 1.517-.914 2.074-.592.527-1.307.791-2.145.791-1.435 0-2.452-.7-3.05-2.1l1.688-.783c.234.41.413.671.536.783.24.222.528.333.862.333.667 0 1.001-.304 1.001-.914 0-.351-.257-.679-.773-.984-.2-.1-.398-.196-.598-.29-.199-.094-.401-.19-.606-.29-.574-.281-.979-.563-1.213-.844-.299-.357-.448-.817-.448-1.38 0-.744.255-1.359.764-1.845.522-.487 1.155-.73 1.899-.73 1.096 0 1.91.566 2.443 1.696zm10.134 3.288h-6.135c.053.703.282 1.262.686 1.678.404.41.923.615 1.555.615.493 0 .9-.117 1.222-.351.317-.234.677-.668 1.081-1.301l1.67.932a6.87 6.87 0 01-.817 1.134 4.54 4.54 0 01-.923.773 3.757 3.757 0 01-1.064.439c-.38.094-.794.141-1.239.141-1.277 0-2.303-.41-3.076-1.23-.774-.827-1.16-1.922-1.16-3.287 0-1.354.375-2.45 1.125-3.288.756-.826 1.758-1.239 3.006-1.239 1.26 0 2.255.402 2.988 1.204.727.797 1.09 1.902 1.09 3.314l-.009.466zm-2.03-1.618c-.276-1.054-.94-1.582-1.995-1.582-.24 0-.466.038-.677.115-.211.07-.404.175-.58.316-.17.135-.317.299-.44.492a2.315 2.315 0 00-.28.659h3.972zm13.016 3.507h5.054V213h-9.114l4.711-5.704c.463-.568.849-1.061 1.16-1.477.316-.416.557-.764.721-1.046.334-.55.501-1.045.501-1.485 0-.633-.223-1.163-.668-1.591-.446-.427-.996-.641-1.653-.641-1.37 0-2.156.811-2.355 2.434h-2.04c.329-2.859 1.773-4.289 4.334-4.289 1.236 0 2.273.393 3.111 1.178.844.785 1.266 1.758 1.266 2.918 0 .738-.197 1.462-.589 2.171-.199.369-.492.808-.879 1.318a42.062 42.062 0 01-1.45 1.793l-2.11 2.496z"/><path fill="#fff" d="M24.028 241.793V250h-2.427v-8.207h-.86v-2.256h.86v-4.039c0-1.318.229-2.249.687-2.793.63-.759 1.547-1.139 2.75-1.139.43 0 .97.126 1.622.376v2.471l-.247-.129c-.523-.265-.952-.397-1.289-.397-.43 0-.72.154-.87.462-.15.3-.226.88-.226 1.74v3.448h2.632v2.256h-2.632zm13.9 3.545h-7.497c.064.859.343 1.543.838 2.052.494.501 1.128.752 1.9.752.603 0 1.1-.144 1.494-.43.387-.287.827-.816 1.321-1.59l2.041 1.139a8.288 8.288 0 01-.999 1.385c-.35.38-.727.695-1.128.946a4.64 4.64 0 01-1.3.537 6.35 6.35 0 01-1.514.172c-1.561 0-2.815-.502-3.76-1.504-.945-1.01-1.418-2.349-1.418-4.018 0-1.654.459-2.993 1.375-4.017.924-1.01 2.149-1.515 3.674-1.515 1.54 0 2.757.491 3.652 1.472.888.974 1.333 2.324 1.333 4.05l-.011.569zm-2.48-1.977c-.337-1.289-1.15-1.933-2.44-1.933-.293 0-.569.046-.826.139a2.28 2.28 0 00-.71.387 2.41 2.41 0 00-.537.602c-.15.236-.264.505-.343.805h4.855zm12.847-3.824h2.428V250h-2.428v-1.096c-.995.931-2.066 1.397-3.212 1.397-1.447 0-2.643-.523-3.588-1.569-.938-1.067-1.407-2.399-1.407-3.996 0-1.568.469-2.875 1.407-3.921.938-1.045 2.113-1.568 3.524-1.568 1.217 0 2.31.501 3.276 1.504v-1.214zm-5.736 5.199c0 1.003.268 1.819.805 2.45.552.637 1.246.956 2.084.956.895 0 1.619-.308 2.17-.924.552-.638.827-1.447.827-2.428 0-.981-.275-1.79-.827-2.428-.551-.623-1.267-.934-2.148-.934-.831 0-1.526.315-2.084.945-.552.637-.827 1.425-.827 2.363zm13.707-2.943V250h-2.417v-8.207h-1.032v-2.256h1.032v-3.835h2.417v3.835h1.88v2.256h-1.88zm11.322-10.119l1.998.881-9.496 21.978-1.977-.891 9.475-21.968zm3.61.182h2.416v8.551c.86-.773 1.808-1.16 2.847-1.16 1.182 0 2.127.383 2.836 1.149.601.666.902 1.73.902 3.191V250h-2.417v-6.188c0-.837-.15-1.443-.45-1.815-.295-.379-.77-.569-1.43-.569-.845 0-1.44.261-1.783.784-.336.53-.505 1.439-.505 2.728V250h-2.417v-18.144zM92.8 245.338h-7.498c.064.859.343 1.543.838 2.052.494.501 1.128.752 1.901.752.602 0 1.1-.144 1.493-.43.387-.287.827-.816 1.322-1.59l2.04 1.139a8.288 8.288 0 01-.999 1.385c-.35.38-.726.695-1.128.946a4.64 4.64 0 01-1.3.537 6.35 6.35 0 01-1.514.172c-1.561 0-2.814-.502-3.76-1.504-.945-1.01-1.418-2.349-1.418-4.018 0-1.654.459-2.993 1.375-4.017.924-1.01 2.149-1.515 3.674-1.515 1.54 0 2.757.491 3.653 1.472.888.974 1.332 2.324 1.332 4.05l-.011.569zm-2.482-1.977c-.336-1.289-1.15-1.933-2.438-1.933-.294 0-.57.046-.827.139a2.28 2.28 0 00-.71.387 2.41 2.41 0 00-.536.602 2.84 2.84 0 00-.344.805h4.855zm12.848-3.824h2.428V250h-2.428v-1.096c-.995.931-2.066 1.397-3.212 1.397-1.447 0-2.642-.523-3.588-1.569-.938-1.067-1.407-2.399-1.407-3.996 0-1.568.47-2.875 1.407-3.921.938-1.045 2.113-1.568 3.524-1.568 1.217 0 2.309.501 3.276 1.504v-1.214zm-5.736 5.199c0 1.003.268 1.819.805 2.45.552.637 1.246.956 2.084.956.896 0 1.619-.308 2.17-.924.552-.638.827-1.447.827-2.428 0-.981-.275-1.79-.827-2.428-.551-.623-1.267-.934-2.148-.934-.83 0-1.526.315-2.084.945-.552.637-.827 1.425-.827 2.363zm18.927-12.88h2.428V250h-2.428v-1.096c-.952.931-2.03 1.397-3.233 1.397-1.432 0-2.621-.523-3.566-1.569-.939-1.067-1.408-2.399-1.408-3.996 0-1.561.469-2.864 1.408-3.91.931-1.053 2.102-1.579 3.512-1.579 1.225 0 2.321.501 3.287 1.504v-8.895zm-5.736 12.88c0 1.003.269 1.819.806 2.45.551.637 1.246.956 2.084.956.895 0 1.618-.308 2.17-.924.551-.638.827-1.447.827-2.428 0-.981-.276-1.79-.827-2.428-.552-.623-1.268-.934-2.149-.934-.831 0-1.525.315-2.084.945-.551.637-.827 1.425-.827 2.363zm13.632-12.88V250h-2.417v-18.144h2.417zm12.59 13.482h-7.498c.064.859.343 1.543.838 2.052.494.501 1.128.752 1.901.752.602 0 1.099-.144 1.493-.43.387-.287.827-.816 1.321-1.59l2.041 1.139a8.276 8.276 0 01-.999 1.385c-.35.38-.726.695-1.128.946a4.64 4.64 0 01-1.299.537 6.365 6.365 0 01-1.515.172c-1.561 0-2.814-.502-3.76-1.504-.945-1.01-1.418-2.349-1.418-4.018 0-1.654.459-2.993 1.375-4.017.924-1.01 2.149-1.515 3.674-1.515 1.54 0 2.757.491 3.652 1.472.889.974 1.333 2.324 1.333 4.05l-.011.569zm-2.482-1.977c-.336-1.289-1.149-1.933-2.438-1.933-.294 0-.569.046-.827.139a2.281 2.281 0 00-.709.387 2.395 2.395 0 00-.537.602 2.811 2.811 0 00-.344.805h4.855zm11.215-2.041l-1.998 1.064c-.315-.645-.705-.967-1.171-.967a.791.791 0 00-.569.226.717.717 0 00-.236.558c0 .401.465.799 1.396 1.193 1.282.551 2.145 1.059 2.589 1.525.444.465.666 1.092.666 1.88 0 1.01-.372 1.855-1.117 2.535-.724.645-1.597.967-2.621.967-1.755 0-2.997-.856-3.728-2.568l2.063-.956c.286.502.504.82.655.956.294.273.644.409 1.053.409.816 0 1.224-.373 1.224-1.118 0-.429-.315-.83-.945-1.203-.244-.121-.487-.24-.731-.354-.243-.115-.49-.233-.741-.355-.702-.343-1.196-.687-1.482-1.031-.365-.437-.548-.999-.548-1.686 0-.91.311-1.662.935-2.256.637-.595 1.41-.892 2.32-.892 1.339 0 2.334.691 2.986 2.073zm8.938 0l-1.998 1.064c-.315-.645-.706-.967-1.171-.967a.795.795 0 00-.57.226.72.72 0 00-.236.558c0 .401.466.799 1.397 1.193 1.281.551 2.144 1.059 2.588 1.525.444.465.666 1.092.666 1.88 0 1.01-.372 1.855-1.117 2.535-.723.645-1.597.967-2.621.967-1.754 0-2.997-.856-3.727-2.568l2.062-.956c.287.502.505.82.655.956.294.273.645.409 1.053.409.817 0 1.225-.373 1.225-1.118 0-.429-.315-.83-.946-1.203-.243-.121-.487-.24-.73-.354a60.481 60.481 0 01-.741-.355c-.702-.343-1.196-.687-1.483-1.031-.365-.437-.548-.999-.548-1.686 0-.91.312-1.662.935-2.256.637-.595 1.411-.892 2.32-.892 1.34 0 2.335.691 2.987 2.073zm1.332 2.31h4.791v2.105h-4.791v-2.105zm14.459-3.642v3.212c-.552-.673-1.046-1.135-1.483-1.386-.429-.257-.934-.386-1.514-.386-.91 0-1.665.318-2.267.956-.602.637-.902 1.436-.902 2.395 0 .981.29 1.787.87 2.417.587.63 1.335.946 2.245.946.58 0 1.092-.126 1.536-.376.43-.244.935-.717 1.515-1.418v3.19c-.981.509-1.963.763-2.944.763-1.618 0-2.972-.523-4.06-1.569-1.089-1.052-1.633-2.359-1.633-3.92 0-1.562.551-2.879 1.654-3.954 1.103-1.074 2.457-1.611 4.061-1.611 1.031 0 2.005.247 2.922.741zm2.341-.451h2.417v.967c.466-.487.863-.816 1.193-.988.351-.179.791-.269 1.321-.269 1.182 0 2.116.516 2.804 1.547.759-1.031 1.787-1.547 3.083-1.547 2.356 0 3.534 1.429 3.534 4.286V250h-2.428v-5.812c0-1.002-.121-1.711-.365-2.126-.251-.423-.662-.634-1.235-.634-.666 0-1.153.25-1.461.752-.301.501-.451 1.307-.451 2.417V250h-2.428v-5.779c0-1.862-.537-2.793-1.611-2.793-.681 0-1.179.254-1.494.762-.308.509-.462 1.311-.462 2.407V250h-2.417v-10.463zm23.483 1.783l-1.998 1.064c-.315-.645-.706-.967-1.171-.967a.791.791 0 00-.569.226.718.718 0 00-.237.558c0 .401.466.799 1.397 1.193 1.282.551 2.145 1.059 2.589 1.525.444.465.666 1.092.666 1.88 0 1.01-.373 1.855-1.118 2.535-.723.645-1.597.967-2.621.967-1.754 0-2.997-.856-3.727-2.568l2.062-.956c.287.502.505.82.656.956a1.49 1.49 0 001.052.409c.817 0 1.225-.373 1.225-1.118 0-.429-.315-.83-.945-1.203-.244-.121-.487-.24-.731-.354-.243-.115-.49-.233-.741-.355-.702-.343-1.196-.687-1.482-1.031-.366-.437-.548-.999-.548-1.686 0-.91.311-1.662.934-2.256.638-.595 1.411-.892 2.321-.892 1.339 0 2.334.691 2.986 2.073z"/></svg>