<svg xmlns="http://www.w3.org/2000/svg" width="611" height="179" fill="none" focusable="false" viewBox="0 0 611 179"><path fill="#fff" d="M0 0h611v179H0z"/><circle cx="474" cy="32" r="23" fill="#B7B5BD" stroke="#FB8400" stroke-width="4"/><circle cx="121" cy="32" r="23" fill="#B7B5BD" stroke="#FB8400" stroke-width="4"/><circle cx="569" cy="31" r="23" fill="#B7B5BD" stroke="#E60C75" stroke-width="4"/><circle cx="35" cy="32" r="19" fill="#B7B5BD" stroke="#fff" stroke-width="4"/><circle cx="383" cy="30" r="19" fill="#B7B5BD" stroke="#fff" stroke-width="4"/><circle cx="206.999" cy="31" r="19" fill="#B7B5BD" stroke="#fff" stroke-width="4"/><path fill="#555" d="M377.625 72V58.43h2.847c1.366 0 2.444.135 3.235.404.849.264 1.62.712 2.311 1.345 1.401 1.277 2.101 2.956 2.101 5.036 0 2.086-.73 3.773-2.189 5.062-.732.645-1.5 1.093-2.302 1.345-.75.252-1.814.378-3.191.378h-2.812zm2.048-1.925h.923c.919 0 1.684-.097 2.293-.29a4.652 4.652 0 001.653-.975c1.008-.92 1.512-2.119 1.512-3.595 0-1.488-.499-2.696-1.495-3.621-.896-.826-2.217-1.24-3.963-1.24h-.923v9.721zm-168.078-.371h-5.809L204.274 73h-2.206l6.715-14.423L215.26 73h-2.241l-1.424-3.296zm-.835-1.925l-2.012-4.614-2.11 4.614h4.122z"/><circle cx="292.999" cy="30" r="19" fill="#B7B5BD" stroke="#fff" stroke-width="4"/><path fill="#555" d="M287.625 72V58.43h2.039c.908 0 1.632.07 2.171.21a3.277 3.277 0 011.38.712 3.7 3.7 0 01.905 1.293c.228.521.343 1.048.343 1.582 0 .972-.372 1.795-1.117 2.47a3.28 3.28 0 011.706 1.291c.421.61.632 1.319.632 2.127 0 1.06-.375 1.957-1.125 2.69a3.693 3.693 0 01-1.52.94c-.615.17-1.386.255-2.312.255h-3.102zm2.048-7.743h.641c.762 0 1.319-.167 1.67-.501.358-.34.536-.838.536-1.494 0-.639-.181-1.122-.545-1.45-.363-.334-.89-.502-1.582-.502h-.72v3.947zm0 5.818h1.265c.926 0 1.606-.181 2.039-.545.457-.392.686-.89.686-1.494 0-.586-.22-1.078-.659-1.476-.428-.393-1.193-.59-2.294-.59h-1.037v4.105z"/><circle cx="474" cy="31.854" r="19" fill="#B7B5BD" stroke="#fff" stroke-width="4"/><path fill="#555" d="M466.494 73.854l2.857-14.59 4.658 10.547 4.825-10.547 2.566 14.59h-2.1l-1.31-8.191-4.016 8.815-3.903-8.824-1.459 8.2h-2.118z"/><circle cx="569" cy="30.934" r="19" fill="#B7B5BD" stroke="#fff" stroke-width="4"/><path fill="#555" d="M573.525 61.288h-5.44v3.261h5.282v1.925h-5.282v4.535h5.44v1.925h-7.488v-13.57h7.488v1.925z"/><path fill="#B7B5BD" d="M509.293 31.227a1 1 0 000 1.414l6.364 6.364a1 1 0 101.414-1.414l-5.657-5.657 5.657-5.657a1 1 0 10-1.414-1.414l-6.364 6.364zM534 30.934h-24v2h24v-2zm-210.708.359a1 1 0 000 1.414l6.364 6.364a1 1 0 101.414-1.414L325.413 32l5.657-5.657a1 1 0 00-1.414-1.414l-6.364 6.364zM347.999 31h-24v2h24v-2zm-110.707.293a1 1 0 000 1.414l6.364 6.364a1 1 0 101.414-1.414L239.413 32l5.657-5.657a1 1 0 00-1.414-1.414l-6.364 6.364zM261.999 31h-24v2h24v-2zm-110.707.293a1 1 0 000 1.414l6.364 6.364a1 1 0 101.414-1.414L153.413 32l5.657-5.657a1 1 0 00-1.414-1.414l-6.364 6.364zM175.999 31h-24v2h24v-2zm-110.707.293a1 1 0 000 1.414l6.364 6.364a1 1 0 001.414-1.414L67.413 32l5.657-5.657a1 1 0 00-1.414-1.414l-6.364 6.364zM89.999 31h-24v2h24v-2z"/><circle cx="121" cy="32" r="19" fill="#B7B5BD" stroke="#fff" stroke-width="4"/><path fill="#555" d="M127.553 61.451l-1.661.984c-.311-.538-.607-.89-.888-1.054-.293-.188-.671-.281-1.134-.281-.568 0-1.04.16-1.415.483a1.498 1.498 0 00-.562 1.195c0 .662.492 1.196 1.476 1.6l1.354.554c1.101.445 1.907.99 2.417 1.634.51.64.764 1.424.764 2.356 0 1.248-.416 2.28-1.248 3.094-.837.82-1.877 1.23-3.12 1.23-1.177 0-2.15-.349-2.918-1.046-.756-.697-1.227-1.678-1.415-2.944l2.075-.457c.093.797.257 1.347.492 1.652.422.586 1.037.88 1.845.88.639 0 1.169-.215 1.591-.642.422-.428.633-.97.633-1.626 0-.264-.038-.504-.114-.721a1.704 1.704 0 00-.343-.607 2.504 2.504 0 00-.598-.518 5.532 5.532 0 00-.879-.466l-1.309-.545c-1.858-.785-2.786-1.934-2.786-3.445 0-1.02.389-1.872 1.169-2.558.779-.691 1.749-1.037 2.909-1.037 1.564 0 2.786.762 3.665 2.285z"/><path fill="#B7B5BD" d="M413.293 31.293a1 1 0 000 1.414l6.364 6.364a1 1 0 101.414-1.414L415.414 32l5.657-5.657a1 1 0 10-1.414-1.414l-6.364 6.364zM438 31h-24v2h24v-2z"/><path stroke="#000" stroke-opacity=".5" d="M186.5 48s-12.035 21.524-9 35.5C182.933 108.515 217 111 237 111h222.5c24.5 0 49.681-6.87 55.5-27.5C520.5 64 502 48 502 48m-153.5 62.5v13"/><path fill="#000" d="M313.598 150.704h-5.81L306.276 154h-2.206l6.715-14.423L317.263 154h-2.242l-1.423-3.296zm-.835-1.925l-2.013-4.614-2.109 4.614h4.122zm7.804-9.624V154h-1.977v-14.845h1.977zm7.48 7.743l-1.635.871c-.258-.528-.577-.791-.958-.791a.65.65 0 00-.466.184.589.589 0 00-.193.457c0 .328.381.653 1.143.976 1.048.451 1.754.867 2.118 1.248.363.381.545.893.545 1.538 0 .826-.305 1.517-.914 2.074-.592.527-1.307.791-2.145.791-1.436 0-2.452-.7-3.05-2.1l1.688-.783c.234.41.413.671.536.783.24.222.527.333.861.333.668 0 1.002-.304 1.002-.914 0-.351-.258-.679-.773-.984-.2-.1-.399-.196-.598-.29-.199-.094-.401-.19-.606-.29-.575-.281-.979-.563-1.213-.844-.299-.357-.449-.817-.449-1.38 0-.744.255-1.359.765-1.845.522-.487 1.154-.73 1.899-.73 1.095 0 1.91.566 2.443 1.696zm1.933 2.76c0-1.236.443-2.288 1.328-3.155.884-.867 1.963-1.301 3.234-1.301 1.277 0 2.361.437 3.252 1.31.879.873 1.318 1.945 1.318 3.217 0 1.283-.442 2.358-1.327 3.225-.89.861-1.983 1.292-3.278 1.292-1.283 0-2.359-.439-3.226-1.318-.867-.867-1.301-1.957-1.301-3.27zm2.022.035c0 .856.228 1.533.686 2.031.468.504 1.086.755 1.854.755.773 0 1.392-.249 1.854-.747.463-.498.695-1.163.695-1.995 0-.832-.232-1.497-.695-1.995-.468-.504-1.086-.756-1.854-.756-.756 0-1.368.252-1.837.756-.469.504-.703 1.154-.703 1.951zm17.191-1.204V154h-2.047v-13.57h2.32c1.137 0 1.995.079 2.575.237a3.453 3.453 0 011.547.896c.779.762 1.169 1.723 1.169 2.883 0 1.242-.416 2.227-1.248 2.953-.832.727-1.954 1.09-3.366 1.09h-.95zm0-1.898h.765c1.881 0 2.821-.724 2.821-2.171 0-1.4-.969-2.101-2.909-2.101h-.677v4.272zm13.114-1.152h1.986V154h-1.986v-.896c-.815.761-1.691 1.142-2.628 1.142-1.184 0-2.162-.428-2.936-1.283-.767-.873-1.151-1.963-1.151-3.27 0-1.283.384-2.352 1.151-3.208.768-.855 1.729-1.283 2.883-1.283.996 0 1.89.41 2.681 1.231v-.994zm-4.694 4.254c0 .821.22 1.489.659 2.004a2.16 2.16 0 001.706.782c.732 0 1.324-.251 1.775-.755.451-.522.677-1.184.677-1.987 0-.802-.226-1.465-.677-1.986-.451-.51-1.037-.765-1.758-.765-.68 0-1.248.258-1.705.774-.451.521-.677 1.166-.677 1.933zm9.176-4.254h1.978v.765c.363-.381.685-.642.966-.782.288-.147.627-.22 1.02-.22.521 0 1.066.17 1.635.51l-.906 1.81c-.375-.269-.741-.404-1.098-.404-1.078 0-1.617.815-1.617 2.444V154h-1.978v-8.561zm9.422 1.846V154h-1.978v-6.715h-.843v-1.846h.843v-3.137h1.978v3.137h1.538v1.846h-1.538zm12.067-4.939h-2.346l1.125-1.916h3.269V154h-2.048v-11.654z"/><path stroke="#000" stroke-opacity=".5" d="M146.744 55s10.751 10.453 11.207 18.27c.641 11.009-4.924 20.237-18.678 24.665-9.128 2.938-16.189 2.562-25.526 0-15.036-4.127-22.172-12.937-23.658-24.665C89.167 65.988 95.692 55 95.692 55M127 100v24"/><path fill="#000" d="M105.674 148.489V154h-2.048v-13.57h2.32c1.137 0 1.995.079 2.575.237a3.453 3.453 0 011.547.896c.78.762 1.169 1.723 1.169 2.883 0 1.242-.416 2.227-1.248 2.953-.832.727-1.954 1.09-3.366 1.09h-.949zm0-1.898h.764c1.881 0 2.822-.724 2.822-2.171 0-1.4-.97-2.101-2.909-2.101h-.677v4.272zm13.113-1.152h1.986V154h-1.986v-.896c-.814.761-1.69 1.142-2.628 1.142-1.183 0-2.162-.428-2.935-1.283-.768-.873-1.152-1.963-1.152-3.27 0-1.283.384-2.352 1.152-3.208.767-.855 1.728-1.283 2.882-1.283.997 0 1.89.41 2.681 1.231v-.994zm-4.693 4.254c0 .821.219 1.489.659 2.004a2.156 2.156 0 001.705.782c.732 0 1.324-.251 1.775-.755.452-.522.677-1.184.677-1.987 0-.802-.225-1.465-.677-1.986-.451-.51-1.037-.765-1.757-.765-.68 0-1.248.258-1.705.774-.452.521-.677 1.166-.677 1.933zm9.176-4.254h1.977v.765c.363-.381.686-.642.967-.782.287-.147.627-.22 1.019-.22.522 0 1.067.17 1.635.51l-.905 1.81c-.375-.269-.741-.404-1.099-.404-1.078 0-1.617.815-1.617 2.444V154h-1.977v-8.561zm9.421 1.846V154h-1.977v-6.715h-.844v-1.846h.844v-3.137h1.977v3.137h1.538v1.846h-1.538zm12.068-4.939h-2.347l1.125-1.916h3.27V154h-2.048v-11.654z"/></svg>