<svg xmlns="http://www.w3.org/2000/svg" fill="none" data-image="icon" focusable="false" viewBox="0 0 282 89"><path stroke="#EC1818" stroke-width=".4" d="M58.512 18.747L48.493 24.18a16.935 16.935 0 00-7.156-7.194h0l-.003-.002c-2.604-1.308-5.85-1.959-8.724-1.959-4.91 0-10.476 1.767-14.287 5.502-3.532 3.456-6.214 9.415-6.214 16.383 0 8.277 3.52 13.217 6.123 15.738 2.788 2.707 7.153 5.316 13.735 5.316 4.072 0 8.711-1.114 12.154-3.731l.001-.001c2.423-1.873 4.839-5.05 5.86-9.526l.056-.245h-15.85v-9.934h27.708v.538c0 4.15-.555 16.991-8.943 25.326h0c-6.288 6.317-14.036 8.062-21.63 8.062-7.595 0-15.434-1.562-22.087-8.246C7.142 58.104.2 50.401.2 36.633c0-11.836 5.296-19.078 8.944-22.743l.001-.001c4.56-4.672 12.225-9.352 24.016-9.352 4.571 0 9.405.735 14.052 3.206l.002.001c3.874 1.992 8.113 5.599 11.297 11.003zm43.252 13.842l.368.578v-5.653h10.807v39.555h-10.807v-5.606l-.364.524c-3.99 5.738-9.239 6.374-12.053 6.374-12.09 0-20.1-9.491-20.1-21.116 0-11.72 7.92-21.023 19.549-21.023 3.012 0 8.89.55 12.6 6.367zm33.066-5.275v.2h7.716v9.196h-7.716v30.36h-10.807V36.71h-4.409v-9.196h4.409V13.857h10.807v13.457zm40.653 2.985l-5.241 6.23c-2.663-2.404-5.305-2.587-6.504-2.587-1.361 0-2.487.33-3.278.929-.796.602-1.239 1.468-1.239 2.5 0 .54.123 1.234.663 1.923.537.687 1.471 1.351 3.058 1.867h.002l2.662.83h.001c1.562.508 3.5 1.15 5.334 2.054 1.836.905 3.549 2.064 4.669 3.595 1.168 1.626 1.983 3.983 1.983 6.526 0 3.55-1.177 7.093-4.345 10.003-3.171 2.912-6.977 4.192-11.806 4.192-8.059 0-12.675-3.8-15.164-6.45l5.611-6.517c2.228 2.529 5.51 4.508 8.818 4.508 1.592 0 3.016-.4 4.047-1.17 1.036-.775 1.665-1.918 1.665-3.367 0-2.634-2.15-3.693-3.621-4.247l-.003-.001-2.572-.923h0c-2.849-1.016-6.113-2.295-8.465-4.748-1.805-1.903-2.976-4.347-2.976-7.52 0-3.811 1.806-6.986 4.06-8.89 3.066-2.444 7.046-2.814 10.253-2.814 2.884 0 7.449.357 12.388 4.076zm21.243 31.803v4.967H185.92V.2h10.806v32.906l.363-.509c3.897-5.462 9.424-6.375 12.789-6.375 5.824 0 10.661 2.26 14.044 6.012 3.384 3.754 5.322 9.01 5.322 15.011 0 12.087-8.01 21.116-19.641 21.116-2.546 0-8.252-.455-12.514-6.376l-.363-.504v.62zm84.062-34.588L248.939 88.2h-12.22l14.446-26.834.052-.097-.053-.095-18.757-33.66h12.584l12.252 22.595.186.342.17-.35 10.968-22.587h12.221zM103.235 47.245c0-6.471-4.677-11.457-11.223-11.457-6.547 0-11.223 4.986-11.223 11.457 0 6.469 4.674 11.55 11.223 11.55s11.223-5.081 11.223-11.55zm114.835 0c0-6.471-4.676-11.457-11.223-11.457-6.547 0-11.223 4.986-11.223 11.457 0 6.469 4.674 11.55 11.223 11.55s11.223-5.081 11.223-11.55z"/><path fill="#159BF3" d="M99.782 27.343h11.221v40h-11.22V62.17c-4.05 5.82-9.383 6.466-12.235 6.466-12.232 0-20.328-9.606-20.328-21.338 0-11.825 8.004-21.248 19.777-21.248 3.035 0 9.014.555 12.785 6.467v-5.175zM78.81 47.297c0 6.373 4.6 11.361 11.037 11.361 6.44 0 11.039-4.988 11.039-11.361 0-6.376-4.6-11.272-11.04-11.272-6.437 0-11.036 4.896-11.036 11.272zm54.072-10.347v30.393H121.66V36.95h-4.414v-9.608h4.414v-13.67h11.222v13.67h7.727v9.608h-7.727zm33.857-.092c-2.668-2.493-5.336-2.68-6.531-2.68-2.668 0-4.324 1.295-4.324 3.235 0 1.016.461 2.586 3.588 3.602l2.667.831c3.127 1.017 7.819 2.588 10.117 5.728 1.196 1.664 2.024 4.065 2.024 6.652 0 3.601-1.195 7.205-4.414 10.161-3.221 2.956-7.082 4.249-11.957 4.249-8.279 0-12.97-3.972-15.453-6.65l5.887-6.836c2.207 2.585 5.517 4.617 8.83 4.617 3.127 0 5.517-1.569 5.517-4.34 0-2.496-2.023-3.512-3.494-4.065l-2.576-.924c-2.852-1.016-6.162-2.31-8.553-4.804-1.839-1.94-3.037-4.435-3.037-7.668 0-3.88 1.84-7.112 4.141-9.052 3.127-2.495 7.174-2.864 10.392-2.864 2.944 0 7.635.369 12.693 4.249l-5.517 6.56zm24.308-4.341c3.955-5.543 9.566-6.467 12.968-6.467 11.773 0 19.592 9.145 19.592 21.247 0 12.194-8.094 21.339-19.867 21.339-2.576 0-8.371-.461-12.693-6.466v5.173h-11.223V0h11.223v32.517zm-1.104 14.78c0 6.374 4.598 11.362 11.037 11.362 6.439 0 11.037-4.988 11.037-11.361 0-6.376-4.598-11.272-11.037-11.272-6.439 0-11.037 4.896-11.037 11.271zm51.891 14.042l-18.949-33.996h13.062l12.324 22.724 11.037-22.724h12.693l-32.099 61.154h-12.693l14.625-27.158zM64.1 34.05H36.07v11.085h14.617c-2.217 7.447-7.856 12.67-18.559 12.67-11.63 0-19.834-9.501-19.834-21.182 0-11.68 8.204-21.182 19.834-21.182 6.559 0 12.67 3.079 16.657 8.252l9.386-5.892C52.132 9.382 42.49 4.355 32.128 4.355 14.412 4.355 0 18.83 0 36.623c0 17.794 13.403 32.268 32.128 32.268s32.128-14.475 32.128-32.268c0-.871-.088-1.72-.155-2.573z"/></svg>