<?xml version="1.0" encoding="UTF-8"?>
<svg width="250px" height="250px" viewBox="0 0 250 250" version="1.1" xmlns="http://www.w3.org/2000/svg" xmlns:xlink="http://www.w3.org/1999/xlink">
    <!-- Generator: Sketch 46.2 (44496) - http://www.bohemiancoding.com/sketch -->
    <title>gatsby</title>
    <desc>Created with Sketch.</desc>
    <defs></defs>
    <g id="Page-1" stroke="none" stroke-width="1" fill="none" fill-rule="evenodd">
        <g id="gatsby" fill-rule="nonzero" fill="#744C9E">
            <path d="M125,0.140734266 C56.0421766,0.140734266 0.140734266,56.041958 0.140734266,125 C0.140734266,193.95826 56.0423951,249.859266 125,249.859266 C193.95826,249.859266 249.859266,193.958042 249.859266,125 C249.859266,56.041958 193.95826,0.140734266 125,0.140734266 Z M26.9698427,126.301573 L123.698208,223.030157 C70.5832605,222.33785 27.6619318,179.416521 26.9698427,126.301573 Z M146.944274,220.579108 L29.4208916,103.055726 C39.3863636,59.4715909 78.3946678,26.9534528 125,26.9534528 C157.578016,26.9534528 186.439467,42.8465909 204.268794,67.2978584 L190.693619,79.2760052 C176.230988,58.5356206 152.20236,44.9619755 125,44.9619755 C90.3660402,44.9619755 60.8725962,66.9611014 49.7246503,97.7471591 L152.253059,200.275568 C177.152098,191.25896 196.301573,170.240603 202.715035,144.209135 L160.216783,144.209135 L160.216783,125.000219 L205.038024,125.000219 L205.038024,124.999781 L223.046547,124.999781 L223.046547,125 C223.046547,171.605332 190.528628,210.613636 146.944274,220.579108 Z" id="Shape"></path>
        </g>
    </g>
</svg>