<svg xmlns="http://www.w3.org/2000/svg" width="250" height="250" focusable="false" viewBox="0 0 250 250"><path fill="#744C9E" d="M125 .14C56.042.14.14 56.043.14 125S56.043 249.86 125 249.86 249.86 193.957 249.86 125 193.957.14 125 .14zM26.97 126.303l96.728 96.728c-53.115-.692-96.036-43.613-96.728-96.728zm119.974 94.277L29.421 103.056C39.386 59.472 78.395 26.953 125 26.953c32.578 0 61.44 15.894 79.269 40.345l-13.575 11.978C176.23 58.536 152.202 44.962 125 44.962c-34.634 0-64.127 22-75.275 52.785l102.528 102.529c24.9-9.017 44.049-30.035 50.462-56.067h-42.498V125h62.83c0 46.605-32.518 85.614-76.103 95.58z"/></svg>