<svg height="250" viewBox="0 0 250 250" width="250" xmlns="http://www.w3.org/2000/svg"><path d="m125 .14073427c-68.9578234 0-124.85926573 55.90122373-124.85926573 124.85926573 0 68.95826 55.90166083 124.859266 124.85926573 124.859266 68.95826 0 124.859266-55.901224 124.859266-124.859266s-55.901006-124.85926573-124.859266-124.85926573zm-98.0301573 126.16083873 96.7283653 96.728584c-53.1149475-.692307-96.0362762-43.613636-96.7283653-96.728584zm119.9744313 94.277535-117.5233824-117.523382c9.965472-43.5841351 48.9737762-76.1022732 95.5791084-76.1022732 32.578016 0 61.439467 15.8931381 79.268794 40.3444056l-13.575175 11.9781468c-14.462631-20.7403846-38.491259-34.3140297-65.693619-34.3140297-34.6339598 0-64.1274038 21.9991259-75.2753497 52.7851836l102.5284087 102.5284089c24.899039-9.016608 44.048514-30.034965 50.461976-56.066433h-42.498252v-19.208916h44.821241v-.000438h18.008523v.000219c0 46.605332-32.517919 85.613636-76.102273 95.579108z" fill="#744c9e"/></svg>