<?xml version="1.0" standalone="no"?>
<!DOCTYPE svg PUBLIC "-//W3C//DTD SVG 20010904//EN"
 "http://www.w3.org/TR/2001/REC-SVG-20010904/DTD/svg10.dtd">
<svg version="1.0" xmlns="http://www.w3.org/2000/svg"
 width="1200.000000pt" height="1200.000000pt" viewBox="0 0 1200.000000 1200.000000"
 preserveAspectRatio="xMidYMid meet">
<metadata>
Created by potrace 1.11, written by Peter Selinger 2001-2013
</metadata>
<g transform="translate(0.000000,1200.000000) scale(0.100000,-0.100000)"
fill="#000000" stroke="none">
<path d="M5887 11714 c-1 -1 -72 -5 -157 -8 -85 -4 -171 -9 -190 -11 -19 -1
-70 -6 -112 -10 -42 -3 -85 -7 -95 -9 -10 -2 -45 -7 -78 -11 -32 -4 -66 -8
-75 -10 -8 -1 -36 -5 -61 -9 -174 -25 -373 -67 -584 -122 -133 -35 -472 -141
-490 -153 -5 -4 -35 -15 -65 -25 -202 -69 -608 -263 -868 -416 -180 -106 -161
-95 -267 -166 -496 -332 -934 -731 -1285 -1169 -35 -44 -67 -82 -70 -85 -18
-16 -209 -285 -270 -380 -5 -8 -21 -32 -35 -54 -28 -42 -136 -222 -181 -301
-43 -77 -177 -343 -208 -413 -15 -34 -36 -83 -47 -107 -11 -25 -20 -47 -19
-50 0 -3 -6 -18 -15 -35 -77 -149 -249 -706 -309 -1000 -23 -114 -58 -319 -70
-415 -19 -146 -31 -267 -42 -427 -5 -75 -5 -619 0 -643 2 -11 7 -69 11 -130 4
-60 8 -121 10 -135 2 -14 6 -47 9 -75 3 -27 8 -66 11 -85 2 -19 7 -55 10 -80
7 -55 44 -269 50 -290 2 -8 7 -31 10 -50 3 -19 10 -51 15 -70 5 -19 11 -47 14
-61 6 -36 74 -292 98 -369 144 -466 327 -877 572 -1283 39 -65 76 -125 81
-135 30 -50 150 -223 236 -337 252 -338 533 -639 854 -916 650 -561 1444 -979
2270 -1194 77 -20 149 -38 160 -41 11 -2 61 -13 110 -24 132 -29 350 -65 525
-86 30 -3 66 -8 80 -9 14 -2 75 -6 135 -10 61 -4 119 -9 130 -12 23 -4 567 -4
635 1 131 10 238 18 265 21 17 2 53 7 80 10 52 6 155 21 215 30 19 3 53 8 75
11 22 3 56 9 75 14 19 5 55 12 80 15 25 3 63 11 85 17 42 11 63 16 105 24 54
11 287 74 328 88 23 8 43 15 45 14 1 0 52 15 112 35 406 132 808 317 1170 539
72 43 139 84 150 91 11 7 22 14 25 17 3 3 46 32 95 65 50 33 92 62 95 65 3 3
30 23 60 45 57 41 272 209 324 254 27 24 86 76 177 159 19 17 78 74 130 125
762 751 1295 1693 1544 2729 19 79 37 159 40 178 3 19 8 42 10 50 13 47 58
336 70 450 3 30 8 66 10 80 2 14 7 70 10 125 4 55 8 118 10 140 5 49 6 552 1
615 -2 25 -7 95 -11 155 -4 61 -8 117 -10 125 -1 8 -6 42 -9 75 -7 64 -24 193
-32 235 -2 14 -7 41 -10 60 -2 19 -7 46 -10 60 -2 14 -7 39 -10 55 -25 141
-101 451 -146 595 -56 180 -144 429 -181 512 -9 18 -43 96 -77 173 -313 711
-840 1425 -1430 1938 -58 51 -111 97 -118 105 -8 7 -30 25 -50 40 -21 15 -48
37 -62 50 -37 33 -280 209 -400 289 -240 160 -607 360 -845 462 -55 24 -113
49 -130 56 -163 72 -580 211 -753 250 -9 2 -53 13 -97 24 -44 10 -141 31 -215
45 -74 14 -157 30 -185 36 -27 5 -72 12 -100 15 -27 3 -63 8 -80 10 -43 8 -89
13 -180 20 -44 4 -91 8 -105 11 -46 7 -566 23 -573 18z m432 -1238 c83 -6 159
-14 211 -21 19 -3 55 -7 80 -10 46 -6 258 -41 295 -49 11 -3 52 -12 90 -20 39
-9 81 -19 95 -22 14 -2 32 -7 40 -10 8 -3 47 -14 86 -25 425 -112 931 -350
1319 -617 91 -63 298 -219 335 -254 14 -13 52 -45 85 -73 78 -64 356 -343 420
-419 28 -33 60 -71 73 -85 40 -44 172 -219 172 -229 0 -5 -43 -47 -96 -93 -53
-46 -106 -93 -118 -104 -13 -11 -53 -47 -91 -80 -37 -33 -122 -108 -188 -166
l-121 -106 -35 49 c-102 141 -251 317 -382 447 -99 100 -275 257 -308 275 -9
5 -20 15 -26 21 -17 20 -194 145 -205 145 -5 0 -10 4 -10 8 0 16 -303 190
-460 266 -85 40 -216 96 -290 124 -129 48 -376 125 -436 135 -16 3 -63 13
-104 22 -41 9 -86 18 -100 20 -225 34 -264 39 -415 50 -75 6 -416 6 -470 0
-22 -2 -69 -6 -105 -9 -86 -7 -213 -23 -275 -36 -27 -5 -63 -12 -80 -15 -189
-31 -486 -118 -642 -187 -23 -10 -45 -18 -49 -18 -35 0 -447 -212 -564 -290
-8 -6 -49 -32 -90 -60 -385 -255 -732 -600 -998 -995 -37 -54 -69 -104 -72
-110 -3 -5 -31 -54 -63 -108 -90 -150 -267 -532 -267 -575 0 -10 4673 -4685
4688 -4690 16 -5 197 70 357 147 465 226 867 541 1211 951 133 158 307 413
384 562 14 27 28 48 32 48 5 0 8 4 8 10 0 5 27 65 59 132 75 154 132 296 186
463 48 146 70 233 62 242 -3 2 -439 6 -969 6 l-963 2 -3 438 -2 437 1439 0
1439 0 -3 -107 c-6 -207 -27 -444 -50 -578 -9 -47 -24 -136 -30 -175 -3 -19
-10 -51 -16 -71 -5 -21 -13 -57 -18 -80 -30 -150 -134 -488 -196 -634 -7 -16
-23 -55 -35 -85 -168 -410 -430 -834 -738 -1195 -143 -167 -368 -386 -562
-547 -404 -336 -921 -620 -1435 -789 -118 -39 -369 -109 -392 -109 -6 0 -1220
1209 -2698 2687 -2392 2392 -2686 2689 -2682 2712 2 14 18 78 35 141 174 649
507 1272 951 1780 139 159 409 420 556 536 28 21 52 41 55 44 9 10 224 166
285 207 206 138 515 303 760 406 114 47 369 140 422 152 10 3 50 14 88 25 39
12 81 23 95 26 14 3 52 12 85 21 33 8 69 17 80 19 63 13 235 44 265 48 19 2
69 9 110 15 78 11 119 15 285 27 55 3 101 7 102 8 5 5 442 -3 512 -8z m-2592
-6748 c1212 -1212 2203 -2205 2203 -2209 0 -7 -277 4 -375 16 -16 2 -59 7 -95
11 -36 5 -67 8 -70 9 -3 1 -30 5 -60 9 -30 5 -64 10 -75 12 -11 2 -45 8 -75
14 -96 16 -112 20 -278 61 -222 55 -482 142 -672 226 -19 8 -51 22 -70 31 -89
38 -336 166 -438 227 -138 82 -428 277 -452 304 -3 3 -52 44 -110 91 -143 115
-172 141 -345 315 -121 121 -260 278 -369 415 -80 101 -261 372 -331 495 -193
340 -338 686 -436 1039 -17 59 -32 115 -34 125 -1 9 -8 34 -13 56 -33 126 -82
424 -96 580 -17 180 -26 375 -17 375 3 0 997 -991 2208 -2202z"/>
</g>
</svg>
