<svg enable-background="new 0 0 1200 1200" viewBox="0 0 1200 1200" xmlns="http://www.w3.org/2000/svg"><path d="m600 0c-331.4 0-600 268.6-600 600s268.6 600 600 600 600-268.6 600-600-268.6-600-600-600zm-333.4 933.3c-90.5-90.5-135.6-208.7-137-327.3l464.4 464.4c-118.6-1.4-236.8-46.5-327.4-137.1zm437.7 126.1-563.7-563.7c47.5-210.1 235-367.1 459.4-367.1 156.9 0 295.5 77 381.2 194.9l-65.6 55.5c-69.8-99.5-185.1-164.7-315.6-164.7-167.7 0-310.3 107.7-363.3 257.5l491.6 491.6c123.4-43.7 218-148.2 247.6-277.6h-204.5v-85.8h300c0 224.5-157 411.9-367.1 459.4z"/></svg>