<svg width="20" height="20" viewBox="0 0 20 20" fill="none" xmlns="http://www.w3.org/2000/svg" focusable="false">
  <path d="M10 1.667A8.336 8.336 0 001.667 10c0 3.683 2.391 6.808 5.7 7.917.416.066.55-.192.55-.417v-1.408c-2.309.5-2.8-1.117-2.8-1.117-.384-.967-.925-1.225-.925-1.225-.759-.517.058-.5.058-.5.833.058 1.275.858 1.275.858.725 1.267 1.95.892 2.425.692.075-.542.292-.908.525-1.117-1.85-.208-3.792-.925-3.792-4.1 0-.925.317-1.666.859-2.258-.084-.208-.375-1.075.083-2.2 0 0 .7-.225 2.292.85A7.852 7.852 0 0110 5.7c.708 0 1.425.092 2.083.275 1.592-1.075 2.292-.85 2.292-.85.458 1.125.167 1.992.083 2.2.542.592.859 1.333.859 2.258 0 3.184-1.95 3.884-3.809 4.092.3.258.575.767.575 1.542V17.5c0 .225.134.492.559.417C15.95 16.8 18.333 13.683 18.333 10c0-4.6-3.733-8.333-8.333-8.333z" fill="#639"/>
</svg>
