<svg xmlns="http://www.w3.org/2000/svg" width="23" height="23" fill="none" focusable="false" viewBox="0 0 23 23"><path fill="#999" fill-rule="evenodd" d="M11.5 11.617v11.17a.897.897 0 00.497-.142l8.944-5.111c.354-.202.498-.516.498-.923V6.247a.87.87 0 00-.143-.497l-9.51 5.373a.568.568 0 00-.286.494zm4.97 6.414c0 .284-.107.426-.356.568l-2.981 1.703c-.213.142-.497.072-.497-.212v-7.596c0-.203.179-.467.355-.568l6.815-3.904c.189-.11.354.065.354.284v4.046c0 .21-.098.398-.284.497l-3.052 1.633c-.185.098-.355.287-.355.496v3.053z" clip-rule="evenodd"/><path fill="#F2F2F2" fill-rule="evenodd" d="M1.562 16.611V6.247c0-.408.214-.792.567-.994L10.79.355c.188-.099.498-.142.71-.142.214 0 .542.053.71.142l8.59 4.898c.17.1.401.332.497.497l-9.512 5.395a.572.572 0 00-.284.497v11.145a1.14 1.14 0 01-.568-.142L2.2 17.605c-.353-.202-.638-.586-.638-.994zm1.277-8.306v4.047c0 .284.071.426.355.568l2.982 1.703a.585.585 0 01.355.568v2.84c0 .284.07.426.355.568l2.981 1.703c.284.142.497.071.497-.213v-7.595a.585.585 0 00-.355-.568L3.336 8.093c-.213-.142-.497-.071-.497.212zm11.642-4.827L11.855 4.97a.645.645 0 01-.71 0L8.518 3.48a.588.588 0 00-.568 0L4.685 5.323c-.284.142-.284.426 0 .568l6.53 3.762c.176.1.394.1.569 0l6.53-3.762c.214-.142.285-.426 0-.568L15.05 3.478a.588.588 0 00-.568 0z" clip-rule="evenodd"/></svg>