<svg version="1.1" id="Layer_1" xmlns="http://www.w3.org/2000/svg" xmlns:xlink="http://www.w3.org/1999/xlink" x="0px" y="0px"
	 width="1200px" height="1200px" viewBox="0 0 1200 1200" enable-background="new 0 0 1200 1200" xml:space="preserve">
<path d="M24.31,607.666l568.023,568.023C280.424,1171.625,28.374,919.575,24.31,607.666z M728.842,1161.297L38.703,471.159
	c58.521-255.942,287.592-446.9,561.274-446.9c191.31,0,360.794,93.33,465.495,236.917l-79.719,70.34
	c-84.931-121.794-226.035-201.504-385.776-201.504c-203.383,0-376.578,129.187-442.044,309.974l602.083,602.082
	c146.218-52.947,258.669-176.375,296.331-329.241H806.782V600.023h263.207v-0.001h105.752v0
	C1175.741,873.705,984.785,1102.775,728.842,1161.297z"/>
</svg>
