<svg enable-background="new 0 0 106 28" viewBox="0 0 106 28" xmlns="http://www.w3.org/2000/svg"><path d="m62.9 12h2.8v10h-2.8v-1.3c-1 1.5-2.3 1.6-3.1 1.6-3.1 0-5.1-2.4-5.1-5.3 0-3 2-5.3 4.9-5.3.8 0 2.3.1 3.2 1.6v-1.3zm-5.2 5c0 1.6 1.1 2.8 2.8 2.8 1.6 0 2.8-1.2 2.8-2.8s-1.1-2.8-2.8-2.8c-1.6 0-2.8 1.2-2.8 2.8z"/><path d="m71.2 14.4v7.6h-2.8v-7.6h-1.1v-2.4h1.1v-3.4h2.8v3.4h1.9v2.4z"/><path d="m79.7 14.4c-.7-.6-1.3-.7-1.6-.7-.7 0-1.1.3-1.1.8 0 .3.1.6.9.9l.7.2c.8.3 2 .6 2.5 1.4.3.4.5 1 .5 1.7 0 .9-.3 1.8-1.1 2.5s-1.8 1.1-3 1.1c-2.1 0-3.2-1-3.9-1.7l1.5-1.7c.6.6 1.4 1.2 2.2 1.2s1.4-.4 1.4-1.1c0-.6-.5-.9-.9-1l-.6-.2c-.7-.3-1.5-.6-2.1-1.2-.5-.5-.8-1.1-.8-1.9 0-1 .5-1.8 1-2.3.8-.6 1.8-.7 2.6-.7.7 0 1.9.1 3.2 1.1z"/><path d="m85.8 13.3c1-1.4 2.4-1.6 3.2-1.6 2.9 0 4.9 2.3 4.9 5.3s-2 5.3-5 5.3c-.6 0-2.1-.1-3.2-1.6v1.3h-2.7v-16.8h2.8zm-.3 3.7c0 1.6 1.1 2.8 2.8 2.8 1.6 0 2.8-1.2 2.8-2.8s-1.1-2.8-2.8-2.8-2.8 1.2-2.8 2.8z"/><path d="m98.5 20.5-4.8-8.5h3.3l3.1 5.7 2.8-5.7h3.2l-8 15.3h-3.2z"/><path d="m54 13.7h-2.8-4.2v2.8h3.7c-.6 1.9-2 3.2-4.6 3.2-2.9 0-5-2.4-5-5.3s2-5.4 4.9-5.4c1.6 0 3.2.8 4.2 2.1l2.3-1.5c-1.5-2.1-3.9-3.3-6.5-3.3-4.4 0-8 3.6-8 8.1s3.4 8.1 8 8.1 8-3.6 8-8.1c.1-.3 0-.5 0-.7z"/><path d="m25 14h-7v2h4.8c-.7 3-2.9 5.5-5.8 6.5l-11.5-11.5c1.2-3.5 4.6-6 8.5-6 3 0 5.7 1.5 7.4 3.8l1.5-1.3c-2-2.7-5.2-4.5-8.9-4.5-5.2 0-9.6 3.7-10.7 8.6l13.2 13.2c4.8-1.2 8.5-5.6 8.5-10.8z" fill="#fff"/><path d="m3 14.1c0 2.8 1.1 5.5 3.2 7.6s4.9 3.2 7.6 3.2z" fill="#fff"/><path d="m14 0c-7.7 0-14 6.3-14 14s6.3 14 14 14 14-6.3 14-14-6.3-14-14-14zm-7.8 21.8c-2.1-2.1-3.2-4.9-3.2-7.6l10.9 10.8c-2.8-.1-5.6-1.1-7.7-3.2zm10.2 2.9-13.1-13.1c1.1-4.9 5.5-8.6 10.7-8.6 3.7 0 6.9 1.8 8.9 4.5l-1.5 1.3c-1.7-2.3-4.4-3.8-7.4-3.8-3.9 0-7.2 2.5-8.5 6l11.5 11.5c2.9-1 5.1-3.5 5.8-6.5h-4.8v-2h7c0 5.2-3.7 9.6-8.6 10.7z" fill="#639"/></svg>