<?xml version="1.0" encoding="utf-8"?>
<!-- Generator: Adobe Illustrator 22.0.1, SVG Export Plug-In . SVG Version: 6.00 Build 0)  -->
<svg version="1.1" id="Ebene_1" xmlns="http://www.w3.org/2000/svg" xmlns:xlink="http://www.w3.org/1999/xlink" x="0px" y="0px"
	 viewBox="0 0 4543 1200" style="enable-background:new 0 0 4543 1200;" xml:space="preserve">
<style type="text/css">
	.st0{display:none;fill:#FFB238;}
	.st1{display:none;fill:none;stroke:#000000;stroke-width:2.8;stroke-miterlimit:10;}
	.st2{display:none;fill:#FFFFFF;}
	.st3{display:none;}
	.st4{fill:#663399;}
</style>
<path class="st0" d="M1998.6,586.3h306v8c0,45-6,185-98,276c-69,69-154,88-237,88s-169-17-242-90c-23-23-99-107-99-257
	c0-129,58-208,98-248c50-51,134-102,263-102c50,0,103,8,154,35c43,22,90,62,125,122l-113,61c-23-45-57-68-78-79c-28-14-63-21-94-21
	c-53,0-113,19-154,59c-38,37-67,101-67,176c0,89,38,142,66,169c30,29,77,57,148,57c44,0,94-12,131-40c26-20,52-54,63-102h-172
	L1998.6,586.3L1998.6,586.3z"/>
<circle class="st1" cx="1971.4" cy="610.7" r="289.3"/>
<polygon class="st2" points="2014.3,557.1 2357.1,342.9 2335.7,582.9 2078.6,582.9 "/>
<path class="st3" d="M2199,582.9c1.1,9.1,1.7,18.4,1.7,27.9c0,126.4-102.9,229.3-229.3,229.3s-229.3-102.9-229.3-229.3
	s102.9-229.3,229.3-229.3c71.3,0,137.7,33.3,181.1,89.3l102-63.8c-65.7-91.1-170.5-145.5-283.1-145.5
	c-192.6,0-349.3,156.7-349.3,349.3S1778.8,960,1971.4,960s349.3-156.7,349.3-349.3c0-9.4-1-18.6-1.7-27.9h-120V582.9z"/>
<g>
	<path d="M2693.4,514.3h120.2v428.6h-120.2v-55.4c-43.4,62.4-100.5,69.3-131.1,69.3c-131.1,0-217.8-102.9-217.8-228.6
		c0-126.7,85.8-227.7,211.9-227.7c32.5,0,96.6,5.9,137,69.3L2693.4,514.3L2693.4,514.3z M2468.7,728.1
		c0,68.3,49.3,121.7,118.3,121.7s118.3-53.4,118.3-121.7S2656,607.3,2587,607.3C2517.9,607.3,2468.7,659.8,2468.7,728.1z"/>
	<path d="M3052.3,617.2v325.6h-120.2V617.2h-47.3V514.3h47.3V367.8h120.2v146.5h82.8v102.9H3052.3z"/>
	<path d="M3410.8,616.2c-28.6-26.7-57.2-28.7-70-28.7c-28.6,0-46.3,13.9-46.3,34.7c0,10.9,4.9,27.7,38.4,38.6l28.6,8.9
		c33.5,10.9,83.8,27.7,108.4,61.4c12.8,17.8,21.7,43.5,21.7,71.3c0,38.6-12.8,77.2-47.3,108.9s-75.9,45.5-128.1,45.5
		c-88.7,0-139-42.6-165.6-71.2l63.1-73.2c23.6,27.7,59.1,49.5,94.6,49.5c33.5,0,59.1-16.8,59.1-46.5c0-26.7-21.7-37.6-37.4-43.5
		l-27.6-9.9c-30.6-10.9-66-24.8-91.6-51.5c-19.7-20.8-32.5-47.5-32.5-82.2c0-41.6,19.7-76.2,44.4-97c33.5-26.7,76.9-30.7,111.3-30.7
		c31.5,0,81.8,4,136,45.5L3410.8,616.2z"/>
	<path d="M3671.2,569.7c42.4-59.4,102.5-69.3,138.9-69.3c126.1,0,209.9,98,209.9,227.7c0,130.6-86.7,228.6-212.9,228.6
		c-27.6,0-89.7-4.9-136-69.3v55.4H3551V221.3h120.2V569.7z M3659.4,728.1c0,68.3,49.3,121.7,118.3,121.7S3896,796.4,3896,728.1
		s-49.3-120.8-118.3-120.8S3659.4,659.8,3659.4,728.1z"/>
	<path d="M4219.6,878.5l-203-364.2h140l132,243.5l118.3-243.5h136L4199,1169.5h-136L4219.6,878.5z"/>
	<path d="M2315.4,586.1h-300.3v118.8H2172c-23.7,79.9-84.4,135.8-199.1,135.8c-124.6,0-212.5-101.8-212.5-227s87.9-227,212.5-227
		c70.3,0,135.7,33,178.5,88.4L2252,412c-64.7-90.2-168-144.1-279-144.1c-189.8,0-344.2,155.1-344.2,345.7s143.6,345.7,344.2,345.7
		s344-155,344-345.6C2317,604.4,2316.1,595.3,2315.4,586.1z"/>
</g>
<path class="st4" d="M600,0C268.6,0,0,268.6,0,600s268.6,600,600,600s600-268.6,600-600S931.4,0,600,0z M266.6,933.3
	C176.1,842.8,131,724.6,129.6,606L594,1070.4C475.4,1069,357.2,1023.9,266.6,933.3z M704.3,1059.4L140.6,495.7
	c47.5-210.1,235-367.1,459.4-367.1c156.9,0,295.5,77,381.2,194.9L915.6,379C845.8,279.5,730.5,214.3,600,214.3
	c-167.7,0-310.3,107.7-363.3,257.5l491.6,491.6c123.4-43.7,218-148.2,247.6-277.6H771.4V600h300
	C1071.4,824.5,914.4,1011.9,704.3,1059.4z"/>
</svg>
