<?xml version="1.0" encoding="utf-8"?>
<!-- Generator: Adobe Illustrator 22.0.1, SVG Export Plug-In . SVG Version: 6.00 Build 0)  -->
<svg version="1.1" id="Ebene_1" xmlns="http://www.w3.org/2000/svg" xmlns:xlink="http://www.w3.org/1999/xlink" x="0px" y="0px"
	 viewBox="0 0 4543 1200" style="enable-background:new 0 0 4543 1200;" xml:space="preserve">
<style type="text/css">
	.st0{display:none;fill:#FFB238;}
	.st1{display:none;fill:none;stroke:#000000;stroke-width:2.8;stroke-miterlimit:10;}
	.st2{display:none;fill:#FFFFFF;}
	.st3{display:none;}
	.st4{fill:#663399;}
</style>
<path class="st0" d="M1998.6,586.3h306v8c0,45-6,185-98,276c-69,69-154,88-237,88c-83,0-169-17-242-90c-23-23-99-107-99-257
	c0-129,58-208,98-248c50-51,134-102,263-102c50,0,103,8,154,35c43,22,90,62,125,122l-113,61c-23-45-57-68-78-79c-28-14-63-21-94-21
	c-53,0-113,19-154,59c-38,37-67,101-67,176c0,89,38,142,66,169c30,29,77,57,148,57c44,0,94-12,131-40c26-20,52-54,63-102h-172V586.3
	z"/>
<circle class="st1" cx="1971.4" cy="610.7" r="289.3"/>
<polygon class="st2" points="2014.3,557.1 2357.1,342.9 2335.7,582.9 2078.6,582.9 "/>
<path class="st3" d="M2199,582.9c1.1,9.1,1.7,18.4,1.7,27.9c0,126.4-102.9,229.3-229.3,229.3s-229.3-102.9-229.3-229.3
	s102.9-229.3,229.3-229.3c71.3,0,137.7,33.3,181.1,89.3l102-63.8c-65.7-91.1-170.5-145.5-283.1-145.5
	c-192.6,0-349.3,156.7-349.3,349.3S1778.8,960,1971.4,960s349.3-156.7,349.3-349.3c0-9.4-1-18.6-1.7-27.9H2199z"/>
<g>
	<path d="M2693.4,514.3h120.2v428.6h-120.2v-55.4c-43.4,62.4-100.5,69.3-131.1,69.3c-131.1,0-217.8-102.9-217.8-228.6
		c0-126.7,85.8-227.7,211.9-227.7c32.5,0,96.6,5.9,137,69.3V514.3z M2468.7,728.1c0,68.3,49.3,121.7,118.3,121.7
		c69,0,118.3-53.4,118.3-121.7c0-68.3-49.3-120.8-118.3-120.8C2517.9,607.3,2468.7,659.8,2468.7,728.1z"/>
	<path d="M3052.3,617.2v325.6h-120.2V617.2h-47.3V514.3h47.3V367.8h120.2v146.5h82.8v102.9H3052.3z"/>
	<path d="M3410.8,616.2c-28.6-26.7-57.2-28.7-70-28.7c-28.6,0-46.3,13.9-46.3,34.7c0,10.9,4.9,27.7,38.4,38.6l28.6,8.9
		c33.5,10.9,83.8,27.7,108.4,61.4c12.8,17.8,21.7,43.5,21.7,71.3c0,38.6-12.8,77.2-47.3,108.9c-34.5,31.7-75.9,45.5-128.1,45.5
		c-88.7,0-139-42.6-165.6-71.2l63.1-73.2c23.6,27.7,59.1,49.5,94.6,49.5c33.5,0,59.1-16.8,59.1-46.5c0-26.7-21.7-37.6-37.4-43.5
		l-27.6-9.9c-30.6-10.9-66-24.8-91.6-51.5c-19.7-20.8-32.5-47.5-32.5-82.2c0-41.6,19.7-76.2,44.4-97c33.5-26.7,76.9-30.7,111.3-30.7
		c31.5,0,81.8,4,136,45.5L3410.8,616.2z"/>
	<path d="M3671.2,569.7c42.4-59.4,102.5-69.3,138.9-69.3c126.1,0,209.9,98,209.9,227.7c0,130.6-86.7,228.6-212.9,228.6
		c-27.6,0-89.7-4.9-136-69.3v55.4H3551V221.3h120.2V569.7z M3659.4,728.1c0,68.3,49.3,121.7,118.3,121.7s118.3-53.4,118.3-121.7
		c0-68.3-49.3-120.8-118.3-120.8S3659.4,659.8,3659.4,728.1z"/>
	<path d="M4219.6,878.5l-203-364.2h140l132,243.5l118.3-243.5h136l-343.9,655.2h-136L4219.6,878.5z"/>
	<path d="M2315.4,586.1l-300.3,0v118.8h156.9c-23.7,79.9-84.4,135.8-199.1,135.8c-124.6,0-212.5-101.8-212.5-227s87.9-227,212.5-227
		c70.3,0,135.7,33,178.5,88.4l100.6-63.1c-64.7-90.2-168-144.1-279-144.1c-189.8,0-344.2,155.1-344.2,345.7s143.6,345.7,344.2,345.7
		S2317,804.3,2317,613.7C2317,604.4,2316.1,595.3,2315.4,586.1z"/>
	<g id="XMLID_6_">
		<path class="st4" d="M129.4,606c1.7,118.7,46.7,237,137.1,327.4s208.7,135.4,327.4,137.1L129.4,606z M1200,600
			c0,331.3-268.7,600-600,600S0,931.3,0,600S268.7,0,600,0S1200,268.7,1200,600z M140.1,496.7l563.1,563.1c0.4-0.4,0.9-0.4,0.9-0.4
			c14.6-3.4,28.7-7.3,42.9-12c3.9-1.3,7.7-3,12-4.3c10.3-3.9,20.1-7.7,30-12c1.7-0.4,3.4-1.3,5.1-1.7l-0.4-0.4
			c163.7-73.7,277.7-237.9,277.7-429h-85.7H771.4v85.7h204.4c-29.6,129.4-124.3,234-247.7,277.3L237,471.9
			c52.7-149.6,195.4-257.6,363-257.6c130.3,0,245.6,65.1,315.4,164.6l66-55.3c-85.7-117.9-224.6-195-381.4-195
			c-191.1,0-355.3,114-429,277.7l-0.4-0.4c-0.4,1.7-1.3,3.4-1.7,5.1c-4.3,9.9-8.1,19.7-12,30c-1.3,4.3-3,8.1-4.3,12
			c-4.7,14.1-8.6,28.3-12,42.9C140.6,495.9,140.6,496.3,140.1,496.7z"/>
	</g>
</g>
</svg>
