<svg version="1.1" xmlns="http://www.w3.org/2000/svg" xmlns:xlink="http://www.w3.org/1999/xlink" x="0px" y="0px"
	 viewBox="0 0 1200 1200" style="enable-background:new 0 0 1200 1200;" xml:space="preserve" fill="#663399">
<g >
	<path class="st0" d="M129.4,606c1.7,118.7,46.7,237,137.1,327.4s208.7,135.4,327.4,137.1L129.4,606z M1200,600
		c0,331.3-268.7,600-600,600S0,931.3,0,600S268.7,0,600,0S1200,268.7,1200,600z M140.1,496.7l563.1,563.1c0.4-0.4,0.9-0.4,0.9-0.4
		c14.6-3.4,28.7-7.3,42.9-12c3.9-1.3,7.7-3,12-4.3c10.3-3.9,20.1-7.7,30-12c1.7-0.4,3.4-1.3,5.1-1.7l-0.4-0.4
		c163.7-73.7,277.7-237.9,277.7-429h-85.7H771.4v85.7h204.4c-29.6,129.4-124.3,234-247.7,277.3L237,471.9
		c52.7-149.6,195.4-257.6,363-257.6c130.3,0,245.6,65.1,315.4,164.6l66-55.3c-85.7-117.9-224.6-195-381.4-195
		c-191.1,0-355.3,114-429,277.7l-0.4-0.4c-0.4,1.7-1.3,3.4-1.7,5.1c-4.3,9.9-8.1,19.7-12,30c-1.3,4.3-3,8.1-4.3,12
		c-4.7,14.1-8.6,28.3-12,42.9C140.6,495.9,140.6,496.3,140.1,496.7z"/>
</g>
</svg>
