<svg xmlns="http://www.w3.org/2000/svg" focusable="false" viewBox="0 0 32 32"><path d="M24.6 13.8L15.4 23H9.7v-5.7l9.2-9.2c1.6-1.6 4.1-1.6 5.7 0 1.6 1.6 1.6 4.2 0 5.7z" class="svg-stroke svg-stroke-accent svg-fill-accent"/><path d="M21.1 11.7h4.2m-7.1 2.8h5.7m-7.1 1.4l-.1-5.7M14 18.8l-.1-5.8m10.7-4.8L10.1 22.7" class="svg-stroke svg-stroke-dark"/><path d="M7.4 26.4l-2.4.4 4.9-5 1.1 1-3.6 3.6z" class="svg-fill-dark"/><path fill="transparent" fill-rule="evenodd" d="M24.6 13.8L15.4 23H9.7v-5.7l9.2-9.2c1.6-1.6 4.1-1.6 5.7 0 1.6 1.6 1.6 4.2 0 5.7z" class="svg-stroke svg-stroke-dark" clip-rule="evenodd"/></svg>