<svg xmlns="http://www.w3.org/2000/svg" focusable="false" viewBox="0 0 32 32"><path d="M18.925 14.697l-2.122-2.122-3.535 3.536 2.121 2.121 3.536-3.535z" class="svg-stroke svg-stroke-dark svg-fill-background"/><path fill-rule="evenodd" d="M23.707 6.006l3.182-1.188L25.701 8l1.188 3.182-3.182-1.188-3.182 1.188L21.713 8l-1.188-3.182 3.182 1.188z" class="svg-fill-dark" clip-rule="evenodd"/><path fill-rule="evenodd" d="M11.472 8L12 9.414l-1.414-.528-1.414.528L9.7 8l-.528-1.414 1.414.528L12 6.586 11.472 8z" class="svg-fill-accent svg-stroke svg-stroke-accent" clip-rule="evenodd"/><path fill-rule="evenodd" d="M24.886 18l.528 1.414L24 18.886l-1.414.528.528-1.414-.528-1.414 1.414.528 1.414-.528L24.886 18z" class="svg-fill-dark" clip-rule="evenodd"/><path d="M13.268 16.11l2.121 2.122-8.132 8.132a1.5 1.5 0 11-2.121-2.121l8.132-8.132z" class="svg-stroke svg-stroke-dark svg-fill-background"/></svg>