<svg xmlns="http://www.w3.org/2000/svg" fill="none" focusable="false" viewBox="0 0 32 32"><path fill="url(#ecosystem0_linear)" d="M16 22.5a6.5 6.5 0 100-13 6.5 6.5 0 000 13z"/><path fill="#639" d="M16 10c3.3 0 6 2.7 6 6s-2.7 6-6 6-6-2.7-6-6 2.7-6 6-6zm0-1c-3.9 0-7 3.1-7 7s3.1 7 7 7 7-3.1 7-7-3.1-7-7-7z"/><path fill="#fff" d="M16 19.5a3.5 3.5 0 100-7 3.5 3.5 0 000 7z"/><path fill="#639" d="M16 13c1.7 0 3 1.3 3 3s-1.3 3-3 3-3-1.3-3-3 1.3-3 3-3zm0-1c-2.2 0-4 1.8-4 4s1.8 4 4 4 4-1.8 4-4-1.8-4-4-4z"/><path fill="url(#ecosystem1_linear)" d="M16 6c5.5 0 10 4.5 10 10h-3.5v.5c0 .8-.6 1.5-1.5 1.5s-1.5-.7-1.5-1.5V16H16v-3.5h.5c.8 0 1.5-.6 1.5-1.5s-.7-1.5-1.5-1.5H16V6z"/><path fill="#fff" d="M16 23c-3.9 0-7-3.1-7-7s3.1-7 7-7V6C10.5 6 6 10.5 6 16s4.5 10 10 10v-3z"/><path fill="url(#ecosystem2_linear)" d="M16 16h3.5v.5c0 .8.6 1.5 1.5 1.5s1.5-.7 1.5-1.5V16H26c0 5.5-4.5 10-10 10v-3.5h-.5c-.8 0-1.5-.6-1.5-1.5s.7-1.5 1.5-1.5h.5V16z"/><path stroke="#639" stroke-miterlimit="10" d="M16 6.5v3h.5c.8 0 1.5.6 1.5 1.5s-.7 1.5-1.5 1.5H16V16m0 0v3.5h-.5c-.8 0-1.5.6-1.5 1.5s.7 1.5 1.5 1.5h.5V26m9.5-10h-3v.5c0 .8-.6 1.5-1.5 1.5s-1.5-.7-1.5-1.5V16H16"/><path fill="#639" d="M16 7.4c4.7 0 8.6 3.9 8.6 8.6 0 4.7-3.9 8.6-8.6 8.6-4.7 0-8.6-3.9-8.6-8.6 0-4.7 3.9-8.6 8.6-8.6zM16 6C10.5 6 6 10.5 6 16s4.5 10 10 10 10-4.5 10-10S21.5 6 16 6z"/><defs><linearGradient id="ecosystem0_linear" x1="16" x2="16" y1="22.5" y2="9.5" gradientUnits="userSpaceOnUse"><stop stop-color="#8C65B3"/><stop offset=".5" stop-color="#FFB238"/><stop offset="1" stop-color="#fff"/></linearGradient><linearGradient id="ecosystem1_linear" x1="21" x2="21" y1="18.006" y2="6" gradientUnits="userSpaceOnUse"><stop stop-color="#fff" stop-opacity=".5"/><stop offset=".072" stop-color="#FFF2DE" stop-opacity=".536"/><stop offset=".182" stop-color="#FFE1B3" stop-opacity=".591"/><stop offset=".298" stop-color="#FFD38D" stop-opacity=".649"/><stop offset=".418" stop-color="#FFC76E" stop-opacity=".709"/><stop offset=".543" stop-color="#FFBE56" stop-opacity=".772"/><stop offset=".675" stop-color="#FFB745" stop-opacity=".838"/><stop offset=".82" stop-color="#FFB33B" stop-opacity=".91"/><stop offset="1" stop-color="#FFB238"/></linearGradient><linearGradient id="ecosystem2_linear" x1="20" x2="20" y1="26" y2="16" gradientUnits="userSpaceOnUse"><stop stop-color="#E2D8EC"/><stop offset=".364" stop-color="#E5DCED" stop-opacity=".818"/><stop offset=".656" stop-color="#EDE6F1" stop-opacity=".672"/><stop offset=".922" stop-color="#FAF7F8" stop-opacity=".539"/><stop offset="1" stop-color="#FFFDFB" stop-opacity=".5"/></linearGradient></defs></svg>