<svg width="32" height="32" viewBox="0 0 32 32" fill="none" xmlns="http://www.w3.org/2000/svg" focusable="false">
  <path d="M15.138 15.5c.478-.276 1.254-.276 1.732 0l8.268 4.773c.479.276.479.724 0 1l-8.268 4.774c-.478.276-1.254.276-1.732 0L6.87 21.273c-.479-.276-.479-.724 0-1l8.268-4.773z" fill="#F6EDFA"/>
  <path fill-rule="evenodd" clip-rule="evenodd" d="M16.004 17l-6.536 3.773 6.536 3.774 6.536-3.774L16.004 17zm.866-1.5c-.478-.276-1.254-.276-1.732 0L6.87 20.273c-.479.276-.479.724 0 1l8.268 4.774c.478.276 1.254.276 1.732 0l8.268-4.774c.479-.276.479-.724 0-1L16.87 15.5z" fill="#D9BAE8"/>
  <path fill-rule="evenodd" clip-rule="evenodd" d="M16 12l-6.536 3.773L16 19.547l6.536-3.774L16 12zm.866-1.5c-.478-.276-1.254-.276-1.732 0l-8.268 4.773c-.479.276-.479.724 0 1l8.268 4.774c.478.276 1.254.276 1.732 0l8.268-4.774c.479-.276.479-.724 0-1L16.866 10.5z" fill="#BC027F"/>
  <path fill-rule="evenodd" clip-rule="evenodd" d="M16.004 7l-6.536 3.773 6.536 3.774 6.536-3.774L16.004 7zm.866-1.5c-.478-.276-1.254-.276-1.732 0L6.87 10.273c-.479.276-.479.724 0 1l8.268 4.774c.478.276 1.254.276 1.732 0l8.268-4.774c.479-.276.479-.724 0-1L16.87 5.5z" fill="#639"/>
</svg>
