<svg width="20" height="20" viewBox="0 0 20 20" xmlns="http://www.w3.org/2000/svg" xmlns:xlink="http://www.w3.org/1999/xlink" focusable="false">
  <defs>
    <path d="M7.611 8.108l.049 3.255-2.556 2.556v-3.304L7.61 8.108zm5.838-5.836a3.02 3.02 0 013.73-.43l-5.525 5.526-.05-3.254 1.845-1.842zm4.71.55a3.03 3.03 0 01.455 1.555H16.6l1.558-1.555zm-.884 4.185h-3.303L15.22 5.76h3.065a2.978 2.978 0 01-.554.792l-.455.455zM9.024 9.999l-.05-3.255 1.268-1.266.05 3.254-1.268 1.267zm.36 4.899H6.083l6.505-6.508h3.304l-6.506 6.508zm-7.137 3.787l2.405-2.405h5.305l8.752-8.75a4.41 4.41 0 10-6.24-6.237L3.923 9.84l-.202.203v5.306L0 19.068l2.247-.383z" id="a"/>
  </defs>
  <g fill="none" fill-rule="evenodd">
    <mask id="b" fill="#fff">
      <use xlink:href="#a"/>
    </mask>
    <use fill="#9B9B9B" xlink:href="#a"/>
    <g mask="url(#b)" fill="#639">
      <path d="M0 0h20v20H0z"/>
    </g>
  </g>
</svg>
