<svg viewBox="0 -4 32 36" fill="none" xmlns="http://www.w3.org/2000/svg" focusable="false">
  <path d="m2.59386153 6.08618845 8.99999997-4c.2585654-.11491793.5537116-.11491793.812277 0l9 4c.7918153.35191795.7918153 1.47570515 0 1.8276231l-9 3.99999995c-.2585654.114918-.5537116.114918-.812277 0l-8.99999997-3.99999995c-.79181537-.35191795-.79181537-1.47570515 0-1.8276231z" fill="url(#a)"/>
  <path d="m3.91278555 15 7.68107595 3.4138115c.2585654.114918.5537116.114918.812277 0l7.681076-3.4138115 1.318924.5861885c.7918153.3519179.7918153 1.4757051 0 1.827623l-9 4c-.2585654.114918-.5537116.114918-.812277 0l-8.99999997-4c-.79181537-.3519179-.79181537-1.4757051 0-1.827623z" fill="#639"/>
  <path d="m3.91278555 10 7.68107595 3.4138115c.2585654.114918.5537116.114918.812277 0l7.681076-3.4138115 1.318924.5861885c.7918153.3519179.7918153 1.4757051 0 1.827623l-9 4c-.2585654.114918-.5537116.114918-.812277 0l-8.99999997-4c-.79181537-.3519179-.79181537-1.4757051 0-1.827623z" fill="url(#b)"/>
  <defs>
    <linearGradient id="a" x1="50%" x2="50%" y1="120.225393%" y2="32.468582%"><stop offset="0" stop-color="#fff"/><stop offset="1" stop-color="#8c65b3"/>
    </linearGradient>
    <linearGradient id="b" x1="50%" x2="50%" y1="126.171983%" y2="21.163833%">
      <stop offset="0" stop-color="#fff"/>
      <stop offset="1" stop-color="#ffb238"/>
    </linearGradient>
  </defs>
</svg>