<svg viewBox="0 -4 32 36" fill="none" xmlns="http://www.w3.org/2000/svg" focusable="false">
  <path d="M2.594 6.086l9-4a1 1 0 01.812 0l9 4c.792.352.792 1.476 0 1.828l-9 4a1 1 0 01-.812 0l-9-4c-.792-.352-.792-1.476 0-1.828z" fill="url(#a)"/>
  <path d="M3.913 15l7.68 3.414a1 1 0 00.813 0L20.087 15l1.32.586c.791.352.791 1.476 0 1.828l-9 4a1 1 0 01-.813 0l-9-4c-.792-.352-.792-1.476 0-1.828z" fill="#639"/>
  <path d="M3.913 10l7.68 3.414a1 1 0 00.813 0L20.087 10l1.32.586c.791.352.791 1.476 0 1.828l-9 4a1 1 0 01-.813 0l-9-4c-.792-.352-.792-1.476 0-1.828z" fill="url(#b)"/>
  <defs>
    <linearGradient id="a" x1="50%" x2="50%" y1="120.225%" y2="32.469%">
      <stop offset="0" stop-color="#fff"/>
      <stop offset="1" stop-color="#8c65b3"/>
    </linearGradient>
    <linearGradient id="b" x1="50%" x2="50%" y1="126.172%" y2="21.164%">
      <stop offset="0" stop-color="#fff"/>
      <stop offset="1" stop-color="#ffb238"/>
    </linearGradient>
  </defs>
</svg>
