<svg width="36" height="21" viewBox="0 0 36 21" fill="none" xmlns="http://www.w3.org/2000/svg" focusable="false">
  <rect y="2" width="36" height="16" rx="8" fill="#F5F3F7"/>
  <path d="M18.1 8.513l2.653 5.746 2.652-5.746h-1.04l-1.612 3.64-1.612-3.64H18.1zm11.66 5.395v-.884h-3.666l1.807-2.041c.35-.403.819-.936 1.183-1.443.52-.741.689-1.274.689-1.86 0-1.494-1.144-2.586-2.678-2.586-1.08 0-1.69.468-2.054.884-.338.39-.611.923-.65 1.794h.962c.013-.442.117-.767.286-1.027.325-.494.832-.767 1.443-.767 1.027 0 1.729.715 1.729 1.69 0 .35-.091.767-.481 1.326-.208.312-.793 1-1.014 1.26l-3.16 3.654h5.604zM14.114 10h-4v1.143h2.743c-.4 1.714-1.657 3.143-3.314 3.714L2.97 8.286c.686-2 2.629-3.429 4.858-3.429 1.714 0 3.257.857 4.228 2.172l.857-.743A6.302 6.302 0 007.83 3.714c-2.972 0-5.486 2.115-6.115 4.915l7.543 7.542c2.743-.685 4.857-3.2 4.857-6.171zm-12.4.571c0 1.6.629 3.143 1.829 4.343 1.2 1.2 2.8 1.829 4.343 1.829L1.714 10.57z" fill="#9B9B9B"/>
  <path fill-rule="evenodd" clip-rule="evenodd" d="M8 2c-4.4 0-8 3.6-8 8s3.6 8 8 8 8-3.6 8-8-3.6-8-8-8zM3.543 14.457c-1.2-1.2-1.829-2.8-1.829-4.343l6.229 6.172c-1.6-.058-3.2-.629-4.4-1.829zM1.886 8.63l7.485 7.485c2.8-.628 4.915-3.143 4.915-6.114h-4v1.143h2.743c-.4 1.714-1.658 3.143-3.315 3.714L3.143 8.286c.743-2 2.628-3.429 4.857-3.429 1.714 0 3.257.857 4.229 2.172l.857-.743A6.302 6.302 0 008 3.714c-2.971 0-5.486 2.115-6.114 4.915z" fill="#F5F3F7"/>
</svg>
