<svg width="16" height="16" viewBox="0 0 16 16" fill="none" xmlns="http://www.w3.org/2000/svg" focusable="false">
  <path d="M1.724 11.774l.575.332L8.705 1.011 8.13.68 1.724 11.774z" fill="#639"/>
  <path d="M14.404 10.888H1.592v.664h12.812v-.664z" fill="#639"/>
  <path d="M1.846 11.26l6.408 3.7.332-.574-6.408-3.7-.332.575zm5.567-9.642l6.408 3.7.332-.575-6.408-3.7-.332.575z" fill="#639"/>
  <path d="M1.847 4.74l.332.575 6.409-3.7-.332-.575-6.409 3.7z" fill="#639"/>
  <path d="M7.297 1.011l6.406 11.095.575-.332L7.872.68l-.575.332zM2.764 4.3H2.1v7.4h.664V4.3z" fill="#639"/>
  <path d="M13.9 4.3h-.664v7.4h.664V4.3z" fill="#639"/>
  <path d="M7.851 14.178l.29.502 5.574-3.218-.29-.502-5.574 3.218z" fill="#639"/>
  <path d="M14.78 11.916a1.398 1.398 0 01-1.908.512 1.398 1.398 0 01-.512-1.908 1.398 1.398 0 011.908-.512c.672.388.9 1.24.512 1.908zM3.636 5.48a1.398 1.398 0 11-.512-1.908 1.4 1.4 0 01.512 1.908zM1.22 11.916a1.4 1.4 0 01.512-1.908 1.4 1.4 0 011.908.512 1.397 1.397 0 01-2.42 1.396zM12.364 5.48a1.4 1.4 0 01.512-1.908 1.4 1.4 0 011.908.512 1.4 1.4 0 01-.512 1.908 1.398 1.398 0 01-1.908-.512zM8 15.832a1.395 1.395 0 01-1.396-1.396c0-.772.624-1.396 1.396-1.396.772 0 1.396.624 1.396 1.396 0 .768-.624 1.396-1.396 1.396zM8 2.96a1.395 1.395 0 01-1.396-1.396C6.604.792 7.228.168 8 .168c.772 0 1.396.624 1.396 1.396 0 .772-.624 1.396-1.396 1.396z" fill="#639"/>
</svg>
