<svg width="105" height="142" viewBox="0 0 105 142" fill="none" xmlns="http://www.w3.org/2000/svg" focusable="false">
  <circle cx="61" cy="80" r="42" fill="#FEC21E"/>
  <path d="M51.347 137.437c13.516-2.478 24.297-5.444 24.08-6.625-.216-1.181-11.348-.129-24.864 2.349s-24.297 5.445-24.08 6.625c.216 1.181 11.348.129 24.864-2.349z" fill="#B7B5BD"/>
  <path d="M96.87 127.115c.477 1.711-9.509 5.443-22.305 8.335-7.15 1.616-13.666 2.628-18.106 2.907-3.506.221-5.718-.015-5.929-.77-.26-.929-3.293-2.02 1.39-3.682.986-.35 2.42-.733 4.11-1.132 5.065-1.195 12.418-2.529 16.805-3.521 12.797-2.891 23.558-3.849 24.035-2.137z" fill="#B7B5BD"/>
  <path d="M53.094 117.6c-.007-.006-1.513-1.327-1.531-1.341a3.986 3.986 0 00-2.767-.85 3.974 3.974 0 00-2.63 1.206c-.693.726-1.04 1.656-.976 2.621.063.964.53 1.842 1.313 2.47l1.531 1.341a3.98 3.98 0 002.767.85c.453-.03.89-.132 1.295-.298a3.869 3.869 0 001.334-.909c.694-.725 1.04-1.655.977-2.62-.064-.965-.53-1.842-1.313-2.47z" fill="#48434F"/>
  <path d="M53.797 120.11c-.108-1.636-1.643-2.867-3.428-2.749-1.785.118-3.145 1.54-3.037 3.176.108 1.636 1.643 2.867 3.428 2.75 1.785-.118 3.145-1.54 3.037-3.177z" fill="#B7B5BD" stroke="#48434F" stroke-width="1.519" stroke-miterlimit="10" stroke-linecap="round" stroke-linejoin="round"/>
  <path d="M51.375 120.315a.765.765 0 11-1.526.101.765.765 0 011.526-.101z" fill="#B7B5BD" stroke="#48434F" stroke-width=".894" stroke-miterlimit="10"/>
  <path d="M93.113 121.591a3.9 3.9 0 00-.217-.197c-.035-.031-.067-.064-.103-.093l-.004-.003c-.028-.024-.054-.051-.083-.075l-.004-.003c-.028-.024-.054-.051-.083-.075l-.004-.002c-.028-.025-.054-.052-.083-.076l-.004-.002c-.028-.025-.054-.051-.083-.075l-.004-.003c-.028-.025-.054-.051-.083-.075l-.004-.003c-.028-.025-.054-.051-.083-.075l-.004-.003c-.028-.024-.054-.051-.083-.075l-.003-.002c-.029-.025-.054-.052-.084-.076l-.003-.002c-.029-.025-.054-.052-.084-.076l-.003-.002c-.029-.025-.054-.052-.084-.076l-.003-.002c-.029-.025-.054-.052-.084-.076l-.003-.002c-.029-.025-.054-.051-.084-.076l-.003-.002c-.029-.025-.054-.051-.084-.075l-.003-.003c-.029-.024-.054-.051-.084-.075l-.003-.002c-.029-.025-.054-.052-.084-.076l-.003-.002c-.029-.025-.054-.052-.084-.076l-.003-.002c-.029-.025-.054-.052-.084-.076l-.003-.002c-.029-.025-.054-.052-.084-.076l-.003-.002c-.029-.025-.054-.051-.084-.076l-.003-.002c-.028-.024-.054-.051-.084-.076-.895-.73-2.079-1.138-3.336-1.146-1.257-.009-2.447.385-3.35 1.105-.947.754-1.472 1.775-1.479 2.873-.007 1.099.505 2.126 1.443 2.892l.006.004c.028.024.052.05.08.073l.006.004c.028.024.052.049.081.073l.006.004c.028.023.052.049.08.072l.006.004c.028.024.052.05.08.073l.007.004c.027.024.052.049.08.073l.006.004c.028.023.052.049.08.072l.007.004c.027.024.052.05.08.073l.006.004c.028.024.052.05.08.073l.006.004c.028.024.052.049.08.072l.007.005c.028.023.052.049.08.072l.006.004c.028.024.052.05.08.073l.007.004c.027.024.052.049.08.072l.006.005c.028.023.052.049.08.072l.007.005c.027.023.052.049.08.072l.006.004c.028.024.052.049.08.072l.007.005c.027.023.051.049.08.072l.006.005c.027.023.052.049.08.072l.007.004c.027.024.051.049.079.072l.007.005c.027.024.052.049.08.072l.006.005.048.043c.87.769 2.097 1.255 3.46 1.264a5.87 5.87 0 001.011-.083c2.168-.374 3.807-1.974 3.82-3.894v-.001c.006-1.021-.453-1.954-1.205-2.667z" fill="#48434F"/>
  <path d="M93.632 124.254c.012-1.835-1.823-3.334-4.098-3.349-2.275-.014-4.129 1.462-4.14 3.297-.012 1.836 1.823 3.335 4.098 3.349 2.275.015 4.129-1.461 4.14-3.297z" fill="#fff" stroke="#48434F" stroke-width="1.7" stroke-miterlimit="10" stroke-linecap="round" stroke-linejoin="round"/>
  <path d="M90.542 124.285c.003-.472-.43-.858-.967-.862-.537-.003-.975.377-.978.85-.003.473.43.859.967.862.538.003.975-.377.978-.85z" fill="#B7B5BD" stroke="#48434F" stroke-miterlimit="10"/>
  <path d="M58.612 123.381l-1.345-1.838a4.462 4.462 0 00-2.816-1.601 4.45 4.45 0 00-3.165.677c-.934.624-1.54 1.556-1.705 2.625-.166 1.069.13 2.141.832 3.018.007.008 1.33 1.817 1.347 1.837a4.452 4.452 0 002.815 1.602 4.61 4.61 0 001.488-.01 4.346 4.346 0 001.678-.668c.934-.623 1.54-1.555 1.705-2.624.165-1.07-.131-2.141-.834-3.018z" fill="#48434F"/>
  <path d="M58.769 126.294c.28-1.814-1.097-3.532-3.075-3.837-1.979-.306-3.81.916-4.09 2.73-.28 1.814 1.096 3.532 3.075 3.838 1.979.305 3.81-.917 4.09-2.731z" fill="#fff" stroke="#48434F" stroke-width="1.7" stroke-miterlimit="10" stroke-linecap="round" stroke-linejoin="round"/>
  <path d="M56.074 125.929a.856.856 0 11-1.692-.262.856.856 0 011.692.262z" fill="#B7B5BD" stroke="#48434F" stroke-miterlimit="10"/>
  <path d="M98.395 114.044c.243 3.662-11.031 7.39-25.181 8.329-7.907.525-15.039.067-19.835-1.078-3.788-.904-5.64-2.342-6.226-3.851-.703-1.809-3.207-5.376 2.065-6.946 1.11-.33 2.706-.555 4.576-.713 5.61-.475 13.688-.348 18.54-.67 14.15-.939 25.818 1.268 26.061 4.929z" fill="#fff" stroke="#48434F" stroke-width="1.7" stroke-miterlimit="10" stroke-linecap="round" stroke-linejoin="round"/>
  <path d="M41.798 125.2a2.014 2.014 0 10-.685-3.968 2.014 2.014 0 00.685 3.968zm-4.972-3.693a1.006 1.006 0 10-.341-1.983 1.006 1.006 0 00.34 1.983z" fill="#48434F"/>
  <path d="M59.416 111.103c-1.953.061-3.83.147-5.487.287a34.5 34.5 0 00-2.893.349c-.534.092-.991.194-1.358.304-1.1.327-1.823.766-2.036 1.237-.303.667.242 1.858.64 2.728.143.309.273.597.373.852.212.547 1.134 1.922 5.097 2.868 2.298.548 5.099.919 8.202 1.106.769-.348.89-1.176.89-1.176s-2.06-6.405-2.331-7.585c-.161-.698-.69-.91-1.096-.97zm30.865.335c-4.793-.907-11.128-1.16-17.84-.715-1.56.103-3.432.161-5.447.206a3.808 3.808 0 00-.547.596s2.555 7.002 3.068 8.003c.366.714 1.343 1.144 1.878 1.334.569-.028 1.14-.059 1.714-.097a91.254 91.254 0 009.44-1.104c10.886-1.88 14.292-4.736 14.24-5.51-.02-.317-1.186-1.707-6.506-2.713z" fill="#B7B5BD"/>
  <path d="M96.566 60.752c-.349.06-.594-.18-.725-.308-.08-.078-.158-.158-.236-.238-.14-.145-.28-.291-.436-.417l-.068-.052c-.077-.057-.237-.175-.272-.41a.603.603 0 01.143-.465c.026-.065.06-.169.09-.26.092-.282.187-.573.58-.873.077-.058.9-.613 1.291-.68.95-.16 1.8.363 1.979 1.215.148.711-.431.92-.622.988-.058.02-.125.042-.19.08-.314.18-.64.511-.972.986-.107.153-.268.383-.561.434h-.001z" fill="#fff"/>
  <path d="M97.022 57.564h.001c.617-.103 1.248.196 1.377.808.078.374-.236.32-.56.505-.45.258-.84.71-1.142 1.142-.093.134-.155.205-.22.217-.071.012-.147-.044-.272-.166-.236-.23-.453-.483-.708-.689-.188-.152-.187-.092-.068-.258.204-.49.16-.696.53-.977.174-.133.85-.545 1.062-.582zm-.174-1.032h-.004c-.57.099-1.51.774-1.519.78-.524.4-.661.82-.762 1.129a4.174 4.174 0 01-.06.176 1.102 1.102 0 00-.192.786c.066.45.378.68.48.756l.05.037c.121.098.25.231.386.372.082.085.163.17.248.251.155.152.567.555 1.18.449.51-.088.774-.467.902-.65.358-.512.635-.735.804-.832.036-.02.074-.03.106-.041 1.084-.39 1.03-1.24.958-1.588-.238-1.133-1.345-1.832-2.575-1.626h-.002z" fill="#48434F"/>
  <path d="M98.751 62.261c-.341.06-.917-.104-1.067-.551-.032-.049-.112-.078-.171-.1a1.983 1.983 0 01-.488-.24.657.657 0 01-.269-.448c-.068-.482.383-1.057.402-1.081.505-.636 1.11-.88 1.748-1.139.213-.086.377-.149.557-.18.321-.055.614.006.979.205.818.446 1.176 1.303.911 2.185-.072.365-.295.604-.653.666l-.039.007-.117.007a1.384 1.384 0 01-.307.1l-.05.01-.12.004a1.067 1.067 0 00-.204.015c-.267.046-.516.197-.833.426l-.099.071-.18.043z" fill="#fff"/>
  <path d="M99.553 59.038c.193-.034.37.002.639.149.546.297.868.88.659 1.574-.033.166-.081.274-.24.301a.505.505 0 01-.076.007.393.393 0 00-.058.006c-.112.019-.217.082-.329.101a.371.371 0 01-.071.006 1.583 1.583 0 00-.303.023c-.39.067-.716.275-1.051.517a.147.147 0 01-.06.023c-.148.026-.435-.062-.482-.201-.146-.436-.506-.357-.853-.602-.176-.125.117-.62.24-.776.415-.522.92-.73 1.535-.979a2.32 2.32 0 01.45-.15zm-.179-1.032c-.23.04-.429.115-.664.21-.642.26-1.37.554-1.961 1.298-.103.129-.607.805-.51 1.482.046.328.218.613.484.8.21.15.41.23.556.285.308.55 1.011.791 1.561.696.184-.032.351-.101.496-.206.257-.185.449-.306.616-.334a.528.528 0 01.103-.008 1.42 1.42 0 00.271-.02 1.83 1.83 0 00.345-.1c.041-.003.081-.008.118-.015.264-.045.888-.241 1.078-1.076.309-1.098-.159-2.199-1.174-2.751-.317-.173-.754-.359-1.319-.261z" fill="#48434F"/>
  <path d="M99.867 64.365a2.635 2.635 0 01-.398.04c-.57.011-1.052-.32-1.32-.912-.308-.679.11-1.199.289-1.42.332-.413.749-.623 1.182-.818.183-.082.37-.14.553-.172a2.01 2.01 0 01.956.068c.4.138.731.385.966.717.219.307.467.654.447 1.113-.002.04-.006.15-.121.536l-.092.31-.318.056c-.284.05-1.091.202-1.422.299-.26.076-.491.143-.722.183z" fill="#fff"/>
  <path d="M100.263 61.6a1.462 1.462 0 01.704.049c.29.1.533.286.7.521.167.236.365.486.352.789-.004.086-.1.409-.1.409s-1.046.185-1.477.312c-.217.063-.44.13-.664.169-.107.018-.213.03-.32.032-.394.008-.671-.248-.832-.604-.156-.344.002-.607.22-.877.266-.33.625-.503.99-.667.139-.063.281-.108.427-.133zm-.179-1.032c-.227.039-.456.11-.68.21-.373.168-.937.422-1.374.965-.198.246-.799.993-.358 1.966.353.78 1.028 1.235 1.807 1.22.154-.004.31-.02.477-.048a6.7 6.7 0 00.75-.187c.305-.09 1.014-.227 1.396-.295l.636-.113.185-.62c.133-.447.139-.588.142-.664.027-.639-.308-1.107-.508-1.387l-.035-.05a2.463 2.463 0 00-1.729-1.02 2.524 2.524 0 00-.709.023z" fill="#48434F"/>
  <path d="M69.226 58.27c1.604 6.79 7.449 10.147 14.058 10.048 3.305-.05 5.723-.75 7.88-1.966" stroke="#48434F" stroke-width="7" stroke-miterlimit="10" stroke-linecap="round" stroke-linejoin="round"/>
  <path d="M91.724 62.905c-1.959 1.43-3.522 1.587-2.615 4.235.339.99.898 1.797 1.569 2.02 1.162.385 2.708-.52 4.51-1.548" fill="#fff"/>
  <path d="M91.724 62.905c-1.959 1.43-3.522 1.587-2.615 4.235.339.99.898 1.797 1.569 2.02 1.162.385 2.708-.52 4.51-1.548" stroke="#48434F" stroke-width="1.3" stroke-miterlimit="10" stroke-linecap="round" stroke-linejoin="round"/>
  <path d="M96.15 67.032s-.592.634-1.426.627c-.59-.006-1.52-.317-2.277-1.549-.693-1.126-1.06-2.253-.861-2.815.219-.62.606-.778.606-.778s-.363-1.955-.053-2.97c.189-.618 1.775-1.778 2.473-1.066.571.583 9.4 3.68 7.534 5.903-1.963 2.34-3.128 2.303-5.995 2.648z" fill="#fff" stroke="#48434F" stroke-width="1.3" stroke-miterlimit="10" stroke-linecap="round" stroke-linejoin="round"/>
  <path d="M68.797 53.23c3.054 1.196 3.33 5.369 3.33 5.369l-.221 5.002-3.435-4.59s-2.997-7.082.326-5.78z" fill="#48434F"/>
  <path fill-rule="evenodd" clip-rule="evenodd" d="M55.445 24.398c-7.512 1.46-18.646 3.983-18.079 6.899.355 1.828-8.666 9.51-21.115 11.93 2.647-2.496 2.979-4.282 3.824-7.256-3.781-1.858-3.627-2.31-6.04-4.166 6.409-1.402 15.593-8.557 14.174-10.936-1.501-2.518 6.435-8.26 12.959-9.529 6.749 9.395 7.795 6.704 14.277 13.058z" fill="#48434F"/>
  <path d="M33.788 21.132c-.472-.107-.923-.106-1.184.155-.294.294-.234.763.178 1.235 1.113 1.273 3.231.251 4.668 2.165.944 1.257.435 2.28-.325 3.254-.214.275-.46.556-.702.595-.029.005-.063-.037-.091-.097-.248-.529-.432-.828-.852-1.373l.057.005c.968.072.589-1.899-.637-2.08l-.023-.004c-1.169-.146-2.234-.475-3.074-1.502-.909-1.112-1.243-2.491-.538-3.396.265-.338.617-.515 1.085-.537.51.61.838.934 1.438 1.58zm5.713 5.081c-1.313-2.46-3.734-4.446-6.442-7.69a.155.155 0 01.013-.207 9.47 9.47 0 01.95-.78c.442-.33.866-.575 1.618-.376.777.205 1.646.853 2.337 1.581.684.72 1.112 1.376 1.125 2.04.002.084.07.151.165.162.882.099 2.114.805 2.872 1.482 1.85 1.65.445 2.741-1.067 3.303-.6.223-.897.342-1.399.543a.136.136 0 01-.172-.058zm-4.245-7.254c.747.851 1.217 1.277 2.033 2.109.417-.31.24-.914-.401-1.57-.618-.632-1.235-.895-1.632-.54zm3.267 3.395c.822.889 1.221 1.318 1.834 2.156.663-.254.698-.881.014-1.56-.64-.636-1.403-.931-1.848-.596zm-.673-6.997c.058-.025.125-.02.162.013.86.762 1.424 1.17 2.793 1.962.24.151.363.227.616.378l.022-.009a16.448 16.448 0 01-.56-.714c-.617-.904-.875-1.385-1.109-2.216-.024-.087.054-.207.157-.246.51-.191.838-.309 1.353-.492.084-.03.163.006.178.08.396 1.905 1.67 2.971 3.014 4.963a.23.23 0 00.04.043c2.003 1.616 3.246 2.505 4.078 4.191-.515.19-.856.295-1.48.488-.083.026-.167 0-.194-.06-.683-1.507-2.238-2.405-4.161-3.993a.25.25 0 00-.047-.03c-2.983-1.455-4.403-2.21-6.312-3.662.565-.295.875-.443 1.45-.696zM25.67 31.116c.16.21.247.32.43.547 1.247 1.545 3.16 4.192 1.147 5.305-2.014 1.113-4.048-.392-5.272-1.995-1.277-1.67-2.072-3.775-.335-4.954.938-.636 2.023-.556 2.901-.042-.364.487-.566.76-.934 1.325-.276-.254-.7-.589-1.177-.254-.846.594.18 2.216.742 2.896.618.746 2.102 2.408 3.087 1.717.681-.477-.159-1.62-.622-2.151-.303.264-.459.396-.774.655-.487-.56-.73-.839-1.157-1.359.79-.674 1.19-1.04 1.963-1.69zm.804-3.722c2.08 1.244 3.816 1.84 6.673 5.069-.53.418-.794.613-1.29.98-.502-.552-.77-.832-1.298-1.36-.493.358-.723.53-1.144.883.387.645.588.977.937 1.603-.404.316-.57.478-.984.821-1.87-3.488-2.868-5.49-4.08-7.379.503-.25.779-.343 1.186-.617zm1.282 1.964a10.598 10.598 0 00-.783-.64l-.015.007c.207.283.312.435.507.79.333.634.499 1.065 1.078 1.996.314-.246.484-.367.846-.61-.768-.75-1.046-1.058-1.633-1.543zm2.473-6.136c.28.377.479.58.935 1.032-.289.4-.438.607-.752 1.004 2.059 1.782 3.218 2.792 4.737 5.473-.452.439-.703.66-1.2 1.08-1.71-2.949-2.615-3.847-4.578-5.363a9.23 9.23 0 01-.876.799c-.41-.307-.603-.445-.944-.747 1.06-1.043 1.578-1.895 2.678-3.278z" fill="#fff"/>
  <path d="M102.907 67.646L41.401 11.321a.783.783 0 01-.048-1.103l.149-.162a.783.783 0 011.102-.049l61.506 56.325c.316.29.338.786.048 1.103l-.149.162a.782.782 0 01-1.102.049z" fill="#48434F" stroke="#48434F" stroke-width=".5" stroke-miterlimit="10"/>
  <path d="M95.123 65.345c-.197-.105-.175-.345-.072-.534.748-1.39-.418-2.347-.27-2.503a.411.411 0 01.567-.02c.568.5 1.256.985.423 2.53-.092.17-.54.584-.648.527z" fill="#48434F"/>
  <path d="M96.545 60.633c-.288.05-.496-.154-.62-.275a11.022 11.022 0 01-.233-.236 4.866 4.866 0 00-.447-.427l-.072-.055c-.068-.051-.197-.145-.224-.33a.484.484 0 01.12-.375c.042-.095.077-.202.107-.295.09-.276.176-.537.54-.814.113-.086.89-.599 1.238-.659.884-.148 1.674.335 1.84 1.122.127.608-.36.783-.545.849-.064.023-.136.047-.21.089-.328.188-.668.532-1.01 1.022-.101.145-.24.342-.483.384z" fill="#fff"/>
  <path d="M97.022 57.564h.001c.617-.103 1.248.196 1.377.808.078.374-.236.32-.56.505-.45.258-.84.71-1.142 1.142-.093.134-.155.205-.22.217-.071.012-.147-.044-.272-.166-.235-.23-.453-.483-.707-.689-.189-.152-.187-.092-.07-.258.205-.49.161-.696.53-.977.175-.133.851-.545 1.063-.582zm-.134-.794h-.002c-.5.087-1.406.729-1.414.735-.465.353-.584.717-.679 1.01-.02.063-.043.133-.073.213a.86.86 0 00-.17.64c.052.35.293.529.384.596l.058.044c.134.108.267.246.409.392.08.083.16.166.242.246.144.14.48.468.971.384.41-.071.628-.382.745-.55.384-.55.691-.795.882-.904.05-.028.1-.043.144-.059.873-.313.878-.956.803-1.31-.21-1.004-1.198-1.622-2.298-1.438h-.002z" fill="#48434F"/>
  <path d="M98.73 62.142c-.305.053-.807-.101-.931-.47-.03-.088-.04-.1-.244-.176a1.858 1.858 0 01-.46-.225.533.533 0 01-.219-.367c-.061-.43.359-.966.377-.989.485-.61 1.074-.849 1.699-1.101.205-.083.364-.144.532-.173.291-.05.561.007.901.192.765.417 1.1 1.219.852 2.044-.018.097-.1.503-.557.582l-.139.012c-.026.006-.056.02-.086.03-.078.03-.157.058-.239.072l-.038.007-.109.005a1.174 1.174 0 00-.227.017c-.29.05-.552.208-.883.447l-.075.054-.153.04z" fill="#fff"/>
  <path d="M99.553 59.038c.193-.034.37.002.639.149.546.297.868.88.659 1.574-.033.166-.081.274-.24.301a.505.505 0 01-.076.007.368.368 0 00-.058.006c-.112.019-.216.082-.329.101a.371.371 0 01-.071.006 1.582 1.582 0 00-.303.023c-.39.067-.716.275-1.051.517a.147.147 0 01-.06.023c-.148.026-.435-.062-.482-.201-.146-.436-.506-.357-.853-.602-.176-.125.117-.62.24-.776.415-.522.92-.73 1.535-.979a2.32 2.32 0 01.45-.15zm-.138-.794a2.966 2.966 0 00-.614.196c-.645.26-1.312.53-1.863 1.225-.091.115-.543.718-.46 1.297a.933.933 0 00.384.637 2.237 2.237 0 00.59.288c.24.536.92.726 1.347.652a.941.941 0 00.396-.164c.284-.205.503-.34.716-.377a.77.77 0 01.149-.01 1.2 1.2 0 00.225-.018c.133-.023.242-.064.314-.092l.019-.007a1.28 1.28 0 00.13-.015c.268-.046.734-.225.885-.898.28-.988-.141-1.98-1.055-2.479-.283-.154-.671-.32-1.163-.235z" fill="#48434F"/>
  <path d="M94.34 61.307s.012 1.153 1.243 1.664c1.232.511 2.052.106 2.42-.435 0 0 .225-.986-.543-1.32-1.228-.532-2.124-1.923-2.74-2.456-.616-.532-2.186-.133-2.528 1.144" fill="#fff"/>
  <path d="M94.34 61.307s.012 1.153 1.243 1.664c1.232.511 2.052.106 2.42-.435 0 0 .225-.986-.543-1.32-1.228-.532-2.124-1.923-2.74-2.456-.616-.532-2.186-.133-2.528 1.144" stroke="#48434F" stroke-miterlimit="10" stroke-linecap="round" stroke-linejoin="round"/>
  <path d="M95.475 62.445s-.817-.293-1.117-1.442c-.093-.354-.265.314-.21.636.163.943.48 1.22.48 1.22l-.986-.252-.174-2.813 1.017.37.99 2.281zm4.207 1.899c-.075.013-.15.021-.223.022-.499.011-.925-.317-1.2-.923-.277-.611.094-1.073.272-1.295.316-.392.72-.594 1.14-.783.173-.078.348-.133.523-.163a1.876 1.876 0 01.897.064c.374.129.685.36.905.672.219.306.443.62.425 1.038-.001.034-.005.13-.139.636l-.076.286-.296.013c-.007 0-.691.031-1.146.11a2.01 2.01 0 00-.209.045c-.094.028-.19.064-.288.1a3.2 3.2 0 01-.585.178z" fill="#fff"/>
  <path d="M100.263 61.6a1.462 1.462 0 01.704.05c.29.1.533.285.7.52.167.236.365.486.352.789-.004.086-.127.55-.127.55s-.71.03-1.195.114a2.365 2.365 0 00-.255.057c-.269.078-.551.22-.83.268a1.08 1.08 0 01-.161.016c-.394.008-.664-.331-.825-.687-.156-.344.002-.607.22-.877.266-.33.625-.503.99-.667.139-.063.281-.108.427-.133zm-.137-.794c-.208.036-.417.1-.622.193-.352.158-.885.398-1.286.896-.193.24-.705.877-.326 1.714.34.751.914 1.174 1.575 1.16.094-.001.188-.01.283-.027.246-.043.466-.125.66-.198a3.65 3.65 0 01.259-.091c.046-.014.103-.025.165-.036a11.032 11.032 0 011.094-.104l.591-.026.152-.572c.146-.548.15-.658.153-.723.023-.556-.27-.965-.463-1.236l-.037-.051a2.214 2.214 0 00-2.198-.9z" fill="#48434F"/>
  <path d="M96.386 113.233l-.49-.124c.081.197.371.676.108.969-1.174 1.307-5.95 3.252-13.648 4.582a90.825 90.825 0 01-9.4 1.099c-7.429.493-14.448.118-19.26-1.029-3.862-.922-4.747-2.224-4.948-2.741a17.91 17.91 0 00-.374-.861c-.2-.437-.617-1.451-.757-1.986l-.253.448c-.069.743.396 1.759.736 2.502.14.305.269.589.367.841.224.577 1.183 2.023 5.238 2.991 4.857 1.159 11.934 1.538 19.415 1.042a91.288 91.288 0 009.46-1.107c10.332-1.784 14.482-4.606 14.408-5.722-.013-.187-.421-.735-.602-.904z" fill="#fff"/>
  <path d="M96.249 113.38c.7 1.684-4.236 3.816-13.859 5.478-2.98.514-6.15.885-9.421 1.102-7.449.494-14.49.117-19.32-1.035-3.955-.944-4.876-2.317-5.088-2.863a17.9 17.9 0 00-.371-.85c-.222-.485-.485-1.066-.625-1.604-.064.686.378 1.658.718 2.4.142.309.272.597.371.852.213.547 1.135 1.922 5.098 2.868 4.838 1.154 11.893 1.532 19.355 1.037a91.254 91.254 0 009.44-1.104c10.886-1.88 14.292-4.736 14.24-5.51-.005-.083-.32-.566-.538-.771zM59.175 69.721l2.033-21.502 9.811 7.038-11.845 14.464z" fill="#fff"/>
  <path d="M49.298 80.232c-7.586 4.12-13.389 7.872-22.582 9.347-14.876 2.388-15.865-22.138-13.185-23.12 2.412-.885 2.696.042 2.592 1.16-.48 5.149.637 9.94 3.021 14.001 1.25 2.129 3.882 2.384 5.157 2.165 6.395-1.094 10.129-3.444 14.814-7.318.543-.91 1.2-1.761 1.835-2.615" fill="#48434F"/>
  <path d="M49.298 80.232c-7.586 4.12-13.389 7.872-22.582 9.347-14.876 2.388-15.865-22.138-13.185-23.12 2.412-.885 2.696.042 2.592 1.16-.48 5.149.637 9.94 3.021 14.001 1.25 2.129 3.882 2.384 5.157 2.165 6.395-1.094 10.129-3.444 14.814-7.318.543-.91 1.2-1.761 1.835-2.615" stroke="#48434F" stroke-width="1.7" stroke-miterlimit="10"/>
  <path d="M40.95 73.852c1.964-10.656 6.136-17.614 14.265-24.737 1.4.731 3.876 2.067 5.276 2.8-.285 6.567-1.658 12.544-1.905 19.104C61.03 68.193 69.011 58.32 69.011 58.32s-.662 1.491-1.386 1.961c-3.262 2.486-5.024 10.87-4.748 11.032 8.247 4.83 16.28 6.565 21.302 14.72 4.15 6.74 2.505 10.874.258 17.802-.281.865-1.198 1.372-2.094 1.614-.507.138-.47.175-.959-.028-1.35-.562-.909-2.125-.542-3.233 1.69-5.108 2.528-8.25-1.256-12.964S68.48 82.15 63.044 81.878c-5.754-.288-8.715.12-13.746-1.646" fill="#48434F"/>
  <path d="M40.95 73.852c1.964-10.656 6.136-17.614 14.265-24.737 1.4.731 3.876 2.067 5.276 2.8-.285 6.567-1.658 12.544-1.905 19.104C61.03 68.193 69.011 58.32 69.011 58.32s-.662 1.491-1.386 1.961c-3.262 2.486-5.024 10.87-4.748 11.032 8.247 4.83 16.28 6.565 21.302 14.72 4.15 6.74 2.505 10.874.258 17.802-.281.865-1.198 1.372-2.094 1.614-.507.138-.47.175-.959-.028-1.35-.562-.909-2.125-.542-3.233 1.69-5.108 2.528-8.25-1.256-12.964S68.48 82.15 63.044 81.878c-5.754-.288-8.715.12-13.746-1.646" stroke="#48434F" stroke-width="1.7" stroke-miterlimit="10"/>
  <path d="M50.071 58.092l.559-1.103a.812.812 0 01.745-.45c.928.023 2.826.11 3.254.45l-.246.94-4.312.163zM47.01 79.55s2.93 1.597 4.894 2.317c.155.056.447.969-.327.98-.775.012-4.567-3.296-4.567-3.296z" fill="#fff"/>
  <path d="M62.883 53.437l-1.238 4.04a.293.293 0 00.42.36l2.94-1.667.228 2.427c.007.428.328.562.637.267l2.825-2.631s-2.07-.443-3.177-.94c-1.107-.496-2.635-1.856-2.635-1.856z" fill="#48434F"/>
  <path d="M9.102 57.12c3.332-.483 6.995-.768 9.48 1.203 0 0 .482.633.2 1.994-.281 1.36-1.761 5.49-1.761 5.49s.553.516.259 1.32c-.294.804-1.399 1.63-3.38 1.377-1.983-.253-2.639-1.25-2.714-2.08-.066-.72-1.097-1.251-2.944-1.108-1.848.144-4.25.006-5.862-1.997-.576-.716-.865-1.503-.94-2.18-.243-2.17.78-3.021 7.662-4.019z" fill="#fff" stroke="#48434F" stroke-width="1.3" stroke-miterlimit="10"/>
  <path d="M2.092 62.421a.403.403 0 01-.322-.081c-.174-.14-.158-1.695.007-1.546.195.175.356.103.542-.01.872-.534 2.121-.678 2.178-.68.222-.016.354-.03.369.192.015.22-1.996.246-2.53 1.98-.03.097-.151.129-.244.145zm16.598-1.943s-4.112-2.078-7.22-1.627c-5.761.836-6.046 1.324-5.53 2.459.56 1.236 2.755 2.667 1.801 3.656-.67.694 1.448.375 1.448.375l4.24 3.075 3.17-.46.866-1.905 1.225-5.573z" fill="#48434F"/>
  <path d="M9.583 64.704c.136-.697.263-1.348.388-2 .04-.206.087-.452-.147-.547-.243-.099-.393.097-.465.304-.257.75-.622 1.513.224 2.243zm1.135.078c.016-.963.581-1.26.822-1.739.116-.231.213-.49-.073-.68-.193-.128-.427-.157-.601 0-.695.629-.799 1.507-.88 2.356-.033.354.608.354.608.354s-.131.325.26.652c.65.057.666-.647 1.068-.903.327-.208.614-.447 1.02-.511.467-.075.694-.391.5-.837-.192-.436-.57-.404-.986-.27-.72.23-1.027.944-1.738 1.578z" fill="#fff"/>
  <path d="M92.28 114.39c-1.62.516-11.775 2.209-15.709-1.342 0 0-.405-.655.029-1.975.434-1.32 2.488-5.586 2.488-5.586s-.415-.363-.032-1.128c.383-.766 1.344-1.136 3.324-.867 3.454.471 2.658 2.073 2.103 2.263-.684.233 1.527 1.676 3.28 2.278 1.788.613 4.615.631 5.602 2.064 1.46 2.117.535 3.777-1.085 4.293z" fill="#fff" stroke="#48434F" stroke-width="1.3" stroke-miterlimit="10"/>
  <path d="M91.21 113.23a2.853 2.853 0 01-.147.022.403.403 0 01-.446-.353c-.026-.221 2.02-.019 3.124-1.864.115-.191.406-.173.57-.022a.403.403 0 01.021.569c-.196.213-.778 1.438-.88 1.191-.117-.287-1.846.388-2.242.457zm-14.61-2.157s2.33 1.907 6.435 2.313c2.287.227 5.63-.128 5.63-.128s2.545-.029-.098-2.639c-1.013-1.001 1.107-1.878 1.107-1.878s-3.303-1.03-4.834-2.875c-.437-.527-.416-1.4-.747-1.73-.83-.827-1.714-.644-1.714-.644l-2.076-.032-1.052.958-.163 1.069-2.488 5.586z" fill="#48434F"/>
  <path d="M86.237 107.756c-.213.677-.156.68-.354 1.313-.063.201-.138.44.084.561.23.126.402-.051.496-.249.341-.716.532-.804-.226-1.625zm-1.118-.205c-.125.954-.44.715-.733 1.164-.141.216-.266.462-.004.683.177.15.406.205.597.069.762-.546.683-.937.86-1.772.112-.535-1.018-.365-.748-1.097-.64-.13-.735.567-1.164.776-.348.17.014.037-.396.055-.472.022-.734.31-.591.774.14.456.52.467.948.381.742-.148.453-.485 1.231-1.033z" fill="#fff"/>
  <path d="M81.67 105.883s3.496-6.974 2.377-13.457c-1.828-10.584-21.67-16.097-21.67-16.097" stroke="#fff" stroke-miterlimit="10" stroke-linecap="round" stroke-linejoin="round"/>
  <path d="M82.546 105.652s-.88.526-1.306-.252l-.283 1.138 1.743.19-.154-1.076z" fill="#48434F"/>
  <path d="M43.793 78.53s-8.723 6.867-16.588 8.224c-14.818 2.56-13.032-20-13.032-20" stroke="#fff" stroke-miterlimit="10" stroke-linecap="round"/>
  <path d="M35.627 81.096l1.924 1.997" stroke="#48434F" stroke-width=".863" stroke-miterlimit="10"/>
  <path d="M35.576 82.182l1.814 1.806" stroke="#48434F" stroke-width=".503" stroke-miterlimit="10"/>
  <path d="M35.176 82.858l1.837 1.9" stroke="#48434F" stroke-width=".432" stroke-miterlimit="10"/>
  <path d="M34.506 83.26l1.938 2.158" stroke="#48434F" stroke-width=".36" stroke-miterlimit="10"/>
  <path d="M33.222 82.846l2.418 2.86" stroke="#48434F" stroke-width=".144" stroke-miterlimit="10"/>
  <path d="M61.934 77.693l.34-2.508" stroke="#48434F" stroke-width=".801" stroke-miterlimit="10"/>
  <path d="M62.756 77.192l.263-2.326" stroke="#48434F" stroke-width=".467" stroke-miterlimit="10"/>
  <path d="M63.48 77.17l.319-2.39" stroke="#48434F" stroke-width=".401" stroke-miterlimit="10"/>
  <path d="M64.162 77.497l.45-2.598" stroke="#48434F" stroke-width=".334" stroke-miterlimit="10"/>
  <path d="M64.605 78.713l.682-3.324" stroke="#48434F" stroke-width=".134" stroke-miterlimit="10"/>
  <path d="M13.441 67.013s.769-.678 1.33.008l.07-1.17-1.748.132.348 1.03zm30.107-.523s-3.197 9.307-11.776 10.788c0 0 5.543 10.821 20.863 8.176l2.379-4.319-.67 3.204 4.322.173 1.315-3.105" fill="#48434F"/>
  <path d="M35.851 58.025s-2.045-2.186-2.562-5.18c-.598-3.463 2.068-7.227 6.67-8.022 3.91-.675 10.024.104 15.187 3.21" stroke="#48434F" stroke-width="7" stroke-miterlimit="10" stroke-linecap="round" stroke-linejoin="round"/>
  <path d="M40.863 58.008c-2.182-1.06-3.054-2.366-4.967-.323-.715.764-1.166 1.636-1.048 2.333.205 1.207 1.729 2.148 3.482 3.257" fill="#fff"/>
  <path d="M40.863 58.008c-2.182-1.06-3.054-2.366-4.967-.323-.715.764-1.166 1.636-1.048 2.333.205 1.207 1.729 2.148 3.482 3.257" stroke="#48434F" stroke-width="1.3" stroke-miterlimit="10" stroke-linecap="round" stroke-linejoin="round"/>
  <path d="M53.52 43.881c5.768 2.172 8.237 4.288 8.237 4.288L61 54.862S51.639 48.08 50.404 43.96c-.322-1.072 1.185-.806 3.116-.079z" fill="#48434F"/>
  <path d="M51.873 49.498s1.739.644 2.487 1.62c.054.072-.026.168-.115.144l-3.23-1.394.858-.37z" fill="#FEC21E"/>
  <path d="M43.695 64.613a.331.331 0 01-.177-.034c-.208-.107-2.021-1.068-2.85-2.312-.047-.07-.046-.154-.019-.193l.043-.061.051.056c.618.674 1.574 1.225 2.271 1.627.639.368.946.55.945.715-.002.097-.09.172-.229.196l-.035.006z" fill="#48434F"/>
  <path d="M39.29 63.895s-.655-.134-1.048-.838c-.267-.48-.518-1.175.436-3.017.835-1.61 1.616-1.918 2.187-1.965.631-.052 1.042.415 1.042.415s2.98-1.012 3.5-2.038c.293-.576.369-.732.702-1.195.183-.254.487-.48.738-.433 1.295.238 1.856 1.876 1.276 2.837-.763 1.26-1.278.97-1.558 1.676-.3.758 3.355 1.341 2.901 3.022 0 0-.455 2.17-1.471 1.7 0 0-.605 2.418-1.947 1.747 0 0-.928 2.5-2.829 1.447-1.255-.696-3.021-1.651-3.93-3.358z" fill="#fff" stroke="#48434F" stroke-width="1.3" stroke-miterlimit="10" stroke-linecap="round" stroke-linejoin="round"/>
  <path d="M45.489 65.765s.218-.355-.409-.743c0 0-.042-.13.028-.122.045.005.483.197.796.3.625.204 1.043-.118 1.043-.118l-.256.557-1.203.126zm1.938-1.659s.172-.406-.257-.703c0 0-.226-.152-.043-.167.057-.005.33.118.669.256.385.156.895-.452.895-.452l-.441.933-.823.133zm-3.581.121a.329.329 0 01-.179-.02c-.02-.007-2.056-.82-3.044-2.055-.055-.068-.062-.154-.038-.198l.043-.075.064.058c.673.618 1.673 1.081 2.402 1.42.69.32.995.468 1.008.636.01.128-.119.21-.251.233h-.005z" fill="#48434F"/>
  <path d="M43.839 64.159a.264.264 0 01-.146-.015c-.083-.034-2.055-.834-3.017-2.035-.04-.05-.039-.108-.03-.122 1.193 1.093 3.363 1.697 3.388 2.011.007.09-.106.144-.195.16zm1.342-1.856c-.146.025-.421-.142-.982-.49-.698-.434-1.652-1.029-2.56-1.265l-.084-.021.04-.077c.019-.035.069-.066.124-.076 1.614.155 3.37 1.383 3.444 1.434a.33.33 0 01.116.146c.054.129.056.284-.063.338l-.035.01z" fill="#48434F"/>
  <path d="M45.216 61.979a.263.263 0 00-.092-.114c-.073-.052-1.818-1.27-3.35-1.424-.063-.007-.11.026-.118.04 1.567.407 3.27 1.87 3.532 1.749.081-.038.062-.167.028-.251z" fill="#48434F"/>
  <path d="M57.81 69.55c-.127-3.794-2.407-8.08-2.407-8.08l3.132-2.38-2.203-2.403 2.16-2.571" stroke="#fff" stroke-miterlimit="10" stroke-linecap="round" stroke-linejoin="round"/>
  <path d="M55.722 56.635s2.58-2.24 3.494-3.047l-1.299-1.23-2.195 4.277zm1.191 6.857s1.338 3.498.704 6.486l.742.272.716-1.103-2.162-5.655z" fill="#48434F"/>
  <path d="M73.913 54.983c5.888-1.017 9.79-6.891 8.713-13.12-1.075-6.23-6.72-10.456-12.608-9.44-5.888 1.017-9.79 6.891-8.714 13.12 1.076 6.23 6.72 10.456 12.609 9.44z" fill="#fff" stroke="#48434F" stroke-width="1.5" stroke-miterlimit="10"/>
  <path d="M66.99 43.144s-1.763-2.132.529-5.582c1.356-2.042 4.73-3.095 6.621-2.035 1.892 1.06 3.667 3.129 5.205 4.15 3.969 2.636 8.554 1.785 10.616-1.32 1.872-2.819.992-7.796-3.897-11.043-1.553-1.03-3.765-1.381-3.765-1.381s1.561 1.814.759 3.022c-1.418 2.135-5.522.624-7.849-.147-4.11-1.362-10.292-.323-13.455 4.16-4.383 6.6-1.297 12.687-1.297 12.687" fill="#B7B5BD"/>
  <path d="M66.99 43.144s-1.763-2.132.529-5.582c1.356-2.042 4.73-3.095 6.621-2.035 1.892 1.06 3.667 3.129 5.205 4.15 3.969 2.636 8.554 1.785 10.616-1.32 1.872-2.819.992-7.796-3.897-11.043-1.553-1.03-3.765-1.381-3.765-1.381s1.561 1.814.759 3.022c-1.418 2.135-5.522.624-7.849-.147-4.11-1.362-10.292-.323-13.455 4.16-4.383 6.6-1.297 12.687-1.297 12.687" stroke="#48434F" stroke-width="1.5" stroke-miterlimit="10" stroke-linecap="round" stroke-linejoin="round"/>
  <path d="M86.314 27.812s.746 2.246-.434 4.022c-1.418 2.135-4.312 3.434-8.154 1.547-1.438-.706-7.13-2.994-8.543-.866" stroke="#48434F" stroke-width="1.3" stroke-miterlimit="10" stroke-linecap="round" stroke-linejoin="round"/>
  <path d="M63.144 47.515a3.561 3.561 0 113.846-4.37" fill="#fff"/>
  <path d="M63.144 47.515a3.561 3.561 0 113.846-4.37" stroke="#48434F" stroke-width="1.279" stroke-miterlimit="10" stroke-linecap="round" stroke-linejoin="round"/>
  <path d="M80.432 36.67c4.773 3.17 7.562-.78 8.097-1.585.783-1.18 1.125-2.817.854-4.406" stroke="#48434F" stroke-width="1.3" stroke-miterlimit="10" stroke-linecap="round" stroke-linejoin="round"/>
  <path d="M64.035 45.01l1.723-.348s-1.38-.917-3.219-1.143" stroke="#48434F" stroke-miterlimit="10" stroke-linecap="round" stroke-linejoin="round"/>
  <path d="M68.232 32.484s2.327-2.04 7.919.928l-2.708-.066-3.805.902-1.406-1.764zm18.498 3.644s-3.316 3.475-8.837-.191l2.276-.416 2.837.641 3.725-.034z" fill="#B7B5BD"/>
  <path d="M83.005 26.351l3.536 3.313" stroke="#48434F" stroke-width="1.534" stroke-miterlimit="10"/>
  <path d="M82.876 28.189l3.336 2.993" stroke="#48434F" stroke-width=".895" stroke-miterlimit="10"/>
  <path d="M82.105 29.343l3.376 3.15" stroke="#48434F" stroke-width=".767" stroke-miterlimit="10"/>
  <path d="M80.838 30.044l3.556 3.585" stroke="#48434F" stroke-width=".639" stroke-miterlimit="10"/>
  <path d="M78.45 29.386l4.43 4.754" stroke="#48434F" stroke-width=".256" stroke-miterlimit="10"/>
  <path d="M84.73 26.87l.136.783 1.125.912.19-.99-1.45-.706z" stroke="#48434F" stroke-width="1.534" stroke-miterlimit="10"/>
  <path d="M76.915 43.962a1.927 1.927 0 00-1.379-.97 1.923 1.923 0 00-2.21 1.585c-.043.275-.022.545.047.798m8.82-3.04a1.786 1.786 0 00-.667-.5 1.826 1.826 0 00-2.401.952c-.106.245-.15.499-.147.748" stroke="#48434F" stroke-width="1.3" stroke-miterlimit="10" stroke-linecap="round"/>
  <path d="M71.089 41.695s1.8-2.253 3.343-2.686c.834-.234.98.586.98.586l-.034.976-.754.493-2.918 1.373-.617-.742z" fill="#48434F"/>
  <path d="M79.046 43.33c-.358 2.243 3.122 2.34 2.701 4.97-.3 1.884-2.321 2.175-3.058 2.057-.736-.118-2.294-.612-2.131-1.629" stroke="#48434F" stroke-width="1.3" stroke-miterlimit="10" stroke-linecap="round" stroke-linejoin="round"/>
</svg>
