<svg xmlns="http://www.w3.org/2000/svg" width="2500" height="1021" focusable="false" preserveAspectRatio="xMidYMid" viewBox="0 0 512 209"><defs><linearGradient id="a" x1="23.962%" x2="68.784%" y1="46.043%" y2="55.602%"><stop offset="0%" stop-color="#919191"/><stop offset="100%" stop-color="#FFF"/></linearGradient><linearGradient id="b" x1="26.427%" x2="67.132%" y1="42.381%" y2="51.906%"><stop offset="0%" stop-color="#900"/><stop offset="100%" stop-color="#E80000"/></linearGradient><linearGradient id="c" x1="50%" x2="50%" y1="99.822%" y2="-.044%"><stop offset="0%" stop-color="#1A1A1A"/><stop offset="40.26%" stop-color="#4A4A4C"/><stop offset="100%" stop-color="#333"/></linearGradient></defs><path d="M459.303 4.292c-.1.399-.1.798 0 1.197 0 0 1.297 8.484-.2 12.276l-61.48 159.988c-4.391 11.777 1.497 24.851 13.274 29.343 11.777 4.49 24.852-1.298 29.543-12.975l61.48-159.988c1.197-3.094 8.084-9.182 8.084-9.182.3-.3.599-.599.798-.898v-.1c0-.1.1-.1.1-.2 1.597-4.091-8.683-11.876-22.855-17.365C473.874.898 461-.2 459.403 3.992c0 0-.1.1-.1.3z" opacity=".1"/><path fill="url(#a)" d="M63.276 2.894c-.1.4-.1.799 0 1.198 0 0 1.298 8.483-.2 12.276L1.597 176.356c-4.39 11.777 1.498 24.851 13.275 29.342 11.777 4.491 24.851-1.297 29.542-12.974l61.48-159.988c1.198-3.094 8.084-9.182 8.084-9.182.3-.3.6-.599.799-.898v-.1c0-.1.1-.1.1-.2 1.597-4.092-8.683-11.876-22.856-17.366C77.848-.499 64.973-1.597 63.376 2.595c0 .1 0 .2-.1.3z" transform="translate(394.23)"/><path fill="url(#b)" d="M82.639 75.253L38.225 190.628c-3.293 8.284-12.775 12.575-21.258 9.282-8.484-3.294-12.975-12.975-9.88-21.259l28.344-73.756s3.493-5.689 10.48-9.78c6.986-4.093 12.675-3.195 20.36-6.588 7.784-3.393 16.368-13.274 16.368-13.274z" transform="translate(394.23)"/><path fill="#333" d="M498.406 19.019c.885-2.309-5.483-6.916-14.222-10.29-8.74-3.374-16.542-4.238-17.426-1.93-.885 2.309 5.483 6.915 14.222 10.29 8.74 3.374 16.542 4.238 17.426 1.93z"/><path fill="#FFF" d="M457.093 4.08s1.289 8.46-.199 12.242l-61.078 159.537c-4.362 11.743 1.488 24.781 13.188 29.26 1.983.796 4.065 1.293 6.147 1.393a23.035 23.035 0 01-7.635-26.274l59.889-156.352s-8.23-7.664-10.312-19.806z" opacity=".3"/><g fill="#FFF" opacity=".5" transform="translate(420.01 104.5)"><ellipse cx="17.451" cy="2.488" rx="1.785" ry="1.791"/><ellipse cx="29.052" cy="15.327" rx="2.677" ry="2.687"/><ellipse cx="11.303" cy="30.653" rx="5.057" ry="5.076"/><ellipse cx="3.173" cy="40.009" rx="2.677" ry="2.687"/><ellipse cx="13.782" cy="59.913" rx="1.785" ry="1.791"/></g><path d="M120.465 97.135c2.694 2.19 7.585.896 10.878-2.687 3.494-3.782 3.993-8.658 1.298-10.848-2.695-2.19-7.585-.896-10.879 2.886-3.493 3.782-4.092 8.56-1.297 10.65zm-8.084 7.066c-.7 0-1.997 1.294-.899 1.792 1.497.497 2.196 1.791 2.196 3.583-1.297 7.464-10.58 15.924-14.172 18.81-.899.895.399 2.886 1.297 2.19 1.996-1.593 6.188-4.877 9.581-9.256-5.589 12.44-16.567 28.563-20.759 34.236-16.368 22.592-41.22 43.392-58.286 43.392-13.674 0-25.25-9.256-27.746-22.79-.2-1.494-2.196-1.792-1.797.198 3.094 18.611 17.466 25.876 34.832 25.876 19.063 0 41.42-13.734 53.795-27.866 19.961-22.791 32.836-49.066 29.443-63.895-1.397-5.473-5.29-6.37-7.485-6.27zm122.66 49.663c5.29-1.294 9.581-4.18 9.581-8.758 0-.498-.898-.498-.898 0 0 2.687-3.094 4.976-6.587 5.474-8.184 1.293-24.353-8.261-31.938-18.114 8.184 3.085 24.852-1.393 32.736-7.066 7.286-5.275 10.18-11.047 10.68-15.725.898-7.763-7.586-12.34-19.463-7.763-7.585 3.086-16.667 9.754-26.148 22.294 9.98-16.422 29.642-43.293 48.904-60.411 23.454-20.8 37.028-16.82 15.969 5.275-8.683 9.056-25.051 20.8-36.33 25.876-3.492 1.493-1.796 3.483.7 2.388 11.976-5.274 27.945-16.123 37.626-25.18 28.544-27.368 4.69-47.97-26.848-19.008-21.458 19.705-35.43 40.307-47.607 67.079-4.191 5.075-7.285 9.255-11.078 12.44-.5.398-.798.796-1.098 1.195-10.48 8.957-26.947 21.099-37.227 21.198-7.286.2-10.38-5.275-9.082-12.34 1.996-11.048 13.473-24.086 23.254-28.564 12.675-5.773 20.16 5.474 3.493 14.43-6.387 3.285-13.972 5.076-17.066 5.076-3.593 0-3.294 1.493-.2 1.593 5.09.199 13.274-1.99 18.664-4.479 17.066-8.16 18.164-23.388-.4-23.885-20.16-.697-44.313 16.421-44.113 38.018.2 9.753 7.984 15.028 18.663 15.028 17.865-.2 33.734-13.735 46.809-25.677 1.896-1.593 3.692-3.285 5.489-5.076-4.591 11.545-6.887 22.293-5.789 30.255.699 5.773 3.992 8.46 6.587 10.65.5.397 1.597 0 .899-1.096-3.793-4.478-2.695-17.914 2.495-30.951 4.391 8.758 21.458 19.805 39.323 15.824zm-21.458-37.72c20.86-18.61 29.043-1.99 15.769 8.161-6.887 5.275-20.56 9.256-24.851 6.668l-.899-.497c-.499-.896-1.098-1.792-1.497-2.687 3.493-4.28 7.486-8.062 11.478-11.645zm115.973-21.198c8.384.895 4.89-9.256-3.593-6.668-3.792 1.094-7.485 8.36-10.18 14.63-8.383 12.44-22.356 29.459-32.137 38.416-8.683 7.464-16.667 9.455-6.887-4.479 3.993-5.573 9.083-11.545 11.977-17.516 6.887-15.028-7.785-21.696-19.662-12.64-6.886 5.275-16.168 16.123-23.454 22.095-1.996 1.592-1.497 3.98.5 2.388 5.788-4.677 15.968-15.426 24.751-21.696 7.286-5.573 10.18-1.99 5.988 2.687-5.788 6.668-15.969 18.313-18.563 25.677-3.593 11.048.698 15.924 7.984 15.924 9.98 0 24.851-15.525 34.832-27.866 3.293-4.18 6.886-9.057 9.98-13.735-8.683 16.82-17.765 33.838-29.043 49.265-15.969 21.696-35.93 38.018-54.893 38.018-13.673 0-25.45-9.256-27.945-22.791-.2-1.493-1.996-1.792-1.797.199 3.094 18.61 17.466 25.876 34.832 25.876 19.063 0 37.427-11.047 50.302-24.582 25.95-27.37 29.043-58.122 37.028-75.34 3.792-7.862 7.186-8.16 9.98-7.862zM435.15 68.67c3.793-6.469 3.593-11.544-5.29-11.544-6.687.199-18.863 4.876-24.552 9.255-1.297 1.294-.698 1.99.899 1.294 1.097-.398 2.395-1.095 3.593-1.592 6.387-3.484 3.792 3.782 2.395 6.469-7.585 13.237-21.059 31.847-28.145 41.103a140.677 140.677 0 01-10.879 12.938c-6.787 6.47-20.26 17.915-30.54 21.696-33.036 12.341 9.082-43.79 12.575-48.368 7.785-9.753 25.25-26.772 30.54-35.331 3.793-6.47 3.594-11.545-5.29-11.545-6.686.2-18.862 4.877-24.551 9.256-1.298 1.294-.699 1.99.898 1.294 1.098-.398 2.395-1.095 3.593-1.593 6.388-3.483 3.793 3.782 2.395 6.47-7.585 13.236-21.058 31.847-28.145 41.103-5.788 7.763-12.874 15.525-18.364 19.904-2.195 1.792-.898 3.484 1.298 1.991 1.996-1.294 4.89-4.18 8.184-7.564-5.989 11.943-10.879 28.763 4.89 30.753 13.474 1.791 29.443-11.843 39.822-21.995l3.693-3.682.898-.896c-5.988 11.943-10.878 28.763 4.89 30.753 17.267 2.389 38.725-20.8 47.01-29.36 1.596-1.592 1.097-4.379-1.598-1.592-4.89 5.076-21.458 20.104-33.434 24.582-33.036 12.341 9.082-43.79 12.575-48.368 7.885-9.952 25.35-26.971 30.64-35.43z" opacity=".1"/><path fill="url(#c)" d="M118.668 95.443c2.695 2.19 7.585.896 10.879-2.687 3.493-3.782 3.992-8.658 1.297-10.848-2.694-2.19-7.585-.896-10.878 2.886-3.493 3.782-3.993 8.46-1.298 10.65zm-7.984 7.067c-.699 0-1.996 1.293-.898 1.791 1.497.498 2.195 1.791 2.195 3.583-1.297 7.464-10.58 15.924-14.172 18.81-.898.896.4 2.886 1.297 2.19 1.997-1.593 6.188-4.877 9.582-9.256-5.59 12.44-16.568 28.563-20.76 34.236-16.368 22.592-41.22 43.392-58.286 43.392-13.673 0-25.25-9.256-27.746-22.79-.2-1.494-2.195-1.792-1.796.198 3.094 18.611 17.466 25.876 34.832 25.876 19.063 0 41.419-13.734 53.795-27.866 19.96-22.791 32.836-49.065 29.442-63.894-1.497-5.574-5.29-6.47-7.485-6.27zm122.56 49.662c5.29-1.294 9.582-4.18 9.582-8.758 0-.498-.899-.498-.899 0 0 2.687-3.093 4.976-6.587 5.474-8.184 1.293-24.352-8.26-31.937-18.114 8.184 3.086 24.851-1.393 32.736-7.066 7.286-5.275 10.18-11.047 10.679-15.725.898-7.763-7.585-12.34-19.462-7.763-7.585 3.086-16.668 9.754-26.149 22.294 9.98-16.422 29.642-43.293 48.905-60.411 23.454-20.8 37.027-16.82 15.968 5.275-8.683 9.056-25.05 20.8-36.329 25.876-3.493 1.493-1.796 3.483.699 2.388 11.977-5.274 27.945-16.122 37.626-25.18 28.545-27.368 4.691-47.97-26.847-19.008-21.458 19.606-35.43 40.307-47.607 67.079-4.192 5.076-7.286 9.256-11.079 12.44-.499.398-.798.797-1.097 1.195-10.48 8.957-26.948 21.099-37.228 21.198-7.285.2-10.38-5.275-9.082-12.34 1.996-11.048 13.474-24.086 23.255-28.564 12.675-5.772 20.16 5.474 3.493 14.43-6.388 3.285-13.973 5.077-17.067 5.077-3.593 0-3.293 1.492-.2 1.592 5.09.199 13.275-1.99 18.664-4.479 17.067-8.16 18.165-23.388-.4-23.885-20.16-.697-44.313 16.421-44.113 38.018.2 9.753 7.984 15.028 18.664 15.028 17.865-.2 33.734-13.734 46.808-25.677 1.896-1.593 3.693-3.285 5.49-5.076-4.592 11.545-6.887 22.293-5.79 30.255.7 5.773 3.993 8.46 6.588 10.65.499.397 1.597 0 .898-1.095-3.792-4.479-2.695-17.915 2.495-30.952 4.491 8.758 21.558 19.805 39.323 15.824zm-21.458-37.82c20.86-18.61 29.044-1.99 15.77 8.162-6.887 5.275-20.56 9.256-24.852 6.668l-.898-.498c-.5-.895-1.098-1.791-1.497-2.687 3.493-4.18 7.485-8.061 11.477-11.644zM327.76 93.255c8.383.896 4.89-9.256-3.593-6.668-3.793 1.094-7.486 8.36-10.18 14.63-8.384 12.44-22.357 29.459-32.137 38.416-8.684 7.464-16.668 9.455-6.887-4.479 3.992-5.573 9.082-11.544 11.977-17.516 6.886-15.028-7.785-21.696-19.662-12.64-6.887 5.275-16.168 16.123-23.454 22.095-1.996 1.592-1.497 3.98.499 2.388 5.789-4.677 15.969-15.426 24.751-21.696 7.286-5.573 10.18-1.99 5.989 2.687-5.789 6.669-15.969 18.313-18.564 25.678-3.593 11.047.699 15.923 7.984 15.923 9.98 0 24.852-15.525 34.832-27.866 3.294-4.18 6.887-9.057 9.98-13.735-8.682 16.82-17.764 33.839-29.042 49.265-15.97 21.696-35.93 38.018-54.893 38.018-13.673 0-25.45-9.256-27.946-22.791-.2-1.493-1.996-1.792-1.796.199 3.094 18.61 17.466 25.876 34.832 25.876 19.063 0 37.427-11.047 50.302-24.582 25.949-27.37 29.043-58.122 37.027-75.34 3.793-7.862 7.286-8.26 9.98-7.862zM433.354 66.88c3.792-6.469 3.593-11.545-5.29-11.545-6.687.2-18.863 4.877-24.552 9.256-1.298 1.294-.699 1.99.898 1.294 1.098-.398 2.395-1.095 3.593-1.593 6.388-3.483 3.793 3.782 2.395 6.47-7.585 13.236-21.058 31.847-28.145 41.103a140.677 140.677 0 01-10.878 12.938c-6.787 6.469-20.26 17.914-30.54 21.696-33.036 12.341 9.082-43.79 12.575-48.369 7.785-9.753 25.25-26.771 30.54-35.33 3.793-6.47 3.593-11.545-5.29-11.545-6.687.199-18.863 4.876-24.552 9.255-1.297 1.294-.698 1.991.899 1.294 1.097-.398 2.395-1.094 3.593-1.592 6.387-3.483 3.792 3.782 2.395 6.469-7.585 13.237-21.059 31.848-28.145 41.103-5.789 7.763-12.875 15.526-18.364 19.905-2.196 1.791-.898 3.483 1.297 1.99 1.996-1.293 4.89-4.18 8.184-7.563-5.988 11.943-10.879 28.762 4.89 30.753 13.474 1.791 29.443-11.844 39.823-21.995l3.693-3.683.898-.895c-5.988 11.943-10.879 28.762 4.89 30.753 17.267 2.388 38.725-20.8 47.009-29.36 1.596-1.592 1.097-4.379-1.597-1.592-4.89 5.075-21.458 20.103-33.435 24.582-33.035 12.341 9.082-43.79 12.575-48.369 7.985-9.952 25.35-26.97 30.64-35.43z"/></svg>