<svg xmlns="http://www.w3.org/2000/svg" width="512" height="309" focusable="false" preserveAspectRatio="xMidYMid" viewBox="0 0 512 309"><path d="M120.81 80.561h96.568v7.676h-87.716v57.767h82.486v7.675h-82.486v63.423h88.722v7.675H120.81V80.561zm105.22 0h10.26l45.467 63.423L328.23 80.56 391.441 0l-103.85 150.65 53.515 74.127h-10.663l-48.686-67.462-48.888 67.462h-10.461l53.917-74.128-50.296-70.088zm118.898 7.676V80.56h110.048v7.676h-50.699v136.54h-8.852V88.237h-50.497zM0 80.56h11.065l152.58 228.323-63.053-84.107L9.254 91.468l-.402 133.31H0V80.56zm454.084 134.224c-1.809 0-3.165-1.4-3.165-3.212 0-1.81 1.356-3.212 3.165-3.212 1.83 0 3.165 1.401 3.165 3.212 0 1.811-1.335 3.212-3.165 3.212zm8.698-8.45h4.737c.064 2.565 1.937 4.29 4.693 4.29 3.079 0 4.823-1.854 4.823-5.325v-21.99h4.823v22.011c0 6.252-3.617 9.853-9.603 9.853-5.62 0-9.473-3.493-9.473-8.84zm25.384-.28h4.78c.409 2.953 3.294 4.828 7.45 4.828 3.875 0 6.717-2.005 6.717-4.764 0-2.371-1.809-3.794-5.921-4.764l-4.005-.97c-5.62-1.316-8.181-4.032-8.181-8.602 0-5.54 4.521-9.227 11.303-9.227 6.308 0 10.916 3.686 11.196 8.925h-4.694c-.452-2.867-2.95-4.657-6.567-4.657-3.81 0-6.35 1.833-6.35 4.635 0 2.22 1.635 3.493 5.683 4.441l3.423.841c6.373 1.488 9 4.075 9 8.753 0 5.95-4.607 9.68-11.97 9.68-6.89 0-11.52-3.558-11.864-9.12z"/></svg>