<svg enable-background="new 0 0 36 32" viewBox="0 0 36 32" xmlns="http://www.w3.org/2000/svg" xmlns:xlink="http://www.w3.org/1999/xlink"><linearGradient id="a" gradientTransform="matrix(.7071 .7071 -.7071 .7071 484.2914 -61.1829)" gradientUnits="userSpaceOnUse" x1="-274.6005" x2="-274.6005" y1="392.2683" y2="371.2683"><stop offset="0" stop-color="#fff" stop-opacity="0"/><stop offset="1" stop-color="#ffb238"/></linearGradient><g fill="none" stroke="#9d7cbf" stroke-miterlimit="10" stroke-width="1.4173"><path d="m24.1 10.7h4.2"/><path d="m21.2 13.5h5.7"/><path d="m19.8 14.9-.1-5.7"/><path d="m17 17.8-.1-5.8"/></g><path d="m27.6 12.8-9.2 9.2c-1.6 1.6-5.7 0-5.7 0s-1.6-4.1 0-5.7l9.2-9.2c1.6-1.6 4.1-1.6 5.7 0s1.6 4.2 0 5.7z" fill="url(#a)"/><path d="m27.6 7.2-14.5 14.5" fill="none" stroke="#9d7cbf" stroke-miterlimit="10" stroke-width="1.4173"/><path d="m10.4 25.4-2.4.4 4.9-5 1.1 1z" fill="#639"/><path d="m27.6 12.8-9.2 9.2h-5.7v-5.7l9.2-9.2c1.6-1.6 4.1-1.6 5.7 0s1.6 4.2 0 5.7z" fill="none" stroke="#639" stroke-miterlimit="10" stroke-width="1.4173"/></svg>