<svg xmlns="http://www.w3.org/2000/svg" viewBox="0 0 36 32">
  <path class="st0" d="M24.1 10.7h4.2m-7.1 2.8h5.7m-7.1 1.4l-.1-5.7M17 17.8l-.1-5.8"/>
  <linearGradient id="a" gradientUnits="userSpaceOnUse" x1="-274.601" y1="392.268" x2="-274.601" y2="371.268" gradientTransform="rotate(45.001 316.008 553.999)">
    <stop offset="0" stop-color="#fff" stop-opacity="0"/>
    <stop offset="1" stop-color="#ffb238"/>
  </linearGradient>
  <path d="M27.6 12.8L18.4 22c-1.6 1.6-5.7 0-5.7 0s-1.6-4.1 0-5.7l9.2-9.2c1.6-1.6 4.1-1.6 5.7 0 1.6 1.6 1.6 4.2 0 5.7z" fill="url(#a)"/>
  <path class="st0" d="M27.6 7.2L13.1 21.7"/>
  <path fill="#639" d="M10.4 25.4l-2.4.4 4.9-5 1.1 1z"/>
  <path d="M27.6 12.8L18.4 22h-5.7 0v-5.7l9.2-9.2c1.6-1.6 4.1-1.6 5.7 0h0c1.6 1.6 1.6 4.2 0 5.7z" fill="none" stroke="#639" stroke-width="1.417" stroke-miterlimit="10"/>
</svg>
