<?xml version="1.0" encoding="utf-8"?>
<!-- Generator: Adobe Illustrator 21.1.0, SVG Export Plug-In . SVG Version: 6.00 Build 0)  -->
<svg version="1.1" id="Ebene_1" xmlns="http://www.w3.org/2000/svg" xmlns:xlink="http://www.w3.org/1999/xlink" x="0px" y="0px"
	 viewBox="0 0 36 32" style="enable-background:new 0 0 36 32;" xml:space="preserve">
<style type="text/css">
	.st0{fill:none;stroke:#663399;stroke-width:1.4173;stroke-miterlimit:10;}
	.st1{fill:url(#SVGID_1_);stroke:#9D7CBF;stroke-width:1.4173;stroke-miterlimit:10;}
</style>
<path class="st0" d="M18,18h4.5l5,3.5l0-3.5H29c1.7,0,3-1.3,3-3V9c0-1.7-1.3-3-3-3H18c-1.7,0-3,1.3-3,3v6C15,16.7,16.3,18,18,18z"/>
<linearGradient id="SVGID_1_" gradientUnits="userSpaceOnUse" x1="5.75" y1="24.75" x2="18.8713" y2="11.6287">
	<stop  offset="0" style="stop-color:#FFFFFF;stop-opacity:0"/>
	<stop  offset="1" style="stop-color:#FFB238"/>
</linearGradient>
<path class="st1" d="M18,24h-4.5l-5,3.5l0-3.5H7c-1.7,0-3-1.3-3-3v-6c0-1.7,1.3-3,3-3h11c1.7,0,3,1.3,3,3v6C21,22.7,19.7,24,18,24z"
	/>
</svg>
