<svg class="svg-icon-docs" viewBox="0 0 36 32">
  <path class="svg-stroke svg-stroke-gatsby svg-fill-wisteria" d="M10 7c-1.6 0-3 1.4-3 3v2h10"/>
  <path class="svg-fill-gradient-accent-white-bottom" d="M10 7c1.6 0 3 1.4 3 3v12c0 1.6 1.3 3 3 3s3-1.4 3-3h6V10c0-1.6-1.4-3-3-3H10z"/>
  <path class="svg-stroke svg-stroke-gradient-purple" fill="none" d="M10 7h12c1.6 0 3 1.4 3 3v12"/>
  <path class="svg-stroke svg-stroke-gradient-purple" fill="none" d="M16 25c-1.7 0-3-1.4-3-3V10c0-1.6-1.4-3-3-3"/>
  <path class="svg-stroke svg-stroke-lilac" fill="#fff" d="M16 25h9c1.6 0 3-1.4 3-3v-1h-9v1c0 1.6-1.4 3-3 3z"/>
  <path class="svg-fill-gatsby" d="M17 10.5c.6 0 1 .4 1 1s-.4 1-1 1-1-.4-1-1 .6-1 1-1zm4.2.1c.6 0 1 .4 1 1s-.4 1-1 1-1-.4-1-1c.1-.5.4-1 1-1z"/>
  <path class="svg-fill-gradient-purple" d="M22.2 14.5v1.3c0 .6-.3 1.1-.8 1.6s-1.3.9-2.2.9-1.7-.4-2.2-.9c-.5-.5-.8-1-.8-1.6v-1.3h6z"/>
</svg>
