<svg xmlns="http://www.w3.org/2000/svg" viewBox="0 0 36 32">
  <path d="M10 7c-1.6 0-3 1.4-3 3v2h10" fill="#ccb2e5" stroke="#639" stroke-width="1.417" stroke-miterlimit="10"/>
  <linearGradient id="a" gradientUnits="userSpaceOnUse" x1="41.5" y1="-55" x2="41.5" y2="-37" gradientTransform="translate(-24 62)">
    <stop offset="0" stop-color="#fff"/>
    <stop offset=".18" stop-color="#fffefc"/>
    <stop offset=".325" stop-color="#fffaf2"/>
    <stop offset=".457" stop-color="#fff3e1"/>
    <stop offset=".582" stop-color="#ffeac9"/>
    <stop offset=".702" stop-color="#ffdeaa"/>
    <stop offset=".818" stop-color="#ffd084"/>
    <stop offset=".928" stop-color="#ffbf59"/>
    <stop offset="1" stop-color="#ffb238"/>
  </linearGradient>
  <path d="M10 7c1.6 0 3 1.4 3 3v12c0 1.6 1.3 3 3 3s3-1.4 3-3h6V10c0-1.6-1.4-3-3-3H10z" fill="url(#a)"/>
  <linearGradient id="b" gradientUnits="userSpaceOnUse" x1="17.854" y1="22" x2="17.854" y2="6.291">
    <stop offset="0" stop-color="#9d7cbf"/>
    <stop offset="1" stop-color="#639"/>
  </linearGradient>
  <path d="M10 7h12c1.6 0 3 1.4 3 3v12" fill="none" stroke="url(#b)" stroke-width="1.417" stroke-miterlimit="10"/>
  <linearGradient id="c" gradientUnits="userSpaceOnUse" x1="13" y1="25.709" x2="13" y2="6.291">
    <stop offset="0" stop-color="#9d7cbf"/>
    <stop offset="1" stop-color="#639"/>
  </linearGradient>
  <path d="M16 25c-1.7 0-3-1.4-3-3V10c0-1.6-1.4-3-3-3" fill="none" stroke="url(#c)" stroke-width="1.417" stroke-miterlimit="10"/>
  <path d="M16 25h9c1.6 0 3-1.4 3-3v-1h-9v1c0 1.6-1.4 3-3 3z" fill="#fff" stroke="#9d7cbf" stroke-width="1.417" stroke-miterlimit="140"/>
  <path class="st5" d="M17 10.5c.6 0 1 .4 1 1s-.4 1-1 1-1-.4-1-1 .6-1 1-1zm4.2.1c.6 0 1 .4 1 1s-.4 1-1 1-1-.4-1-1c.1-.5.4-1 1-1z"/>
  <linearGradient id="d" gradientUnits="userSpaceOnUse" x1="19.25" y1="14.5" x2="19.25" y2="18.316">
    <stop offset="0" stop-color="#9d7cbf"/>
    <stop offset="1" stop-color="#639"/>
  </linearGradient>
  <path d="M22.2 14.5v1.3c0 .6-.3 1.1-.8 1.6s-1.3.9-2.2.9-1.7-.4-2.2-.9c-.5-.5-.8-1-.8-1.6v-1.3h6z" fill="url(#d)"/>
</svg>
