<svg class="svg-icon-docs" x="0px" y="0px" viewBox="0 0 36 32" style="enable-background:new 0 0 36 32;">
	<path class="svg-stroke svg-stroke-gatsby svg-fill-wisteria" d="M10,7c-1.6,0-3,1.4-3,3v2h10"/>
	<path class="svg-fill-gradient-accent-white-bottom" d="M10,7c1.6,0,3,1.4,3,3v12c0,1.6,1.3,3,3,3s3-1.4,3-3h6V10c0-1.6-1.4-3-3-3H10z"/>
	<path class="svg-stroke svg-stroke-gradient-purple" fill="none" d="M10,7h12c1.6,0,3,1.4,3,3v12"/>
	<path class="svg-stroke svg-stroke-gradient-purple" fill="none" d="M16,25c-1.7,0-3-1.4-3-3V10c0-1.6-1.4-3-3-3"/>
	<path class="svg-stroke svg-stroke-lilac" fill="#fff" d="M16,25h9c1.6,0,3-1.4,3-3v-1h-9v1C19,23.6,17.6,25,16,25z"/>
	<path class="svg-fill-gatsby" d="M17,10.5c0.6,0,1,0.4,1,1s-0.4,1-1,1c-0.6,0-1-0.4-1-1C16,10.9,16.6,10.5,17,10.5z"/>
	<path class="svg-fill-gatsby" d="M21.2,10.6c0.6,0,1,0.4,1,1s-0.4,1-1,1c-0.6,0-1-0.4-1-1C20.3,11.1,20.6,10.6,21.2,10.6z"/>
	<path class="svg-fill-gradient-purple" d="M22.2,14.5c0,0,0,1.1,0,1.3c0,0.6-0.3,1.1-0.8,1.6c-0.5,0.5-1.3,0.9-2.2,0.9s-1.7-0.4-2.2-0.9
		c-0.5-0.5-0.8-1-0.8-1.6c0-0.3,0-1.3,0-1.3C17.9,14.5,20.6,14.5,22.2,14.5z"/>
</svg>
