<svg enable-background="new 0 0 36 32" viewBox="0 0 36 32" xmlns="http://www.w3.org/2000/svg" xmlns:xlink="http://www.w3.org/1999/xlink"><linearGradient id="a" gradientUnits="userSpaceOnUse" x1="17.5" x2="17.5" y1="7" y2="25"><stop offset="0" stop-color="#fff"/><stop offset=".1799" stop-color="#fffefc"/><stop offset=".3245" stop-color="#fffaf2"/><stop offset=".4568" stop-color="#fff3e1"/><stop offset=".5818" stop-color="#ffeac9"/><stop offset=".7017" stop-color="#ffdeaa"/><stop offset=".8177" stop-color="#ffd084"/><stop offset=".9285" stop-color="#ffbf59"/><stop offset="1" stop-color="#ffb238"/></linearGradient><linearGradient id="b"><stop offset="0" stop-color="#9d7cbf"/><stop offset="1" stop-color="#639"/></linearGradient><linearGradient id="c" gradientUnits="userSpaceOnUse" x1="17.8543" x2="17.8543" xlink:href="#b" y1="22" y2="6.2913"/><linearGradient id="d" gradientUnits="userSpaceOnUse" x1="13" x2="13" xlink:href="#b" y1="25.7087" y2="6.2913"/><linearGradient id="e" gradientUnits="userSpaceOnUse" x1="19.2503" x2="19.2503" xlink:href="#b" y1="14.5" y2="18.3161"/><path d="m10 7c-1.6 0-3 1.4-3 3v2h10" fill="#ccb2e5" stroke="#639" stroke-miterlimit="10" stroke-width="1.4173"/><path d="m10 7c1.6 0 3 1.4 3 3v12c0 1.6 1.3 3 3 3s3-1.4 3-3h6v-12c0-1.6-1.4-3-3-3z" fill="url(#a)"/><g stroke-width="1.4173"><path d="m10 7h12c1.6 0 3 1.4 3 3v12" fill="none" stroke="url(#c)" stroke-miterlimit="10"/><path d="m16 25c-1.7 0-3-1.4-3-3v-12c0-1.6-1.4-3-3-3" fill="none" stroke="url(#d)" stroke-miterlimit="10"/><path d="m16 25h9c1.6 0 3-1.4 3-3v-1h-9v1c0 1.6-1.4 3-3 3z" fill="#fff" stroke="#9d7cbf" stroke-miterlimit="140"/></g><path d="m17 10.5c.6 0 1 .4 1 1s-.4 1-1 1-1-.4-1-1 .6-1 1-1z" fill="#639"/><path d="m21.2 10.6c.6 0 1 .4 1 1s-.4 1-1 1-1-.4-1-1c.1-.5.4-1 1-1z" fill="#639"/><path d="m22.2 14.5v1.3c0 .6-.3 1.1-.8 1.6s-1.3.9-2.2.9-1.7-.4-2.2-.9-.8-1-.8-1.6c0-.3 0-1.3 0-1.3z" fill="url(#e)"/></svg>