<svg viewBox="0 0 67 23" xmlns="http://www.w3.org/2000/svg">
  <g fill="#fff" fill-rule="evenodd">
    <path d="M.596 21.105c1.332-.147 2.143-.85 2.143-1.907V5.148c0-1.41-.146-1.703-2.434-2.143V2.33H11.6c1.188 0 2.057-.117 2.057-.117l-.898 4.81h-.956c.144-3.02-.81-3.695-3.128-3.695h-3.59l-.262.293v8.01h5.242l.232-1.672 1.042-.176v5.045h-1.332v-2.17H5.085l-.26.264V19.2c0 .88-.146 1.584-.146 1.584l3.185.264-.116.763-7.154.175v-.88zM20.313 18.758v-3.403l-.956.147c-1.71.264-4.402 1.173-4.402 3.432 0 1.262.87 1.878 1.68 1.878 1.274 0 2.838-1.35 3.678-2.054m-.985-4.077l.985-.146v-.03s.058-2.17-.116-3.138c-.232-1.174-.81-2.054-2-2.054-2.084 0-3.155 2.7-3.155 2.7h-.81l-.436-2.054s2.028-1.555 5.098-1.555c2.606 0 3.33 1.085 3.33 4.195v6.776c0 .968.087 1.38.81 1.38.84 0 1.68-.617 1.68-.617l.348.557s-1.332 1.555-2.867 1.555c-.985 0-1.824-.617-1.824-2.113v-.792s-1.534 2.904-4.662 2.904c-2 0-2.896-1.468-2.896-2.847 0-2.757 3.475-4.253 6.516-4.722M30.42 21.252c2.896 0 5.04-2.113 5.04-5.633 0-2.934-1.478-5.75-4.142-5.75-1.535 0-2.926.88-3.273 1.32v9.622s1.043.44 2.375.44m-4.287-2.376V4.326c0-1.29-.028-2.025-.868-2.025H24.02V1.57c2.866-.675 4.228-1.26 4.228-1.26l.087.087s-.29 1.085-.29 3.344v4.927c0 1.29-.116 1.82-.116 1.995.81-.94 1.94-2.26 4.227-2.26 3.534 0 5.358 3.17 5.358 6.396 0 3.696-2.346 7.45-7.27 7.45-1.534 0-3.3-.35-4.256-.35l-.088-.09s.23-1.378.23-2.932M38.702 21.193c1.36-.147 1.854-.85 1.854-1.907V12.07c0-1.262-.03-1.995-.87-1.995h-1.36v-.763c2.635-.586 4.286-1.32 4.286-1.32l.087.088s-.262 1.086-.32 3.755c1.16-2.2 2.607-3.432 3.823-3.432.52 0 1.506.147 1.506 1.203 0 .85-.61 1.29-1.188 1.29-.58 0-.667-.47-1.304-.47-1.013 0-1.882.97-2.75 1.966v6.894c0 .88-.146 1.584-.146 1.584l2.81.264-.116.675-6.314.175v-.792zM50.71 3.827c0-.704.667-1.408 1.362-1.408.695 0 1.36.703 1.36 1.407 0 .733-.665 1.437-1.36 1.437-.695 0-1.36-.704-1.36-1.437zm-1.186 17.366c1.36-.147 1.853-.85 1.853-1.907V12.1c0-1.292-.03-2.025-.87-2.025h-1.36v-.733c4.518-1.174 4.46-1.35 4.46-1.35l.03.088s-.348.968-.348 3.344v7.862c0 .88-.146 1.584-.146 1.584l2.52.264-.116.675-6.024.175v-.792zM61.764 8.403c1.796 0 4.547.733 4.547 2.17 0 .5-.346.94-.983.94-1.42 0-1.68-2.23-3.678-2.23-2.463 0-3.824 2.61-3.824 5.574 0 2.757 1.332 5.66 4.894 5.66 2.23 0 3.33-1.26 3.33-1.26l.32.528s-1.246 2.464-4.46 2.464c-4.084 0-6.083-3.345-6.083-6.69 0-3.578 2.114-7.157 5.937-7.157">
    </path>
  </g>
</svg>
