<svg width="34" height="38" viewBox="0 0 34 38" xmlns="http://www.w3.org/2000/svg" xmlns:xlink="http://www.w3.org/1999/xlink">
  <defs>
    <path d="M11.8 24.31L9.213 30l-2.586-5.69-5.69-2.586 5.69-2.586 2.586-5.69 2.587 5.69 5.69 2.586-5.69 2.586zm11.772-8.917l-1.945 4.262-1.945-4.262-4.262-1.945 4.262-1.945 1.945-4.262 1.945 4.262 4.262 1.945-4.262 1.945zM12.579 5.434l-1.297 2.842-1.296-2.842-2.842-1.296L9.986 2.84 11.282 0l1.297 2.841 2.841 1.297-2.841 1.296z" id="a"/>
  </defs>
  <g transform="translate(3 2)" fill="none" fill-rule="evenodd">
    <mask id="b" fill="#fff">
      <use xlink:href="#a"/>
    </mask>
    <use fill="#000" xlink:href="#a"/>
    <g mask="url(#b)" fill="#639">
      <path d="M0 0h30v30H0z"/>
    </g>
  </g>
</svg>
