<svg width="20" height="20" viewBox="0 0 20 20" xmlns="http://www.w3.org/2000/svg" xmlns:xlink="http://www.w3.org/1999/xlink">
  <defs>
    <path d="M10 0c5.523 0 10 4.477 10 10s-4.477 10-10 10S0 15.523 0 10 4.477 0 10 0zm-.94 14.69l2.782-1.264-2.782-1.264L7.796 9.38l-1.264 2.782-2.782 1.264 2.782 1.265 1.264 2.781 1.264-2.781zm5.756-4.359l2.083-.95-2.083-.952-.951-2.083-.95 2.083-2.085.951 2.084.951.95 2.084.952-2.084zM9.44 5.462l1.39-.633-1.39-.634-.634-1.39-.633 1.39-1.39.634 1.39.633.633 1.39.634-1.39z" id="a"/>
  </defs>
  <g fill="none" fill-rule="evenodd">
    <mask id="b" fill="#fff">
      <use xlink:href="#a"/>
    </mask>
    <use fill="#000" xlink:href="#a"/>
    <g mask="url(#b)" fill="#639">
      <path d="M0 0h20v20H0z"/>
    </g>
  </g>
</svg>
