<svg height="20" viewBox="0 0 20 20" width="20" xmlns="http://www.w3.org/2000/svg" xmlns:xlink="http://www.w3.org/1999/xlink"><defs><path id="a" d="m10 0c5.5228475 0 10 4.4771525 10 10s-4.4771525 10-10 10-10-4.4771525-10-10 4.4771525-10 10-10zm-.93965517 14.690613 2.78160917-1.2643678-2.78160917-1.2643678-1.26436782-2.7816092-1.26436781 2.7816092-2.7816092 1.2643678 2.7816092 1.2643678 1.26436781 2.7816092zm5.75540227-4.3595402 2.0836782-.9508046-2.0836782-.9508046-.9508046-2.08367816-.9508046 2.08367816-2.0836781.9508046 2.0836781.9508046.9508046 2.0836782zm-5.3744061-4.86865901 1.3891188-.63386973-1.3891188-.63386973-.63386974-1.38911877-.63386973 1.38911877-1.38911877.63386973 1.38911877.63386973.63386973 1.38911878z"/><mask id="b" fill="#fff"><use fill="none" xlink:href="#a"/></mask></defs><g fill="none" fill-rule="evenodd"><use fill="#000" xlink:href="#a"/><g fill="#639" mask="url(#b)"><path d="m0 0h20v20h-20z"/></g></g></svg>