<svg xmlns="http://www.w3.org/2000/svg" viewBox="0 0 100 18">
  <svg viewBox="0 0 51.8 70" preserveAspectRatio="xMinYMin meet">
    <path class="logo-layer-1" fill="rgba(255, 255, 255, 0.25)" d="M16.6 2L2 61.8l14.6-17.7z"/>
    <path class="logo-layer-2" fill="rgba(255, 255, 255, 1)" d="M16.6 2L50 33.2 16.6 44.1z"/>
    <path class="logo-layer-3" fill="rgba(255, 255, 255, 0.75)" d="M16.6 68L50 33.2 16.6 44.1z"/>
    <path class="logo-layer-4" fill="rgba(255, 255, 255, 0.5)" d="M2 61.8l14.6-17.7V68z"/>
  </svg>
  <svg viewBox="0 0 97 18" height="15" y="2" preserveAspectRatio="xMaxYMin meet">
    <path fill="#fff" d="M3.685 8.038h5.26v2.88h-5.23v5.3H.535V2.048h9.13v2.99h-5.98v3zm16.22 3.2a5.27 5.27 0 1 1-5.28-5.26h.284a5.13 5.13 0 0 1 4.991 5.26zm-3.04 0a2.25 2.25 0 1 0-4.48 0 2.252 2.252 0 1 0 4.48 0zm6.95-3.62v-1.29h-2.94v9.93h3v-4.38c0-2 1.1-2.7 2.32-2.7a4.12 4.12 0 0 1 1 .1v-2.95a3 3 0 0 0-.8-.1 2.81 2.81 0 0 0-2.58 1.39zm16.532-1.632a3.479 3.479 0 0 0-.547-.008 3.41 3.41 0 0 0-3.08 1.56 3.07 3.07 0 0 0-2.94-1.56 3.46 3.46 0 0 0-2.86 1.44v-1.09h-2.9v9.93h3V10.5a1.61 1.61 0 0 1 1.5-1.717h.144a1.51 1.51 0 0 1 1.6 1.68v5.76h3v-5.74a1.61 1.61 0 0 1 1.517-1.7h.143a1.51 1.51 0 0 1 1.58 1.68v5.76h2.98V9.778a3.48 3.48 0 0 0-3.137-3.792zm4.708 10.221h3.04V6.278h-3.04v9.93zm1.52-14.74h-.02a1.779 1.779 0 1 0 .02.001zm12.95 13.04c0 .9.08 1.56.08 1.78h-2.92a6.9 6.9 0 0 1-.08-1 3.21 3.21 0 0 1-2.66 1.18q-.155 0-.309-.009a4.92 4.92 0 0 1-4.611-5.211q-.011-.155-.011-.311a4.85 4.85 0 0 1 4.831-4.869c1.68 0 2.44.62 2.68 1V1.748h3v12.76zm-2.96-3.27a2.25 2.25 0 1 0-4.48 0 2.24 2.24 0 0 0 2.24 2.51v-.03a2.24 2.24 0 0 0 2.24-2.479zm12.94 3.41a9.746 9.746 0 0 0 .12 1.54h-2.74a4.77 4.77 0 0 1-.1-1.12 3.48 3.48 0 0 1-6.24-1.62 3.05 3.05 0 0 1 2.94-3l2.34-.36h.041a.68.68 0 0 0 .679-.681q-.006-.055-.016-.11a1.23 1.23 0 0 0-1.444-.97 1.6 1.6 0 0 0-1.68 1.49l-2.64-.54c.12-1.42 1.44-3.3 4.36-3.3 3.22 0 4.4 1.84 4.4 3.84H69.5v4.83zm-2.98-2.33v-.4l-1.88.3h-.02a1.1 1.1 0 0 0-1.1 1.1 1 1 0 0 0 1.18 1 1.71 1.71 0 0 0 1.82-1.999zm15.04-1.1c0 3.04-1.96 5.22-4.74 5.22a3.2 3.2 0 0 1-2.8-1.34v1.12h-2.94V1.748h3v5.47a3.57 3.57 0 0 1 2.86-1.18c2.88 0 4.62 2.14 4.62 5.18zm-3.04.02a2.26 2.26 0 1 0-4.5 0 2.26 2.26 0 0 0 2.26 2.48 2.23 2.23 0 0 0 2.24-2.479zm4.01 4.98h3.04V1.748h-3.04v14.47zm13.87-4.23h-6.92a2.15 2.15 0 0 0 2.26 1.92 1.92 1.92 0 0 0 2-1.3l2.54.72a4.46 4.46 0 0 1-4.64 3.19h-.367a5.06 5.06 0 0 1-4.813-5.3q-.006-.123-.006-.246a5 5 0 0 1 5.006-4.994c3.1 0 5 1.9 5 5.1a6.118 6.118 0 0 1-.065.911zm-2.86-1.91q0-.068-.012-.136A1.78 1.78 0 0 0 91.545 8.4a1.89 1.89 0 0 0-2 1.68h4z"/>
  </svg>
</svg>
