<svg width="38" height="42" viewBox="0 0 38 42" xmlns="http://www.w3.org/2000/svg">
  <title>
    graphql logo
  </title>
  <g fill="none" fill-rule="evenodd">
    <path d="M19 39.124l16-8.2v-19.85L19 2.877l-16 8.2v19.85l16 8.198zM5 29.702V12.298l14-7.174 14 7.174v17.404l-14 7.174-14-7.174z" fill="#744C9E"/>
    <path d="M18.143 4.486l-15 25c-.4.666.08 1.514.857 1.514h30c.777 0 1.257-.848.857-1.514l-15-25c-.388-.648-1.326-.648-1.714 0zM32.233 29H5.767L19 6.944 32.234 29z" fill="#744C9E"/>
    <g transform="translate(15)" fill="#ffb238">
      <circle cx="4" cy="4" r="4"/>
      <circle cx="4" cy="38" r="4"/>
    </g>
    <g transform="rotate(60 11.5 33.99)" fill="#ffb238">
      <circle cx="4" cy="4" r="4"/>
      <circle cx="4" cy="38" r="4"/>
    </g>
    <g transform="rotate(120 11.5 25.33)" fill="#ffb238">
      <circle cx="4" cy="4" r="4"/>
      <circle cx="4" cy="38" r="4"/>
    </g>
  </g>
</svg>
