<svg height="42" viewBox="0 0 38 42" width="38" xmlns="http://www.w3.org/2000/svg"><g fill="none" fill-rule="evenodd"><path d="m19 39.124 16-8.2v-19.85l-16-8.197-16 8.2v19.85l16 8.198zm-14-9.422v-17.404l14-7.174 14 7.174v17.404l-14 7.174z" fill="#639"/><path d="m18.143 4.486-15 25c-.4.666.08 1.514.857 1.514h30c.777 0 1.257-.848.857-1.514l-15-25c-.388-.648-1.326-.648-1.714 0zm14.09 24.514h-26.466l13.233-22.056 13.234 22.056z" fill="#639"/><g fill="#ffb238"><circle cx="19" cy="4" r="4"/><circle cx="19" cy="38" r="4"/><g transform="matrix(.5 .8660254 -.8660254 .5 35.186203 7.035708)"><circle cx="4" cy="4" r="4"/><circle cx="4" cy="38" r="4"/></g><g transform="matrix(-.5 .8660254 -.8660254 -.5 39.186423 28.035708)"><circle cx="4" cy="4" r="4"/><circle cx="4" cy="38" r="4"/></g></g></g></svg>