<svg xmlns="http://www.w3.org/2000/svg" height="160" width="160" version="1.0">
  <g fill="#4b4b4b">
    <path d="M80 15c-35.88 0-65 29.12-65 65s29.12 65 65 65 65-29.12 65-65-29.12-65-65-65zm0 10c30.36 0 55 24.64 55 55s-24.64 55-55 55-55-24.64-55-55 24.64-55 55-55z"/>
    <path d="M89.998 51.25a11.25 11.25 0 1 1-22.5 0 11.25 11.25 0 1 1 22.5 0zm.667 59.71c-.069 2.73 1.211 3.5 4.327 3.82l5.008.1V120H60.927v-5.12l5.503-.1c3.291-.1 4.082-1.38 4.327-3.82V80.147c.035-4.879-6.296-4.113-10.757-3.968v-5.074L90.665 70"/>
  </g>
</svg>
