<svg xmlns="http://www.w3.org/2000/svg" viewBox="0 0 36 32">
  <path class="svg-fill-lilac" d="M17.7 10.5c.2-.2.2-.5 0-.6l-.7-.7c-.2-.2-.2-.5 0-.6l.7-.7c.2-.2.2-.5 0-.6l-.5-.5c-.2-.2-.5-.2-.6 0l-.7.7c-.2.2-.5.2-.6 0l-.7-.7c-.2-.2-.5-.2-.6 0l-.7.2c-.2.2-.2.5 0 .6l.7.7c.2.2.2.5 0 .6l-.7.7c-.2.2-.2.5 0 .6l.5.5c.2.2.5.2.6 0l.7-.7c.2-.2.5-.2.6 0l.7.7c.2.2.5.2.6 0l.7-.2z"/>
  <path class="svg-fill-accent" d="M26.3 7.9c.2-.2.2-.5 0-.6l-.5-.5c-.2-.2-.2-.5 0-.6l.5-.5c.2-.2.2-.5 0-.6l-.3-.3c-.2-.2-.5-.2-.6 0l-.5.5c-.2.2-.5.2-.6 0l-.5-.5c-.2-.2-.5-.2-.6 0l-.3.2c-.2.2-.2.5 0 .6l.5.5c.2.2.2.5 0 .6l-.5.5c-.2.2-.2.5 0 .6l.3.3c.2.2.5.2.6 0l.5-.5c.2-.2.5-.2.6 0l.5.5c.2.2.5.2.6 0l.3-.2z"/>
  <path class="svg-fill-gatsby" d="M26.7 17.1c.2-.2.1-.5-.1-.7l-.1-.1c-.2-.2-.2-.5 0-.7l.1-.1c.2-.2.2-.5.1-.7-.2-.2-.5-.1-.7.1v.2c-.2.2-.5.2-.7 0l-.1-.1c-.2-.2-.5-.2-.7-.1-.2.2-.1.5.1.7l.1.1c.2.2.2.5 0 .7l-.1.1c-.2.2-.2.5-.1.7s.5.1.7-.1l.1-.1c.2-.2.5-.2.7 0l.1.1c.1.1.4.2.6 0z"/>
  <path class="svg-stroke svg-stroke-gatsby" fill="#fff" d="M21.413 11.11l2.121 2.12L20 16.767l-2.122-2.121z"/>
  <path class="svg-fill-wisteria svg-stroke svg-stroke-gatsby" d="M10.2 25.3l-.9-.9c-.3-.3-.3-.9 0-1.2l8.5-8.5 2.1 2.1-8.5 8.5c-.4.4-.9.4-1.2 0z"/>
</svg>
