<svg enable-background="new 0 0 36 32" viewBox="0 0 36 32" xmlns="http://www.w3.org/2000/svg"><path d="m17.7 10.5c.2-.2.2-.5 0-.6l-.7-.7c-.2-.2-.2-.5 0-.6l.7-.7c.2-.2.2-.5 0-.6l-.5-.5c-.2-.2-.5-.2-.6 0l-.7.7c-.2.2-.5.2-.6 0l-.7-.7c-.2-.2-.5-.2-.6 0l-.7.2c-.2.2-.2.5 0 .6l.7.7c.2.2.2.5 0 .6l-.7.7c-.2.2-.2.5 0 .6l.5.5c.2.2.5.2.6 0l.7-.7c.2-.2.5-.2.6 0l.7.7c.2.2.5.2.6 0z" fill="#96c"/><path d="m26.3 7.9c.2-.2.2-.5 0-.6l-.5-.5c-.2-.2-.2-.5 0-.6l.5-.5c.2-.2.2-.5 0-.6l-.3-.3c-.2-.2-.5-.2-.6 0l-.5.5c-.2.2-.5.2-.6 0l-.5-.5c-.2-.2-.5-.2-.6 0l-.3.2c-.2.2-.2.5 0 .6l.5.5c.2.2.2.5 0 .6l-.5.5c-.2.2-.2.5 0 .6l.3.3c.2.2.5.2.6 0l.5-.5c.2-.2.5-.2.6 0l.5.5c.2.2.5.2.6 0z" fill="#ffb238"/><path d="m26.7 17.1c.2-.2.1-.5-.1-.7l-.1-.1c-.2-.2-.2-.5 0-.7l.1-.1c.2-.2.2-.5.1-.7-.2-.2-.5-.1-.7.1v.2c-.2.2-.5.2-.7 0l-.1-.1c-.2-.2-.5-.2-.7-.1-.2.2-.1.5.1.7l.1.1c.2.2.2.5 0 .7l-.1.1c-.2.2-.2.5-.1.7s.5.1.7-.1l.1-.1c.2-.2.5-.2.7 0l.1.1c.1.1.4.2.6 0z" fill="#639"/><g stroke="#639" stroke-miterlimit="10"><path d="m19.2 11.4h3v5h-3z" fill="#fff" stroke-width="1.4173" transform="matrix(.7071 .7071 -.7071 .7071 15.8974 -10.5279)"/><path d="m10.2 25.3-.9-.9c-.3-.3-.3-.9 0-1.2l8.5-8.5 2.1 2.1-8.5 8.5c-.4.4-.9.4-1.2 0z" fill="#96c" stroke-width="1.4661"/></g></svg>