<?xml version="1.0" encoding="utf-8"?>
<!-- Generator: Adobe Illustrator 22.0.1, SVG Export Plug-In . SVG Version: 6.00 Build 0)  -->
<svg version="1.1" id="Ebene_2" xmlns="http://www.w3.org/2000/svg" xmlns:xlink="http://www.w3.org/1999/xlink" x="0px" y="0px"
	 viewBox="0 0 36 32" style="enable-background:new 0 0 36 32;" xml:space="preserve">
<style type="text/css">
	.st0{fill:#9966CC;}
	.st1{fill:#FFB238;}
	.st2{fill:#663399;}
	.st3{fill:#FFFFFF;stroke:#663399;stroke-width:1.4173;stroke-miterlimit:10;}
	.st4{fill:#9966CC;stroke:#663399;stroke-width:1.4661;stroke-miterlimit:10;}
</style>
<g>
	<g>
		<path class="st0" d="M17.7,10.5c0.2-0.2,0.2-0.5,0-0.6l-0.7-0.7c-0.2-0.2-0.2-0.5,0-0.6l0.7-0.7c0.2-0.2,0.2-0.5,0-0.6l-0.5-0.5
			c-0.2-0.2-0.5-0.2-0.6,0l-0.7,0.7c-0.2,0.2-0.5,0.2-0.6,0l-0.7-0.7c-0.2-0.2-0.5-0.2-0.6,0L13.3,7c-0.2,0.2-0.2,0.5,0,0.6l0.7,0.7
			c0.2,0.2,0.2,0.5,0,0.6l-0.7,0.7c-0.2,0.2-0.2,0.5,0,0.6l0.5,0.5c0.2,0.2,0.5,0.2,0.6,0l0.7-0.7c0.2-0.2,0.5-0.2,0.6,0l0.7,0.7
			c0.2,0.2,0.5,0.2,0.6,0L17.7,10.5z"/>
	</g>
	<g>
		<path class="st1" d="M26.3,7.9c0.2-0.2,0.2-0.5,0-0.6l-0.5-0.5c-0.2-0.2-0.2-0.5,0-0.6l0.5-0.5c0.2-0.2,0.2-0.5,0-0.6l-0.3-0.3
			c-0.2-0.2-0.5-0.2-0.6,0l-0.5,0.5c-0.2,0.2-0.5,0.2-0.6,0l-0.5-0.5c-0.2-0.2-0.5-0.2-0.6,0L22.9,5c-0.2,0.2-0.2,0.5,0,0.6l0.5,0.5
			c0.2,0.2,0.2,0.5,0,0.6l-0.5,0.5c-0.2,0.2-0.2,0.5,0,0.6l0.3,0.3c0.2,0.2,0.5,0.2,0.6,0l0.5-0.5c0.2-0.2,0.5-0.2,0.6,0l0.5,0.5
			c0.2,0.2,0.5,0.2,0.6,0L26.3,7.9z"/>
	</g>
	<g>
		<path class="st2" d="M26.7,17.1c0.2-0.2,0.1-0.5-0.1-0.7l-0.1-0.1c-0.2-0.2-0.2-0.5,0-0.7l0.1-0.1c0.2-0.2,0.2-0.5,0.1-0.7
			c-0.2-0.2-0.5-0.1-0.7,0.1L26,15.1c-0.2,0.2-0.5,0.2-0.7,0L25.2,15c-0.2-0.2-0.5-0.2-0.7-0.1c-0.2,0.2-0.1,0.5,0.1,0.7l0.1,0.1
			c0.2,0.2,0.2,0.5,0,0.7l-0.1,0.1c-0.2,0.2-0.2,0.5-0.1,0.7s0.5,0.1,0.7-0.1l0.1-0.1c0.2-0.2,0.5-0.2,0.7,0l0.1,0.1
			C26.2,17.2,26.5,17.3,26.7,17.1z"/>
	</g>
	<rect x="19.2" y="11.4" transform="matrix(0.7071 0.7071 -0.7071 0.7071 15.8974 -10.5279)" class="st3" width="3" height="5"/>
	<path class="st4" d="M10.2,25.3l-0.9-0.9c-0.3-0.3-0.3-0.9,0-1.2l8.5-8.5l2.1,2.1l-8.5,8.5C11,25.7,10.5,25.7,10.2,25.3z"/>
</g>
</svg>
