<svg viewBox="0 0 47 42" xmlns="http://www.w3.org/2000/svg"><g fill="none" fill-rule="evenodd" transform="translate(1)"><g fill="#639"><path d="m30.5 35.454c-3.13 1.808-10.293-3.827-15.562-12.954-5.27-9.127-6.57-18.147-3.438-19.954 3.13-1.808 10.293 3.827 15.562 12.954 5.27 9.127 6.57 18.147 3.438 19.954zm1 1.733c4.522-2.61 3.07-12.682-2.706-22.687s-13.772-16.297-18.294-13.687-3.07 12.682 2.706 22.687 13.772 16.297 18.294 13.687z"/><path d="m0 19c0 5.22 9.448 9 21 9s21-3.78 21-9-9.448-9-21-9-21 3.78-21 9zm2 0c0-3.616 8.46-7 19-7s19 3.384 19 7-8.46 7-19 7-19-3.384-19-7z"/><path d="m28.794 23.5c5.776-10.005 7.228-20.076 2.706-22.687-4.522-2.61-12.518 3.682-18.294 13.687s-7.228 20.076-2.706 22.687c4.522 2.61 12.518-3.682 18.294-13.687zm-13.856-8c5.27-9.127 12.43-14.762 15.562-12.954 3.13 1.807 1.832 10.827-3.438 19.954s-12.43 14.762-15.562 12.954c-3.13-1.807-1.832-10.827 3.438-19.954z"/></g><rect fill="#ffb238" height="8" rx="4" width="8" x="17" y="15"/></g></svg>