<?xml version="1.0" encoding="UTF-8"?>
<svg width="27px" height="27px" viewBox="0 0 27 27" version="1.1" xmlns="http://www.w3.org/2000/svg" xmlns:xlink="http://www.w3.org/1999/xlink">
    <!-- Generator: Sketch 50.2 (55047) - http://www.bohemiancoding.com/sketch -->
    <title>icons/showcase</title>
    <desc>Created with Sketch.</desc>
    <defs>
        <linearGradient x1="50%" y1="29.473426%" x2="50%" y2="68.9405018%" id="linearGradient-1">
            <stop stop-color="#FFB238" offset="0%"></stop>
            <stop stop-color="#FFB238" stop-opacity="0" offset="100%"></stop>
        </linearGradient>
    </defs>
    <g id="Symbols" stroke="none" stroke-width="1" fill="none" fill-rule="evenodd">
        <g id="navigation/mobile" transform="translate(-302.000000, -11.000000)">
            <g id="Showcase" transform="translate(290.000000, 11.000000)">
                <g id="icons/showcase" transform="translate(14.000000, 0.000000)">
                    <polygon id="Path" stroke="#663399" stroke-width="1.417" fill="url(#linearGradient-1)" points="9.1875 20.1875 7 25 4.8125 20.1875 0 18 4.8125 15.8125 7 11 9.1875 15.8125 14 18"></polygon>
                    <polygon id="Path" stroke="#9D7CBF" points="18.91 11.91 17.5 15 16.09 11.91 13 10.5 16.09 9.09 17.5 6 18.91 9.09 22 10.5"></polygon>
                    <polygon id="Path" fill="#FFB238" points="10.2533333 5.25333333 9 8 7.74666667 5.25333333 5 4 7.74666667 2.74666667 9 0 10.2533333 2.74666667 13 4"></polygon>
                </g>
            </g>
        </g>
    </g>
</svg>