<svg height="20" viewBox="0 0 20 20" width="20" xmlns="http://www.w3.org/2000/svg" xmlns:xlink="http://www.w3.org/1999/xlink"><defs><path id="a" d="m7.611125 8.107875.04875 3.255-2.55625 2.55625v-3.30375zm5.8375-5.83625c1.0125-1.015 2.56375-1.1525 3.73-.42875l-5.525 5.525-.04875-3.25375zm4.71.55c.29375.47625.44875 1.01375.455 1.555h-2.0125zm-.88375 4.185h-3.3025l1.24625-1.24625h3.065c-.14125.28375-.3175.555-.55375.79125zm-8.25125 2.9925-.04875-3.255 1.2675-1.26625.04875 3.25375zm.36125 4.89875h-3.3025l6.505-6.5075h3.30375zm-7.1375 3.7875 2.405-2.405h5.305l8.75125-8.75c1.7225-1.7225 1.7225-4.51625 0-6.2375-1.7225-1.72375-4.51625-1.72375-6.23875 0l-8.5475 8.5475-.2025.2025v5.30625l-3.72 3.71875z"/><mask id="b" fill="#fff"><use fill="none" xlink:href="#a"/></mask></defs><g fill="none" fill-rule="evenodd"><use fill="#9b9b9b" xlink:href="#a"/><g fill="#639" mask="url(#b)"><path d="m0 0h20v20h-20z"/></g></g></svg>