<svg height="20" viewBox="0 0 20 20" width="20" xmlns="http://www.w3.org/2000/svg" xmlns:xlink="http://www.w3.org/1999/xlink"><defs><path id="a" d="m10 0c-5.5 0-10 4.5-10 10 0 4.4 2.85 8.15 6.85 9.5.5.1.65-.25.65-.5s0-1 0-1.85c-2.75.6-3.35-1.2-3.35-1.2-.45-1.15-1.1-1.45-1.1-1.45-.95-.6.05-.6.05-.6 1 .05 1.55 1.05 1.55 1.05.85 1.5 2.3 1.05 2.9.8.1-.65.35-1.1.65-1.35-2.25-.25-4.6-1.1-4.6-4.9 0-1.1.4-2 1.05-2.7-.1-.25-.45-1.3.1-2.65 0 0 .85-.25 2.75 1 .8-.2 1.65-.3 2.5-.3s1.7.1 2.5.35c1.9-1.3 2.75-1.05 2.75-1.05.55 1.4.2 2.4.1 2.65.65.7 1.05 1.6 1.05 2.7 0 3.8-2.35 4.65-4.6 4.9.35.3.7.95.7 1.85v2.75c0 .3.15.6.65.5 4-1.35 6.85-5.1 6.85-9.5 0-5.5-4.5-10-10-10z"/><mask id="b" fill="#fff"><use fill="none" xlink:href="#a"/></mask></defs><g fill="none" fill-rule="evenodd"><use fill="#000" fill-rule="nonzero" xlink:href="#a"/><g fill="#639" fill-rule="evenodd" mask="url(#b)"><path d="m0 0h20v20h-20z"/></g></g></svg>