<svg viewBox="0 0 32 32" fill="none" xmlns="http://www.w3.org/2000/svg" focusable="false">
  <path d="M7.6 26.3l-2.5.4 5-5 1 1-3.5 3.6z" fill="#639"/>
  <path d="M26.2 6.7L11.3 21.6" stroke="#8C65B3" stroke-width="1.417" stroke-miterlimit="10" stroke-linecap="round"/>
  <path d="M23.7 16.3c2-2 2-5.1 0-7.1s-5.1-2-7.1 0l7.1 7.1z" fill="url(#starters0_linear)" stroke="#639" stroke-width="1.417" stroke-miterlimit="10"/>
  <path d="M18.8 19.1l-5-5c-.6-.6-.6-1.5 0-2.1.6-.6 1.5-.6 2.1 0l4.9 4.9c.6.6.6 1.5 0 2.1-.5.7-1.5.7-2 .1z" fill="#fff" stroke="#639" stroke-width="1.417" stroke-miterlimit="10"/>
  <path d="M14.5 25.4l-7.1-7 3.6-3.6 7 7.1-3.5 3.5z" fill="url(#starters1_linear)" stroke="#639" stroke-width="1.417" stroke-miterlimit="10"/>
  <path d="M11 18.9a.5.5 0 1 0 0-1 .5.5 0 0 0 0 1zm.7 2.1a.5.5 0 1 0 0-1 .5.5 0 0 0 0 1zm2.8 1.4a.5.5 0 1 0 0-1 .5.5 0 0 0 0 1z" fill="#639"/>
  <path d="M5.7 20.1s.7 2.1 2.8 4.2c2.1 2.1 4.2 2.8 4.2 2.8" stroke="#639" stroke-width="1.417" stroke-miterlimit="10"/>
  <defs>
    <linearGradient id="starters0_linear" x1="20.167" y1="12.719" x2="23.703" y2="9.184" gradientUnits="userSpaceOnUse">
      <stop stop-color="#fff"/>
      <stop offset="1" stop-color="#8C65B3"/>
    </linearGradient>
    <linearGradient id="starters1_linear" x1="10.975" y1="21.912" x2="14.51" y2="18.376" gradientUnits="userSpaceOnUse">
      <stop stop-color="#fff"/>
      <stop offset="1" stop-color="#FFB238"/>
    </linearGradient>
  </defs>
</svg>
