<?xml version="1.0" encoding="utf-8"?>
<!-- Generator: Adobe Illustrator 21.1.0, SVG Export Plug-In . SVG Version: 6.00 Build 0)  -->
<svg version="1.1" id="Ebene_1" xmlns="http://www.w3.org/2000/svg" xmlns:xlink="http://www.w3.org/1999/xlink" x="0px" y="0px"
	 viewBox="0 0 65 65" style="enable-background:new 0 0 65 65;" xml:space="preserve">
<style type="text/css">
	.st0{fill:#fff;}
	.st1{fill:#ffb238;}
</style>
<g>
	<g>
		<path fill="#744C9E" d="M55.4,50.6H37c-0.5-1.5-1.7-2.7-3.2-3.2v-2.4h15.6c2.2,0,4-1.8,4-4v-5.3c2-1.5,3.2-4,3.2-6.6c0-4.6-3.8-8.4-8.4-8.4
			c-0.4,0-0.7,0-1.1,0.1c0.2-5.5-3.4-10.7-8.9-12.3C32.9,7,27,9.5,24.2,14.3c-3.3-1.1-7-0.3-9.6,2.2C12,19,11.1,22.6,12,26
			c-2.2,0.9-3.8,3.1-3.8,5.6c0,2.4,1.4,4.6,3.6,5.5v4c0,2.2,1.8,4,4,4h15.2v2.4c-1.5,0.5-2.7,1.7-3.2,3.2H9.6
			c-0.7,0-1.3,0.6-1.3,1.3s0.6,1.3,1.3,1.3H28c0.6,2,2.4,3.4,4.5,3.4s3.9-1.4,4.5-3.4h18.4c0.7,0,1.3-0.6,1.3-1.3
			S56.1,50.6,55.4,50.6z M13.9,28.3c0.4-0.1,0.8-0.3,1-0.7c0.2-0.4,0.2-0.8,0.1-1.2c-1.2-2.6-0.7-5.8,1.5-7.8c2.1-2,5.2-2.5,7.8-1.2
			c0.3,0.1,0.7,0.2,1.1,0.1c0.3-0.1,0.6-0.4,0.8-0.7c2-4.4,6.9-6.7,11.5-5.4c4.8,1.4,7.7,6.3,6.7,11.2c-0.1,0.5,0.1,1,0.5,1.3
			c0.4,0.3,0.9,0.4,1.4,0.2c0.7-0.3,1.4-0.4,2.2-0.4c3.1,0,5.7,2.6,5.7,5.7c0,1.3-0.5,2.6-1.3,3.6c-0.7-1-2-1.7-3.3-1.7H15.9
			c-1.8,0-3.4,1.2-3.9,2.9c-0.7-0.6-1.1-1.5-1.1-2.5C10.9,29.8,12.2,28.4,13.9,28.3z M14.6,41.1v-5.9c0-0.7,0.6-1.3,1.3-1.3h33.5
			c0.7,0,1.3,0.6,1.3,1.3v5.9c0,0.7-0.6,1.3-1.3,1.3H15.9C15.2,42.4,14.6,41.8,14.6,41.1z M32.5,54c-1.1,0-2-0.9-2-2s0.9-2,2-2
			c1.1,0,2,0.9,2,2C34.5,53,33.6,54,32.5,54z"/>
		<path fill="#744C9E" d="M23.7,36.7h-4.1c-0.7,0-1.3,0.6-1.3,1.3s0.6,1.3,1.3,1.3h4.1c0.7,0,1.3-0.6,1.3-1.3C25.1,37.3,24.5,36.7,23.7,36.7z"/>
	</g>
	<path class="st0" d="M13.9,28.3c0.4-0.1,0.8-0.3,1-0.7c0.2-0.4,0.2-0.8,0.1-1.2c-1.2-2.6-0.7-5.8,1.5-7.8c2.1-2,5.2-2.5,7.8-1.2
		c0.3,0.1,0.7,0.2,1.1,0.1c0.3-0.1,0.6-0.4,0.8-0.7c2-4.4,6.9-6.7,11.5-5.4c4.8,1.4,7.7,6.3,6.7,11.2c-0.1,0.5,0.1,1,0.5,1.3
		c0.4,0.3,0.9,0.4,1.4,0.2c0.7-0.3,1.4-0.4,2.2-0.4c3.1,0,5.7,2.6,5.7,5.7c0,1.3-0.5,2.6-1.3,3.6c-0.7-1-2-1.7-3.3-1.7H15.9
		c-1.8,0-3.4,1.2-3.9,2.9c-0.7-0.6-1.1-1.5-1.1-2.5C10.9,29.8,12.2,28.4,13.9,28.3z"/>
	<circle class="st1" cx="32.5" cy="51.6" r="5.2"/>
</g>
</svg>
