<svg xmlns="http://www.w3.org/2000/svg" viewBox="0 0 36 32">
  <circle cx="15.4" cy="19.2" r="6.8" fill="#fff"/>
  <path fill="#fff" stroke="#ffb238" stroke-width="1.417" stroke-miterlimit="10" d="M25.3 21.5h-7.6l3.8-6.7 3.8-6.6 3.9 6.6 3.8 6.7z"/>
  <path d="M15.5 13.4c3.4 0 6.1 2.7 6.1 6.1s-2.7 6.1-6.1 6.1-6.1-2.7-6.1-6.1 2.7-6.1 6.1-6.1m0-1.4C11.4 12 8 15.4 8 19.5s3.4 7.5 7.5 7.5 7.5-3.4 7.5-7.5-3.4-7.5-7.5-7.5z" fill="#9d7cbf"/>
  <linearGradient id="a" gradientUnits="userSpaceOnUse" x1="9" y1="17.291" x2="9" y2="6.708">
    <stop offset="0" stop-color="#fff" stop-opacity="0"/>
    <stop offset="1" stop-color="#ffb238"/>
  </linearGradient>
  <path fill="url(#a)" d="M3.7 6.7h10.6v10.6H3.7z"/>
  <path d="M13.6 7.4v9.2H4.4V7.4h9.2M15 6H3v12h12V6z" fill="#639"/>
</svg>
