<svg enable-background="new 0 0 36 32" viewBox="0 0 36 32" xmlns="http://www.w3.org/2000/svg" xmlns:xlink="http://www.w3.org/1999/xlink"><linearGradient id="a" gradientUnits="userSpaceOnUse" x1="9" x2="9" y1="17.2915" y2="6.7085"><stop offset="0" stop-color="#fff" stop-opacity="0"/><stop offset="1" stop-color="#ffb238"/></linearGradient><circle cx="15.4" cy="19.2" fill="#fff" r="6.8"/><path d="m25.3 21.5h-7.6l3.8-6.7 3.8-6.6 3.9 6.6 3.8 6.7z" fill="#fff" stroke="#ffb238" stroke-miterlimit="10" stroke-width="1.4173"/><path d="m15.5 13.4c3.4 0 6.1 2.7 6.1 6.1s-2.7 6.1-6.1 6.1-6.1-2.7-6.1-6.1 2.7-6.1 6.1-6.1m0-1.4c-4.1 0-7.5 3.4-7.5 7.5s3.4 7.5 7.5 7.5 7.5-3.4 7.5-7.5-3.4-7.5-7.5-7.5z" fill="#9d7cbf"/><path d="m3.7 6.7h10.6v10.6h-10.6z" fill="url(#a)"/><path d="m13.6 7.4v9.2h-9.2v-9.2zm1.4-1.4h-12v12h12z" fill="#639"/></svg>