<svg xmlns="http://www.w3.org/2000/svg" xmlns:xlink="http://www.w3.org/1999/xlink" x="0px" y="0px"
	 viewBox="0 0 774 875.7" style="enable-background:new 0 0 774 875.7;" xml:space="preserve">
<style type="text/css">
	.st0{fill:#744C9E;}
	.st1{fill:#FFFFFF;}
	.st2{fill:#ffb238;}
</style>
<path class="st0" d="M387,0l387,218.9v437.9L387,875.7L0,656.8V218.9L387,0z"/>
<path class="st1" d="M704.9,641.7L399.8,814.3V679.9l190.1-104.6L704.9,641.7L704.9,641.7z M725.8,622.8V261.9l-111.6,64.5v232
	L725.8,622.8L725.8,622.8z M67.9,641.7L373,814.3V679.9L182.8,575.3L67.9,641.7z M47,622.8V261.9l111.6,64.5v232L47,622.8z
	 M60.1,238.5L373,61.5v129.9L172.5,301.7l-1.6,0.9C170.9,302.6,60.1,238.5,60.1,238.5z M712.7,238.5l-312.9-177v129.9l200.5,110.2
	l1.6,0.9L712.7,238.5L712.7,238.5z"/>
<path class="st2" d="M373,649.3L185.4,546.1V341.8L373,450.1V649.3z M399.8,649.3l187.6-103.1V341.8L399.8,450.1V649.3z
	 M198.1,318.2l188.3-103.5l188.3,103.5L386.4,426.9L198.1,318.2L198.1,318.2z"/>
</svg>
