<svg width="248" height="64" viewBox="0 0 248 64" xmlns="http://www.w3.org/2000/svg" focusable="false">
  <title>
    logo
  </title>
  <g fill="none" fill-rule="evenodd">
    <path d="M99.652 48.322c2.741 0 5.14-.456 6.91-1.083v-6.55c-2.17-1.025-4.74-1.48-7.482-1.48-3.712 0-6.339 1.196-6.339 4.271 0 2.905 2.284 4.842 6.91 4.842m11.424-13.842v15.323c-2.514 1.367-7.255 2.62-11.48 2.62-8.225 0-11.595-3.76-11.595-8.715 0-5.468 4.798-8.544 11.08-8.544 2.97 0 5.54.57 7.482 1.367v-2.05c0-4.045-2.627-6.209-7.367-6.209-3.256 0-5.997 1.197-7.654 2.45a4.238 4.238 0 01-2.341-3.076C90.913 25.936 94.854 24 99.423 24c6.454 0 11.652 2.962 11.652 10.48m28.372 10.48V29.98c-1.37-1.082-3.598-1.766-6.054-1.766-5.712 0-9.653 3.93-9.653 9.57 0 5.753 3.941 9.17 9.653 9.17 3.027 0 4.683-.968 6.054-1.993m4.626-17.487v23.468c0 6.72-5.197 11.847-12.85 11.847-4.741 0-8.967-1.48-11.766-4.67.4-1.14 1.428-2.507 2.97-3.133 1.77 2.05 4.455 3.702 8.795 3.702 5.712 0 8.225-3.418 8.225-7.746v-1.538c-1.828.911-3.941 1.595-6.454 1.595-7.653 0-13.993-5.013-13.993-13.215C119 29.81 125.054 24 133.393 24c3.94 0 7.882 1.31 10.68 3.474m9.897 24.518V25.107c.8-.17 1.6-.228 2.342-.228.743 0 1.543.057 2.285.228v26.885c-.742.17-1.542.228-2.285.228-.742 0-1.542-.057-2.341-.228M153 17.247c0-1.823 1.428-3.247 3.312-3.247 1.77 0 3.199 1.424 3.199 3.247 0 1.822-1.428 3.246-3.199 3.246-1.827 0-3.312-1.424-3.312-3.246m16 34.403V14.229a10.69 10.69 0 012.284-.228c.743 0 1.6.057 2.342.228v37.423c-.743.17-1.599.227-2.342.227a10.72 10.72 0 01-2.284-.227m14.97.34V25.107c.8-.17 1.6-.228 2.342-.228.743 0 1.543.057 2.285.228v26.885c-.742.17-1.542.228-2.285.228-.742 0-1.542-.057-2.341-.228M183 17.247c0-1.823 1.428-3.247 3.312-3.247 1.77 0 3.199 1.424 3.199 3.247 0 1.822-1.428 3.246-3.199 3.246-1.827 0-3.312-1.424-3.312-3.246m34.76 32.707c-1.427 1.31-4.226 2.848-7.539 2.848-5.425 0-9.366-2.563-9.366-9V29.164h-4.627a7.063 7.063 0 01-.228-1.88c0-.626.057-1.196.228-1.822h4.627v-7.234c.742-.171 1.485-.228 2.284-.228.742 0 1.485.057 2.228.228v7.234h10.68c.171.626.228 1.196.228 1.822 0 .684-.057 1.196-.228 1.88h-10.68V42.89c0 4.842 2.284 5.867 5.197 5.867 2.17 0 4.283-1.31 5.14-2.05 1.142.797 1.828 2.05 2.056 3.246m29.57-24.383c-4.455 17.03-9.538 27.226-19.533 38.106-1.6-.285-2.742-1.539-3.256-2.791 2.799-3.076 5.369-6.266 7.254-9.4-5.197-8.6-8.453-17.315-10.795-26.087.914-.284 1.828-.398 2.856-.398.628 0 1.37.057 2.056.17 1.999 7.633 4.34 13.842 8.225 21.589l.456.854c.115-.285.286-.513.4-.798 3.712-7.12 5.826-14.069 7.653-21.644a11.04 11.04 0 011.885-.171c.914 0 1.942.228 2.799.57" fill="#717171"/>
    <path d="M43.064 53.463H17.419l19.33-33.39 19.33 33.39 5.638 9.948h11.64L36.748.177.14 63.411h47.417z" fill="#FFF"/>
  </g>
</svg>
