<svg xmlns="http://www.w3.org/2000/svg" width="89pt" height="188pt" focusable="false" viewBox="0 0 89 188"><g class="graph"><path fill="#fff" stroke="transparent" d="M0 188V0h89v188H0z" style="--darkreader-inline-fill:#212127;--darkreader-inline-stroke:transparent"/><g class="node" transform="translate(4 184)"><ellipse cx="54" cy="-162" fill="none" stroke="#000" rx="27" ry="18" style="--darkreader-inline-fill:none;--darkreader-inline-stroke:#e9e3d5"/><text x="54" y="-157.8" font-family="Times,serif" font-size="14" text-anchor="middle" style="--darkreader-inline-fill:#e9e3d5">a</text></g><g class="node" transform="translate(4 184)"><ellipse cx="27" cy="-90" fill="none" stroke="#000" rx="27" ry="18" style="--darkreader-inline-fill:none;--darkreader-inline-stroke:#e9e3d5"/><text x="27" y="-85.8" font-family="Times,serif" font-size="14" text-anchor="middle" style="--darkreader-inline-fill:#e9e3d5">b</text></g><g stroke="#000" class="edge"><path fill="none" d="M51.326 39.798L41.13 66.986" style="--darkreader-inline-fill:none;--darkreader-inline-stroke:#e9e3d5"/><path style="--darkreader-inline-fill:#e9e3d5;--darkreader-inline-stroke:#e9e3d5" d="M44.386 68.273l-6.789 8.134.234-10.592 6.555 2.458z"/></g><g class="node" transform="translate(4 184)"><ellipse cx="54" cy="-18" fill="none" stroke="#000" rx="27" ry="18" style="--darkreader-inline-fill:none;--darkreader-inline-stroke:#e9e3d5"/><text x="54" y="-13.8" font-family="Times,serif" font-size="14" text-anchor="middle" style="--darkreader-inline-fill:#e9e3d5">c</text></g><g stroke="#000" class="edge"><path fill="none" d="M61.747 39.907c2 10.469 4.25 23.969 5.253 36.093 1.32 15.945 1.32 20.055 0 36-.706 8.525-2.027 17.73-3.445 26.083" style="--darkreader-inline-fill:none;--darkreader-inline-stroke:#e9e3d5"/><path style="--darkreader-inline-fill:#e9e3d5;--darkreader-inline-stroke:#e9e3d5" d="M66.969 138.874l-5.222 9.22-1.667-10.464 6.889 1.244z"/></g><g stroke="#000" class="edge"><path fill="none" d="M37.674 111.798l10.196 27.188" style="--darkreader-inline-fill:none;--darkreader-inline-stroke:#e9e3d5"/><path style="--darkreader-inline-fill:#e9e3d5;--darkreader-inline-stroke:#e9e3d5" d="M51.169 137.815l.234 10.592-6.789-8.134 6.555-2.458z"/></g></g></svg>