<svg width="89pt" height="188pt" viewBox="0 0 89 188" xmlns="http://www.w3.org/2000/svg">
  <g class="graph" transform="translate(4 184)">
    <path fill="#fff" stroke="transparent" style="--darkreader-inline-fill:#212127;--darkreader-inline-stroke:transparent" d="M-4 4v-188h89V4H-4z"/>
    <g class="node">
      <ellipse fill="none" stroke="#000" cx="54" cy="-162" rx="27" ry="18" style="--darkreader-inline-fill:none;--darkreader-inline-stroke:#e9e3d5"/>
      <text text-anchor="middle" x="54" y="-157.8" font-family="Times,serif" font-size="14" style="--darkreader-inline-fill:#e9e3d5">
        a
      </text>
    </g>
    <g class="node">
      <ellipse fill="none" stroke="#000" cx="27" cy="-90" rx="27" ry="18" style="--darkreader-inline-fill:none;--darkreader-inline-stroke:#e9e3d5"/>
      <text text-anchor="middle" x="27" y="-85.8" font-family="Times,serif" font-size="14" style="--darkreader-inline-fill:#e9e3d5">
        b
      </text>
    </g>
    <g class="edge">
      <path fill="none" stroke="#000" d="M47.326-144.202L37.13-117.014" style="--darkreader-inline-fill:none;--darkreader-inline-stroke:#e9e3d5"/>
      <path stroke="#000" style="--darkreader-inline-fill:#e9e3d5;--darkreader-inline-stroke:#e9e3d5" d="M40.386-115.727l-6.789 8.134.234-10.592 6.555 2.458z"/>
    </g>
    <g class="node">
      <ellipse fill="none" stroke="#000" cx="54" cy="-18" rx="27" ry="18" style="--darkreader-inline-fill:none;--darkreader-inline-stroke:#e9e3d5"/>
      <text text-anchor="middle" x="54" y="-13.8" font-family="Times,serif" font-size="14" style="--darkreader-inline-fill:#e9e3d5">
        c
      </text>
    </g>
    <g class="edge">
      <path fill="none" stroke="#000" d="M57.747-144.093c2 10.469 4.25 23.969 5.253 36.093 1.32 15.945 1.32 20.055 0 36-.706 8.525-2.027 17.73-3.445 26.083" style="--darkreader-inline-fill:none;--darkreader-inline-stroke:#e9e3d5"/>
      <path stroke="#000" style="--darkreader-inline-fill:#e9e3d5;--darkreader-inline-stroke:#e9e3d5" d="M62.969-45.126l-5.222 9.22L56.08-46.37l6.889 1.244z"/>
    </g>
    <g class="edge">
      <path fill="none" stroke="#000" d="M33.674-72.202L43.87-45.014" style="--darkreader-inline-fill:none;--darkreader-inline-stroke:#e9e3d5"/>
      <path stroke="#000" style="--darkreader-inline-fill:#e9e3d5;--darkreader-inline-stroke:#e9e3d5" d="M47.169-46.185l.234 10.592-6.789-8.134 6.555-2.458z"/>
    </g>
  </g>
</svg>
