<svg xmlns="http://www.w3.org/2000/svg" width="900" height="900" baseProfile="basic" focusable="false" viewBox="0 0 900 900"><path fill="#FFF" stroke="#000" stroke-width=".172" d="M108.956 403.826s.178 3.344-1.276 3.311c-1.455-.033-30.507-84.917-66.752-80.957 0 0 31.398-12.983 68.028 77.646zm6.233-5.338s-.97 3.207-2.327 2.679c-1.356-.526.203-90.231-35.227-98.837 0 0 33.941-1.526 37.554 96.158zm48.538 74.737s2.888 1.695 2.059 2.892c-.832 1.194-87.655-21.408-104.35 11.003 0-.002 6.495-33.349 102.291-13.895zm-4.96 18.029s3.277.699 2.864 2.096c-.411 1.396-89.935 7.298-95.567 43.318-.001 0-4.341-33.697 92.703-45.414z"/><path fill="#FFF" stroke="#000" stroke-width=".172" d="M151.332 481.498s3.139 1.171 2.528 2.492c-.611 1.319-90.037-5.899-100.864 28.915 0 0 .621-33.967 98.336-31.407zm-18.902-32.142s2.31 2.427 1.181 3.347c-1.128.919-78.363-44.729-103.341-18.171 0 0 15.434-30.268 102.16 14.824z"/><path fill="#FFF" stroke="#000" stroke-width=".172" d="M119.108 456.757s2.571 2.148 1.554 3.192c-1.017 1.041-82.921-35.576-104.734-6.36 0 0 11.909-31.82 103.18 3.168z"/><path fill="#FFF" stroke="#000" stroke-width=".172" d="M114.518 463.946s2.839 1.778 1.974 2.95c-.865 1.171-86.997-23.942-104.623 7.974 0 0 7.46-33.146 102.649-10.924zm18.952 1.084s1.981 2.703.743 3.472c-1.237.768-71.985-54.405-100.161-31.267 0 0 19.184-28.04 99.418 27.795zm-34.924-51.113s1.06 3.178-.353 3.531c-1.413.353-51.91-73.804-85.812-60.385 0 0 26.839-20.834 86.165 56.854zm1.227 12.322s1.722 2.876.417 3.523c-1.303.649-66.605-60.873-96.813-40.458-.001.002 21.711-26.13 96.396 36.935z"/><path fill="#FFF" stroke="#000" stroke-width=".172" d="M99.57 433.955s1.981 2.703.744 3.472c-1.238.767-71.985-54.405-100.162-31.267 0 0 19.183-28.04 99.418 27.795z"/><path fill="#FFF" stroke="#000" d="M95.668 436.985c.888 10.678 2.632 22.275 5.703 27.783 0 0-6.356 21.895 9.181 45.2 0 0-.707 12.712 2.119 18.362 0 0 7.063 14.832 15.538 16.244 6.858 1.143 22.26 6.561 39.67 9.04 0 0 30.249 24.859 24.599 47.461 0 0-.706 28.956-7.063 31.781 0 0 20.481-19.775 3.531 9.888l-7.769 33.192s45.201-38.138 17.657-5.648l-17.657 45.906s34.607-32.487 21.894-17.656l-5.65 15.538s76.276-48.025 21.894 4.237c0 0 14.125-6.356 21.894-1.412 0 0 12.006-2.119 10.594.706 0 0-36.726 18.361-43.082 50.851 0 0 14.831-17.657 9.181 1.412l.706 20.48s7.063-38.138 6.356 28.25c0 0 33.9-31.78 13.419 4.944v29.662s26.838-28.956 15.538-6.354c0 0 17.656-15.538 10.594 11.3 0 0-1.413 18.361 6.356-1.412 0 0 28.25-54.029 17.656-7.771 0 0-1.412 33.9 7.063 7.771 0 0 .706 18.362 16.95 31.075 0 0-2.119-89.695 20.48-26.133l7.063 28.957s4.943-16.244 4.237-25.426c0 0 26.132-28.957 14.125 14.125 0 0 26.838-40.257 21.188-16.95 0 0-13.419 28.251-10.594 36.727 0 0 29.663-61.444 31.782-64.271 0 0-3.531 74.865 15.537 11.3 0 0 9.888 21.188 4.943 28.957 0 0 14.125-14.125 12.712-19.774 0 0 8.122-14.479 13.066 9.534 0 0 3.178 16.598 6.003 10.946 0 0 7.063 42.377 9.182 2.119 0 0 2.825-24.013-9.888-44.494 0 0 1.412-5.649-3.531-12.713 0 0 24.014 38.139 11.3-12.713 0 0 19.777 14.125 21.896 14.125 0 0-24.015-40.963-8.477-32.487 0 0-9.183-18.362 22.602 2.825 0 0-28.252-28.251 2.825-11.301 0 0 14.125 11.301.706-6.356 0 0-25.428-28.25 13.419 3.532 0 0 20.48 28.956 21.895 33.9 0 0-17.655-51.559-25.426-56.501 0 0 14.832-64.271 87.576-36.727 0 0 12.007 30.369 19.774-2.118 0 0 22.602-11.301 42.375 37.432 0 0 7.063-24.013 5.65-28.956 0 0 12.007 2.119 10.594 0 0 0 23.308 7.769 25.427 6.356 0 0 12.006 12.006 12.712 5.648 0 0 16.244 4.944 12.713-1.412 0 0 15.538 27.544 16.244 33.9l4.236-24.719 3.531 4.942s2.825-13.419 1.413-15.537c-1.413-2.119 35.313 12.006 43.787 48.731l3.531 14.831s10.594-26.131 7.77-33.193c0 0 9.181 1.412 9.888 9.181 0 0 7.063-40.963-1.412-51.557 0 0 7.769-1.412 9.888 4.944V714.78s12.713 1.411 12.713-2.825c0 0 7.769-7.063 11.3 1.412 0 0-21.894-62.15 10.594-28.25 0 0 12.714 19.068 6.356-14.125-6.357-33.194-13.419-36.021-4.943-36.727 0 0 1.412-6.355-2.118-9.181-3.531-2.825 2.118 0 2.118 0s8.476 7.063-.707-31.782c0 0 11.302 2.825-9.888-48.73 0 0 4.944-4.237-2.118-19.069 0 0 14.125 7.77 19.069 4.944 0 0-.707-2.825-6.356-9.889 0 0-38.139-96.759-2.118-57.913 0 0 20.923 23.925 9.623-16.332 0 0-16.088-42.394-14.716-49.979L95.668 436.985z"/><path fill="#CC7226" stroke="#000" d="M854.095 396.693c1.108.32 5.004 2.304 7.211 5.217 0 0 12.006 19.068 2.825-13.418 0 0-16.244-50.851-.707-31.076 0 0 10.594 12.713 4.944-11.3-6.824-29.004-11.301-40.257-11.301-40.257s20.48 8.475-26.837-61.444l15.536 6.356s-34.605-69.919-72.743-79.101l-14.125-10.594s67.8-67.094 45.199-132.07c0 0-12.007-9.182-28.957 7.063 0 0-11.3 8.475-21.894 5.65 0 0-54.382 2.119-57.913 2.119s-64.974-65.682-180.8-34.607c0 0-9.183 3.531-16.95 1.413 0 0-32.489-28.25-118.653 12.006 0 0-17.655 3.531-20.48 3.531s-7.77 0-21.895 11.3-14.832 12.712-18.362 15.538c0 0-28.957 19.775-37.432 21.188 0 0-20.481 11.3-28.25 28.957l-6.356 2.119s-2.825 12.713-3.532 14.832c0 0-8.475 6.356-9.887 16.244 0 0-15.538 10.594-14.832 18.362 0 0-2.825 9.182-4.238 17.657 0 0-12.712 8.475-11.3 13.419 0 0-13.419 24.719-11.3 36.725 0 0-11.3-.706-16.244 3.531 0 0-1.413 8.475-4.238 9.182 0 0-4.944 2.119-.706 9.181 0 0-2.825 4.944-3.531 7.769 0 0 1.412 4.944-6.356 14.831 0 0-11.3 33.194-7.769 42.375 0 0 .707 8.475-4.237 11.3 0 0-6.356-.707 8.475 20.481 0 0 1.413 2.119-4.238 6.356 0 0-30.369 6.356-34.606 35.313 0 0-24.013 26.131-24.013 35.313 0 4.069.479 9.626 1.713 17.771 0 0-1.007 14.718 47.725 16.131 48.731 1.413 711.054-55.363 711.054-55.363z"/><path fill="#CC7226" d="M120.793 436.164c-44.141-69.566-18.716 30.018-18.716 30.018 15.538 60.738 244.365-5.649 244.365-5.649s298.042-53.677 317.816-60.739c19.775-7.063 187.864 4.237 187.864 4.237l-9.888-29.663c-114.414-81.926-148.314-40.963-172.327-48.025-24.013-7.062-19.774 9.888-25.425 11.3-5.651 1.412-74.863-42.375-86.163-40.963-11.301 1.413-56.045-40.523-29.663 15.538 28.25 60.032-103.115 69.213-132.778 49.438-29.663-19.775 12.713 32.488 12.713 32.488 32.487 35.313-28.25 5.65-28.25 5.65-60.737-22.601-103.114 22.6-108.764 24.013-5.65 1.412-14.125 7.063-15.538-4.237-1.412-11.301-14.672-40.789-70.625 5.649-35.313 29.313-59.679-9.534-59.679-9.534l-4.942 20.479z"/><path fill="#E87F3A" d="M560.632 299.761c-11.3 1.413-56.089-40.502-29.662 15.538 29.311 62.151-103.113 69.213-132.775 49.438-29.665-19.775 12.712 32.488 12.712 32.488 32.488 35.313-28.252 5.649-28.252 5.649-60.737-22.6-103.113 22.601-108.763 24.013-5.65 1.413-14.125 7.063-15.538-4.236-1.413-11.301-14.441-40.494-70.626 5.649-37.495 30.627-61.315-7.255-61.315-7.255l-5.65 17.849c-44.141-70.271-17.529 32.682-17.529 32.682 15.54 60.739 245.521-7.962 245.521-7.962s298.043-53.676 317.817-60.738c19.774-7.062 186.325 4.109 186.325 4.109l-9.762-30.563c-114.413-81.926-146.9-39.935-170.914-46.998-24.013-7.063-19.774 9.888-25.425 11.3-5.65 1.412-74.863-42.375-86.164-40.963z"/><path fill="#EA8C4D" d="M562.943 302.842c-11.301 1.413-54.973-41.014-29.663 15.538 28.604 63.918-103.113 69.215-132.776 49.44-29.662-19.775 12.713 32.488 12.713 32.488 32.488 35.313-28.25 5.649-28.25 5.649-60.738-22.6-103.115 22.601-108.766 24.013-5.65 1.413-14.125 7.063-15.538-4.236-1.413-11.301-14.21-40.198-70.625 5.649-39.68 31.942-62.952-4.976-62.952-4.976l-6.356 15.216c-42.022-68.86-16.341 35.345-16.341 35.345 15.538 60.738 246.678-10.271 246.678-10.271s298.04-53.677 317.814-60.738c19.775-7.063 184.783 3.979 184.783 3.979l-9.63-31.46c-114.415-81.926-145.49-38.909-169.503-45.972-24.014-7.063-19.775 9.888-25.427 11.302-5.647 1.411-74.861-42.379-86.161-40.966z"/><path fill="#EC9961" d="M565.255 305.925c-11.301 1.413-54.963-41.02-29.663 15.538 29.663 66.311-104.057 68.586-132.775 49.438-29.663-19.775 12.713 32.488 12.713 32.488 32.486 35.313-28.25 5.649-28.25 5.649-60.738-22.6-103.114 22.601-108.764 24.013-5.65 1.413-14.125 7.063-15.538-4.236-1.413-11.301-13.979-39.9-70.627 5.649-41.862 33.259-64.591-2.696-64.591-2.696l-7.063 12.584c-38.491-64.976-15.151 38.012-15.151 38.012 15.538 60.736 247.833-12.586 247.833-12.586s298.04-53.677 317.817-60.738c19.773-7.063 183.24 3.853 183.24 3.853l-9.502-32.358c-114.414-81.928-144.076-37.882-168.09-44.945-24.015-7.063-19.775 9.888-25.427 11.3-5.651 1.411-74.862-42.378-86.162-40.965z"/><path fill="#EEA575" d="M567.567 309.008c-11.303 1.412-54.07-41.412-29.664 15.538 29.664 69.213-103.114 69.213-132.776 49.438-29.663-19.775 12.713 32.487 12.713 32.487 32.487 35.313-28.251 5.65-28.251 5.65-60.738-22.6-103.113 22.601-108.763 24.013-5.65 1.412-14.125 7.063-15.538-4.237s-13.746-39.604-70.626 5.649c-44.046 34.575-66.229-.418-66.229-.418l-7.769 9.953c-34.96-61.446-13.964 40.673-13.964 40.673 15.538 60.74 248.989-14.895 248.989-14.895s298.043-53.677 317.816-60.738c19.775-7.063 181.701 3.724 181.701 3.724l-9.374-33.259c-114.414-81.926-142.664-36.853-166.677-43.915-24.014-7.062-19.775 9.888-25.426 11.3-5.648 1.412-74.861-42.376-86.162-40.963z"/><path fill="#F1B288" d="M569.879 312.089c-11.3 1.412-57.144-39.994-29.663 15.538 33.9 68.507-103.115 69.213-132.778 49.438-29.661-19.775 12.714 32.487 12.714 32.487 32.487 35.313-28.25 5.65-28.25 5.65-60.738-22.6-103.114 22.601-108.764 24.013-5.65 1.412-14.125 7.063-15.538-4.237-1.413-11.3-13.514-39.309-70.626 5.649-46.228 35.893-67.866 1.863-67.866 1.863l-8.475 7.317c-31.782-58.619-12.776 43.341-12.776 43.341C123.394 553.887 358 475.94 358 475.94s298.042-53.677 317.817-60.738c19.774-7.063 180.158 3.595 180.158 3.595l-9.244-34.156c-114.413-81.926-141.251-35.827-165.265-42.889-24.013-7.062-19.774 9.888-25.426 11.3-5.647 1.412-74.861-42.376-86.161-40.963z"/><path fill="#F3BF9C" d="M572.19 315.169c-11.303 1.413-57.813-39.656-29.665 15.538 36.021 70.627-103.113 69.214-132.776 49.439s12.713 32.488 12.713 32.488c32.487 35.313-28.25 5.65-28.25 5.65-60.738-22.601-103.114 22.6-108.764 24.013-5.65 1.412-14.125 7.063-15.538-4.237-1.412-11.301-13.283-39.014-70.625 5.649-48.412 37.208-69.503 4.141-69.503 4.141l-9.181 4.688c-28.25-53.322-11.59 46.004-11.59 46.004 15.538 60.738 251.301-19.519 251.301-19.519s298.041-53.677 317.816-60.738c19.775-7.063 178.619 3.466 178.619 3.466l-9.117-35.055c-114.414-81.926-139.84-34.799-163.853-41.862-24.014-7.064-19.774 9.888-25.425 11.3-5.65 1.412-74.862-42.377-86.162-40.965z"/><path fill="#F5CCB0" d="M574.501 318.252c-11.3 1.413-59.753-38.624-29.662 15.538 38.844 69.92-103.115 69.213-132.778 49.438-29.662-19.775 12.714 32.488 12.714 32.488 32.486 35.313-28.251 5.65-28.251 5.65-60.737-22.602-103.113 22.6-108.764 24.013-5.65 1.412-14.125 7.063-15.538-4.237-1.413-11.301-13.05-38.716-70.626 5.649-50.594 38.524-71.14 6.422-71.14 6.422l-9.887 2.054c-25.427-50.145-10.401 48.668-10.401 48.668 15.538 60.74 252.455-21.829 252.455-21.829s298.043-53.677 317.816-60.738c19.775-7.063 177.078 3.339 177.078 3.339l-8.987-35.956c-114.414-81.926-138.428-33.771-162.439-40.834-24.013-7.063-19.774 9.888-25.425 11.3-5.651 1.411-74.864-42.377-86.165-40.965z"/><path fill="#F8D8C4" d="M576.813 321.335c-11.3 1.413-59.753-38.625-29.662 15.538 38.845 69.919-103.113 69.213-132.776 49.438-29.662-19.775 12.713 32.488 12.713 32.488 32.488 35.313-28.25 5.65-28.25 5.65-60.74-22.602-103.115 22.6-108.766 24.013-5.65 1.412-14.125 7.063-15.538-4.238-1.413-11.3-12.817-38.42-70.625 5.65-52.777 39.84-72.776 8.701-72.776 8.701l-10.594-.579c-24.015-46.615-9.213 51.332-9.213 51.332 15.538 60.738 253.609-24.143 253.609-24.143s298.042-53.675 317.817-60.736c19.775-7.063 175.538 3.21 175.538 3.21l-8.859-36.854c-114.416-81.926-137.016-32.744-161.027-39.807-24.013-7.063-19.775 9.888-25.427 11.3-5.651 1.413-74.865-42.375-86.164-40.963z"/><path fill="#FAE5D7" d="M579.124 324.417c-11.301 1.413-59.068-38.998-29.663 15.538 38.844 72.038-103.113 69.213-132.776 49.438-29.662-19.775 12.714 32.488 12.714 32.488 32.486 35.313-28.251 5.65-28.251 5.65-60.737-22.602-103.113 22.6-108.764 24.013-5.652 1.412-14.127 7.063-15.54-4.238-1.412-11.3-12.585-38.123-70.625 5.65-54.959 41.157-74.413 10.979-74.413 10.979l-11.302-3.212c-22.954-42.375-8.025 53.999-8.025 53.999 15.538 60.738 254.769-26.455 254.769-26.455s298.04-53.675 317.814-60.736c19.775-7.063 173.997 3.082 173.997 3.082l-8.732-37.752c-114.413-81.928-135.602-31.718-159.613-38.781-24.014-7.063-19.774 9.888-25.426 11.3s-74.864-42.376-86.164-40.963z"/><path fill="#FCF2EB" d="M581.435 327.498c-11.3 1.412-57.161-39.981-29.661 15.538 37.432 75.571-103.114 69.215-132.776 49.439-29.663-19.775 12.713 32.488 12.713 32.488 32.487 35.313-28.251 5.649-28.251 5.649-60.738-22.601-103.113 22.601-108.763 24.013-5.65 1.413-14.125 7.063-15.538-4.237-1.413-11.3-12.354-37.827-70.626 5.65-57.145 42.473-76.053 13.258-76.053 13.258l-12.006-5.842c-22.6-40.964-6.836 56.661-6.836 56.661 15.538 60.736 255.921-28.766 255.921-28.766s298.043-53.676 317.817-60.737c19.775-7.063 172.454 2.951 172.454 2.951l-8.604-38.65c-114.415-81.926-134.188-30.688-158.2-37.751-24.014-7.064-19.775 9.887-25.426 11.3-5.652 1.413-74.865-42.377-86.165-40.964z"/><path fill="#FFF" d="M120.44 466.182c-22.601-38.846-5.65 59.325-5.65 59.325 15.538 60.738 257.078-31.075 257.078-31.075s298.042-53.677 317.816-60.738c19.775-7.063 170.914 2.823 170.914 2.823l-8.475-39.55c-114.414-81.926-132.776-29.663-156.789-36.726-24.013-7.063-19.775 9.888-25.426 11.3-5.649 1.413-74.862-42.375-86.163-40.963-11.3 1.412-55.829-40.623-29.663 15.538 39.245 84.232-107.28 66.436-132.777 49.438-29.663-19.775 12.712 32.488 12.712 32.488 32.488 35.313-28.25 5.65-28.25 5.65-60.737-22.602-103.113 22.602-108.764 24.014-5.65 1.413-14.125 7.063-15.538-4.237-1.413-11.302-12.121-37.532-70.625 5.65-59.326 43.788-77.688 15.537-77.688 15.537l-12.712-8.474z"/><path d="M193.891 519.15s-12.713 20.48 24.013 43.788c0 0 2.472 2.473-29.31-4.943 0 0-10.947-3.531-13.771-21.896 0 0-8.475-7.769-16.95-17.655-8.476-9.887 36.018.706 36.018.706z"/><path fill="#CCC" d="M441.08 435.104s31.249 47.356 30.193 55.797c-2.297 18.362-2.648 35.313 3.001 42.376 5.651 7.063 21.188 65.682 21.188 65.682s-.706 2.119 21.188-64.976c0 0 20.48-28.25-14.831-60.738.001-.001-62.151-50.853-60.739-38.141z"/><path d="M229.204 566.47s19.775 12.713-5.65 67.802l11.3-4.237s-1.413 19.774-7.063 24.013l12.712-5.65s8.475 14.127 1.413 22.602c0 0 29.663 14.125 28.25 25.425 0 0 11.3-14.125 4.237-25.425s-19.775-4.237-18.363-36.727l-15.538 5.65s9.888-15.538 9.888-26.838l-14.125 4.237s27.313-46.928 8.475-49.438c-10.593-1.414-15.536-1.414-15.536-1.414z"/><path fill="#CCC" d="M286.41 596.133s4.944-7.769 0-6.355c-4.944 1.413-60.032 27.544-70.625 44.494 0-.001 60.737-43.083 70.625-38.139zm18.363 14.125s4.944-7.769 0-6.355-60.032 27.544-70.625 44.494c-.001-.001 60.737-43.083 70.625-38.139zm23.306-26.838s4.944-7.769 0-6.355c-4.943 1.412-60.032 27.545-70.625 44.494 0 0 60.737-43.082 70.625-38.139zm-40.962 76.982s0-10.595-4.944-9.183c-4.944 1.413-68.507 32.488-79.101 49.438 0 .002 74.157-45.199 84.045-40.255zm2.118-19.069s2.119-8.475-2.825-7.063c-3.531 0-50.144 20.481-60.738 37.433 0-.001 52.263-38.139 63.563-30.37zm-25.425 84.045l-17.656 13.419s18.362-13.419 24.719-11.3c0 0-12.006 19.774-13.419 28.956 0 0 18.363-22.602 28.25-21.895 0 0 13.419.706 13.419 19.774 0 0 9.888-18.362 15.537-17.656 0 0 2.119 11.302 0 23.308 0 0 7.063-13.419 14.125-10.595 0 0 11.301-3.53 9.888 16.95 0 0 0 18.362-1.412 23.308 0 0 9.889-46.613 14.125-47.319 0 0 14.125-2.119 22.602 13.419 0 0-7.063-13.419 1.412-9.888 0 0 19.068 2.824 24.719 14.831 0 0-12.006-21.188-2.118-15.537 0 0 12.006 0 14.125 11.3 0 0 14.831 37.432 18.362 40.257 0 0-13.419-38.138-10.595-38.138 0 0-3.53-21.188 5.65 4.942 0 0-5.65-24.719 4.237-23.307 9.888 1.413 17.655 19.069 32.487 14.832 0 0 16.952 9.888 20.483-112.295l-218.94 82.634z"/><path d="M272.285 561.526s26.131-10.595 96.757 0c0 0 12.713.706 24.72-14.831 12.006-15.538 59.325-28.251 70.625-24.721l16.952 11.302 1.413 2.118s21.895 18.362 22.6 31.781c.706 13.418-25.425 98.169-42.377 126.42-16.949 28.25-33.899 50.145-67.801 45.906 0 0-36.726-7.063-81.926 0 0 0-51.557-2.825-56.5-16.95s19.775-40.963 19.775-40.963 7.769-14.831 5.65-40.257c-2.119-25.423-1.413-74.861-9.888-79.805z"/><path fill="#E5668C" d="M311.129 565.058c14.832 32.487-37.431 147.607-37.431 147.607-3.531 2.825 22.353 13.499 40.256 9.182 19.327-4.657 90.401 2.825 90.401 2.825 41.669-27.544 64.27-105.938 64.27-105.938s18.364-42.376-12.713-48.025c-31.075-5.651-144.783-5.651-144.783-5.651z"/><path fill="#B23259" d="M307.543 619.608c5.873-22.582 8.67-43.419 3.586-54.552 0 0 110.177 11.301 129.951-25.426 7.488-13.904 33.55 40.257 32.842 57.207 0 0-111.236 25.426-137.367 5.65l-29.012 17.121z"/><path fill="#A5264C" d="M315.367 648.396s3.531 12.713-.707 19.774c0 0-2.824 1.413-4.943 2.119 0 0 2.119 6.356 12.713 9.182 0 0 3.531 7.77 7.77 8.476s12.713 10.594 19.774 8.475c7.063-2.118 26.839-9.181 26.839-9.181s9.888-5.65 25.425.706c0 0 4.192-1.416 4.942-8.476.884-8.299 6.356-14.832 9.889-18.362 3.531-3.531 20.48-26.133 18.362-26.838-2.118-.707-120.064 14.125-120.064 14.125z"/><path fill="#FF727F" stroke="#000" d="M307.598 562.938s-4.943 39.552.707 54.383c5.649 14.832 4.237 18.362 2.824 25.426-1.412 7.063 6.356 24.719 16.244 35.313l21.188 2.825s26.839-6.355 43.082-1.412c0 0 15.881 2.371 21.895-24.014 0 0 8.476-11.3 21.188-16.243 12.713-4.943 25.426-78.395 18.362-92.52-7.063-14.126-32.488-21.896-60.738 5.648s-31.783-2.117-84.752 10.594z"/><path fill="#FFC" stroke="#000" stroke-width=".5" d="M310.423 695.009s-1.412-3.531-9.181-4.237c0 0-39.55-6.355-54.382-28.25 0 0-12.006-9.888-4.238 10.595 0 0 18.363 36.019 30.369 40.963 0-.002 28.957 7.061 37.432-19.071z"/><path fill="#CC3F4C" d="M451.572 582.058c1.163-13.96 4.61-29.169 1.515-35.361-11.382-22.768-41.35-13.253-60.738 5.648-28.25 27.544-31.78-2.118-84.751 10.595 0 0-3.081 24.653-1.598 42.332 0 0 65.867-20.438 67.28-10.551 0 0 2.823-5.649 19.067-5.649s56.4-2.071 59.225-7.014z"/><path stroke="#A51926" stroke-width="2" d="M375.398 564.352s8.476 8.476 2.118 25.426c0 0-25.426 28.25-21.895 52.97"/><path fill="#FFC" stroke="#000" stroke-width=".5" d="M290.648 714.078s-7.769-22.602 7.769-10.594c0 0 8.475 3.53 6.356 6.354-2.119 2.827-12.006 9.891-14.125 4.24z"/><path fill="#FFC" stroke="#000" stroke-width=".5" d="M299.547 716.196s-6.215-18.08 6.215-8.476c0 0 7.806 4.322 5.084 5.085-8.051 2.261.001 6.782-11.299 3.391z"/><path fill="#FFC" stroke="#000" stroke-width=".5" d="M308.021 716.196s-6.215-18.08 6.215-8.476c0 0 7.725 4.078 5.086 5.085-5.932 2.261 0 6.782-11.301 3.391z"/><path fill="#FFC" stroke="#000" stroke-width=".5" d="M319.675 716.55s-6.215-18.08 6.215-8.476c0 0 7.739 4.118 5.087 5.085-5.228 1.907 0 6.78-11.302 3.391z"/><path fill="#FFC" stroke="#000" stroke-width=".5" d="M331.116 716.408s-6.215-18.08 6.217-8.476c0 0 6.78 2.825 5.085 5.085-1.695 2.261 0 6.782-11.302 3.391z"/><path fill="#FFC" stroke="#000" stroke-width=".5" d="M342.911 717.609s-8.477-21.896 7.769-10.595c0 0 8.476 3.531 6.356 6.355-2.119 2.827 0 8.478-14.125 4.24z"/><path stroke="#A5264C" stroke-width="2" d="M292.767 687.24s23.307-4.944 33.9.706c0 0 10.594 2.119 12.713 1.412 2.118-.706 7.77-1.412 7.77-1.412m5.649 14.831s21.188-24.014 42.375-16.243c12.389 4.543 10.594-1.413 12.006-6.356 1.413-4.943 1.768-12.358 10.596-17.656"/><path fill="#FFC" stroke="#000" stroke-width=".5" d="M383.168 674.527s-7.063-19.069-12.007 3.53c-4.944 22.602-10.594 28.957-13.419 33.9 0 0 0 9.182 14.831 8.476 0 0 19.068-.707 19.774-5.649.708-4.944-2.117-25.426-9.179-40.257z"/><path stroke="#A5264C" stroke-width="2" d="M407.887 687.24s6.356-4.237 10.594-2.119m.882-26.838s5.12-8.651 13.596-10.063"/><path fill="#B2B2B2" d="M279.348 723.259s31.781 5.65 39.551 2.825c0 0 15.536 0 .706 3.531 0 0-22.602 0-36.727-2.118.001 0-20.481-9.888-3.53-4.238z"/><path fill="#FFC" stroke="#000" stroke-width=".5" d="M304.066 558.701s31.075 0 34.606 1.412c0 0 12.713 54.382 6.356 67.801 0 0-2.118 4.944-7.063-4.943 0 0-32.488-57.913-38.138-61.443-5.65-3.532 2.121-2.827 4.239-2.827zm-136.13-4.767s15.714 3.002 37.961 7.594c0 0 8.475 39.551 14.125 48.024 5.65 8.475-.706 8.476-7.063 3.531s-32.488-29.663-36.019-37.432c-3.531-7.769-9.004-21.717-9.004-21.717z"/><path fill="#FFC" stroke="#000" stroke-width=".5" d="M206.534 561.909s10.241 2.732 12.022 6.645c1.78 3.909-2.123 9.73-2.123 9.73s-1.766 5.835-3.888 2.018c-2.121-3.819-7.192-17.344-6.011-18.393z"/><path d="M206.603 561.526s6.356 9.182 12.713 9.182c6.356 0 7.031-.729 12.006.353 8.122 1.767 7.416-1.766 19.069.354 4.661.848 9.181-.706 14.125 1.412 4.944 2.119 10.594.706 12.713-2.825s10.594-10.946 10.594-10.946-22.6 3.179-27.544 4.591c0-.002-39.55 2.117-53.676-2.121z"/><path fill="#FFC" stroke="#000" stroke-width=".5" d="M285.351 561.879s-11.389 6.182-12.095 10.418c-.707 4.237 9.27 10.771 9.27 10.771s4.855 8.122 5.915 3.884c1.059-4.238-1.678-24.366-3.09-25.073zm-66.185 9.648s12.372 19.754 12.755-.041c0 0 .983-2.223-2.124-2.261-10.727-.133-8.041-7.375-10.631 2.302z"/><path fill="#FFC" stroke="#000" stroke-width=".5" d="M231.839 571.967s13.986 19.752 12.863-.164c0 0 .012-.587-3.083-.855-8.381-.733-7.772-8.71-9.78 1.019z"/><path fill="#FFC" stroke="#000" stroke-width=".5" d="M244.575 571.98s14.054 18.766 12.873 1.697c0 0 .21-2.177-2.71-2.708-6.872-1.244-7.244-6.982-10.163 1.011z"/><path fill="#FFC" stroke="#000" stroke-width=".5" d="M256.716 572.122s13.948 20.412 14.563 3.143c0 0 2.903-2.433-.18-2.824-10.273-1.308-8.864-9.172-14.383-.319z"/><path fill="#E5E5B2" d="M192.845 578.354l-13.521-2.702c-4.591-8.828-8.299-19.688-8.299-19.688s11.212 1.767 33.282 6.709c0 0 1.547 5.858 4.146 16.091l-15.608-.41zm114.887-8.231c-2.942-4.425-5.268-7.528-6.416-8.245-5.32-3.325 1.995-2.659 3.989-2.659 0 0 29.258 0 32.583 1.329 0 0 .926 3.959 2.134 9.946 0 0-17.812-3.549-32.29-.371z"/><path fill="#CC7226" d="M402.378 326.201c48.945 6.992 94.004-55.936 97.112-73.028 3.106-17.092-14.762-38.067-14.762-38.067 2.33-5.438-6.216-30.298-15.537-46.613-9.322-16.314-37.398-14.595-68.367-16.314-27.968-1.554-60.599 39.621-62.928 42.729-2.331 3.108 8.546 70.698 10.876 80.798s-2.33 56.712-2.33 56.712c60.455-16.069 6.992-13.209 55.936-6.217z"/><path fill="#EA8E51" d="M339.182 196.051c-2.288 3.051 8.392 69.413 10.68 79.328 2.288 9.916-2.288 55.682-2.288 55.682 57.687-15.679 6.864-12.967 54.918-6.102 48.056 6.865 92.296-54.918 95.347-71.701 3.051-16.781-14.492-37.375-14.492-37.375 2.288-5.339-6.103-29.748-15.255-45.766-9.153-16.018-36.717-14.328-67.125-16.018-27.461-1.526-59.497 38.901-61.785 41.952z"/><path fill="#EFAA7C" d="M340.467 197.195c-2.245 2.995 8.235 68.127 10.481 77.859s-2.246 54.65-2.246 54.65c55.448-16.173 6.737-12.727 53.9-5.989 47.166 6.738 90.587-53.901 93.581-70.373 2.994-16.47-14.224-36.683-14.224-36.683 2.245-5.24-5.989-29.197-14.973-44.918-8.984-15.721-36.037-14.063-65.882-15.721-26.949-1.498-58.391 38.18-60.637 41.175z"/><path fill="#F4C6A8" d="M341.753 198.339c-2.204 2.938 8.079 66.842 10.282 76.391 2.204 9.548-2.203 53.619-2.203 53.619 51.974-15.961 6.61-12.487 52.885-5.876s88.877-52.884 91.815-69.043c2.938-16.161-13.956-35.993-13.956-35.993 2.203-5.142-5.876-28.646-14.69-44.07-8.813-15.425-35.355-13.799-64.638-15.425-26.442-1.47-57.292 37.459-59.495 40.397z"/><path fill="#F9E2D3" d="M343.038 199.483c-2.161 2.881 7.924 65.557 10.085 74.921 2.161 9.365-2.161 52.588-2.161 52.588 49.205-15.75 6.483-12.246 51.868-5.763 45.386 6.483 87.168-51.868 90.049-67.718 2.882-15.849-13.687-35.299-13.687-35.299 2.161-5.042-5.765-28.095-14.408-43.223-8.646-15.128-34.677-13.534-63.396-15.128-25.933-1.44-56.189 36.741-58.35 39.622z"/><path fill="#FFF" d="M402.942 319.984c44.493 6.356 85.459-50.85 88.283-66.388 2.825-15.538-13.419-34.606-13.419-34.606 2.119-4.944-5.65-27.544-14.127-42.375-8.475-14.831-33.995-13.267-62.149-14.831-25.427-1.413-55.088 36.019-57.207 38.844-2.119 2.825 7.769 64.27 9.888 73.451 2.119 9.182-2.119 51.557-2.119 51.557 45.024-15.186 6.356-12.008 50.85-5.652z"/><path fill="#CCC" d="M484.87 259.953s-49.087 13.419-69.568 10.594c0 0-27.896-11.653-43.435 26.838 0 0-6.356 12.713-9.889 16.244-3.531 3.531 122.892-53.676 122.892-53.676z"/><path d="M491.58 256.068s-51.206 21.541-68.862 20.834c0 0-28.956-8.122-43.788 17.656 0 0-14.831 16.244-20.48 19.069 0 0-.706 2.825 10.594-4.238l18.363 9.182s26.131 16.95 43.081-11.3c0 0 7.063-19.775 7.063-23.307s37.433-13.419 40.259-14.125c2.823-.705 14.476-8.121 13.77-13.771z"/><path fill="#99CC32" d="M407.887 319.479c-12.134 0-26.918-6.824-26.918-17.857 0-11.032 14.784-22.094 26.918-22.094 12.138 0 21.976 8.943 21.976 19.975-.002 11.034-9.84 19.976-21.976 19.976z"/><path fill="#659900" d="M401.489 290.021c-8.557 1.275-17.541 3.929-17.414 3.547 2.719-8.156 13.95-14.041 23.812-14.041 7.585 0 14.273 3.493 18.222 8.807-.002.001-9.387-.581-24.62 1.687z"/><path fill="#FFF" d="M422.718 289.616s-7.769-5.65-7.769-1.766c0 0 6.357 7.769 7.769 1.766z"/><path d="M405.063 303.963a7.99 7.99 0 01-7.989-7.991 7.99 7.99 0 1115.979 0 7.99 7.99 0 01-7.99 7.991z"/><path fill="#CC7226" d="M221.435 280.434s-5.65-37.432-1.413-45.2c0 0 19.069-17.657 18.363-24.013 0 0-.706-31.782-2.825-33.194-2.119-1.413-15.538-12.006-26.131-.706 0 0-18.363 31.781-16.95 43.082v3.531s-13.419-.706-16.244 2.825c0 0-2.119 9.181-4.238 9.888 0 0-4.944 4.237-1.413 9.181 0 0-3.531 4.237-2.825 11.3l13.419 7.063s3.531 25.425 22.601 34.606c8.538 4.112 14.124-7.769 17.656-18.363z"/><path fill="#FFF" d="M219.669 277.186s-5.085-33.688-1.271-40.681c0 0 17.162-15.891 16.527-21.611 0 0-.636-28.604-2.543-29.875-1.907-1.271-13.984-10.806-23.518-.636 0 0-16.526 28.604-15.255 38.773v3.178s-12.077-.636-14.62 2.542c0 0-1.907 8.263-3.813 8.899 0 0-4.45 3.813-1.271 8.263 0 0-3.178 3.813-2.542 10.17l12.077 6.356s3.178 22.883 20.34 31.146c7.682 3.701 12.711-6.99 15.889-16.524z"/><path fill="#EB955C" d="M234.765 179.775c-1.924-1.519-15.149-11.706-25.478-.688 0 0-17.904 30.987-16.526 42.004v3.443s-13.083-.688-15.838 2.754c0 0-2.066 8.952-4.132 9.641 0 0-4.82 4.132-1.377 8.952 0 0-3.443 4.132-2.754 11.018l13.083 6.886s3.443 24.79 22.035 33.741c8.323 4.008 13.772-7.574 17.215-17.903 0 0-5.509-36.496-1.377-44.07 0 0 18.592-17.215 17.903-23.413.001-.001-.688-30.988-2.754-32.365z"/><path fill="#F2B892" d="M233.971 181.523c-1.73-1.625-14.761-11.406-24.825-.671 0 0-17.444 30.192-16.103 40.927v3.355s-12.748-.671-15.432 2.684c0 0-2.013 8.722-4.026 9.394 0 0-4.696 4.025-1.342 8.722 0 0-3.354 4.025-2.684 10.735l12.748 6.709s3.354 24.154 21.47 32.876c8.111 3.906 13.419-7.38 16.773-17.445 0 0-5.368-35.56-1.342-42.94 0 0 18.115-16.773 17.444-22.812.002 0-.669-30.192-2.681-31.534z"/><path fill="#F8DCC8" d="M233.176 183.271c-1.536-1.73-14.373-11.106-24.172-.653 0 0-16.985 29.398-15.679 39.851v3.266s-12.413-.653-15.026 2.613c0 0-1.96 8.493-3.919 9.146 0 0-4.573 3.92-1.307 8.493 0 0-3.267 3.92-2.613 10.453l12.413 6.533s3.266 23.518 20.905 32.011c7.897 3.803 13.065-7.186 16.332-16.985 0 0-5.227-34.624-1.307-41.811 0 0 17.639-16.332 16.985-22.211.001-.001-.652-29.399-2.612-30.706z"/><path fill="#FFF" d="M219.669 277.009s-5.085-33.512-1.271-40.504c0 0 17.162-15.891 16.527-21.611 0 0-.636-28.604-2.543-29.875-1.342-1.836-13.984-10.806-23.518-.636 0 0-16.526 28.604-15.255 38.773v3.178s-12.077-.636-14.62 2.542c0 0-1.907 8.263-3.813 8.899 0 0-4.45 3.813-1.271 8.263 0 0-3.178 3.813-2.542 10.17l12.077 6.356s3.178 22.883 20.34 31.146c7.682 3.701 12.711-7.167 15.889-16.701z"/><path fill="#CCC" d="M214.195 265.956s-38.138-18.01-39.727-19.422c0 0 16.067 14.479 17.48 14.479 1.413 0 22.247 4.943 22.247 4.943z"/><path d="M184.003 255.009s32.488 6.356 32.488 14.125c0 5.141-.429 28.834-9.888 26.131-14.831-4.237-8.475-29.662-22.6-40.256z"/><path fill="#99CC32" d="M198.834 261.718s15.852 2.603 17.656 7.416c1.06 2.825 2.23 17.494-7.416 19.422-8.036 1.609-11.973-16.438-10.24-26.838z"/><path d="M350.671 336.845c-.878-3.076 1.438-2.845 4.601-3.794 3.53-1.06 25.071-7.769 26.483-12.359 1.413-4.591 24.719 3.178 24.719 3.178 3.18 1.412 10.947 6.003 10.947 6.003 8.476 2.119 20.128 2.825 20.128 2.825 4.238 1.766 10.241 6.709 10.241 6.709 25.778 18.009 47.674 5.297 47.674 5.297 35.313-11.653 24.72-42.022 24.72-42.022-5.298-15.891.354-21.894.354-21.894.354-6.709 13.064 4.591 13.064 4.591 4.592 7.416 6.005 16.244 6.005 16.244 14.125 19.775 8.122-11.653 8.122-11.653.353-1.766-4.592-8.122-4.592-10.241s-3.179-8.122-3.179-8.122c-5.297-6.003-1.06-18.363-1.06-18.363 3.179-24.366-.706-21.188-.706-21.188-2.118-3.178-18.362 14.478-18.362 14.478-3.885 6.003-14.479 8.828-14.479 8.828-4.942 3.178-10.946.707-10.946.707-4.59-.707-14.479 11.653-14.479 11.653 4.943-.354 9.182 7.416 13.419 7.769 4.237.354 7.415-4.237 10.24-5.297 2.825-1.059 7.769 9.182 7.769 9.182.707 4.59-9.181 13.065-9.181 13.065-.707 8.122-3.531 5.297-3.531 5.297-5.297-1.059-7.415 5.65-9.182 13.772-1.766 8.122-9.182 8.829-9.182 8.829-2.825 13.065-4.945 7.769-4.945 7.769-.354-9.888-10.947.353-10.947.353-2.118 3.531-10.239-.353-10.239-.353-12.008-3.531-7.77-7.063-7.77-7.063 3.178-3.884 22.953 0 22.953 0 3.884-2.825-10.241-9.888-10.241-9.888-1.06-3.178.706-10.947.706-10.947 2.119-5.65 14.126-15.538 14.126-15.538 16.599-2.119 11.654-4.944 11.654-4.944-10.946-9.182-21.189 4.237-21.189 4.237-3.884 10.947-34.605 37.432-34.605 37.432-8.476 6.003-3.884-6.003-10.947 0-7.063 6.003-43.435-9.888-43.435-9.888-20.414-2.106-25.238 25.688-31.47 20.18.001 0 9.567 15.043 6.742 5.156zM694.629 43.132s-45.201 14.125-50.145 47.319c0 0-4.237 40.256 31.78 71.332 0 0 .707 11.3 4.238 16.95 0 0-2.825 8.475 30.368-4.944l48.025-14.832s11.301-4.238 20.481-19.775c9.181-15.538 36.019-48.731 29.662-93.226 0 0 2.119-19.775-8.475-20.481 0 0-14.832-2.825-27.544 10.594 0 0-12.008 5.65-16.244 4.944l-62.146 2.119z"/><path d="M791.069 41.384s3.708-15.767-4.837-7.222c0 0-12.432 10.1-25.641 10.1 0 0-25.637 3.884-33.404 27.191 0 0-6.992 47.39 6.99 57.489 0 0 8.546 13.207 20.978 1.554 12.432-11.653 39.799-65.029 35.914-89.112z"/><path fill="#323232" d="M790.409 42.016s3.689-15.438-4.7-7.048c0 0-12.204 9.916-25.173 9.916 0 0-25.171 3.814-32.798 26.697 0 0-6.865 46.528 6.863 56.444 0 0 8.392 12.967 20.596 1.525 12.206-11.442 39.027-63.889 35.212-87.534z"/><path fill="#666" d="M789.749 42.648s3.673-15.11-4.563-6.875c0 0-11.978 9.732-24.705 9.732 0 0-24.705 3.743-32.191 26.202 0 0-6.738 45.667 6.737 55.399 0 0 8.234 12.727 20.213 1.497 11.98-11.229 38.252-62.748 34.509-85.955z"/><path fill="#999" d="M789.089 43.28s3.654-14.782-4.425-6.703c0 0-11.752 9.549-24.24 9.549 0 0-24.239 3.672-31.584 25.708 0 0-6.609 44.805 6.61 54.354 0 0 8.08 12.487 19.832 1.469 11.754-11.018 37.48-61.607 33.807-84.377z"/><path fill="#CCC" d="M788.429 43.912s3.638-14.454-4.287-6.529c0 0-11.527 9.365-23.773 9.365 0 0-23.772 3.602-30.978 25.213 0 0-6.482 43.943 6.483 53.309 0 0 7.924 12.247 19.45 1.441 11.527-10.807 36.706-60.467 33.105-82.799z"/><path fill="#FFF" d="M787.767 44.544s3.619-14.125-4.148-6.356c0 0-11.301 9.181-23.308 9.181 0 0-23.307 3.531-30.368 24.719 0 0-6.356 43.082 6.355 52.263 0 0 7.77 12.006 19.069 1.412 11.3-10.593 35.931-59.325 32.4-81.219z"/><path fill="#992600" d="M414.243 403.323s-36.021-33.901-50.146-35.313c0 0-60.738-7.063-86.87 24.719 0 0 31.076-36.019 79.807-26.131 0 0-38.138-7.769-60.032-2.119 0 0-29.663 0-46.613 24.719l-4.944 8.475s7.063-26.131 39.55-36.726c0 0 40.256-8.475 59.326 0 0 0-38.138-12.006-55.794-8.475 0 0-53.675-4.237-76.275 42.375 0 0 7.063-25.425 33.194-38.138 0 0 24.013-15.538 60.032-10.594 0 0 25.425 5.65 34.607 9.888 9.182 4.237 7.063-.707-7.769-9.182 0 0-9.889-17.656-34.607-16.95 0 0-75.57 6.356-93.932 27.544 0 0 24.013-19.775 42.375-24.719 0 0 39.55-14.125 54.381-12.713 0 0 43.788 1.766 57.207-5.297 0 0-19.775 8.828-14.125 14.479 5.649 5.65 17.656 19.069 17.656 21.188s42.729 41.14 49.085 48.908l3.887 4.062z"/><path fill="#CCC" d="M658.607 745.857s-27.367-64.445-49.438-81.221c0 0 45.906 28.251 52.086 60.032.001.002.001 17.658-2.648 21.189zm82.986 13.243s-46.789-97.109-79.454-139.484c0 0 76.807 66.212 85.635 113.001l.883 9.711-5.297-4.414c-.002-.002-.884 15.889-1.767 21.186zm99.759-85.634S730.999 568.41 728.351 563.996c0 0 106.821 116.533 112.118 129.775 0 0-3.531-15.891.883-20.305zm-332.824 76.805s34.43-91.813 67.977-52.087c0 0 26.485 17.656 25.604 22.953 0 0-7.063-11.477-38.846-10.594 0 .002-33.547-5.295-54.735 39.728zm336.355-225.119s-79.454-50.321-92.695-52.971c-20.848-4.168 87.398 51.204 96.228 69.743-.002.002 3.529-4.412-3.533-16.772z"/><path d="M578.803 713.371s36.02-3.531 48.025-15.537l7.769 6.356 31.075-67.802 6.356 9.183s25.426-26.132 24.013-40.257c-1.412-14.125 22.601 10.594 22.601 10.594s-1.413-20.481 11.301-8.477c0 0-4.237-27.544 10.594-13.419 0 0-18.604-53.246 21.188-7.769 9.889 11.3 2.119-.706 2.119-.706s-45.905-84.751-7.769-59.325c0 0 3.531-40.257 1.412-48.026-2.118-7.769-5.649-47.319-14.125-56.502-8.477-9.182.706-12.006 10.594-2.824 0 0-19.775-42.375 3.531-21.188 0 0-6.356-26.838-14.125-31.782 0 0-9.889-30.369 16.949-11.3 0 0-7.769-21.894-13.419-27.544 0 0-20.48-48.732-7.769-40.257l7.769 6.356s-12.007-24.719-.706-16.95 11.301 7.063 11.301 7.063-37.433-58.62-1.412-27.544c0 0-14.406-24.574-20.481-36.726 0 0-33.193-36.019-7.77-24.719l8.476 2.825s-15.538-17.656-29.663-20.481c-14.125-2.825 4.237-14.125 15.538-10.594 11.3 3.531 38.844 16.95 38.844 16.95s22.602 33.194 29.663 33.9c0 0-35.313-13.419-24.719.706 0 0 25.425 24.719 12.712 24.013 0 0-10.594 12.713-2.118 28.25 0 0-32.592-32.472-6.355 12.712l12.006 28.957s-43.081-43.788-23.306-4.944c0 0 30.369 41.669 33.899 42.375 3.531.707 11.3 16.244 11.3 16.244l-7.769-3.531 9.181 15.538s-19.774-21.188-9.181 2.119l9.887 25.425s-36.019-38.844-12.006 13.42c0 0-28.957-9.183-13.419 21.188 0 0-2.825 28.252-2.119 37.434.707 9.183 2.825 59.325-4.942 73.451-7.77 14.125 10.594 48.025 14.125 55.088 3.53 7.063 9.888 26.131-5.65 9.889-15.537-16.244-7.769-6.356-4.237 9.181 3.531 15.538 14.125 43.082 12.713 52.97 0 0-2.118 2.119-7.769-4.236 0 0-26.132-40.258-23.307-14.832 0 0-2.119 14.125-7.77 29.663 0 0-5.649 19.068-5.649 3.53 0 0-5.65-29.663-10.595-16.244-4.943 13.42-11.301 24.014-16.244 28.251-4.942 4.237-14.125-36.02-16.243-17.656 0 0-21.188-21.895-29.662 7.063l-20.482 28.957s-.706-21.894-2.824-11.3c-.004-.003-52.974 10.591-71.336 2.821zM518.064 83.389s-20.481-14.125-27.545-13.419c-7.063.706 48.731-15.538 121.477 33.194 0 0 8.476 4.944 14.832 4.238 0 0 5.648 4.237.706 10.594 0 0-15.538 16.95 4.237 36.725 0 0 32.487 12.006 22.601-3.531 0 0 19.069 7.063 23.307 14.125 4.238 7.062 2.118 0 2.118 0s-11.3-12.713-21.894-21.894c0 0-9.183-3.531-14.125-18.363-4.944-14.832-9.183-32.488-1.413-38.138 0 0-7.063 7.769-5.649.706 1.412-7.063 7.77-13.419 10.594-14.125 2.825-.707 31.781-28.604 43.788-29.31 0 0-16.244 2.472-21.541.706S617.293 23.003 606.7 20.884c0 0-29.662-11.653-8.476-8.122 0 0 63.211 6.709 95.346 30.016 0 0-12.713-14.832-45.2-27.191 0 0-39.197-22.247-101.349-13.419 0 0-31.429 5.65-45.2 8.828 0 0-4.591-1.06-5.65-1.766-1.059-.706-21.896-16.597-70.627-4.237 0 0-30.016 8.122-45.2 16.597 0 0-26.838 2.119-33.193 7.769 0 0-32.842 25.778-36.372 27.191-3.531 1.413-23.66 14.831-25.072 15.538 0 0 43.435-11.653 47.672-15.891 4.238-4.237 34.96-8.828 39.197-6.356 4.238 2.472 19.069 1.413 2.119 2.472 0 0 133.483 26.132 134.896 29.663 1.411 3.531 8.473 1.413 8.473 1.413z"/><path fill="#CC7226" d="M644.131 67.145s-18.009-13.066-21.54-13.066c-3.532 0-25.426-18.009-32.842-17.303-7.415.707-28.956-16.95-77.335-2.472 0 0-1.061-3.531 5.297-4.944 0 0 11.301-3.884 12.007-4.944 0 0 35.666-7.416 48.378-1.06 0 0 16.244 4.591 27.191 15.538 0 0 19.775 5.65 25.425 3.885 0 0 15.538 3.884 16.244 7.063 0 0 10.241 5.297 7.063 9.888 0-.001.706 2.824-9.888 7.415z"/><path fill="#CC7226" d="M622.112 63.421c1.425 1.116 3.224 1.289 4.292 2.717.413.554-.099 1.13-.653 1.301-1.842.56-3.706-.447-5.723.591-.71.366-1.844.044-2.819-.219-2.882-.779-6.111-.823-9.097.392-3.505-1.994-7.672-.962-11.348-2.73-.102-.047-.493.563-.625.516-5.378-2.021-11.985-1.522-16.278-5.555-4.286-.728-8.448-1.543-12.735-2.744-3.21-.899-5.697-2.645-8.558-4.114-2.433-1.25-5.004-2.171-7.713-2.828-3.289-.798-6.521-.601-9.864-1.519-.164-.044-.503.563-.648.516-.57-.191-1.084-1.22-1.386-1.127-2.968.922-5.595-.794-8.533-.19-2.08-2.161-5.131-1.729-7.859-2.509-5.233-1.498-10.804.745-16.152-1.022 7.262-3.252 15.538-1.077 22.71-4.73 4.11-2.094 8.811-.148 13.348-1.49.86-.254 2.08-.611 2.786.57.237-.239.56-.661.661-.611 4.325 2.042 8.413 4.292 12.795 6.174.604.258 1.542-.152 1.986.205 2.684 2.147 6.114 1.965 8.569 4.119 2.998-.886 6.164-.215 9.218-1.317.137-.048.55.554.606.516 1.995-1.321 4.035-.842 5.609-.306.597.203 1.768.639 2.307.77 1.987.487 3.499 1.335 5.581 1.658.201.032.527-.568.655-.519 1.982.773 3.822.674 4.979 2.729.238-.238.529-.658.676-.611 1.813.597 2.959 1.93 4.901 2.355.856.187 1.938 1.292 2.954 1.603 4.224 1.291 7.479 3.991 11.353 5.571 1.34.549 2.887.962 4.005 1.838zM486.804 38.296c-4.445-3.046-8.627-4.999-12.938-8.152-.32-.235-.955.065-1.313-.15a80.72 80.72 0 01-5.079-3.33c-.952-.674-2.4-.655-3.299-1.11-4.491-2.281-9.134-3.267-13.56-5.375 1.204-1.126 3.185-.695 4.236-2.119.346.495.766.996 1.389.659 2.963-1.596 6.229-1.866 9.188-1.708 3.01.163 6.046.701 9.181 1.181.542.083.894 1.006 1.464 1.178 3.934 1.171 8.15.244 11.894 1.723 2.81 1.111 5.581 2.564 7.77 4.815.444.459-.13.991-.623 1.333.685-.193 1.167.171 1.361.724a2.19 2.19 0 010 1.377c-.196.551-.689.729-1.351.819-2.484.336.645-2.101-.591-1.31-2.248 1.438-.932 3.92-2.246 6.159-.494-.342-.9-.728-.706-1.413.413.922-.65 1.434-.947 1.992-.681 1.28-2.268 3.778-3.83 2.707zm-57.38 12.974c-5.568-1.402-10.954-1.199-16.279-3.452-.117-.049-.512.563-.625.516-2.411-1.049-4.032-2.754-5.933-4.602-1.612-1.568-4.539-.884-6.789-1.744-.572-.219-.931-1.123-1.462-1.192-2.152-.277-3.789-1.953-5.634-2.961 4.124-1.404 8.381-1.349 12.729-2.027.199-.031.455.535.69.535.24 0 .47-.39.706-.627.345.495.878 1.07 1.331.622.968-.953 1.949-.618 2.902-.547.255.018.476.553.709.553.24 0 .473-.549.707-.549.239.001.472.549.706.549.24 0 .471-.39.706-.627 1.223 1.381 2.784.403 4.235.719 1.833.401 2.305 2.428 4.201 2.954 8.324 2.302 15.629 6.09 23.333 9.774.542.26.912.698.719 1.384.471 0 1.023-.155 1.359.078 1.867 1.292 3.706 2.26 4.937 4.199.381.599-.199 1.317-.61 1.226-7.819-1.759-14.892-2.832-22.638-4.781zm-24.472 78.062c-2.813-2.152-3.842-5.738-5.834-8.902-.378-.6.105-1.154.666-1.312.987-.281 1.946.563 2.669.92 3.081 1.522 5.792 3.715 9.316 3.96 3.515 3.945 11.036 4.625 11.049 10.594.002 1.517-2.521-.104-3.278 1.412-4.328-1.771-8.546-1.589-12.748-4.179-1.09-.673-.507-1.472-1.84-2.493zM356.33 36.5c.238.002 12.652.413 12.622.614-.079.546-13.729 2.398-14.37 2.098-.29-.134-13.554 4.156-13.79 3.92.474-.238 15.068-6.632 15.538-6.632z"/><path d="M383.521 53.726s-26.133 3.178-33.9 5.297c-7.77 2.119-40.609 15.538-45.907 19.069 0 0-23.66 9.535-53.675 44.848 0 0 13.419-6.003 17.303-10.947 0 0 24.013-22.247 23.66-17.656 0 0 21.541-15.185 20.481-11.3 0 0 43.082-19.775 39.551-14.125 0 0 38.138-8.122 36.372-4.591 0 0 33.192 7.769 28.25 8.122 0 0-10.241 2.119 1.06 8.475 0 0-6.003 7.769-15.538.707-9.534-7.063-4.236-3.178-13.064-1.413 0 0-4.592 1.413-12.713-5.65 0 0-9.889-8.122-25.426-1.766 0 0-54.029 22.247-57.56 23.307 0 0-6.356 4.944-10.594 11.3 0 0-10.241 7.769-15.538 10.241 0 0-22.6 20.481-24.719 22.953 0 0-6.003 9.181-7.416 9.888 0 0 11.3-6.709 14.831-10.241 0 0 24.719-17.656 34.253-19.069 0 0 7.769-5.297 9.182-7.769 0 0 25.425-16.244 32.84-16.244 0 0 16.244 9.181 20.482-3.178 0 0 10.239-3.178 20.128-1.06 0 0 5.649-4.591 4.236-8.475 0 0 2.825-3.178 4.592 3.531 0 0 6.003 6.356 14.479 2.825 0 0 7.063-.353 3.531 3.884 0 0-7.77 6.709-28.604 7.063 0 0-21.895 1.06-50.851 14.479 0 0-52.616 18.363-68.86 36.725 0 0-11.3 15.538-20.834 17.657 0 0-10.241 1.412-20.834 14.478 0 0 17.303-10.241 33.194-10.241 0 0 7.063-4.237.353 2.119 0 0-6.356 13.418-3.531 22.953 0 0-1.06 9.181-2.472 12.006 0 0-13.772 22.6-13.772 26.838 0 4.237 2.119 21.541 2.825 22.6.706 1.06-1.766-2.825 4.944 1.413 6.709 4.237 11.653 7.063 13.065 12.006 1.413 4.944-3.531-9.535-3.884-12.713-.353-3.178-7.769-15.891-6.356-20.128 0 0 1.766 1.766 3.178 4.237 0 0-1.059-1.06 0-7.416 0 0 1.413-9.182 3.885-14.832s6.003-12.359 6.709-13.772c.707-1.413.707-11.653 3.178-7.063l6.003 4.59s-4.944-4.59-1.06-8.475c0 0-1.766-9.888 1.413-14.479 0 0 12.359-14.832 15.185-16.597 2.826-1.765.353-1.059.353-1.059s10.594-7.416.353-4.591c0 0-7.063 2.825-12.359 2.825 0 0-13.419 3.531-6.356-3.885s24.719-16.95 31.429-16.597l1.413 2.825 19.775-4.237-2.119 1.413s-.353-.354 7.063-1.06 17.656 1.766 20.128-1.413c2.473-3.178 8.477-4.944 7.771-2.472-.706 2.472-1.061 6.003-1.061 6.003s8.828-10.241 7.77-6.356c-1.061 3.884-15.537 13.065-18.011 24.013l18.363-14.479 6.356-5.297s6.355 3.884 6.709 1.06c.354-2.825 8.476-13.066 10.594-12.713 2.119.353 5.649-4.591 5.297 0-.353 4.591 13.066 14.125 13.066 14.125s5.648-3.178 8.122-.706c2.472 2.472 9.887-34.96 9.887-34.96l44.142-18.716 76.983-6.003-30.017-12.006-107.706-20.125z"/><path stroke="#4C0000" stroke-width="2" d="M415.655 405.089s-26.484-29.663-41.316-34.254c0 0-23.659-12.006-67.094 1.766"/><path stroke="#4C0000" stroke-width="2" d="M368.689 368.363s-44.494-14.125-71.687-6.709c0 0-32.488 3.531-47.319 27.897"/><path stroke="#4C0000" stroke-width="2" d="M362.333 366.245s-30.016-12.713-56.147-16.597c0 0-29.31-4.591-58.62 8.122 0 0-21.541 10.594-31.075 28.603"/><path stroke="#4C0000" stroke-width="2" d="M364.099 366.951s-27.19-19.422-28.957-21.894c0 0-12.358-19.422-35.313-20.128 0 0-37.785 1.413-68.154 15.538"/><path d="M361.794 351.072c2.723 2.583 50.33 53.664 50.33 53.664 62.15 64.624 12.713 4.236 12.713 4.236-13.419-8.475-29.663-41.669-29.663-41.669-2.119-4.944 24.719 12.713 24.719 12.713 7.063 1.412 31.075 35.313 31.075 35.313-12.006-4.237-3.53 8.476-3.53 8.476 4.943 3.531 40.965 31.077 40.965 31.077 6.355 7.063 13.419 9.888 13.419 9.888 24.719-9.182 13.419 14.125 13.419 14.125 4.236 12.007 14.125-8.476 14.125-8.476 19.774-29.664-9.182-25.425-9.182-25.425-52.972 4.942-64.978-23.31-64.978-23.31-4.238-4.236 11.3 0 11.3 0 14.833 3.531-12.713-21.894-12.713-21.894 4.237 0 20.481 12.006 20.481 12.006 18.363 16.244 21.896 12.713 21.896 12.713 31.782-15.538 50.146-2.119 50.146-2.119 3.53 2.825-6.356 14.832-3.531 24.016 2.825 9.182 11.3 31.075 11.3 31.075-4.237 2.824-3.531 21.895-3.531 21.895 29.663 40.963 12.713 37.432 12.713 37.432-27.544-.707-1.411 12.712-1.411 12.712 5.648 3.531 21.188 16.244 21.188 16.244-4.944-2.119-7.769 7.063-7.769 7.063 8.475 7.063 3.53 15.538 3.53 15.538-10.594 2.118-12.713 9.181-12.713 9.181 12.006 14.126-5.649 14.832-5.649 14.832 6.355 7.769-2.118 28.956-2.118 28.956-8.477 0-19.775 9.888-19.775 9.888 4.237 8.477-14.125 18.363-14.125 18.363-14.832 2.824-9.888 14.831-9.888 14.831-14.125 10.594-18.363 38.844-18.363 38.844-1.412 18.363-5.648 24.014 3.531 20.481 9.182-3.531 7.77-25.425 7.77-25.425-8.476-27.545 67.095-55.795 67.095-55.795 7.063-2.824 8.476-12.007 8.476-12.007 3.531.706 19.069 14.125 19.069 14.125 13.418 19.775 14.125 3.531 14.125 3.531 2.118-6.356-.707-16.95-.707-16.95 10.595-38.138-14.125-49.438-14.125-49.438-17.656-59.326 7.063-44.494 7.063-44.494 4.944 9.888 24.014 19.068 24.014 19.068l6.355-4.237c-2.824-8.477 12.007-19.069 12.007-19.069 4.943 11.301 15.537-2.824 15.537-2.824 6.356-43.082 28.251-17.656 28.251-17.656 7.063 2.119 9.182-9.889 9.182-9.889 6.355-18.361 0-42.375 0-42.375 6.355-.706 23.307 9.889 23.307 9.889 4.944-6.356-11.3-36.021-4.237-31.781 7.063 4.237 14.831 7.063 14.831 7.063 1.413-3.53-16.243-25.426-16.243-25.426-7.77-4.945-16.949-40.965-16.949-40.965 12.712 6.356-4.944-20.481-4.944-20.481 0-5.65 10.594-25.425 10.594-25.425-1.412-12.006 0-11.3 0-11.3 4.944 2.119 19.069 4.944 7.063-6.356s1.413-19.775 1.413-19.775c7.769-4.944-16.244-4.238-16.244-4.238-9.183-7.769-8.477-14.831-8.477-14.831 14.126 3.531-11.3-21.894-15.536-28.25-4.237-6.356 12.713-15.538 12.713-15.538 23.307-6.356 2.823-12.006 2.823-12.006-34.605.706-15.536-18.363-15.536-18.363 10.594.707 7.769-3.531 7.769-3.531-9.181-2.119-26.132-13.419-26.132-13.419-7.063-6.356-.706-4.944-.706-4.944 29.663 2.119-21.188-17.656-21.188-17.656 14.125 0-17.655-18.363-17.655-18.363-3.531-2.825-9.183-16.244-9.183-16.244-10.594-9.182-19.067-21.188-19.067-21.188-.707-7.769-9.183-16.244-9.183-16.244-20.48-24.013-30.369-23.307-30.369-23.307-26.132-6.356-35.313-4.944-35.313-4.944l-93.229 7.769c-46.612 22.6-32.842 59.679-32.842 59.679 11.301 14.831 27.544 8.122 27.544 8.122 8.122-10.947 28.604-7.063 28.604-7.063 36.021 5.65 31.431-.706 31.431-.706-4.237-8.122-32.843-19.069-33.196-20.128-.353-1.06-15.891-7.063-15.891-7.063-5.297-2.119-13.065-18.363-13.065-18.363-5.649-6.003 22.247 4.238 22.247 4.238-2.119 1.766 10.947 8.828 10.947 8.828 30.724-1.766 49.439 17.303 49.439 17.303 19.068 29.31 19.422 14.832 19.422 14.832 4.943-16.597-15.892-54.029-15.892-54.029.706-3.531 15.186 8.122 15.186 8.122 2.472-3.531 3.885 6.709 3.885 6.709.353 4.237 7.063 18.362 7.063 18.362 4.942 22.954 11.3 9.888 11.3 9.888l8.122 16.597c2.472 4.591-8.122 18.01-8.122 18.01-.354 4.944 1.06 4.59-8.828 18.009s-3.885 21.188-3.885 21.188c-2.473 11.653 13.064 10.947 13.064 10.947 4.591 3.884 10.595 3.884 10.595 3.884 3.179 3.531 7.415 2.472 7.415 2.472 2.825-6.709 13.772-3.178 13.772-3.178 2.472-4.238 16.95-4.944 16.95-4.944 1.766-4.591 2.472-7.416 8.475-8.475 6.004-1.06-37.432-76.982-37.432-76.982 11.301-1.413-3.179-23.307-3.179-23.307-3.885-11.653 16.244 14.125 20.128 16.597 3.886 2.472 5.65 6.356 2.825 6.003s-6.003 3.532-3.531 3.885c2.473.354 25.427 26.837 31.43 44.847s16.597 25.072 27.544 35.666c10.947 10.594 9.534 53.322 9.534 53.322-.706 15.538 9.888 34.253 9.888 34.253 3.531 6.709-3.885 38.844-3.885 38.844-3.531 3.884-1.06 5.297-1.06 5.297 1.767 2.119 13.771 25.425 13.771 25.425-3.178-.353 3.179 6.003 3.179 6.003 9.181 10.594-2.119 5.297-2.119 5.297-10.594-2.825 1.767 14.479 1.767 14.479 2.119 3.178-13.772-4.944-13.772-4.944-16.243-1.06 4.238 11.653 4.238 11.653 15.185 12.713-4.944 4.943-4.944 4.943-8.122-3.179-2.472 8.828-2.472 8.828 5.649 2.824 36.02 15.186 36.02 15.186.706 6.711-4.591 15.539-4.591 15.539.706 7.063-3.179 13.064-3.179 13.064-2.118 14.479-3.178 15.891-3.178 15.891-7.416.354-20.481 24.721-20.481 24.721-3.179 4.591-21.188 25.777-21.188 25.777-3.531 12.359-35.313-.354-35.313-.354-11.653 6.003-8.122 0-8.122 0-.706-3.884 7.771-14.479 7.771-14.479 12.358-4.59 7.769-23.658 7.769-23.658 7.063-2.473-12.713-7.416-12.359-9.534.354-2.119 10.595-4.591 10.595-4.591 14.125-3.531 6.355-7.77 6.355-7.77-1.06-7.063 4.237-16.95 4.237-16.95 20.48-1.413 0-30.019 0-30.019-19.068-13.418-20.835-23.659-20.835-23.659 22.247-14.478 7.77-36.372 8.122-42.729l2.473-44.494c-3.531-10.947-8.828-34.96-8.828-34.96 3.885-9.181 16.949-31.428 16.949-31.428 4.944-7.416 20.481-15.891 16.598-21.188-3.885-5.297-17.655-2.119-17.655-2.119-13.772-2.472-12.713 6.709-12.713 6.709-2.825 1.766-4.237 10.594-4.237 10.594-1.273 14.007-16.95 25.072-16.95 25.072-19.775 10.947-3.531 18.01-3.531 18.01 10.595 11.653-6.71 12.006-6.71 12.006-19.422-3.178-4.942 14.831-4.942 14.831 19.067 22.601 13.771 27.544 13.771 27.544-18.009 1.766 4.237 18.009 4.237 18.009s-1.412-3.531-1.06-.353c.354 3.178 5.649 10.594 7.063 14.125 1.412 3.531-5.65 3.885-5.65 3.885 1.061 16.95-26.132 9.534-26.132 9.534l-2.824.353c-2.824.354-22.601-1.059-32.841-4.944-10.241-3.884-22.248-3.884-22.248-3.884s-7.063 3.178-20.481 2.825-27.544 4.59-27.544 4.59c-7.771-.706 7.415-8.475 7.769-8.122s10.24-9.535-3.885-8.475c-38.485 2.887-57.561-15.185-57.561-15.185-3.53-2.472-8.122-7.416-8.122-7.416-17.655-3.531 2.473 21.894 2.473 21.894 2.119 2.472-.354 4.238-.354 4.238-1.413-2.825-15.185-12.359-15.185-12.359-4.976-1.712-7.382-4.068-11.498-8.457z"/><path fill="#4C0000" d="M319.604 330.579s20.481 9.887 25.072 14.831c4.591 4.944 29.311 25.072 29.311 25.072s-9.535-3.531-14.125-6.709c-4.592-3.178-23.66-17.656-23.66-17.656s-6.71-10.595-16.598-15.538z"/><path fill="#99CC32" d="M217.181 275.496c.595-.261-.33-5.05-.69-6.008-1.804-4.813-17.656-7.416-17.656-7.416-.401 2.41-.498 5.229-.311 8.121-.001-.001 8.595 9.743 18.657 5.303z"/><path fill="#659900" d="M217.181 275.143c-.793.279-.026-4.827-.337-5.655-1.804-4.813-18.009-7.592-18.009-7.592-.401 2.41-.498 5.228-.311 8.12-.001-.001 7.536 9.037 18.657 5.127z"/><path d="M209.428 275.395c-1.104 0-1.997-2.013-1.997-4.495 0-2.481.894-4.494 1.997-4.494 1.104 0 1.999 2.013 1.999 4.494 0 2.482-.895 4.495-1.999 4.495zm-80.513 173.13s-9.888 17.655 33.9 7.063c0 0 24.719-2.119 28.957-6.355 2.119 1.411 16.89 6.591 21.894 7.769 12.006 2.825 26.838-14.833 26.838-14.833s8.122-18.539 13.066-18.539c4.944 0-.707 2.825-.707 2.825s-11.653 17.834-10.947 20.659c0 0-9.181 35.313-37.432 36.726 0 0-28.515 1.678-26.131 12.007 0 0 15.538-4.237 19.775 0 0 0 19.069-.707 4.944 10.595l-12.006 20.48s.247 6.918-17.656.706c-17.303-6.003-35.489-28.78-35.489-28.78s-28.163-25.692-9.006-50.323z"/><path fill="#E59999" d="M126.796 455.588s-3.531 16.95 61.444-1.413c0 0 7.769 0 12.007 1.413 4.237 1.412 25.425 6.356 28.957 4.237 0 0-12.713 24.013-33.194 21.188 0 0-23.307 2.825-22.6 11.302 0 0 7.063 12.712 15.538 16.949 0 0 4.944 4.237 4.237 9.888-.706 5.649-5.65 8.476-9.181 9.888-3.531 1.413-9.181-4.237-12.006-4.237s-17.656-11.3-25.425-19.774c-7.769-8.476-22.6-29.662-21.894-34.606l2.117-14.835z"/><path fill="#B26565" d="M132.446 486.398c4.591 6.974 10.241 14.39 14.125 18.627 7.769 8.476 22.6 19.774 25.425 19.774 2.825 0 8.475 5.65 12.006 4.237 3.531-1.412 8.475-4.237 9.181-9.888.707-5.649-4.237-9.888-4.237-9.888-5.414-2.707-10.251-8.873-13.04-12.975 0 0 .327 4.499-8.854 3.087-9.181-1.413-18.363-6.356-21.188-12.007-2.825-5.65-7.063-9.888-4.238-3.531s7.063 12.713 9.888 13.419c2.825.706 2.119 2.825-2.119 2.119-4.238-.707-9.182-1.413-16.95-10.594l.001-2.38z"/><path fill="#992600" d="M127.855 449.231s3.178-24.016 5.297-31.077c0 0-1.413-12.007 2.825-19.422 4.237-7.417 7.769-18.363 13.066-27.897s5.65-16.597 12.712-19.422c7.062-2.825 17.656-18.01 22.6-19.775 4.944-1.765 4.591-.353 4.591-.353s12.006-26.131 36.019-19.069c0 0-28.604-4.944-.706-21.541 0 0-8.475 1.942-2.648-10.417 3.886-8.242 3.001 3.708-16.421 24.542 0 0-8.828 15.185-18.009 20.481-9.181 5.297-30.369 17.657-32.488 24.366-2.119 6.709-7.769 16.95-11.3 19.775-3.531 2.825-8.475 10.241-9.181 16.244 0 0-2.119 7.063-4.591 9.181-2.472 2.119-2.825 7.769-2.825 11.299 0 3.532-3.531 8.477-3.178 12.714 0 0 1.412 33.549.706 37.079l3.531-6.708z"/><path fill="#FFF" d="M112.671 457.354s-3.531-2.472-11.3 8.122c0 0 12.889 58.267 12.889 60.738 0 0 1.942-3.708-.354-16.421-2.295-12.713-3.884-35.137-3.884-35.137l2.649-17.302z"/><path fill="#992600" d="M150.809 350.354s-31.076 5.65-30.369 57.207l-1.413 43.79s-2.119-45.202-4.238-48.026c-2.119-2.825 4.944-22.601-.706-12.007 0 0-24.719 24.719-10.594 62.152 0 0 2.648 5.827-2.648-2.295 0 0-8.122-22.249-6.18-33.549 0 0 .353-3.885 3.708-8.828 0 0 15.185-20.659 19.952-24.72 0 0 3.178-25.425 30.369-34.606 0-.001 10.064-4.062 2.119.882z"/><path d="M396.939 233.468c1.164-.625 1.148-2.338 2.174-2.644 2.027-.607 2.317-2.491 3.231-3.875 1.542-2.329 1.883-5.036 2.91-7.668.48-1.236.527-2.922-.024-4.087-2.072-4.381-3.313-8.705-5.858-12.988-.473-.794-.937-2.196-1.29-3.252-.817-2.443-3.037-4.193-4.556-6.524-.51-.779.419-2.412-.847-2.56-1.584-.186-4.143-1.209-4.554.602-1.038 4.568.747 9.022 2.456 13.334-1.381 1.222-.791 2.848-.522 4.202 1.255 6.367-.86 12.286-2.204 18.419-.041.184.563.533.514.643a67.588 67.588 0 01-7.935 13.264c-1.338 1.751-2.878 3.369-3.755 5.246-.649 1.39-1.37 3.095-.929 4.84-6.065 4.908-10.038 11.697-14.647 18.488-.815 1.201-.303 3.335.672 3.811 1.435.703 3.123-1.105 3.953-2.599.687-1.232 1.31-2.38 2.177-3.516.233-.309-.081-1.049.157-1.262 4.647-4.144 7.596-9.328 11.927-13.509 3.442-.581 6.157-2.343 9.243-4.131.544-.316 1.469.124 1.98-.221 3.095-2.078 3.091-5.673 3.278-9.045.09-1.564.437-3.889 2.449-4.968z"/><path d="M381.329 225.583c.22-.136-.055-.883.138-1.264.286-.572.998-.904 1.284-1.476.192-.381-.096-1.052.146-1.303 4.118-4.321 4.572-9.66 2.743-14.909 1.809-1.095 1.915-3.323 1.165-4.818-1.506-3.002-1.847-6.402-3.567-9.127-1.416-2.24-4.202-4.437-6.623-2.136-.743.706-1.311 2.096-.819 3.353.113.288.616.545.568.69-.188.572-1.152.967-1.163 1.448-.053 2.641-1.737 5.309-.625 7.656 1.363 2.876 2.809 6.155 4.003 9.291-2.179 3.736-.355 8.06-3.45 11.374-.24.258-.225.939-.009 1.296a6.106 6.106 0 002.09 2.091c.357.213.972.217 1.324-.002 1.019-.641 1.722-1.5 2.795-2.164zm110.904-18.206c2.451 3.164 2.964 8.099-.653 10.554.971 5.842 6.888 2.348 10.594 1.412-.191-.685.208-1.292.708-1.301 1.866-.026 3.066-1.849 4.941-1.523.767-2.75 3.659-3.989 4.796-6.425 3.048-6.524 2.004-14.069-2.559-19.8-.356-.449.025-1.361-.192-2-1.335-3.904-4.986-4.46-8.401-5.675-2.078-6.842-3.245-13.959-6.354-20.481-2.851-.441-4.082-3.512-6.443-4.783-2.354-1.27-3.355 1.519-3.284 3.365.014.362.812.757.512 1.402-.136.29-.595.486-.595.722.002.238.394.47.629.707-1.62 1.448-4.134 2.29-4.653 4.312-1.686 6.55 2.857 12.068 5.804 17.72 1.044 2.004-.256 4.249-1.598 6.381-.773 1.227-.583 3.217-.097 4.729 1.326 4.113 4.133 7.183 6.845 10.684zm-65.611 32.463c-2.626 3.268-8.65 7.804-3.5 11.208.343.228.996.234 1.302-.002 3.568-2.763 7.104-4.357 11.405-5.385.22-.051.703.773 1.354.489 2.849-1.242 6.397-1.139 8.487-3.501 6.651.396 12.946-1.575 18.934-3.884 2.051-.791 4.293-1.778 6.412-2.665 2.431-1.017 4.557-2.655 6.521-4.67.233-.24.858-.082 1.331-.082-.07-1.523 1.628-1.748 2.063-2.846.163-.41-.102-1.109.133-1.289 3.775-2.878 5.399-6.441 3.336-10.638-.504-1.021-.942-2.112-1.941-2.952-1.916-1.608-3.862-.101-5.711-.637-.28 1.108-1.567.805-2.249 1.155-1.517.775-3.87-.258-5.387.515-2.405 1.227-4.598 1.526-7.106 2.191-.552.145-1.925-.025-2.208 1.083-.236-.237-.497-.65-.685-.611-3.369.699-5.595 1.077-7.892 4.064-.182.235-.962-.081-1.243.157-1.688 1.427-2.403 3.605-4.349 4.792-.354.217-.977-.079-1.319.148-1.141.761-1.787 1.893-2.922 2.682-.581.404-1.287-.169-1.229-.622.433-3.438 1.585-6.593.569-9.905 3.667-4.449 8.111-7.891 11.301-12.713.025-3.824 1.248-7.613 1.049-11.28-.019-.341-.526-1.635-.748-2.248-.552-1.508 1.049-3.39-.441-4.668-2.479-2.124-4.761-.578-6.216 1.953-3.245.688-6.893 1.912-9.679-.267-1.778-1.39-2.799-2.989-4.21-4.854-1.738-2.299-1.147-4.834-1.023-7.596.011-.226-.546-.466-.546-.703.002-.238.391-.47.627-.706-1.246-1.105-1.731-2.974-3.531-3.532.538-1.928-.654-3.489-2.192-4.022-3.522-1.22-6.483 2.156-9.823 2.285-.908.034-1.732-1.799-2.878-2.373-.764-.381-2.006-.439-2.646.03-1.215.89-2.255 1.091-3.593 1.453-2.854.77-5.11 2.701-7.725 4.211-2.622 1.513-4.31 4.05-6.216 6.381-1.661 2.034-1.901 6.296.605 7.179 3.254 1.148 5.557-3.625 9.027-3.049.551.09.915.639.721 1.324.688.193 1.071-.212 1.412-.706 1.515 1.799 3.57 2.394 5.227 3.936 1.714 1.596 4.796.858 6.589 2.619 2.698 2.652 1.712 7.386 5.136 9.69-1.034 2.318-2.106 4.573-2.698 7.092-.497 2.129 1.258 4.243 3.396 4.082 2.222-.166 2.684-1.506 3.54-3.406.472.472 1.3.996 1.228 1.377-.807 4.214-2.62 7.733-3.429 12.025-.104.56-.644.917-1.33.722-.826 7.326-7.98 11.553-12.475 17.141-.712.886-.719 3.092.004 3.803 2.478 2.449 5.938-.281 8.938-1.169.376-2.129 1.893-3.792 4.245-3.694.452.018.866-.939 1.438-1.169.614-.244 1.501.152 2.007-.198 3.053-2.11 5.539-4.063 8.606-6.162.339-.231.946.05 1.328-.141.574-.286.904-.969 1.475-1.296.614-.353 1.041.159 1.383.653-1.142.616-1.147 2.306-2.176 2.663-1.367.473-2.358 1.379-3.549 2.168-.516.341-1.68-.097-1.862.219-1.058 1.819-3.149 2.592-4.402 4.151zm-97.837-87.238s-16.312-5.071-36.019 40.257c0 0-4.238 9.181-8.475 12.712-4.238 3.531-24.013 9.888-27.544 16.95l-18.363 28.25s26.131-28.25 31.782-32.488c0 0 14.125-14.832 8.475-2.825 0 0-24.719 19.069-22.601 35.313 0 0-9.887 25.425-11.3 28.957 0 0 28.25-56.5 32.488-58.62 4.237-2.119 6.356-2.119 4.237 4.238-2.119 6.357-2.825 35.313-7.769 38.844 0 0 14.125-36.02 12.712-41.669 0 0 5.65-6.356 9.888 2.825l-2.119 28.25 7.769 21.188s-4.237-19.775-1.413-47.319c0 0-3.531-18.363 3.531-8.475s24.013 20.481 24.013 28.957c0 0-9.181-31.075-25.425-39.55l-7.063 10.594-2.119-3.531s-6.356-1.413 1.413-13.419 7.063-13.419 7.063-13.419 11.3 12.713 14.125 12.713c0 0 23.307-13.419 25.425 29.663 0 0 12.007-25.425-4.237-37.432 0 0-26.132-3.531-24.013-12.712l12.713-21.894c6.356-9.182 3.531-4.238 3.531-4.238l-.705-2.12z"/><path d="M293.473 181.558s-22.6 0-28.25 9.181l-12.713 16.95s30.369-17.656 37.432-19.775 3.531-6.356 3.531-6.356zm-70.626 11.3s-3.531 2.119-4.238 7.063c-.706 4.944-4.944 5.65-3.531 10.594 1.413 4.944 4.944 9.182 4.944 2.119 0-7.063 2.825-10.594 4.238-12.712 1.412-2.12 4.237-9.889-1.413-7.064zM207.31 300.916s-14.832-7.063-20.481-13.419c-5.65-6.356-4.852 2.765-13.419 2.119-10.324-.779-8.475-28.957-8.475-28.957l-7.063 13.418s-2.119 25.425 12.006 21.188c6.898-2.069 9.181.706 6.356 2.119-2.825 1.413 9.887 2.119 4.943 4.944-4.943 2.825 20.481-6.356 16.244 12.006l9.889-13.418zm-22.247 25.425s-27.191 7.769-33.547-9.181c0 0-8.475 4.237-4.591 9.534 3.885 5.297 6.003 6.003 6.003 6.003s9.534 2.119 8.475 3.531c-1.06 1.413-5.297 7.416-5.297 7.416s18.009-10.594 28.957-17.303z"/><path fill="#FFF" d="M588.337 464.416c-.754 3.768-3.704 5.182-7.063 6.355-3.386-1.69-7.973-7.176-11.301-3.53-.837-.849-2.213-.954-2.819-2.123-.82-1.585-.342-3.433-.944-4.841-.962-2.246-2.214-4.658-1.886-7.161 3.188-1.258 4.239-4.623 3.401-7.735-.122-.454-.879-.802-.525-1.418.329-.57.89-.972 1.36-1.441-.237.237-.493.648-.689.613-1.077-.188-.857-1.313-.628-1.995 1.032-3.083 4.589-3.549 6.969-1.443.452-.998 1.352-.655 2.118-.706-.088-1.022.633-1.953.982-2.694.913-1.938 3.791.014 5.197-1.065 1.899-1.457 3.776-2.691 5.681-1.628 3.193 1.789 6.212 3.93 8.327 7.004 1.017 1.473 1.439 3.733 1.338 5.426-.067 1.143-2.507.521-3.111 2.161-1.139 3.086 2.095 4.003 3.43 6.364.35.616-.117 1.153-.673 1.326-.726.227-2.11-.107-1.866.691 1.716 5.636-3.151 6.833-7.298 7.84zm-16.952 34.606c-.012-3.068-2.839-6.17-.704-9.183.238.237.471.627.706.627.238 0 .471-.39.706-.627 2.641 3.913 9.088 5.552 8.837 10.576-.038.79-1.958 2.41-.36 3.55-3.201 2.38-3.3 6.564-4.944 9.887-2.186-.505-4.325-1.146-6.356-2.117.622-2.624.415-5.599 1.863-7.929.763-1.231.258-3.136.252-4.784z"/><path fill="#CCC" d="M277.935 483.132s-29.765 17.896-4.944-9.182c15.538-16.95 33.194-26.838 33.194-26.838s18.362-7.771 24.719-9.89c6.355-2.119 33.193-11.301 38.845-12.007 5.649-.706 22.6-7.769 34.606-.706 12.006 7.063 26.131 14.831 26.131 14.831s-28.956-14.831-35.313-10.594c-6.356 4.237-19.069 3.531-29.663 9.182 0 0-26.131 7.771-31.781 11.303-5.649 3.53-24.013 24.013-26.837 22.601-2.825-1.413.706-2.119 2.825-7.063 2.119-4.943-1.412-7.77-15.538 3.531-14.125 11.301-16.244 14.832-16.244 14.832z"/><path d="M291.01 472.596s2.49-23.022 17.459-20.084c0 0 14.523-7.361 19.33-10.837 0 0 14.37-3.006 16.685-4.095 32.627-15.361 58.614-7.383 59.581-9.359.965-1.977 35.614 10.59 41.986 17.806.69.781-18.063-9.884-35.188-13.223-14.607-2.85-52.748.438-72.005 10.211-5.249 2.664-21.043 12.877-25.513 12.682-4.467-.199-22.335 16.899-22.335 16.899z"/><path fill="#CCC" d="M284.292 517.738s-26.838-4.237 2.825-7.063c0 0 31.782-3.531 38.844-12.713 0 0 24.013-16.244 28.956-16.95 4.944-.706 57.913-13.419 58.619-17.656.707-4.236 10.595-4.236 13.419-2.824 2.825 1.413 1.413 3.53-3.531 4.943-4.943 1.412-60.031 30.369-71.332 32.487-11.3 2.119-31.781 15.538-40.256 17.656-8.476 2.12-27.544 2.12-27.544 2.12z"/><path d="M318.757 504.676s-15.153-1.464.033-2.909c0 0 15.566-6.046 19.183-10.748 0 0 12.296-8.316 14.826-8.678 2.531-.362 27.18-6.872 27.542-9.04.362-2.17 60.51-24.384 68.314-18.751 5.14 3.709-12.343.748-29.354 8.535-2.393 1.095-62.164 26.85-67.95 27.934-5.785 1.087-16.271 7.956-20.611 9.04-4.338 1.086-11.983 4.617-11.983 4.617zm-13.984 3.881s9.181-.706 7.063 2.119c-2.119 2.825-6.357 1.412-6.357 1.412l-.706-3.531zm-12.712 2.825s9.181-.706 7.063 2.119c-2.119 2.825-6.356 1.412-6.356 1.412l-.707-3.531zm-18.363 2.825s9.181-.706 7.063 2.119c-2.119 2.824-6.356 1.412-6.356 1.412l-.707-3.531zm-13.419 1.412s9.181-.706 7.063 2.119c-2.118 2.825-6.356 1.412-6.356 1.412l-.707-3.531zm67.8-69.919s7.77 0 5.649 2.825c-2.119 2.824-7.769 2.117-7.769 2.117l2.12-4.942zm-17.656 9.888s11.487-3.78 7.063 2.118c-2.118 2.825-6.356 1.413-6.356 1.413l-.707-3.531zm-19.775 8.475s9.181-.705 7.063 2.119c-2.118 2.825-6.356 1.412-6.356 1.412l-.707-3.531zm-13.419 10.593s9.181-.706 7.063 2.119c-2.118 2.824-6.356 1.411-6.356 1.411l-.707-3.53zm-12.006 8.476s9.181-.706 7.063 2.118c-2.119 2.825-6.356 1.413-6.356 1.413l-.707-3.531z"/><path d="M334.228 494.427s12.221-.938 9.4 2.819c-2.82 3.761-8.461 1.881-8.461 1.881l-.939-4.7zm18.362-8.476s12.221-.939 9.4 2.82c-2.819 3.761-8.461 1.88-8.461 1.88l-.939-4.7zm19.069-7.768s12.22-.938 9.399 2.819c-2.819 3.761-8.461 1.881-8.461 1.881l-.938-4.7zm18.362-8.475s12.221-.939 9.399 2.819c-2.819 3.761-8.461 1.88-8.461 1.88l-.938-4.699zm-48.731-31.782s12.22-.938 9.4 2.82c-2.82 3.761-9.874 3.293-9.874 3.293l.474-6.113zm17.656-5.65s12.22-.939 9.399 2.818c-2.818 3.762-10.58 3.293-10.58 3.293l1.181-6.111zm-40.048 70.631s9.181-.706 7.063 2.118c-2.119 2.824-6.355 1.413-6.355 1.413l-.708-3.531z"/><path fill="#992600" d="M189.653 327.753s-7.769 15.538-8.475 21.188c0 0 1.413-15.538 3.531-19.069 2.119-3.531 4.944-2.119 4.944-2.119zm-32.488 24.719s-5.65 25.425-4.944 30.369c0 0-2.119-20.481-1.412-22.6.706-2.118 6.356-7.769 6.356-7.769z"/><path fill="#CCC" d="M193.891 220.755l-.353 5.65-3.885.354s25.072 22.247 26.132 35.666c0 0 1.412-14.479-21.894-41.67z"/><path d="M200.925 222.989c-.761-.734-.374-2.05-1.095-2.509-1.428-.911 2.292-1.012 1.889-2.276-.676-2.129-.346-2.167-.562-4.419-.101-1.056.938-3.775 1.618-4.552 2.553-2.917.215-8.094 3.111-10.833.537-.51 1.201-1.485 1.704-2.223 1.164-1.7 3.254-2.562 4.931-4.024.562-.487.207-1.948 1.211-1.785 1.261.203 3.452-.026 3.373 1.458-.2 3.743-2.546 6.78-4.806 9.725.796 1.243-.013 2.364-.514 3.348-2.357 4.626-2.023 9.642-2.331 14.657-.009.15-.551.288-.537.381a54.005 54.005 0 003.207 11.941c.646 1.642 1.478 3.222 1.743 4.859.196 1.211.378 2.682-.343 3.927 3.593 5.103 1.282 9.783 3.346 16.018.365 1.104 3.353 4.483 2.535 4.199-4.437-1.538-4.635-2.241-4.947-3.57-.258-1.1-.84-3.531-1.259-4.594-.113-.29-.415-3.616-.553-3.832-2.671-4.206-.274-3.895-2.692-8.059-2.521-1.201-4.227-3.15-6.21-5.202-.35-.36 1.668-1.638 1.349-2.014-1.928-2.276-3.964-3.63-3.371-6.267.275-1.217.516-3.083-.797-4.354zm-6.328 3.063s.707 12.006 4.944 14.832c4.238 2.825 2.119 1.413-3.531-.706-5.65-2.119-3.531-3.531-3.531-3.531s-4.944.706-.706 4.237c4.237 3.531 10.594 7.769 7.769 7.769s-16.244-7.063-16.244-12.006c0-4.944-1.766-12.183-1.766-12.183s1.942-1.413 10.417-1.236c-.001 0 2.471 1.235 2.648 2.824z"/><path fill="#FFF" stroke="#000" stroke-width=".1" d="M193.184 258.894s-15.043-4.928-47.672 1.059c0 0 15.946-3.669 49.085.353 18.186 2.207-1.413-1.412-1.413-1.412z"/><path fill="#FFF" stroke="#000" stroke-width=".1" d="M196.889 258.768s-14.56-6.211-47.586-3.067c0 0 16.205-2.276 48.871 4.596 17.929 3.771-1.285-1.529-1.285-1.529z"/><path fill="#FFF" stroke="#000" stroke-width=".1" d="M200.045 258.932s-14.058-7.276-47.226-6.596c0 0 16.329-1.066 48.395 8.217 17.597 5.094-1.169-1.621-1.169-1.621z"/><path fill="#FFF" stroke="#000" stroke-width=".1" d="M202.288 259.326s-12.049-7.604-41.842-9.543c0 0 14.724.3 42.764 11.086 15.389 5.92-.922-1.543-.922-1.543zm203.55 18.568s-1.642 1.137-1.264-.948c.38-2.085 50.185-25.339 56.564-24.897.002-.001-53.406 23.316-55.3 25.845z"/><path fill="#FFF" stroke="#000" stroke-width=".1" d="M399.846 279.021s-1.547 1.263-1.333-.846c.214-2.108 48.04-29.202 54.436-29.262-.002.001-51.412 27.441-53.103 30.108z"/><path fill="#FFF" stroke="#000" stroke-width=".1" d="M394.044 281.449s-1.462 1.363-1.388-.755c.074-2.117 35.063-29.479 52.389-32.788 0 0-31.835 14.349-51.001 33.543z"/><path fill="#FFF" stroke="#000" stroke-width=".1" d="M388.966 284.739s-1.314 1.226-1.248-.68c.066-1.907 31.557-26.532 47.147-29.509 0 0-28.649 12.914-45.899 30.189z"/><path fill="#CCC" d="M333.023 545.988s-26.838-4.237 2.824-7.063c0 0 31.781-3.531 38.845-12.712 0 0 24.013-16.244 28.956-16.95 4.943-.707 33.899-7.063 34.606-11.301.706-4.237 11.3-8.475 14.125-7.063 2.825 1.413 2.825 17.655-2.119 19.068-4.942 1.412-38.138 14.125-49.438 16.244-11.301 2.118-31.782 15.537-40.257 17.656-8.473 2.121-27.542 2.121-27.542 2.121z"/><path d="M461.915 479.953s-5.297 2.825-7.416 7.416c0 0-11.3 18.716-36.372 24.366 0 0-40.609 15.891-54.382 19.422 0 0-23.659 8.828-36.727 7.416 0 0-12.358.353-1.411 3.178 0 0 35.666-3.531 41.669-6.709 0 0 27.544-9.182 32.841-13.772 5.297-4.59 37.432-13.419 41.315-16.949 3.885-3.532 21.189-18.364 20.483-24.368z"/><path d="M358.24 535.589s9.231-.398 7.195 2.336c-2.034 2.737-6.356 1.193-6.356 1.193l-.839-3.529zm-12.717 2.388s9.23-.398 7.196 2.336c-2.036 2.736-6.357 1.195-6.357 1.195l-.839-3.531zm-18.413 2.203s9.231-.399 7.195 2.336c-2.034 2.735-6.356 1.193-6.356 1.193l-.839-3.529zm-13.479.961s9.232-.398 7.197 2.336c-2.036 2.736-6.358 1.193-6.358 1.193l-.839-3.529zm73.801-18.615s12.289-.531 9.578 3.108c-2.708 3.642-8.463 1.59-8.463 1.59l-1.115-4.698zm18.213-7.812s10.521-5.828 9.578 3.109c-.477 4.513-8.463 1.589-8.463 1.589l-1.115-4.698zm16.123-4.969s12.642-6.534 9.579 3.108c-1.374 4.326-8.465 1.59-8.465 1.59l-1.114-4.698zm16.798-8.519s7.695-8.652 9.578 3.109c.717 4.481-8.464 1.59-8.464 1.59l-1.114-4.699zm-66.286 29.218s9.23-.401 7.196 2.336c-2.035 2.733-6.359 1.192-6.359 1.192l-.837-3.528z"/><path fill="#FFF" stroke="#000" stroke-width=".1" d="M435.138 316.105s-1.282 1.174-1.284-.717c0-1.889 30.871-25.309 46.484-27.752 0 0-28.425 11.881-45.2 28.469z"/><path d="M440.374 428.748s38.847 39.553 55.09 45.908c0 0 16.244 19.774 9.183 65.683 0 0-5.65 13.419-11.301-23.307 0 0 5.649-44.494-14.125-16.244 0 0-14.834-17.479-3.533-16.95 0 0 5.651 3.531 6.357.706.707-2.825-13.42-26.838-43.789-52.265-30.369-25.425 2.118-3.531 2.118-3.531z"/><path fill="#FFF" stroke="#000" stroke-width=".1" d="M337.261 497.257s-.354-3.178 2.825-1.766c3.178 1.412 169.503 12.358 225.298 54.734 0 .002-79.808-40.961-228.123-52.968z"/><path fill="#FFF" stroke="#000" stroke-width=".1" d="M355.623 489.488s-.354-3.18 2.825-1.767c3.179 1.412 244.367-.354 286.036 56.854 0 .001-38.843-44.493-288.861-55.087z"/><path fill="#FFF" stroke="#000" stroke-width=".1" d="M376.104 482.426s-.353-3.179 2.825-1.766c3.18 1.412 309.343-21.541 351.013 35.666-.001 0-16.951-45.201-353.838-33.9zm17.658-8.476s-.354-3.178 2.824-1.767c3.179 1.413 218.941-66.742 260.611-9.533 0 0-23.66-43.436-263.435 11.3zm-102.408 40.257s-.353-3.178 2.825-1.766 34.606 5.297 38.138 73.804c0 0-12.713-74.157-40.963-72.038z"/><path fill="#FFF" stroke="#000" stroke-width=".1" d="M275.816 517.032s-.353-3.18 2.825-1.767c3.178 1.412 28.25-6.71 23.306 61.797.001.001 2.119-62.149-26.131-60.03z"/><path fill="#FFF" stroke="#000" stroke-width=".1" d="M261.691 517.738s-.354-3.179 2.825-1.767c3.179 1.412 30.369 2.473 8.475 42.022 0 .002 16.95-42.374-11.3-40.255zm83.561-78.281s-.784 3.529 1.951 1.381c28.37-22.292 85.65-126.292 183.971-136.239 0 0-67.638-21.382-185.922 134.858zm19.775-3.179s-2.406-2.106.892-3.21 201.831-129.115 271.194-115.05c0 0-47.861-13.26-272.086 118.26z"/><path fill="#FFF" stroke="#000" stroke-width=".1" d="M328.229 447.053s-.897 2.823 2.122 1.101c15.848-9.04 22.229-110.054 99.171-112.271-.001-.001-57.225-25.98-101.293 111.17z"/><path fill="#FFF" stroke="#000" stroke-width=".1" d="M293.053 466.521s-1.902 2.271 1.546 1.821c18.091-2.352 55.884-75.222 134.348-66.254 0 .001-56.44-25.329-135.894 64.433z"/><path fill="#FFF" stroke="#000" stroke-width=".1" d="M312.895 455.704s-1.432 2.594 1.868 1.49c17.303-5.78 40.403-84.549 119.13-90.813 0 .001-60.254-14.024-120.998 89.323z"/><path fill="#FFF" stroke="#000" stroke-width=".1" d="M280.623 475.559s-1.542 1.841 1.252 1.478c14.653-1.905 45.265-60.929 108.822-53.665-.001-.002-45.718-20.518-110.074 52.187z"/><path fill="#FFF" stroke="#000" stroke-width=".1" d="M267.206 485.992s-1.775 1.845 1.035 1.637c7.359-.546 61.455-58.951 94.063-31.58-.001 0-21.215-33.059-95.098 29.943zm122.768-56.365s-2.12-2.392 1.291-3.071c3.411-.679 216.529-102.579 283.56-79.862-.002-.001-45.804-19.2-284.851 82.933zm-59.07 113.537s-.354-3.179 2.824-1.768c3.179 1.413 30.369 2.474 8.476 42.022 0 .002 16.95-42.373-11.3-40.254zm18.364-2.825s-.354-3.179 2.824-1.766c3.18 1.412 34.607 5.297 38.14 73.804-.002 0-12.714-74.157-40.964-72.038z"/><path fill="#FFF" stroke="#000" stroke-width=".1" d="M361.273 537.514s-.354-3.179 2.824-1.766c3.179 1.412 46.613 7.416 88.282 64.622.002 0-62.856-64.975-91.106-62.856z"/><path fill="#FFF" stroke="#000" stroke-width=".1" d="M374.736 533.931s-.771-3.104 2.564-2.125c3.337.979 39.416-2.375 106.684 57.969 0-.002-81.529-61.699-109.248-55.844zm18.364-7.769s-.771-3.104 2.565-2.126c3.337.979 64.841 8.926 156.119 70.681 0 0-130.966-74.409-158.684-68.555z"/><path fill="#FFF" stroke="#000" stroke-width=".1" d="M321.723 505.732s-.353-3.18 2.825-1.767c3.179 1.412 97.464 6.003 151.14 53.322 0 .002-61.624-43.742-153.965-51.555zm-17.657 7.063s-.353-3.179 2.825-1.766c3.179 1.412 46.613 7.415 88.282 64.622.001 0-62.856-64.975-91.107-62.856zm108.24 5.226s-.997-3.037 2.403-2.308 65.321 4.147 160.88 59.049c0 .002-137.127-60.726-163.283-56.741z"/><path fill="#FFF" stroke="#000" stroke-width=".1" d="M427.138 513.785s-.998-3.039 2.402-2.309c3.401.729 65.322 4.147 160.88 59.049 0 0-136.066-61.433-163.282-56.74zm16.95-8.828s-.998-3.039 2.402-2.308c3.399.729 79.447 8.385 237.863 68.936.001 0-213.05-71.321-240.265-66.628z"/><path d="M247.566 517.032s9.182-.706 7.063 2.118-6.356 1.412-6.356 1.412l-.707-3.53zm54.382 24.719s9.181-.706 7.063 2.119c-2.119 2.825-6.356 1.412-6.356 1.412l-.707-3.531zm-15.538-.706s9.182-.706 7.063 2.119c-2.119 2.824-6.356 1.412-6.356 1.412l-.707-3.531zm-168.388-20.868s8.908 2.336 5.98 4.313c-2.926 1.978-6.469-.745-6.469-.745l.489-3.568zm3.532-16.95s8.908 2.336 5.98 4.313c-2.926 1.978-6.469-.745-6.469-.745l.489-3.568zm-12.713-7.769s8.908 2.336 5.98 4.312c-2.925 1.979-6.469-.744-6.469-.744l.489-3.568z"/><path fill="#CCC" d="M249.685 627.914s-2.825 0-9.888 3.531c-3.531 0-23.307 6.355-33.194 24.013 0 0 21.894-16.95 43.082-27.544zm154.875 163.58c.249.456.348 1.197.862 1.228 1.161.07 3.339.603 3.118-.521-1.497-7.604-3.041-16.319-10.338-19.51-1.129-.493-3.675.235-3.806 1.797-.225 2.69-.432 5.072.114 7.661.529 2.509 4.34 2.525 5.959.083 1.654 2.952 2.417 6.206 4.091 9.262zm-19.56 8.36c1.321 2.494 1.097 5.776 3.595 6.771 1.308.519 4.573-1.202 3.835-3.099-1.416-3.64-2.101-7.594-4.554-10.79-.353-.463.071-1.403-.212-1.982-1.048-2.154-3.07-3.452-5.556-2.871-1.97 3.891.058 7.648 2.744 10.666.242.267-.051.931.148 1.305zm-69.923-9.165c-.19-.666-.258-1.483.033-2.052.938-1.822 2.338-3.805 1.742-5.608-.613-1.864-2.585-1.543-3.731-.538-2.004 1.755-2.091 4.979-3.312 7.379-.347.682-.256 1.692-1.034 2.383-.838.744-1.613 3.435-1.444 4.442.094.553-.229 18.047.163 17.583 1.093-1.295 6.478-18.481 6.6-20.058.1-1.288 1.393-2.11.983-3.531zm-45.267-11.992c4.651-4.413 9.577-9.642 8.796-16.195-.205-1.723-3.339-.792-3.669.701-1.416 6.4-5.016 11.099-9.55 15.322-3.877 3.613-7.165 14.814-7.58 15.713 6.527-9.28 10.512-14.129 12.003-15.541zm-23.967-10.53c.923-.653.39-1.521.773-2.106 1.683-2.574 3.979-4.773 4.012-7.844.005-.489-.662-1.034-1.254-.639-.489.324-1.093.555-1.284.784-3.584 4.322-6.056 9.04-8.604 14.005-.323.63-2.343 8.56-1.79 8.756.422.148 3.459-7.232 3.83-7.434 2.23-1.21 2.251-4.062 4.317-5.522zm29.544 34.507c.784-1.534 3.567-3.656 3.367-5.226-.208-1.64.618-4.188-.992-2.973-2.22 1.675-8.309 4.057-8.786 14.312-.046 1.008 5.206-3.747 6.411-6.113zm25.502-30.33c.706-1.179 1.956-.344 2.767-.809 1.144-.656 2.223-1.643 2.738-2.788 1.713-3.794 4.836-7.008 5.089-11.234-2.634-2.479-3.831 1.121-4.944 2.825-2.336-2.908-4.1.4-6.395 1.316-.124.05-.5-.563-.632-.516-2.078.776-3.279 2.687-5.041 4.064-.302.236-1.017-.082-1.276.158-1.151 1.064-2.869 1.639-3.364 2.843-1.959 4.78-7.504 8.479-10.835 21.795.672 1.604 7.966-11.728 8.826-12.959 1.476-2.112 1.685 2.933 3.938 1.757.09-.048.418.372.655.608.342-.494.727-.898 1.413-.706 0-.706-.237-1.688.118-1.969 2.184-1.726 2.036-3.61 3.413-5.801.807 1.396 2.68.127 3.53 1.416zm105.585 96.051s13.066-36.019 5.298-55.794c0 0 20.129 38.139 12.007 57.913 0 0-.706-18.361-7.77-27.189 0-.002-7.063 22.598-9.535 25.07zm-26.131-4.59s9.534-15.538-4.591-48.024c0 0-1.413 36.019-13.419 55.439 0 0 25.072-35.666 18.01-7.415zm-17.657-3.532s-.353-35.313.354-40.61c0 0-6.709 29.31-24.719 46.26-.001 0 25.424-21.188 24.365-5.65zm-16.95-56.502s10.594 24.014-7.063 56.502c0 0 11.301-21.541 2.825-33.9 0 0 4.591-6.004 4.238-22.602zm-33.9 55.795s-1.766-27.545 1.412-31.429c0 0 .354-11.301-.354-13.065 0 0 7.063-10.946 7.416 2.119 0 0 2.473 13.771 7.416 21.894 0 0 6.356 9.535 6.003 20.835 0 0-17.656-53.322-21.893-.354zm-6.357-48.731s-11.653 19.069-14.831 52.616c0 0-2.472-10.947 4.237-36.372 0 0 7.416-27.191 10.594-16.244zm-38.491 34.96s8.828-9.535 11.3-18.363c0 0 6.356-27.896-4.943-12.712 0 0 .353 14.125-14.125 27.19-.001 0 8.474-4.237 7.768 3.885zm-10.24-8.828s6.003-30.723 7.416-32.135c0 0 3.178-6.003-1.766-.354 0 0-15.538 33.9-22.6 45.555-.001-.001 14.124-16.245 16.95-13.066zm-10.241-29.31s20.481-39.552-18.01 6.003c0 0 19.422-17.304 18.01-6.003zm-27.191-25.778s8.475-33.193 13.065-32.842c0 0 14.479-15.891 2.825 2.825 0 0-10.594 16.95-9.535 34.254.001 0-1.058-16.95-6.355-4.237zm583.192-20.131s-21.188-17.656-25.602-23.836c0 0 23.836 32.664 23.836 45.023 0 .003 4.414-13.242 1.766-21.187zm9.711-38.844s-37.078-26.484-43.259-39.728c0 0 46.79 52.086 46.79 60.031 0 .002.883-15.889-3.531-20.303zm30.015-271.909s-21.188-14.125-23.836-10.594c0 0 18.539 11.477 22.952 26.483.002.002-2.647-15.889.884-15.889zm15.008 142.135l-30.898-21.188s33.547 30.017 34.431 37.079l-3.533-15.891z"/><path stroke="#000" d="M167.317 553.402l38.844 8.387m49.88 277.649s-.883-6.181-16.773 12.358m26.484-3.531s3.531-11.477-7.946-3.53m103.291 18.536s2.648-19.422-17.655 3.531"/></svg>