<?xml version="1.0" encoding="utf-8"?>
<!-- Generator: Adobe Illustrator 19.2.0, SVG Export Plug-In . SVG Version: 6.00 Build 0)  -->
<svg version="1.1" id="Ebene_1" xmlns="http://www.w3.org/2000/svg" xmlns:xlink="http://www.w3.org/1999/xlink" x="0px" y="0px"
	 viewBox="0 0 120 20" style="enable-background:new 0 0 120 20;" xml:space="preserve">
<style type="text/css">
	.st0{fill:none;stroke:#E6DCC3;stroke-width:3.1181;stroke-linecap:round;stroke-linejoin:round;stroke-miterlimit:10;}
</style>
<path class="st0" d="M10.9,13c4.9,0,4.9-6,9.8-6c4.9,0,4.9,6,9.8,6c4.9,0,4.9-6,9.8-6c4.9,0,4.9,6,9.8,6c4.9,0,4.9-6,9.8-6
	c4.9,0,4.9,6,9.8,6c4.9,0,4.9-6,9.8-6c4.9,0,4.9,6,9.8,6c4.9,0,4.9-6,9.8-6s4.9,6,9.8,6"/>
</svg>
